<svg width="34" height="18" viewBox="0 0 34 18" fill="none" xmlns="http://www.w3.org/2000/svg">
<path d="M4.82812 11.8828H9.82031L7.34766 4.41797H7.30078L4.82812 11.8828ZM11.8828 18L10.5586 14.1797H4.07812L2.76562 18H0.0234375L6.23438 0.914062H8.40234L14.6133 18H11.8828ZM19.043 3.36328V8.88281H22.875C23.8359 8.87109 24.5508 8.57812 25.043 7.99219C25.5 7.42969 25.7344 6.80859 25.7344 6.11719C25.7344 5.55469 25.6406 5.07422 25.4531 4.67578C25.2539 4.32422 24.9844 4.05469 24.6328 3.84375C24.0938 3.51562 23.4844 3.35156 22.7812 3.36328H19.043ZM16.4531 18V0.914062H22.6406C23.3086 0.914062 23.9531 0.984375 24.5859 1.10156C25.207 1.26562 25.8398 1.60547 26.4844 2.10938C27.0234 2.49609 27.457 3.04688 27.7969 3.75C28.1484 4.44141 28.3242 5.25 28.3242 6.1875C28.3242 7.45312 27.8789 8.61328 26.9883 9.64453C26.0742 10.7461 24.7383 11.3086 22.9805 11.332H19.043V18H16.4531ZM30.6797 18V0.914062H33.2695V18H30.6797Z" fill="#800080"/>
</svg>
