<svg width="46" height="23" viewBox="0 0 46 23" fill="none" xmlns="http://www.w3.org/2000/svg">
<path d="M0.390625 23L8.76562 0.21875H10.8125L19.1719 23H16.5781L14.75 17.8438H4.79688L2.96875 23H0.390625ZM5.53125 15.7344H14.0469L9.82812 3.70312L5.53125 15.7344ZM22.8594 23V0.21875H31.3438C32.375 0.21875 33.3229 0.375 34.1875 0.6875C35.0521 0.989583 35.7969 1.44271 36.4219 2.04688C37.0573 2.64062 37.5417 3.34375 37.875 4.15625C38.2083 4.95833 38.375 5.875 38.375 6.90625C38.375 7.9375 38.2083 8.85938 37.875 9.67188C37.5417 10.4844 37.0573 11.1927 36.4219 11.7969C35.7969 12.3906 35.0417 12.8438 34.1562 13.1562C33.2812 13.4688 32.3438 13.625 31.3438 13.625H25.2969V23H22.8594ZM25.2969 11.4531H31.1094C32.0677 11.4531 32.9115 11.2812 33.6406 10.9375C34.3698 10.5938 34.9375 10.0781 35.3438 9.39062C35.75 8.70312 35.9531 7.875 35.9531 6.90625C35.9531 5.9375 35.75 5.10938 35.3438 4.42188C34.9375 3.73438 34.3646 3.22396 33.625 2.89062C32.8958 2.55729 32.0573 2.39062 31.1094 2.39062H25.2969V11.4531ZM43.0156 23V0.21875H45.4531V23H43.0156Z" fill="white"/>
</svg>
