<svg width="549" height="828" viewBox="0 0 549 828" fill="none" xmlns="http://www.w3.org/2000/svg">
<path fill-rule="evenodd" clip-rule="evenodd" d="M374.698 0L374.176 243.499L371.254 250.798C369.584 254.761 366.244 261.122 363.843 264.877C361.338 268.631 357.059 273.741 354.241 276.139C351.423 278.642 346.517 282.292 343.386 284.169C340.255 286.046 334.619 288.757 324.077 292.511L134.119 293.033L68.3643 227.335H131.51V163.931C131.51 103.448 131.614 100.215 133.597 92.2897C134.85 87.7013 137.041 81.6529 138.607 78.733C140.173 75.9174 144.034 70.8076 147.27 67.262C150.506 63.8207 155.411 59.4408 158.229 57.668C161.047 55.7909 166.892 52.9753 178.999 48.4912L310.509 47.8655L312.492 42.4428C313.536 39.4186 316.04 34.2045 318.128 30.7632C320.215 27.3219 324.808 21.6907 328.252 18.2494C332.009 14.5995 337.854 10.3239 342.342 7.92544C346.622 5.63123 352.78 3.02418 355.911 1.98136C359.042 1.04282 364.574 0.104282 374.698 0V0ZM179.73 119.82C184.113 122.114 189.019 125.764 191.315 128.371C193.507 130.978 195.908 135.254 196.847 138.174C197.995 142.345 198.308 151.522 198.308 185.309V227.335H308.943V114.71C203.005 114.71 172.215 114.919 172.215 115.232C172.215 115.545 175.659 117.526 179.834 119.82H179.73Z" fill="#5B2870"/>
<path d="M21.9186 617.35V605.879V594.408H44.8806V617.35H66.7988V639.25H43.8368V617.35H21.9186V630.386L16.2825 624.65C13.0469 621.522 10.7507 618.602 10.9595 618.185C11.2726 617.663 13.7775 617.35 21.9186 617.35Z" fill="#97499A"/>
<path d="M62.102 577.723C60.1189 575.741 58.7621 573.656 59.0752 573.239C59.4927 572.822 61.1627 572.509 63.0414 572.717C65.6507 572.926 66.3813 573.552 66.59 575.637C66.7988 577.097 66.6944 578.974 66.2769 579.808C65.8594 581.06 64.9201 580.538 62.102 577.723Z" fill="#924696"/>
<path d="M44.3587 594.929L44.0455 583.771L43.7324 572.509H51.6647C55.944 572.509 59.2839 572.822 58.9708 573.343C58.7621 573.76 60.0146 575.637 61.8933 577.514C63.772 579.391 65.6507 580.539 66.0682 580.121C66.4857 579.6 66.7988 582.937 66.7988 595.451L44.3587 594.929Z" fill="#944797"/>
<path d="M139.65 435.899C139.129 435.899 138.815 419.005 138.815 398.357V360.816H204.57V426.514L178.79 426.826C154.784 427.035 152.593 427.244 148.731 429.329C146.435 430.476 143.617 432.458 142.468 433.709C141.32 434.961 140.068 436.003 139.65 435.899Z" fill="#0177B7"/>
<path d="M0 227.335L15.969 227.022C24.6319 226.918 31.938 226.605 32.0424 226.501C32.1468 226.396 32.0424 226.605 31.8336 227.126C31.6249 227.544 45.924 242.456 63.7717 260.184C81.515 278.016 96.0228 292.72 96.0228 293.033C96.0228 293.346 86.5249 293.45 53.7519 292.928L0 239.327V227.335Z" fill="#6A307A"/>
<path d="M31.3115 227.856L50.3073 227.335C60.849 227.022 69.5119 226.605 69.6163 226.501C69.7206 226.396 69.6163 226.605 69.4076 227.022L69.4075 227.022C69.1988 227.544 83.4978 242.352 101.346 260.184C119.089 278.016 133.597 292.72 133.597 293.033C133.597 293.346 125.247 293.45 96.5444 292.928L31.3115 227.856Z" fill="#5F2A73"/>
<path d="M0 269.569V254.449V239.328L26.615 265.92C41.2272 280.519 53.23 292.72 53.23 293.033C53.23 293.346 49.9945 293.45 45.924 293.346C41.5403 293.137 38.6179 293.45 38.6179 294.076C38.6179 294.701 40.8097 295.849 43.6278 296.579C46.5502 297.517 50.7251 300.124 54.1694 303.148C57.1962 305.86 60.8492 310.031 62.2061 312.325C63.5629 314.724 65.1285 319.938 65.7548 324.318C66.381 328.593 66.6941 332.869 66.2766 333.703C65.8591 334.85 56.1525 325.673 0 269.569Z" fill="#6F337E"/>
<path d="M0 298.768V284.169V269.569L32.5643 302.21C50.5163 320.146 65.6504 334.433 66.0679 334.016C66.4854 333.599 66.9028 339.751 66.9028 347.781C66.9028 355.811 66.4854 362.798 66.0679 363.215C65.546 363.632 50.5163 349.345 0 298.768Z" fill="#743681"/>
<path d="M0 324.839V311.803V298.768L32.5643 331.408C50.5163 349.345 65.6504 363.632 66.0679 363.214C66.4854 362.797 66.9028 368.22 66.9028 375.415C66.9028 382.611 66.4854 388.868 66.0679 389.285C65.546 389.702 50.5163 375.415 0 324.839Z" fill="#793984"/>
<path d="M0 349.867V337.353V324.839L32.5643 357.479C50.5163 375.416 65.6504 389.702 66.0679 389.285C66.4854 388.868 66.9028 394.082 66.9028 400.965C66.9028 407.847 66.4854 413.896 66.0679 414.313C65.546 414.73 50.5163 400.443 0 349.867Z" fill="#7C3A87"/>
<path d="M0 372.809V361.338V349.867L32.5643 382.507C50.5163 400.444 65.6504 414.73 66.0679 414.313C66.4854 413.896 66.9028 418.589 66.9028 424.95C66.9028 431.311 66.4854 436.838 66.0679 437.255C65.546 437.672 50.5163 423.386 0 372.809Z" fill="#803D8A"/>
<path d="M275.544 434.335V397.523L275.648 360.712L456.63 361.338L462.893 363.736C466.337 365.092 471.973 367.595 475.418 369.472C478.862 371.349 485.02 376.041 489.09 380.108C494.622 385.635 497.545 389.598 500.78 396.272C503.181 401.173 505.894 408.369 506.729 412.436C507.877 418.067 508.295 428.495 508.295 497.426L484.602 497.113C463.728 496.904 460.388 496.696 457.152 494.923C455.169 493.88 451.934 491.586 450.055 489.709C448.072 487.936 445.567 484.599 444.314 482.305C442.123 478.446 442.018 476.465 441.496 427.557H379.917C346.1 427.557 318.337 427.765 318.337 428.078C318.337 428.391 320.842 429.747 323.868 430.998C326.791 432.354 330.757 434.648 332.427 436.108C334.097 437.568 337.019 441.322 341.821 449.977L342.134 473.962C342.238 487.102 342.029 498.26 341.612 498.677C341.194 499.094 326.06 484.808 275.544 434.335Z" fill="#5B2870"/>
<path d="M0 390.537V381.673V372.809L32.5643 405.449C50.5163 423.385 65.6504 437.672 66.0679 437.255C66.4854 436.838 66.9028 440.383 66.9028 445.285C66.9028 450.186 66.4854 454.566 66.0679 454.983C65.546 455.4 50.5163 441.113 0 390.537Z" fill="#833E8C"/>
<path d="M0 415.564V403.05V390.537L32.5643 423.177C50.5163 441.113 65.6504 455.4 66.0679 454.983C66.4854 454.566 66.9028 459.78 66.9028 466.663C66.9028 473.545 66.4854 479.594 66.0679 480.011C65.546 480.428 50.5163 466.141 0 415.564Z" fill="#86408E"/>
<path d="M0 441.635V428.6V415.564L32.5643 448.205C50.5163 466.141 65.6504 480.428 66.0679 480.011C66.4854 479.594 66.7985 485.121 66.7985 492.42C66.7985 499.824 66.4854 505.977 66.0679 506.186C65.546 506.498 60.4317 501.91 54.4825 496.07C48.6376 490.23 43.7321 484.808 43.8365 484.182C43.8365 483.452 43.2103 482.826 42.584 482.826C41.8534 482.826 31.938 473.545 0 441.635Z" fill="#894290"/>
<path d="M275.544 471.877V453.94V453.836C275.544 444.033 275.857 435.899 276.379 435.899C276.796 435.899 291.409 450.186 308.943 467.601C326.478 485.121 341.09 499.199 341.612 498.886C342.029 498.677 342.342 506.916 342.342 517.239C342.342 527.563 342.029 536.219 341.612 536.427C341.09 536.74 326.06 522.245 275.544 471.877Z" fill="#5F2A73"/>
<path d="M0 462.491V452.063V441.635L20.3527 461.97C31.5205 473.128 40.7053 482.513 40.7053 482.826C40.7053 483.139 36.1129 483.243 20.3527 482.93L0 462.491Z" fill="#8C4392"/>
<path d="M0 489.605V476.048V462.491L10.646 473.232C16.5952 479.072 21.6051 483.765 21.9183 483.452C22.2314 483.243 22.3357 487.936 21.9183 504.725H42.2709L52.8125 515.362C58.6574 521.098 63.4586 526.103 63.5629 526.312C63.6673 526.416 59.2837 526.729 44.3584 527.146L44.0452 530.275C43.7321 533.299 43.5234 533.194 32.773 522.453C23.4838 513.068 21.9183 510.982 21.9183 508.167C21.9183 504.934 21.7095 504.725 18.5783 504.725C15.6559 504.725 13.8816 503.474 0 489.605Z" fill="#8F4593"/>
<path d="M275.544 514.632V494.089V493.984C275.544 482.722 275.857 473.441 276.379 473.441C276.796 473.441 291.409 487.728 308.943 505.143C326.478 522.662 341.09 536.74 341.612 536.427C342.029 536.219 342.342 545.604 342.342 557.388C342.342 569.172 342.029 578.974 341.612 579.183C341.09 579.496 326.06 565.001 275.544 514.632Z" fill="#6A307A"/>
<path d="M43.3145 505.768L43.6276 496.383C43.8363 491.273 44.2538 486.998 44.6713 486.998C45.0888 486.998 49.8899 491.377 55.3173 496.8C60.7447 502.223 65.5458 506.498 66.0677 506.29C66.4852 505.977 66.7983 506.603 66.7983 507.541C66.7983 508.584 66.2764 512.442 65.6502 516.197C65.1283 519.951 64.189 523.392 63.5627 524.018C62.9365 524.748 59.2835 521.724 43.3145 505.768Z" fill="#8C4392"/>
<path d="M0 504.725V497.217V489.604L7.30608 496.904C11.3766 500.971 14.6122 504.413 14.6122 504.725C14.6122 505.038 11.3766 505.143 0 504.725Z" fill="#924696"/>
<path d="M158.856 501.284C160.734 500.241 164.387 498.781 166.997 497.947C169.606 497.217 172.215 496.487 172.737 496.487C173.363 496.383 173.781 496.696 173.572 497.113C173.468 497.634 180.043 504.621 188.184 512.859C196.325 520.993 203.318 527.355 203.84 526.937C204.258 526.52 204.675 531.734 204.675 538.617C204.675 545.5 204.258 551.548 203.84 551.965C203.423 552.382 192.359 542.058 179.208 529.023C166.162 515.988 155.516 504.83 155.516 504.204C155.516 503.578 157.081 502.327 158.856 501.284Z" fill="#7C3A87"/>
<path d="M188.184 512.859C180.043 504.621 173.572 497.634 173.885 497.217V497.113C174.198 496.696 180.252 496.383 187.349 496.383C194.551 496.383 200.082 496.8 199.769 497.321C199.352 497.738 199.978 498.99 201.022 499.928C202.17 500.867 203.422 501.284 203.84 500.867C204.257 500.346 204.675 505.872 204.675 513.068C204.675 520.263 204.257 526.52 203.84 526.937C203.422 527.355 196.325 520.993 188.184 512.859Z" fill="#793984"/>
<path d="M201.23 499.824C200.187 498.781 199.665 497.634 199.978 497.217V497.113C200.291 496.696 201.439 496.383 202.483 496.383C203.735 496.383 204.57 497.113 204.57 498.156C204.57 499.198 204.257 500.346 203.84 500.867C203.318 501.284 202.17 500.763 201.23 499.824Z" fill="#743681"/>
<path d="M145.496 513.381C146.54 511.817 148.836 509.001 150.714 507.124C152.489 505.247 154.159 503.787 154.263 503.787C154.472 503.683 165.535 514.736 178.791 528.189C192.15 541.641 203.318 552.382 203.736 552.174C204.258 551.861 204.571 556.866 204.571 563.123C204.571 569.38 204.258 574.803 203.736 575.012C203.318 575.324 189.645 562.185 143.513 516.301L145.496 513.381Z" fill="#803D8A"/>
<path d="M21.9187 526.625V519.117V511.504L32.5647 522.245C38.5139 528.085 43.5238 532.777 43.8369 532.465C44.15 532.256 44.2544 535.697 44.0457 540.286C43.8369 547.898 43.9413 548.524 45.9244 548.524C47.0725 548.524 48.2206 548.837 48.5337 549.254C48.7424 549.775 47.3856 551.757 41.7495 557.388L27.2417 542.789C19.205 534.759 12.8382 527.876 13.047 527.355C13.3601 526.938 15.4476 526.625 21.9187 526.625Z" fill="#924696"/>
<path d="M139.024 528.919C138.92 528.502 139.755 525.373 141.007 521.932L143.199 515.675L173.154 545.708C189.541 562.185 203.422 575.324 203.84 574.907C204.257 574.49 204.57 577.931 204.57 591.279H212.92C217.513 591.279 221.061 591.592 220.853 592.114C220.539 592.531 234.63 607.13 252.164 624.65C269.595 642.169 283.894 656.769 283.894 657.29C283.894 657.707 280.241 658.02 267.716 658.02L203.527 593.886C168.249 558.639 139.233 529.336 139.024 528.919Z" fill="#833E8C"/>
<path d="M275.544 544.874V530.587V530.483C275.544 522.662 275.857 516.196 276.275 516.196C276.796 516.196 291.409 530.483 308.943 547.898C326.478 565.417 341.09 579.496 341.507 579.183C342.029 578.974 342.342 581.581 342.342 591.279H348.605C352.049 591.279 354.658 591.592 354.45 592.009C354.137 592.531 368.227 607.13 385.761 624.65C403.192 642.169 417.491 656.769 417.491 657.186C417.491 657.707 411.02 658.02 388.788 658.02L275.544 544.874Z" fill="#6F337E"/>
<path d="M0 549.567V538.096V526.625H6.78422C10.5416 526.625 13.3597 526.937 13.0466 527.354C12.8378 527.876 19.2046 534.759 27.2413 542.788C37.261 552.904 41.3316 557.596 40.4966 558.222C39.766 558.639 35.3823 560.933 22.4401 567.399L21.9183 549.567H0Z" fill="#944797"/>
<path d="M137.771 543.831C137.771 538.617 138.085 533.299 138.398 531.839C139.024 529.441 144.764 534.967 202.587 592.844C237.552 627.779 266.15 656.769 266.15 657.186C266.15 657.708 260.827 658.02 242.666 658.02L137.771 553.217V543.831Z" fill="#86408E"/>
<path d="M275.544 574.073V560.308C275.544 552.695 275.857 546.438 276.379 546.438C276.796 546.438 301.846 571.153 332.218 601.499C362.486 631.741 387.223 656.769 387.223 657.29C387.223 657.707 380.96 658.02 359.564 658.02L275.544 574.073Z" fill="#743681"/>
<path d="M137.771 579.287V567.086C137.771 560.308 138.085 554.781 138.606 554.781C139.024 554.781 162.195 577.619 190.271 605.67C218.243 633.618 241.1 656.769 241.1 657.29C241.1 657.707 235.569 658.02 216.573 658.02L137.771 579.287Z" fill="#894290"/>
<path d="M275.544 591.28V583.458C275.544 579.183 275.857 575.637 276.379 575.637C276.796 575.637 295.27 593.782 317.606 616.099C339.837 638.311 357.998 656.769 357.998 657.29C357.998 657.707 352.466 658.02 333.471 658.02L301.115 625.797C283.267 608.069 268.864 593.157 268.968 592.739C269.073 592.218 270.638 591.697 275.544 591.28Z" fill="#793984"/>
<path d="M137.771 600.144V590.55C137.771 585.231 138.085 580.852 138.606 580.852C139.024 580.852 156.35 597.85 177.224 618.706C197.994 639.458 215.007 656.769 215.007 657.29C215.007 657.707 212.607 658.02 209.789 658.02C204.779 658.02 204.57 658.125 204.257 661.149C204.152 662.922 203.631 664.486 203.109 664.59C202.691 664.694 187.766 650.199 137.771 600.144Z" fill="#8C4392"/>
<path d="M252.895 625.484C235.047 607.548 220.54 592.531 220.853 592.114C221.166 591.593 226.489 591.28 232.751 591.28C239.118 591.28 244.023 591.697 243.71 592.114C243.397 592.635 257.487 607.235 275.022 624.754C292.557 642.169 306.856 656.769 306.856 657.29C306.856 657.707 302.055 658.02 285.459 658.02L252.895 625.484Z" fill="#803D8A"/>
<path d="M275.857 625.484C258.009 607.548 243.501 592.531 243.815 592.114C244.128 591.593 249.973 591.28 256.757 591.28C263.645 591.28 269.073 591.697 268.76 592.114C268.551 592.635 282.641 607.235 300.071 624.754C317.606 642.169 331.905 656.769 331.905 657.29C331.905 657.707 326.582 658.02 308.421 658.02L275.857 625.484Z" fill="#7C3A87"/>
<path d="M386.492 625.484C368.644 607.548 354.136 592.531 354.449 592.114C354.762 591.593 364.573 591.28 376.263 591.28C388.057 591.28 397.451 591.593 397.242 592.114C396.929 592.531 411.019 607.131 428.554 624.65C445.984 642.169 460.283 656.769 460.283 657.29C460.283 657.707 450.994 658.02 419.056 658.02L386.492 625.484Z" fill="#6A307A"/>
<path d="M429.285 625.484C411.437 607.548 396.929 592.531 397.242 592.114C397.555 591.593 406.218 591.28 416.447 591.28C426.78 591.28 435.025 591.593 434.816 592.114C434.503 592.531 448.594 607.131 466.128 624.65C483.558 642.169 497.857 656.769 497.857 657.29C497.857 657.707 489.716 658.02 461.849 658.02L429.285 625.484Z" fill="#5F2A73"/>
<path d="M466.859 625.484C449.011 607.548 434.608 592.427 434.921 592.01C435.234 591.593 455.9 591.28 480.949 591.488L481.251 591.49C525.937 591.801 526.674 591.806 531.048 594.095C533.449 595.451 537.102 598.058 539.189 599.831C541.277 601.708 544.199 605.879 545.66 609.008C548.374 614.535 548.478 615.369 549 658.02H499.423L466.859 625.484Z" fill="#5B2870"/>
<path d="M137.771 627.257V614.535C137.771 607.444 138.085 601.708 138.606 601.708C139.024 601.708 153.636 615.995 171.171 633.41C188.705 650.929 203.317 665.007 203.839 664.694C204.257 664.486 204.57 670.43 204.57 677.834C204.57 685.342 204.257 691.599 203.839 691.808C203.317 692.121 188.288 677.625 137.771 627.257Z" fill="#8F4593"/>
<path d="M0 640.292V628.821V617.35H5.74049C8.87167 617.35 11.2722 617.663 10.9591 618.184C10.7504 618.601 12.9422 621.417 15.969 624.441C18.9958 627.465 21.6051 629.76 21.9183 629.447C22.2314 629.238 22.3357 631.532 21.9183 640.292H0Z" fill="#9B4B9C"/>
<path d="M137.771 653.328V641.127C137.771 634.348 138.085 628.821 138.606 628.821C139.024 628.821 153.636 643.108 171.171 660.523C188.705 678.042 203.317 692.121 203.839 691.808C204.257 691.599 204.57 697.23 204.57 704.426C204.57 711.621 204.257 717.67 203.839 717.878C203.317 718.191 188.288 703.696 137.771 653.328Z" fill="#924696"/>
<path d="M137.771 688.783V671.89C137.771 662.504 138.085 654.892 138.606 654.892C139.024 654.892 153.636 669.178 171.171 686.593C188.705 704.113 203.317 718.191 203.839 717.878C204.257 717.669 204.57 725.491 204.57 735.189C204.57 744.991 204.257 753.125 203.839 753.334C203.317 753.647 188.288 739.152 137.771 688.783Z" fill="#944797"/>
<path d="M491.595 805.058V777.944V750.831H506.207V771.687H520.819V750.831H535.431V805.058H520.819V784.201H506.207V805.058H491.595Z" fill="#0177B7"/>
<path d="M401.835 805.058V777.944V750.831H439.409L438.887 762.823L416.447 763.345V771.687H435.234V783.159H416.447V792.544L438.887 793.065L439.409 805.058H401.835Z" fill="#0177B7"/>
<path d="M354.867 763.345V757.088V750.831H398.704V763.345H384.092V805.058H369.479V763.345H354.867Z" fill="#0177B7"/>
<path d="M305.812 805.058V777.945L305.916 750.727L319.797 751.353L335.558 781.177L335.975 750.831H349.648V805.058H335.036L319.38 775.338V805.058H305.812Z" fill="#0177B7"/>
<path d="M282.85 805.058V777.944V750.831H297.462V805.058H282.85Z" fill="#0177B7"/>
<path d="M239.014 805.058V777.944V750.831H276.588L276.066 762.823L253.626 763.345V772.73H272.413V784.201H253.626V805.058H239.014Z" fill="#0177B7"/>
<path d="M448.489 760.217C450.785 755.628 452.351 753.96 456.108 752.083C459.344 750.519 462.684 749.789 466.754 749.789C470.094 749.789 474.373 750.414 476.148 751.144C478.026 751.978 481.158 754.273 482.932 756.358C484.811 758.548 486.376 760.947 486.376 761.781C486.376 762.615 483.871 764.492 474.895 768.559L471.764 765.431C470.094 763.658 467.902 762.302 467.067 762.302C466.128 762.302 464.249 763.45 462.892 764.909C460.492 767.308 460.283 768.247 460.283 777.945C460.283 787.643 460.492 788.582 462.892 790.98C464.354 792.44 466.232 793.587 467.172 793.587C468.007 793.587 470.198 792.127 474.895 787.33L480.636 789.937C483.871 791.397 486.376 793.274 486.376 794.108C486.376 794.943 484.811 797.341 482.932 799.531C481.158 801.617 478.026 803.911 476.148 804.745C474.373 805.475 470.094 806.101 466.859 806.101C462.684 806.101 459.344 805.371 456.108 803.807C452.351 801.93 450.785 800.261 448.489 795.673C445.88 790.354 445.671 788.999 445.671 777.945C445.671 766.891 445.88 765.535 448.489 760.217Z" fill="#0177B7"/>
<path d="M528.125 733.103V712.247V691.391H535.431V733.103H528.125Z" fill="#B2B2B2"/>
<path fill-rule="evenodd" clip-rule="evenodd" d="M489.717 691.182L501.615 691.599C513.409 691.912 513.514 691.912 520.298 698.69V725.803L513.514 732.582L489.508 733.103L489.717 691.182ZM496.814 725.803C506.938 725.803 508.817 725.282 510.382 723.718C511.635 722.466 512.783 719.546 513.096 716.626C513.514 713.915 513.514 709.744 513.096 707.241C512.783 704.843 511.53 701.923 510.382 700.776C508.817 699.211 506.938 698.69 502.554 698.69H496.814V725.803Z" fill="#B2B2B2"/>
<path d="M451.411 726.847C450.263 724.448 449.846 719.86 449.846 707.554V691.391H457.152L457.361 707.137C457.674 722.571 457.778 722.884 460.283 724.865C461.744 726.012 464.04 726.951 465.502 726.951C466.963 726.951 469.259 726.012 470.72 724.865C473.326 722.886 473.33 722.572 473.642 691.504L473.643 691.391H481.157V707.554C481.157 719.86 480.74 724.448 479.592 726.847C478.757 728.515 476.461 730.914 474.686 732.061C472.286 733.521 469.363 734.146 465.502 734.146C461.64 734.146 458.717 733.521 456.421 732.061C454.542 730.914 452.246 728.515 451.411 726.847Z" fill="#B2B2B2"/>
<path fill-rule="evenodd" clip-rule="evenodd" d="M422.187 691.286L430.537 691.912L437.53 711.725C441.392 722.675 444.523 731.852 444.523 732.373C444.627 732.79 442.853 733.103 440.661 733.103C437.008 733.103 436.695 732.895 434.19 724.761L418.012 725.282L416.968 729.245C416.029 732.895 415.612 733.103 411.958 733.103C409.871 733.103 408.097 732.79 408.097 732.373C408.097 731.852 411.228 722.466 415.09 711.413L422.187 691.286ZM423.961 709.118C422.709 712.873 421.665 716.21 421.665 716.627C421.665 717.044 423.857 717.461 426.362 717.461C430.746 717.461 431.059 717.252 430.432 715.062C430.015 713.811 428.971 710.37 428.032 707.554L426.258 702.34L423.961 709.118Z" fill="#B2B2B2"/>
<path d="M313.118 733.103V712.247V691.39L320.946 691.286L326.582 703.591C329.713 710.37 332.218 716.001 332.323 716.105C332.427 716.314 335.036 710.787 343.908 691.286L351.736 691.39V733.103H344.43L344.326 708.597L339.629 718.191C335.663 726.638 334.723 727.889 332.427 727.889C330.131 727.889 329.192 726.638 320.529 708.597L320.424 733.103H313.118Z" fill="#B2B2B2"/>
<path d="M279.719 698.69V695.04V691.391H306.855V695.04C306.855 697.856 304.872 701.61 289.112 725.282L306.855 725.804V733.103H278.675V729.975C278.675 727.785 281.493 722.675 297.462 698.69H279.719Z" fill="#B2B2B2"/>
<path fill-rule="evenodd" clip-rule="evenodd" d="M253.104 691.286L261.454 691.912L268.447 711.725C272.309 722.675 275.44 731.852 275.44 732.373C275.544 732.79 273.77 733.103 271.578 733.103C267.925 733.103 267.612 732.895 265.107 724.761L248.929 725.282L247.885 729.245C246.946 732.895 246.528 733.103 242.875 733.103C240.788 733.103 239.014 732.79 239.014 732.373C239.014 731.852 242.145 722.466 246.007 711.413L253.104 691.286ZM254.878 709.118C253.626 712.873 252.582 716.21 252.582 716.627C252.582 717.044 254.774 717.461 257.279 717.461C261.663 717.461 261.976 717.252 261.349 715.062C260.932 713.811 259.888 710.37 258.949 707.554L257.175 702.34L254.878 709.118Z" fill="#B2B2B2"/>
<path d="M377.516 694.102C378.351 693.059 380.021 691.807 381.273 691.286C382.526 690.869 386.074 690.452 388.997 690.452C392.546 690.347 395.99 691.077 398.704 692.433C402.148 694.206 402.67 694.832 401.835 696.396C401.313 697.334 400.478 698.794 400.06 699.524C399.33 700.671 398.599 700.671 395.781 699.316C394.007 698.377 390.771 697.647 388.788 697.647C385.97 697.647 384.718 698.273 383.256 700.359C381.482 703.07 381.586 703.174 384.091 705.364C385.657 706.72 388.997 707.971 392.441 708.493C396.72 709.118 398.912 710.057 401 712.351C403.4 714.854 403.922 716.314 403.922 720.902C403.922 724.448 403.296 727.159 402.148 728.828C401.104 730.287 398.704 732.06 396.825 732.79C395.05 733.52 390.98 734.146 387.953 734.146C384.404 734.146 380.96 733.416 377.829 731.852C375.324 730.496 373.132 728.932 372.923 728.41C372.819 727.889 373.55 726.22 376.681 722.153L380.647 724.448C382.839 725.699 386.388 726.742 388.475 726.846C391.084 726.846 393.172 726.116 394.529 724.761C395.677 723.613 396.616 722.153 396.616 721.632C396.616 721.111 395.781 719.755 394.737 718.712C393.798 717.669 390.145 716.314 386.701 715.584C382.317 714.749 379.603 713.602 377.62 711.517C375.95 709.952 374.489 707.137 374.176 705.468C373.863 703.8 374.072 700.88 374.698 699.211C375.324 697.543 376.577 695.249 377.516 694.102Z" fill="#B2B2B2"/>
<path d="M0 684.091V672.619V661.148H21.9183V683.048H44.8802L44.3584 705.468L21.9183 705.99V684.091H0Z" fill="#9B4B9C"/>
<path d="M138.085 747.181L137.876 718.817C137.876 703.174 138.085 690.348 138.607 690.348C139.024 690.348 153.636 704.634 171.171 722.049C188.705 739.569 203.422 753.543 203.944 753.125C204.57 752.708 204.779 756.358 204.361 762.824C203.944 769.706 202.796 776.068 201.021 781.595C199.56 786.183 196.951 792.336 192.15 800.365L138.085 747.181Z" fill="#97499A"/>
<path d="M137.771 828L137.876 787.747C137.98 765.639 138.398 747.703 138.92 747.911C139.441 748.12 151.549 760.008 191.941 800.365L190.062 802.972C189.018 804.432 185.679 807.874 182.547 810.585C179.416 813.296 173.154 817.468 168.561 819.658C163.969 821.952 157.394 824.455 153.949 825.289C150.505 826.123 145.495 827.062 137.771 828Z" fill="#9B4B9C"/>
</svg>
