<svg width="40" height="40" viewBox="0 0 40 40" fill="none" xmlns="http://www.w3.org/2000/svg">
<path d="M11.5543 15.3829L6.01325 19.9999L11.5543 24.6169C11.738 24.7675 11.8902 24.953 12.0019 25.1627C12.1136 25.3724 12.1827 25.6021 12.2052 25.8386C12.2277 26.0751 12.2032 26.3138 12.133 26.5407C12.0628 26.7677 11.9484 26.9786 11.7964 27.1611C11.6443 27.3437 11.4576 27.4943 11.247 27.6044C11.0365 27.7144 10.8062 27.7817 10.5695 27.8023C10.3328 27.8229 10.0944 27.7965 9.86794 27.7245C9.64152 27.6525 9.43159 27.5364 9.25025 27.3829L2.05025 21.3829C1.84747 21.214 1.68432 21.0025 1.57235 20.7635C1.46038 20.5245 1.40234 20.2638 1.40234 19.9999C1.40234 19.736 1.46038 19.4753 1.57235 19.2363C1.68432 18.9973 1.84747 18.7858 2.05025 18.6169L9.25025 12.6169C9.61756 12.3159 10.0889 12.1722 10.5617 12.2172C11.0345 12.2622 11.4703 12.4922 11.7742 12.8571C12.0782 13.222 12.2256 13.6922 12.1844 14.1653C12.1432 14.6384 11.9167 15.076 11.5543 15.3829ZM37.9543 18.6169L30.7543 12.6169C30.5729 12.4634 30.363 12.3473 30.1366 12.2753C29.9101 12.2033 29.6717 12.1769 29.435 12.1975C29.1983 12.2181 28.9681 12.2854 28.7575 12.3954C28.5469 12.5055 28.3602 12.6561 28.2082 12.8387C28.0561 13.0212 27.9417 13.2321 27.8715 13.4591C27.8013 13.686 27.7768 13.9247 27.7993 14.1612C27.8218 14.3977 27.8909 14.6274 28.0026 14.8371C28.1144 15.0468 28.2665 15.2323 28.4503 15.3829L33.9913 19.9999L28.4503 24.6169C28.2665 24.7675 28.1144 24.953 28.0026 25.1627C27.8909 25.3724 27.8218 25.6021 27.7993 25.8386C27.7768 26.0751 27.8013 26.3138 27.8715 26.5407C27.9417 26.7677 28.0561 26.9786 28.2082 27.1611C28.3602 27.3437 28.5469 27.4943 28.7575 27.6044C28.9681 27.7144 29.1983 27.7817 29.435 27.8023C29.6717 27.8229 29.9101 27.7965 30.1366 27.7245C30.363 27.6525 30.5729 27.5364 30.7543 27.3829L37.9543 21.3829C38.157 21.214 38.3202 21.0025 38.4322 20.7635C38.5441 20.5245 38.6022 20.2638 38.6022 19.9999C38.6022 19.736 38.5441 19.4753 38.4322 19.2363C38.3202 18.9973 38.157 18.7858 37.9543 18.6169ZM25.4173 5.1079C25.1951 5.0271 24.9591 4.99086 24.7229 5.00125C24.4867 5.01165 24.2549 5.06848 24.0406 5.16849C23.8264 5.2685 23.634 5.40974 23.4743 5.58414C23.3147 5.75854 23.191 5.96268 23.1103 6.1849L13.5103 32.5849C13.3475 33.0335 13.3696 33.5283 13.5715 33.9606C13.7735 34.3929 14.1388 34.7273 14.5873 34.8904C14.7841 34.9631 14.9924 35.0001 15.2023 34.9999C15.5718 35 15.9325 34.8863 16.2352 34.6743C16.5379 34.4623 16.768 34.1622 16.8943 33.8149L26.4943 7.4149C26.5751 7.19271 26.6113 6.95677 26.6009 6.72057C26.5905 6.48437 26.5337 6.25253 26.4337 6.03829C26.3337 5.82406 26.1924 5.63162 26.018 5.47199C25.8436 5.31235 25.6395 5.18863 25.4173 5.1079Z" fill="white"/>
</svg>
