<svg width="62" height="62" viewBox="0 0 62 62" fill="none" xmlns="http://www.w3.org/2000/svg">
<rect x="3.5" y="3.5" width="55" height="55" rx="27.5" fill="#FEF9C3"/>
<g clip-path="url(#clip0_1261_4982)">
<path d="M32.5953 20.5447C32.4344 20.2645 32.2025 20.0317 31.9229 19.8698C31.6432 19.7079 31.3259 19.6227 31.0028 19.6227C30.6797 19.6227 30.3623 19.7079 30.0827 19.8698C29.8031 20.0317 29.5711 20.2645 29.4103 20.5447L18.2676 39.5036C17.525 40.7679 18.4155 42.375 19.8601 42.375H42.1438C43.5884 42.375 44.4805 40.7662 43.7363 39.5036L32.5953 20.5447ZM30.9995 26.125C31.8689 26.125 32.5498 26.8757 32.462 27.7419L31.8933 33.4407C31.8742 33.6646 31.7717 33.8732 31.6062 34.0252C31.4407 34.1771 31.2242 34.2615 30.9995 34.2615C30.7748 34.2615 30.5583 34.1771 30.3928 34.0252C30.2273 33.8732 30.1249 33.6646 30.1058 33.4407L29.537 27.7419C29.5166 27.5375 29.5392 27.3311 29.6034 27.136C29.6676 26.9409 29.7719 26.7614 29.9097 26.6091C30.0475 26.4568 30.2156 26.335 30.4033 26.2516C30.591 26.1683 30.7941 26.1251 30.9995 26.125ZM31.0028 35.875C31.4337 35.875 31.8471 36.0462 32.1518 36.3509C32.4566 36.6557 32.6278 37.069 32.6278 37.5C32.6278 37.931 32.4566 38.3443 32.1518 38.649C31.8471 38.9538 31.4337 39.125 31.0028 39.125C30.5718 39.125 30.1585 38.9538 29.8537 38.649C29.549 38.3443 29.3778 37.931 29.3778 37.5C29.3778 37.069 29.549 36.6557 29.8537 36.3509C30.1585 36.0462 30.5718 35.875 31.0028 35.875Z" fill="#EAB308"/>
</g>
<rect x="3.5" y="3.5" width="55" height="55" rx="27.5" stroke="#FEFCE8" stroke-width="7"/>
<defs>
<clipPath id="clip0_1261_4982">
<rect width="26" height="26" fill="white" transform="translate(18 18)"/>
</clipPath>
</defs>
</svg>
