<svg width="201" height="88" viewBox="0 0 201 88" fill="none" xmlns="http://www.w3.org/2000/svg">
<g clip-path="url(#clip0_388_6687)">
<path d="M11.3362 81.9679C10.5251 82.5447 9.54998 82.8376 8.55929 82.8019C6.95867 82.8019 5.75769 82.2681 4.95636 81.1526C4.10352 80.1101 3.70388 78.5943 3.70388 76.6219C3.70388 74.5703 4.10352 73.0211 4.95636 71.9599C5.80919 70.8986 7.05961 70.3899 8.66435 70.3899C9.81795 70.3899 10.7449 70.6421 11.4433 71.1738C11.7913 71.5348 12.0867 71.9441 12.3208 72.3894C12.4717 72.7345 12.7218 73.0255 13.0386 73.2245C13.3554 73.4235 13.7241 73.5212 14.0966 73.5049H16.3626C16.1854 71.4532 15.4603 69.8561 14.1584 68.7427C12.8056 67.5765 10.9777 66.9934 8.67465 66.9934C5.84627 66.9934 3.6977 67.8274 2.1939 69.4766C0.729928 71.0751 -0.0013714 73.4583 1.93064e-06 76.6261C1.93064e-06 79.7411 0.702461 82.07 2.12798 83.6651C3.5535 85.3143 5.62998 86.1483 8.35741 86.1483C10.6921 86.1483 12.5701 85.5659 13.9915 84.4011C15.3944 83.1855 16.1689 81.5384 16.3461 79.4367H12.739C12.465 80.6001 11.9871 81.4383 11.3362 81.9679Z" fill="#494949"/>
<path d="M31.1327 74.5224C30.552 73.2496 29.5009 72.2583 28.2055 71.7619C27.0807 71.3303 25.7767 71.2281 24.3512 71.4074C22.9954 71.575 21.7484 72.2432 20.8492 73.2839C20.273 73.9793 19.8514 74.7921 19.6132 75.6671C19.3532 76.599 19.2147 77.5614 19.2012 78.5298C19.2122 79.6697 19.3779 80.8027 19.6935 81.897C19.9684 82.8838 20.515 83.7711 21.2694 84.4553C22.0653 85.1384 23.0229 85.6004 24.0484 85.796C25.1943 86.0766 26.3926 86.0507 27.5257 85.7209C28.8296 85.4416 29.8802 84.7076 30.7289 83.5651C31.4808 82.4266 32.0309 80.8316 32.0309 78.5777C32.0661 77.1717 31.7576 75.7786 31.1327 74.5224ZM27.8038 81.6885C27.3815 82.314 26.9056 82.731 26.3618 82.8791C25.846 83.0536 25.2857 83.0359 24.7817 82.829C24.2585 82.6205 23.8836 82.3995 23.6838 82.1181C23.1564 81.4926 22.8598 80.3708 22.7815 78.7487C22.7032 77.1266 23.0555 75.9381 23.7847 75.127C24.1194 74.8487 24.5115 74.65 24.9321 74.5453C25.447 74.3758 26.0032 74.3854 26.5121 74.5724C27.0127 74.7246 27.4865 75.1541 27.8882 75.7859C28.2899 76.4177 28.4877 77.3559 28.4877 78.6236C28.4321 80.0456 28.2054 81.063 27.8038 81.6885Z" fill="#494949"/>
<path d="M45.2004 72.5456C43.9283 71.7521 42.4636 71.3313 40.9692 71.3301C39.5192 71.4008 38.1128 71.8552 36.8904 72.6478C35.642 73.4589 35.0137 75.0768 35.0137 77.46V85.7187H38.6661L38.6929 76.7261C38.6929 75.8921 38.9195 75.2561 39.418 74.8746C39.8961 74.4932 40.4882 74.288 41.0969 74.2929C41.7043 74.2924 42.2944 74.4971 42.7738 74.8746C43.297 75.2561 43.5483 75.8879 43.5483 76.7261V83.9172C43.5362 84.1567 43.5739 84.396 43.6588 84.6198C43.7437 84.8437 43.874 85.047 44.0413 85.2167C44.2086 85.3864 44.4092 85.5188 44.6301 85.6053C44.8511 85.6917 45.0874 85.7303 45.324 85.7187H47.1513V77.46C47.1513 75.0039 46.5024 73.3484 45.2004 72.5456Z" fill="#494949"/>
<path d="M54.5364 74.243C55.0018 74.245 55.4496 74.0632 55.7848 73.7363C55.9589 73.572 56.0962 73.3718 56.1872 73.1491C56.2782 72.9264 56.3208 72.6865 56.3121 72.4457V71.7118H54.1594V69.3286C54.1613 69.0923 54.1158 68.8581 54.0255 68.6402C53.9352 68.4222 53.802 68.2252 53.6341 68.0609C53.4803 67.8943 53.2944 67.7613 53.0879 67.6702C52.8813 67.5791 52.6585 67.5318 52.4331 67.5312H50.5565V83.0834C50.5565 84.7055 51.2301 85.5666 52.5588 85.6688C53.7983 85.7727 55.0435 85.7894 56.2853 85.7188L56.3121 82.9812H55.21C54.5096 82.9812 54.1594 82.6789 54.1594 82.0701V74.243H54.5364Z" fill="#494949"/>
<path d="M66.3504 71.6618C64.447 71.6618 62.593 72.1413 61.2684 73.1775C59.8655 74.3201 59.0148 76.1424 59.0148 78.903V85.7188H62.6692V78.4734C62.6692 77.4101 62.9205 76.6491 63.419 76.1424C63.9175 75.6358 64.655 75.4085 65.6727 75.4085H66.8469V71.6555L66.3504 71.6618Z" fill="#494949"/>
<path d="M79.5612 72.3434C78.5869 71.6845 77.1346 71.3301 75.1837 71.3301C73.4307 71.3301 72.1061 71.7617 71.1544 72.5456C70.3387 73.2221 69.8173 74.1952 69.7021 75.2561H73.2041C73.5543 74.4722 74.3556 74.2428 75.3341 74.2428C75.8438 74.2492 76.3495 74.3343 76.8338 74.4951C77.0649 74.5401 77.2726 74.6671 77.4195 74.8533C77.5663 75.0394 77.6428 75.2724 77.6351 75.5105C77.6351 76.2194 76.8606 76.676 75.3341 76.9033C74.7161 76.9533 74.232 77.1118 73.8818 77.1118C72.7037 77.2581 71.5786 77.6932 70.6044 78.3795C69.7515 79.005 69.3251 80.0746 69.3251 81.5445C69.3251 83.1395 69.803 84.28 70.728 84.966C71.6901 85.6575 72.844 86.0224 74.024 86.0085C74.7521 86.0018 75.4792 85.951 76.2014 85.8563C77.0145 85.7705 77.8043 85.53 78.5292 85.1474C79.2637 84.7469 79.8774 84.1525 80.3049 83.4273C80.8302 82.6391 81.0794 81.5508 81.0794 80.133V75.3062C81.0964 74.7224 80.9658 74.1439 80.7002 73.6254C80.4345 73.1069 80.0425 72.6657 79.5612 72.3434ZM77.6846 79.9682C77.6846 80.9544 77.4127 81.7155 76.8606 82.2993C76.3085 82.8831 75.5319 83.1333 74.5575 83.1333C73.956 83.1333 73.5048 82.9811 73.2041 82.7059C73.0412 82.5403 72.9148 82.3418 72.8331 82.1233C72.7515 81.9048 72.7164 81.6713 72.7303 81.4382C72.7298 81.023 72.8517 80.6172 73.0805 80.2727C73.3545 79.9953 73.8324 79.7639 74.4566 79.5888C74.4566 79.5888 74.8686 79.4866 75.6596 79.3365C76.3534 79.1693 77.0311 78.9397 77.6846 78.6505V79.9682Z" fill="#494949"/>
<path d="M93.6783 81.386C93.3469 81.3664 93.019 81.4645 92.7513 81.6634C92.5871 81.7722 92.4434 81.9099 92.327 82.0699C92.1802 82.2798 91.9812 82.4466 91.7502 82.5536C91.2931 82.814 90.7749 82.9444 90.2505 82.931C89.3482 82.931 88.6478 82.6537 88.1905 82.0699C87.5725 81.4111 87.2656 80.2727 87.2656 78.6505C87.2656 77.0284 87.5663 75.8379 88.1905 75.1561C88.4366 74.9096 88.7303 74.7172 89.0532 74.5909C89.3761 74.4646 89.7213 74.4072 90.0672 74.4221C90.9179 74.4221 91.5463 74.6473 92.02 75.1561C92.2274 75.3885 92.3964 75.6532 92.5206 75.94H96.1998C95.9365 74.9556 95.4664 74.0403 94.8216 73.2566C93.6722 71.9889 92.0695 71.3301 89.9662 71.3301C87.99 71.3301 86.4388 71.9889 85.3127 73.3067C84.2374 74.5743 83.71 76.3216 83.71 78.5755C83.71 80.9545 84.26 82.7559 85.3889 84.0194C86.4869 85.3371 88.0401 85.996 90.0177 85.996C91.6431 85.996 93.0212 85.5915 94.0965 84.7804C95.2127 83.956 95.9958 82.7501 96.3007 81.386H93.6783Z" fill="#494949"/>
<path d="M103.69 74.243C104.153 74.2527 104.602 74.0809 104.942 73.7634C105.115 73.5926 105.251 73.3872 105.341 73.1604C105.431 72.9335 105.474 72.6901 105.466 72.4457V71.7118H103.313V69.3286C103.314 69.0924 103.269 68.8583 103.178 68.6404C103.088 68.4226 102.955 68.2255 102.788 68.0609C102.634 67.8943 102.448 67.7613 102.241 67.6702C102.035 67.5791 101.812 67.5318 101.587 67.5312H99.71V83.0834C99.71 84.7055 100.384 85.5666 101.712 85.6688C102.952 85.7727 104.197 85.7894 105.439 85.7188L105.466 82.9812H104.359C103.659 82.9812 103.309 82.6789 103.309 82.0701V74.243H103.69Z" fill="#494949"/>
<path d="M119.206 78.7007C118.505 78.0919 117.28 77.5623 115.498 77.1057C115.156 77.084 114.819 77.0139 114.497 76.8972C112.695 76.5177 111.793 76.036 111.792 75.4522C111.782 75.2702 111.818 75.0886 111.897 74.9247C111.976 74.7608 112.095 74.6201 112.243 74.5161C112.62 74.2867 113.121 74.1867 113.823 74.1867C114.434 74.1624 115.037 74.3307 115.549 74.6683L115.974 75.0978C116.118 75.3725 116.334 75.601 116.6 75.7576C116.865 75.9141 117.168 75.9925 117.475 75.9839H119.725C119.706 75.3305 119.552 74.6884 119.272 74.0993C118.992 73.5102 118.592 72.9873 118.1 72.5645C117.024 71.7555 115.572 71.3511 113.774 71.3511C112.095 71.3511 110.745 71.7555 109.695 72.5645C109.214 72.9675 108.829 73.475 108.569 74.0493C108.308 74.6236 108.179 75.25 108.191 75.8818C108.172 76.3545 108.255 76.8257 108.433 77.2632C108.61 77.7007 108.879 78.0943 109.221 78.4171C109.839 79.0426 111.098 79.6056 112.95 80.0622C113.411 80.1977 113.879 80.3084 114.352 80.3937C115.794 80.6939 116.553 81.1777 116.553 81.8094C116.553 82.2431 116.33 82.5705 115.906 82.8248C115.407 83.0697 114.857 83.1912 114.303 83.1793C113.425 83.1793 112.727 83.002 112.2 82.6476C111.963 82.4612 111.77 82.2233 111.636 81.9516C111.502 81.6799 111.43 81.3812 111.425 81.0776H107.861V81.2277C107.861 82.7727 108.362 83.9632 109.388 84.7722C110.362 85.584 111.839 85.9892 113.819 85.9878C115.895 85.9878 117.471 85.6104 118.524 84.8223C119.624 83.9883 120.199 82.7706 120.199 81.2256C120.207 80.1706 119.879 79.3366 119.206 78.7007Z" fill="#494949"/>
<path d="M26.8685 33.5854V35.0219C26.8636 38.4189 25.5282 41.6754 23.1549 44.0775C20.7816 46.4796 17.5641 47.8313 14.2078 47.8363H0V41.9045H13.4724C14.4549 41.9082 15.4282 41.7125 16.3347 41.3289C17.2412 40.9454 18.0625 40.3818 18.7501 39.6714C19.8011 38.61 20.518 37.2573 20.8103 35.784C21.1027 34.3108 20.9575 32.7828 20.393 31.393C19.8284 30.0031 18.8699 28.8136 17.6383 27.9744C16.4066 27.1353 14.9571 26.684 13.4724 26.6777H0V20.7458H14.214C17.5717 20.7585 20.7878 22.1164 23.1592 24.5224C25.5306 26.9284 26.8642 30.1869 26.8685 33.5854Z" fill="#494949"/>
<path d="M99.2754 34.3046C99.2729 35.3014 99.4647 36.289 99.8398 37.2107C100.215 38.1323 100.766 38.97 101.461 39.6759C102.156 40.3818 102.983 40.9421 103.892 41.3245C104.801 41.7069 105.777 41.9039 106.761 41.9045H120.207V47.8363H106.024C102.668 47.8308 99.451 46.4789 97.0782 44.0769C94.7053 41.6749 93.3701 38.4186 93.3652 35.0219V33.5854C93.369 30.186 94.7031 26.9265 97.0754 24.5203C99.4478 22.114 102.665 20.7569 106.024 20.7458H120.207V26.6777H106.761C105.775 26.681 104.799 26.8808 103.889 27.2659C102.979 27.651 102.153 28.2137 101.458 28.9219C100.763 29.6301 100.212 30.4701 99.8376 31.3937C99.4632 32.3172 99.2721 33.3063 99.2754 34.3046Z" fill="#494949"/>
<path d="M49.1948 47.8363H43.9438C40.5836 47.8368 37.3604 46.4878 34.982 44.0853C32.6036 41.6827 31.2644 38.4229 31.2584 35.0219V33.5854C31.2638 30.1818 32.6021 26.9193 34.9799 24.5126C37.3577 22.106 40.5811 20.7514 43.9438 20.7458H48.9661L49.0423 26.6777H44.6793C42.6847 26.6832 40.7737 27.4894 39.3656 28.9193C37.9576 30.3491 37.1674 32.2858 37.1685 34.3046C37.1756 36.3184 37.9692 38.2476 39.3763 39.6714C40.7834 41.0951 42.6896 41.8979 44.6793 41.9045H49.1515L49.1948 47.8363Z" fill="#494949"/>
<path d="M57.8468 57.7235H51.8831L51.605 20.4895H57.6181L57.8468 57.7235Z" fill="#494949"/>
<path d="M88.8497 33.7647V38.848L83.0138 38.9251V34.5091C83.0472 33.4885 82.8774 32.4715 82.5145 31.5187C82.1517 30.5659 81.6032 29.6966 80.9017 28.9627C80.2002 28.2288 79.36 27.6452 78.4312 27.2466C77.5023 26.8481 76.5037 26.6427 75.4948 26.6427C74.4859 26.6427 73.4873 26.8481 72.5584 27.2466C71.6295 27.6452 70.7893 28.2288 70.0878 28.9627C69.3863 29.6966 68.8379 30.5659 68.475 31.5187C68.1122 32.4715 67.9424 33.4885 67.9758 34.5091V39.0293L62.0883 39.0794V33.7647C62.09 30.36 63.427 27.0952 65.8056 24.6877C68.1842 22.2802 71.4099 20.9269 74.7738 20.9253H76.1705C79.5333 20.9286 82.7573 22.2826 85.1346 24.6899C87.5119 27.0972 88.8481 30.3611 88.8497 33.7647Z" fill="#494949"/>
<path d="M79.382 18.0167C81.0146 18.0167 82.3381 16.6771 82.3381 15.0247C82.3381 13.3722 81.0146 12.0327 79.382 12.0327C77.7494 12.0327 76.4259 13.3722 76.4259 15.0247C76.4259 16.6771 77.7494 18.0167 79.382 18.0167Z" fill="#494949"/>
<path d="M71.8321 18.0167C73.4647 18.0167 74.7882 16.6771 74.7882 15.0247C74.7882 13.3722 73.4647 12.0327 71.8321 12.0327C70.1995 12.0327 68.876 13.3722 68.876 15.0247C68.876 16.6771 70.1995 18.0167 71.8321 18.0167Z" fill="#494949"/>
<path d="M89.1279 41.5188H62.0822V47.8364H89.1279V41.5188Z" fill="#494949"/>
<g style="mix-blend-mode:color-burn">
<path d="M137.249 46.7542C137.249 46.7542 133.309 51.143 134.326 54.6521C134.371 54.8032 134.424 54.9514 134.485 55.0961L134.769 55.6404C135.671 57.0812 137.692 58.255 141.567 58.72C142.309 58.8076 143.12 58.8687 144 58.9035L137.249 46.7542Z" fill="#9D87EF"/>
</g>
<path d="M182.896 12.0217C182.896 12.0217 177.423 15.5863 167.104 17.3736L167.816 21.369L163.191 22.2329L163.986 26.6491L159.358 27.5007L158.517 22.8171L163.144 21.9705L162.435 18.0098C161.031 18.1501 159.564 18.2516 158.033 18.3143C156.712 18.3638 155.516 18.3861 154.408 18.3861C153.723 18.3861 153.078 18.3861 152.451 18.3465L144.412 3.87988L144.4 3.89226C144.358 3.93187 144.243 4.06802 144.075 4.27596C143.974 4.39725 143.859 4.54826 143.725 4.72154L143.701 4.75124C143.622 4.85769 143.534 4.97403 143.456 5.10028C143.309 5.30327 143.15 5.52854 142.989 5.77361C142.881 5.93699 142.771 6.10532 142.659 6.28603C142.49 6.55585 142.324 6.84053 142.169 7.14254C142.118 7.2366 142.067 7.33315 142.015 7.43464C141.699 8.02965 141.43 8.64973 141.213 9.28876C141.186 9.36797 141.162 9.44966 141.135 9.52393C141.052 9.7987 140.976 10.0784 140.92 10.3557C140.893 10.477 140.873 10.6032 140.854 10.7171C140.841 10.7815 140.834 10.8483 140.827 10.9176C140.814 10.977 140.805 11.0375 140.802 11.0983C140.8 11.142 140.8 11.1858 140.802 11.2295C140.784 11.4162 140.775 11.6038 140.775 11.7914C140.775 12.0398 140.79 12.2879 140.822 12.5341C140.858 12.7781 140.91 13.0195 140.976 13.2569C140.988 13.3022 141.001 13.3468 141.018 13.3906C141.058 13.5236 141.106 13.6542 141.162 13.7817L141.331 14.1085L141.497 14.4278C145.266 21.6066 149.323 28.4934 152.806 34.0928C157.754 42.0663 161.508 47.4603 161.508 47.4603C163.382 48.9753 166.693 50.0719 172.243 50.2081C172.854 50.2229 173.466 50.2328 174.048 50.2328C175.001 50.2328 175.926 50.2328 176.826 50.2006C181.082 50.1122 185.32 49.609 189.48 48.698C197.488 46.8934 201 44.1333 201 44.1333L182.896 12.0217Z" fill="#5851E9"/>
<g style="mix-blend-mode:multiply" opacity="0.24">
<path d="M144.41 3.875C144.41 3.875 139.731 9.08584 140.934 13.252C140.987 13.4313 141.05 13.6074 141.123 13.7793L141.46 14.4254C142.531 16.1359 144.931 17.5296 149.531 18.0816C150.412 18.1856 151.4 18.3044 152.447 18.344L144.41 3.875Z" fill="black"/>
</g>
<path d="M195.749 59.8773C195.749 59.8773 187.36 66.4521 166.965 65.9669C161.401 65.8233 158.123 64.7292 156.233 63.2216L136.346 30.3451C136.331 30.3299 136.321 30.3097 136.319 30.2881C136.204 30.0939 136.1 29.893 136.009 29.6866C135.933 29.5096 135.867 29.3286 135.81 29.1445C134.624 24.9981 139.313 19.7947 139.313 19.7947L147.193 34.1152H147.22C147.844 34.1449 148.492 34.1449 149.177 34.1449C150.277 34.1449 151.493 34.1152 152.791 34.0879C168.948 33.4592 177.675 27.7706 177.675 27.7706L195.749 59.8773Z" fill="#6ED1F9"/>
<g style="mix-blend-mode:color-burn" opacity="0.35">
<path d="M139.286 19.7947C139.286 19.7947 134.61 24.9931 135.818 29.1717C135.87 29.351 135.933 29.5271 136.006 29.699C136.119 29.9143 136.229 30.1297 136.344 30.3451C137.415 32.0556 139.812 33.4493 144.415 34.0013C145.292 34.1053 146.255 34.1779 147.303 34.2191L139.286 19.7947Z" fill="#5A5DA8"/>
</g>
<path d="M137.669 40.9126C137.669 40.9126 132.993 46.1111 134.199 50.2872C134.253 50.4663 134.316 50.6423 134.389 50.8144C134.5 51.0298 134.612 51.2452 134.725 51.4605C135.796 53.1711 138.195 54.5648 142.796 55.1168C143.676 55.2208 144.637 55.295 145.686 55.3346L137.669 40.9126Z" fill="#5A5DA8"/>
<path d="M176.153 49.0547C176.153 49.0547 167.444 54.7334 151.29 55.3448C149.971 55.3943 148.773 55.4215 147.665 55.4215C146.984 55.4215 146.335 55.4083 145.721 55.3819C144.745 55.3468 143.772 55.2584 142.805 55.1171C138.195 54.565 135.796 53.1714 134.734 51.4608C143.862 68.8781 154.743 84.476 154.743 84.476C156.619 85.9934 159.928 87.0876 165.478 87.2262C185.851 87.7312 194.228 81.149 194.228 81.149L176.153 49.0547Z" fill="#9D87EF"/>
<path d="M150.653 5.5312L155.279 4.6813L154.439 0L149.814 0.849894L150.653 5.5312Z" fill="#5851E9"/>
<path d="M156.119 9.36299L160.744 8.51309L159.904 3.83179L155.279 4.68168L156.119 9.36299Z" fill="#5851E9"/>
<path d="M152.33 14.8923L156.955 14.0424L156.115 9.36108L151.49 10.2109L152.33 14.8923Z" fill="#5851E9"/>
<path d="M161.581 13.1953L166.206 12.3454L165.367 7.66406L160.742 8.51396L161.581 13.1953Z" fill="#5851E9"/>
</g>
<defs>
<clipPath id="clip0_388_6687">
<rect width="201" height="88" fill="white"/>
</clipPath>
</defs>
</svg>
