<svg width="12" height="12" viewBox="0 0 12 12" fill="none" xmlns="http://www.w3.org/2000/svg">
<g id="Frame 2033">
<g id="Group 544">
<path id="Vector" d="M10.2761 4.58957H5.55259C4.97288 4.58957 4.50293 5.05952 4.50293 5.63923V10.3627C4.50293 10.9424 4.97288 11.4124 5.55259 11.4124H10.2761C10.8558 11.4124 11.3257 10.9424 11.3257 10.3627V5.63923C11.3257 5.05952 10.8558 4.58957 10.2761 4.58957Z" stroke="#403836" stroke-linecap="round" stroke-linejoin="round"/>
<path id="Vector_2" d="M2.57449 7.8228H2.04966C1.77127 7.8228 1.50429 7.71221 1.30744 7.51536C1.11059 7.31851 1 7.05152 1 6.77314V2.04966C1 1.77127 1.11059 1.50429 1.30744 1.30744C1.50429 1.11059 1.77127 1 2.04966 1H6.77314C7.05152 1 7.31851 1.11059 7.51536 1.30744C7.71221 1.50429 7.8228 1.77127 7.8228 2.04966V2.57449" stroke="#403836" stroke-linecap="round" stroke-linejoin="round"/>
</g>
</g>
</svg>
