<svg width="381" height="95" viewBox="0 0 381 95" fill="none" xmlns="http://www.w3.org/2000/svg">
<path d="M134 94.5C134.344 94.0684 134.609 94.2521 134.896 94.7755C134.667 95 134.333 95 134 94.5Z" fill="#E5E5E5"/>
<path d="M0.541139 52.9945C0.0735429 38.6318 0.067604 24.2874 0 9.47678C2.12212 6.48714 4.3059 3.96369 7.05072 1.20885C8.15306 0.699695 8.69438 0.421926 9.2357 0.144157C34.5221 0.0934384 59.8084 0.042719 85.5679 0C86.041 17.466 86.041 34.924 86.041 52.6996C81.5753 52.6996 77.1655 52.6996 72.4016 52.6996C72.4016 50.6844 72.4016 48.6286 72.4016 46.1972C74.3626 46.0071 76.4222 45.8075 78.7252 45.5843C78.7252 32.8767 78.7252 20.3124 78.7252 7.46403C55.0466 7.46403 31.4893 7.46403 7.54873 7.46403C7.54873 20.0137 7.54873 32.5611 7.54873 45.8596C13.3821 45.8596 19.3435 46.3029 25.2063 45.7324C30.8443 45.1838 33.8395 47.6011 35.8513 53.0126C24.0953 53.0126 12.549 53.0126 0.541139 52.9945Z" fill="#04D535"/>
<path d="M131.768 0.0103002C133.031 0.28609 133.825 0.576177 134.944 0.820814C147.349 4.6263 154.111 12.6314 154.564 25.5356C155.044 39.2349 145.654 50.1616 131.19 51.6741C123.672 52.4604 116.004 51.8126 108 51.8126C108 34.6365 108 17.7431 108.082 0.38566C115.875 -0.0441083 123.587 -0.00975583 131.768 0.0103002ZM137.912 12.704C131.942 7.7902 125.005 8.7225 118.085 8.99222C118.085 20.4972 118.085 31.565 118.085 42.598C129.844 44.2637 138.004 41.3387 141.868 34.1852C145.592 27.2921 144.407 19.8346 137.912 12.704Z" fill="#091E55"/>
<path d="M257.305 35.577C257.707 36.7089 258.029 37.4699 258.713 39.0865C261.454 30.9259 263.96 23.4659 266.488 15.9382C269.485 15.9382 272.274 15.9382 275.274 15.9382C277.723 23.3634 280.143 30.7001 282.999 39.3563C285.749 30.8034 288.108 23.4633 290.519 15.966C293.377 15.966 296.162 15.966 299.695 15.966C295.704 27.9988 291.818 39.7135 287.947 51.3871C287.591 51.5604 287.302 51.8133 286.998 51.8322C278.971 52.3318 278.972 52.3272 276.418 44.705C274.786 39.8327 273.15 34.9616 271.511 30.0917C271.353 29.6243 271.161 29.1686 270.661 27.8582C267.857 36.2068 265.283 43.8733 262.648 51.7208C259.783 51.7208 256.997 51.7208 253.661 51.7208C249.599 40.1339 245.457 28.3189 241.269 16.3702C241.886 16.1262 242.29 15.8393 242.707 15.8207C250.884 15.4556 250.879 15.4636 253.405 23.3709C254.667 27.3199 255.951 31.2614 257.305 35.577Z" fill="#0A1E56"/>
<path d="M301.744 37.1864C300.419 28.6915 303.463 22.2312 310.059 17.8913C317.081 13.2713 324.481 13.608 329.849 17.3289C334.323 16.4866 337.346 15.9175 340.676 15.2905C340.864 16.9675 341.03 17.7633 341.031 18.5593C341.048 29.5037 341.043 40.448 341.043 51.8914C337.633 51.144 333.835 54.1221 331.633 49.4678C319.958 56.9888 305.207 51.9878 301.744 37.1864ZM329.407 40.4058C332.859 34.4515 332.076 28.2927 327.435 24.9028C323.146 21.7698 316.885 22.54 313.551 26.6107C310.058 30.875 310.379 37.7182 314.253 41.571C318.075 45.3718 323.894 45.1747 329.407 40.4058Z" fill="#0B1F57"/>
<path d="M202.448 39.4678C198.763 25.5063 209.733 15.0586 219.255 14.7808C232.203 14.403 240.745 23.5844 238.968 37.0901C230.172 37.0901 221.303 37.0901 212.363 37.0901C213.81 45.6483 222.356 47.1859 231.384 40.7252C233.524 42.2693 235.751 43.8767 237.963 45.4736C230.855 56.5555 207.696 55.8244 202.448 39.4678ZM218.374 23.0308C216.134 24.8534 213.893 26.676 211.652 28.4987C211.948 28.8453 212.243 29.192 212.538 29.5386C218.136 29.5386 223.734 29.5386 229.594 29.5386C227.997 23.7095 224.112 22.449 218.374 23.0308Z" fill="#091D55"/>
<path d="M185.005 15.7613C194.705 20.4407 198.148 26.6231 196.882 37.1212C188.077 37.1212 179.196 37.1212 170.242 37.1212C171.761 45.5861 180.729 47.228 189.086 40.5911C191.178 42.1058 193.411 43.723 195.628 45.3281C191.5 53.2108 178.1 55.0608 169.273 50.3878C161.309 46.172 157.437 36.0845 160.666 27.223C164.223 17.4612 173.638 12.9066 185.005 15.7613ZM179.709 29.9441C182.226 29.9441 184.744 29.9441 187.614 29.9441C186.067 24.3565 182.752 22.5472 178.133 22.8229C173.913 23.0748 171.213 25.2501 170.107 29.9441C173.24 29.9441 175.999 29.9441 179.709 29.9441Z" fill="#081D55"/>
<path d="M347.916 33.9444C347.917 27.7952 347.917 22.145 347.917 15.1864C351.067 15.9568 353.726 16.7167 356.434 17.2009C357.221 17.3416 358.193 16.7854 359.006 16.3931C369.744 11.2051 379.731 16.5053 380.6 28.3327C381.159 35.9281 380.705 43.5979 380.705 51.5963C377.74 51.5963 374.878 51.5963 371.458 51.5963C371.458 44.4097 371.812 37.2638 371.257 30.1891C371.074 27.8635 368.984 24.6273 366.955 23.802C364.887 22.9606 361.365 23.9199 359.343 25.3294C357.876 26.3524 357.307 29.3733 357.222 31.5382C356.961 38.1544 357.127 44.7875 357.127 51.6838C354.02 51.6838 351.262 51.6838 347.916 51.6838C347.916 45.9695 347.916 40.2065 347.916 33.9444Z" fill="#0D2158"/>
<path d="M64.8472 49.9164C63.8285 51.2547 62.9151 52.6929 61.7713 52.9085C59.5998 53.3179 57.2964 53.0271 54.3522 53.0271C56.0204 56.0571 57.3228 58.4226 58.8175 61.1373C56.8144 62.3622 55.0424 63.4458 52.7549 64.8447C48.8991 58.5845 45.2433 52.6491 41.0562 45.8509C48.8176 45.8509 55.5449 45.7141 62.253 46.0113C63.1673 46.0518 63.9856 48.2598 64.8472 49.9164Z" fill="#09D639"/>
<path d="M143.935 3.08167C143.716 3.40145 143.175 3.67922 142.317 3.95037C142.537 3.64239 143.075 3.34102 143.935 3.08167Z" fill="#DEE5E2"/>
<path d="M109.306 82V71.9785H110.632V82H109.306ZM112.819 82V74.7402H113.927V75.7725C114.46 74.9749 115.23 74.5762 116.237 74.5762C116.675 74.5762 117.076 74.6559 117.44 74.8154C117.81 74.9704 118.085 75.1755 118.268 75.4307C118.45 75.6859 118.577 75.9889 118.65 76.3398C118.696 76.5677 118.719 76.9665 118.719 77.5361V82H117.488V77.584C117.488 77.0827 117.44 76.709 117.345 76.4629C117.249 76.2122 117.078 76.014 116.832 75.8682C116.59 75.7178 116.306 75.6426 115.978 75.6426C115.453 75.6426 115 75.8089 114.617 76.1416C114.239 76.4743 114.05 77.1055 114.05 78.0352V82H112.819ZM120.612 82V74.7402H121.72V75.7725C122.253 74.9749 123.023 74.5762 124.03 74.5762C124.468 74.5762 124.869 74.6559 125.233 74.8154C125.603 74.9704 125.878 75.1755 126.061 75.4307C126.243 75.6859 126.37 75.9889 126.443 76.3398C126.489 76.5677 126.512 76.9665 126.512 77.5361V82H125.281V77.584C125.281 77.0827 125.233 76.709 125.138 76.4629C125.042 76.2122 124.871 76.014 124.625 75.8682C124.383 75.7178 124.099 75.6426 123.771 75.6426C123.246 75.6426 122.793 75.8089 122.41 76.1416C122.032 76.4743 121.843 77.1055 121.843 78.0352V82H120.612ZM127.947 78.3701C127.947 77.0257 128.321 76.0299 129.068 75.3828C129.693 74.8451 130.454 74.5762 131.352 74.5762C132.35 74.5762 133.165 74.9043 133.799 75.5605C134.432 76.2122 134.749 77.1146 134.749 78.2676C134.749 79.2018 134.608 79.9378 134.325 80.4756C134.047 81.0088 133.639 81.4235 133.102 81.7197C132.568 82.016 131.985 82.1641 131.352 82.1641C130.335 82.1641 129.513 81.8382 128.884 81.1865C128.259 80.5348 127.947 79.596 127.947 78.3701ZM129.212 78.3701C129.212 79.2998 129.415 79.9971 129.82 80.4619C130.226 80.9222 130.736 81.1523 131.352 81.1523C131.962 81.1523 132.47 80.9199 132.876 80.4551C133.282 79.9902 133.484 79.2816 133.484 78.3291C133.484 77.4313 133.279 76.7523 132.869 76.292C132.464 75.8271 131.958 75.5947 131.352 75.5947C130.736 75.5947 130.226 75.8249 129.82 76.2852C129.415 76.7454 129.212 77.4404 129.212 78.3701ZM138.215 82L135.453 74.7402H136.752L138.311 79.0879C138.479 79.5573 138.634 80.0449 138.775 80.5508C138.885 80.168 139.037 79.7077 139.233 79.1699L140.847 74.7402H142.111L139.363 82H138.215ZM147.936 81.1045C147.48 81.4919 147.04 81.7653 146.616 81.9248C146.197 82.0843 145.746 82.1641 145.263 82.1641C144.465 82.1641 143.852 81.9704 143.424 81.583C142.995 81.1911 142.781 80.6921 142.781 80.0859C142.781 79.7305 142.861 79.4069 143.021 79.1152C143.185 78.819 143.396 78.582 143.656 78.4043C143.921 78.2266 144.217 78.0921 144.545 78.001C144.786 77.9372 145.151 77.8757 145.639 77.8164C146.632 77.6979 147.364 77.5566 147.833 77.3926C147.838 77.224 147.84 77.1169 147.84 77.0713C147.84 76.57 147.724 76.2168 147.491 76.0117C147.177 75.7337 146.71 75.5947 146.09 75.5947C145.511 75.5947 145.083 75.6973 144.805 75.9023C144.531 76.1029 144.328 76.4606 144.196 76.9756L142.993 76.8115C143.103 76.2965 143.283 75.8818 143.533 75.5674C143.784 75.2484 144.146 75.0046 144.62 74.8359C145.094 74.6628 145.643 74.5762 146.268 74.5762C146.887 74.5762 147.391 74.6491 147.778 74.7949C148.166 74.9408 148.451 75.1253 148.633 75.3486C148.815 75.5674 148.943 75.8454 149.016 76.1826C149.057 76.3923 149.077 76.7705 149.077 77.3174V78.958C149.077 80.1019 149.102 80.8265 149.152 81.1318C149.207 81.4326 149.312 81.722 149.467 82H148.182C148.054 81.7448 147.972 81.4463 147.936 81.1045ZM147.833 78.3564C147.386 78.5387 146.716 78.6937 145.823 78.8213C145.317 78.8942 144.96 78.9762 144.75 79.0674C144.54 79.1585 144.379 79.293 144.265 79.4707C144.151 79.6439 144.094 79.8376 144.094 80.0518C144.094 80.3799 144.217 80.6533 144.463 80.8721C144.714 81.0908 145.078 81.2002 145.557 81.2002C146.031 81.2002 146.452 81.0977 146.821 80.8926C147.19 80.6829 147.462 80.3981 147.635 80.0381C147.767 79.7601 147.833 79.3499 147.833 78.8076V78.3564ZM153.678 80.8994L153.855 81.9863C153.509 82.0592 153.199 82.0957 152.926 82.0957C152.479 82.0957 152.133 82.0251 151.887 81.8838C151.641 81.7425 151.467 81.5579 151.367 81.3301C151.267 81.0977 151.217 80.6123 151.217 79.874V75.6973H150.314V74.7402H151.217V72.9424L152.44 72.2041V74.7402H153.678V75.6973H152.44V79.9424C152.44 80.2933 152.461 80.5189 152.502 80.6191C152.548 80.7194 152.618 80.7992 152.714 80.8584C152.814 80.9176 152.955 80.9473 153.138 80.9473C153.274 80.9473 153.454 80.9313 153.678 80.8994ZM154.895 73.3936V71.9785H156.125V73.3936H154.895ZM154.895 82V74.7402H156.125V82H154.895ZM160.021 82L157.26 74.7402H158.559L160.117 79.0879C160.286 79.5573 160.441 80.0449 160.582 80.5508C160.691 80.168 160.844 79.7077 161.04 79.1699L162.653 74.7402H163.918L161.17 82H160.021ZM169.975 79.6621L171.246 79.8193C171.046 80.5622 170.674 81.1387 170.132 81.5488C169.59 81.959 168.897 82.1641 168.054 82.1641C166.992 82.1641 166.149 81.8382 165.524 81.1865C164.905 80.5303 164.595 79.612 164.595 78.4316C164.595 77.2103 164.909 76.2624 165.538 75.5879C166.167 74.9134 166.983 74.5762 167.985 74.5762C168.956 74.5762 169.749 74.9066 170.364 75.5674C170.979 76.2282 171.287 77.1579 171.287 78.3564C171.287 78.4294 171.285 78.5387 171.28 78.6846H165.866C165.912 79.4821 166.137 80.0928 166.543 80.5166C166.949 80.9404 167.454 81.1523 168.061 81.1523C168.512 81.1523 168.897 81.0339 169.216 80.7969C169.535 80.5599 169.788 80.1816 169.975 79.6621ZM165.935 77.6729H169.988C169.934 77.0622 169.779 76.6042 169.523 76.2988C169.132 75.8249 168.623 75.5879 167.999 75.5879C167.434 75.5879 166.958 75.777 166.57 76.1553C166.188 76.5335 165.976 77.0394 165.935 77.6729ZM181.432 79.3408L182.642 79.498C182.509 80.332 182.17 80.986 181.623 81.46C181.081 81.9294 180.413 82.1641 179.62 82.1641C178.627 82.1641 177.827 81.8405 177.221 81.1934C176.619 80.5417 176.318 79.6097 176.318 78.3975C176.318 77.6136 176.448 76.9277 176.708 76.3398C176.968 75.752 177.362 75.3122 177.891 75.0205C178.424 74.7243 179.003 74.5762 179.627 74.5762C180.415 74.5762 181.06 74.7767 181.562 75.1777C182.063 75.5742 182.384 76.1393 182.525 76.873L181.329 77.0576C181.215 76.57 181.012 76.2031 180.721 75.957C180.434 75.7109 180.085 75.5879 179.675 75.5879C179.055 75.5879 178.551 75.8112 178.164 76.2578C177.777 76.6999 177.583 77.4017 177.583 78.3633C177.583 79.3385 177.77 80.0472 178.144 80.4893C178.517 80.9313 179.005 81.1523 179.606 81.1523C180.09 81.1523 180.493 81.0042 180.816 80.708C181.14 80.4118 181.345 79.9561 181.432 79.3408ZM183.236 78.3701C183.236 77.0257 183.61 76.0299 184.357 75.3828C184.982 74.8451 185.743 74.5762 186.641 74.5762C187.639 74.5762 188.454 74.9043 189.088 75.5605C189.721 76.2122 190.038 77.1146 190.038 78.2676C190.038 79.2018 189.897 79.9378 189.614 80.4756C189.336 81.0088 188.928 81.4235 188.391 81.7197C187.857 82.016 187.274 82.1641 186.641 82.1641C185.624 82.1641 184.802 81.8382 184.173 81.1865C183.549 80.5348 183.236 79.596 183.236 78.3701ZM184.501 78.3701C184.501 79.2998 184.704 79.9971 185.109 80.4619C185.515 80.9222 186.025 81.1523 186.641 81.1523C187.251 81.1523 187.759 80.9199 188.165 80.4551C188.571 79.9902 188.773 79.2816 188.773 78.3291C188.773 77.4313 188.568 76.7523 188.158 76.292C187.753 75.8271 187.247 75.5947 186.641 75.5947C186.025 75.5947 185.515 75.8249 185.109 76.2852C184.704 76.7454 184.501 77.4404 184.501 78.3701ZM191.487 82V74.7402H192.588V75.7588C192.816 75.4033 193.119 75.1185 193.497 74.9043C193.875 74.6855 194.306 74.5762 194.789 74.5762C195.327 74.5762 195.767 74.6878 196.108 74.9111C196.455 75.1344 196.699 75.4466 196.84 75.8477C197.414 75 198.161 74.5762 199.082 74.5762C199.802 74.5762 200.356 74.7767 200.743 75.1777C201.131 75.5742 201.324 76.1872 201.324 77.0166V82H200.101V77.4268C200.101 76.9346 200.06 76.5814 199.978 76.3672C199.9 76.1484 199.757 75.973 199.547 75.8408C199.337 75.7087 199.091 75.6426 198.809 75.6426C198.298 75.6426 197.874 75.8135 197.537 76.1553C197.2 76.4925 197.031 77.0348 197.031 77.7822V82H195.801V77.2832C195.801 76.7363 195.701 76.3262 195.5 76.0527C195.299 75.7793 194.971 75.6426 194.516 75.6426C194.169 75.6426 193.848 75.7337 193.552 75.916C193.26 76.0983 193.048 76.3649 192.916 76.7158C192.784 77.0667 192.718 77.5726 192.718 78.2334V82H191.487ZM203.149 82V74.7402H204.25V75.7588C204.478 75.4033 204.781 75.1185 205.159 74.9043C205.537 74.6855 205.968 74.5762 206.451 74.5762C206.989 74.5762 207.429 74.6878 207.771 74.9111C208.117 75.1344 208.361 75.4466 208.502 75.8477C209.076 75 209.824 74.5762 210.744 74.5762C211.464 74.5762 212.018 74.7767 212.405 75.1777C212.793 75.5742 212.986 76.1872 212.986 77.0166V82H211.763V77.4268C211.763 76.9346 211.722 76.5814 211.64 76.3672C211.562 76.1484 211.419 75.973 211.209 75.8408C210.999 75.7087 210.753 75.6426 210.471 75.6426C209.96 75.6426 209.536 75.8135 209.199 76.1553C208.862 76.4925 208.693 77.0348 208.693 77.7822V82H207.463V77.2832C207.463 76.7363 207.363 76.3262 207.162 76.0527C206.962 75.7793 206.633 75.6426 206.178 75.6426C205.831 75.6426 205.51 75.7337 205.214 75.916C204.922 76.0983 204.71 76.3649 204.578 76.7158C204.446 77.0667 204.38 77.5726 204.38 78.2334V82H203.149ZM219.569 82V80.9336C219.004 81.7539 218.236 82.1641 217.266 82.1641C216.837 82.1641 216.436 82.082 216.062 81.918C215.693 81.7539 215.418 81.5488 215.235 81.3027C215.058 81.0521 214.932 80.7467 214.859 80.3867C214.809 80.1452 214.784 79.7624 214.784 79.2383V74.7402H216.015V78.7666C216.015 79.4092 216.04 79.8421 216.09 80.0654C216.167 80.389 216.331 80.6442 216.582 80.8311C216.833 81.0133 217.143 81.1045 217.512 81.1045C217.881 81.1045 218.227 81.0111 218.551 80.8242C218.874 80.6328 219.102 80.3753 219.234 80.0518C219.371 79.7236 219.439 79.2497 219.439 78.6299V74.7402H220.67V82H219.569ZM222.604 82V74.7402H223.712V75.7725C224.245 74.9749 225.015 74.5762 226.022 74.5762C226.46 74.5762 226.861 74.6559 227.226 74.8154C227.595 74.9704 227.87 75.1755 228.053 75.4307C228.235 75.6859 228.363 75.9889 228.436 76.3398C228.481 76.5677 228.504 76.9665 228.504 77.5361V82H227.273V77.584C227.273 77.0827 227.226 76.709 227.13 76.4629C227.034 76.2122 226.863 76.014 226.617 75.8682C226.376 75.7178 226.091 75.6426 225.763 75.6426C225.239 75.6426 224.785 75.8089 224.402 76.1416C224.024 76.4743 223.835 77.1055 223.835 78.0352V82H222.604ZM230.404 73.3936V71.9785H231.635V73.3936H230.404ZM230.404 82V74.7402H231.635V82H230.404ZM238.252 79.3408L239.462 79.498C239.33 80.332 238.99 80.986 238.443 81.46C237.901 81.9294 237.233 82.1641 236.44 82.1641C235.447 82.1641 234.647 81.8405 234.041 81.1934C233.439 80.5417 233.139 79.6097 233.139 78.3975C233.139 77.6136 233.269 76.9277 233.528 76.3398C233.788 75.752 234.182 75.3122 234.711 75.0205C235.244 74.7243 235.823 74.5762 236.447 74.5762C237.236 74.5762 237.881 74.7767 238.382 75.1777C238.883 75.5742 239.204 76.1393 239.346 76.873L238.149 77.0576C238.035 76.57 237.833 76.2031 237.541 75.957C237.254 75.7109 236.905 75.5879 236.495 75.5879C235.875 75.5879 235.372 75.8112 234.984 76.2578C234.597 76.6999 234.403 77.4017 234.403 78.3633C234.403 79.3385 234.59 80.0472 234.964 80.4893C235.338 80.9313 235.825 81.1523 236.427 81.1523C236.91 81.1523 237.313 81.0042 237.637 80.708C237.96 80.4118 238.165 79.9561 238.252 79.3408ZM245.252 81.1045C244.796 81.4919 244.356 81.7653 243.933 81.9248C243.513 82.0843 243.062 82.1641 242.579 82.1641C241.782 82.1641 241.169 81.9704 240.74 81.583C240.312 81.1911 240.098 80.6921 240.098 80.0859C240.098 79.7305 240.177 79.4069 240.337 79.1152C240.501 78.819 240.713 78.582 240.973 78.4043C241.237 78.2266 241.533 78.0921 241.861 78.001C242.103 77.9372 242.467 77.8757 242.955 77.8164C243.949 77.6979 244.68 77.5566 245.149 77.3926C245.154 77.224 245.156 77.1169 245.156 77.0713C245.156 76.57 245.04 76.2168 244.808 76.0117C244.493 75.7337 244.026 75.5947 243.406 75.5947C242.827 75.5947 242.399 75.6973 242.121 75.9023C241.848 76.1029 241.645 76.4606 241.513 76.9756L240.31 76.8115C240.419 76.2965 240.599 75.8818 240.85 75.5674C241.1 75.2484 241.463 75.0046 241.937 74.8359C242.41 74.6628 242.96 74.5762 243.584 74.5762C244.204 74.5762 244.707 74.6491 245.095 74.7949C245.482 74.9408 245.767 75.1253 245.949 75.3486C246.132 75.5674 246.259 75.8454 246.332 76.1826C246.373 76.3923 246.394 76.7705 246.394 77.3174V78.958C246.394 80.1019 246.419 80.8265 246.469 81.1318C246.523 81.4326 246.628 81.722 246.783 82H245.498C245.37 81.7448 245.288 81.4463 245.252 81.1045ZM245.149 78.3564C244.703 78.5387 244.033 78.6937 243.14 78.8213C242.634 78.8942 242.276 78.9762 242.066 79.0674C241.857 79.1585 241.695 79.293 241.581 79.4707C241.467 79.6439 241.41 79.8376 241.41 80.0518C241.41 80.3799 241.533 80.6533 241.779 80.8721C242.03 81.0908 242.395 81.2002 242.873 81.2002C243.347 81.2002 243.769 81.0977 244.138 80.8926C244.507 80.6829 244.778 80.3981 244.951 80.0381C245.083 79.7601 245.149 79.3499 245.149 78.8076V78.3564ZM250.994 80.8994L251.172 81.9863C250.826 82.0592 250.516 82.0957 250.242 82.0957C249.796 82.0957 249.449 82.0251 249.203 81.8838C248.957 81.7425 248.784 81.5579 248.684 81.3301C248.583 81.0977 248.533 80.6123 248.533 79.874V75.6973H247.631V74.7402H248.533V72.9424L249.757 72.2041V74.7402H250.994V75.6973H249.757V79.9424C249.757 80.2933 249.777 80.5189 249.818 80.6191C249.864 80.7194 249.935 80.7992 250.03 80.8584C250.131 80.9176 250.272 80.9473 250.454 80.9473C250.591 80.9473 250.771 80.9313 250.994 80.8994ZM252.211 73.3936V71.9785H253.441V73.3936H252.211ZM252.211 82V74.7402H253.441V82H252.211ZM254.863 78.3701C254.863 77.0257 255.237 76.0299 255.984 75.3828C256.609 74.8451 257.37 74.5762 258.268 74.5762C259.266 74.5762 260.081 74.9043 260.715 75.5605C261.348 76.2122 261.665 77.1146 261.665 78.2676C261.665 79.2018 261.524 79.9378 261.241 80.4756C260.963 81.0088 260.555 81.4235 260.018 81.7197C259.484 82.016 258.901 82.1641 258.268 82.1641C257.251 82.1641 256.429 81.8382 255.8 81.1865C255.175 80.5348 254.863 79.596 254.863 78.3701ZM256.128 78.3701C256.128 79.2998 256.331 79.9971 256.736 80.4619C257.142 80.9222 257.652 81.1523 258.268 81.1523C258.878 81.1523 259.386 80.9199 259.792 80.4551C260.198 79.9902 260.4 79.2816 260.4 78.3291C260.4 77.4313 260.195 76.7523 259.785 76.292C259.38 75.8271 258.874 75.5947 258.268 75.5947C257.652 75.5947 257.142 75.8249 256.736 76.2852C256.331 76.7454 256.128 77.4404 256.128 78.3701ZM263.114 82V74.7402H264.222V75.7725C264.755 74.9749 265.525 74.5762 266.532 74.5762C266.97 74.5762 267.371 74.6559 267.735 74.8154C268.104 74.9704 268.38 75.1755 268.562 75.4307C268.745 75.6859 268.872 75.9889 268.945 76.3398C268.991 76.5677 269.014 76.9665 269.014 77.5361V82H267.783V77.584C267.783 77.0827 267.735 76.709 267.64 76.4629C267.544 76.2122 267.373 76.014 267.127 75.8682C266.885 75.7178 266.601 75.6426 266.272 75.6426C265.748 75.6426 265.295 75.8089 264.912 76.1416C264.534 76.4743 264.345 77.1055 264.345 78.0352V82H263.114ZM270.415 79.833L271.632 79.6416C271.7 80.1292 271.889 80.5029 272.199 80.7627C272.514 81.0225 272.951 81.1523 273.512 81.1523C274.077 81.1523 274.496 81.0384 274.77 80.8105C275.043 80.5781 275.18 80.307 275.18 79.9971C275.18 79.7191 275.059 79.5003 274.817 79.3408C274.649 79.2314 274.229 79.0924 273.56 78.9238C272.657 78.696 272.031 78.5 271.68 78.3359C271.333 78.1673 271.069 77.9372 270.887 77.6455C270.709 77.3493 270.62 77.0234 270.62 76.668C270.62 76.3444 270.693 76.0459 270.839 75.7725C270.989 75.4945 271.192 75.2643 271.447 75.082C271.639 74.9408 271.898 74.8223 272.227 74.7266C272.559 74.6263 272.915 74.5762 273.293 74.5762C273.863 74.5762 274.362 74.6582 274.79 74.8223C275.223 74.9863 275.542 75.2096 275.747 75.4922C275.952 75.7702 276.093 76.1439 276.171 76.6133L274.968 76.7773C274.913 76.4036 274.754 76.112 274.489 75.9023C274.229 75.6927 273.86 75.5879 273.382 75.5879C272.817 75.5879 272.413 75.6813 272.172 75.8682C271.93 76.055 271.81 76.2738 271.81 76.5244C271.81 76.6839 271.86 76.8275 271.96 76.9551C272.06 77.0872 272.217 77.1966 272.432 77.2832C272.555 77.3288 272.917 77.4336 273.519 77.5977C274.389 77.8301 274.995 78.0215 275.337 78.1719C275.683 78.3177 275.954 78.5319 276.15 78.8145C276.346 79.097 276.444 79.4479 276.444 79.8672C276.444 80.2773 276.324 80.6647 276.082 81.0293C275.845 81.3893 275.501 81.6696 275.05 81.8701C274.599 82.0661 274.088 82.1641 273.519 82.1641C272.575 82.1641 271.855 81.9681 271.358 81.5762C270.866 81.1842 270.552 80.6032 270.415 79.833ZM278.229 82V80.5986H279.63V82C279.63 82.515 279.539 82.9297 279.356 83.2441C279.174 83.5632 278.885 83.8092 278.488 83.9824L278.146 83.4561C278.406 83.3421 278.598 83.1735 278.721 82.9502C278.844 82.7314 278.912 82.4147 278.926 82H278.229ZM285.673 82V71.9785H286.903V82H285.673ZM288.824 73.3936V71.9785H290.055V73.3936H288.824ZM288.824 82V74.7402H290.055V82H288.824ZM291.935 82V74.7402H293.035V75.7588C293.263 75.4033 293.566 75.1185 293.944 74.9043C294.323 74.6855 294.753 74.5762 295.236 74.5762C295.774 74.5762 296.214 74.6878 296.556 74.9111C296.902 75.1344 297.146 75.4466 297.287 75.8477C297.861 75 298.609 74.5762 299.529 74.5762C300.249 74.5762 300.803 74.7767 301.19 75.1777C301.578 75.5742 301.771 76.1872 301.771 77.0166V82H300.548V77.4268C300.548 76.9346 300.507 76.5814 300.425 76.3672C300.347 76.1484 300.204 75.973 299.994 75.8408C299.785 75.7087 299.538 75.6426 299.256 75.6426C298.745 75.6426 298.322 75.8135 297.984 76.1553C297.647 76.4925 297.479 77.0348 297.479 77.7822V82H296.248V77.2832C296.248 76.7363 296.148 76.3262 295.947 76.0527C295.747 75.7793 295.419 75.6426 294.963 75.6426C294.617 75.6426 294.295 75.7337 293.999 75.916C293.707 76.0983 293.495 76.3649 293.363 76.7158C293.231 77.0667 293.165 77.5726 293.165 78.2334V82H291.935ZM303.604 73.3936V71.9785H304.834V73.3936H303.604ZM303.604 82V74.7402H304.834V82H303.604ZM309.4 80.8994L309.578 81.9863C309.232 82.0592 308.922 82.0957 308.648 82.0957C308.202 82.0957 307.855 82.0251 307.609 81.8838C307.363 81.7425 307.19 81.5579 307.09 81.3301C306.99 81.0977 306.939 80.6123 306.939 79.874V75.6973H306.037V74.7402H306.939V72.9424L308.163 72.2041V74.7402H309.4V75.6973H308.163V79.9424C308.163 80.2933 308.184 80.5189 308.225 80.6191C308.27 80.7194 308.341 80.7992 308.437 80.8584C308.537 80.9176 308.678 80.9473 308.86 80.9473C308.997 80.9473 309.177 80.9313 309.4 80.8994ZM310.583 82V71.9785H311.813V82H310.583ZM318.697 79.6621L319.969 79.8193C319.768 80.5622 319.397 81.1387 318.854 81.5488C318.312 81.959 317.619 82.1641 316.776 82.1641C315.715 82.1641 314.871 81.8382 314.247 81.1865C313.627 80.5303 313.317 79.612 313.317 78.4316C313.317 77.2103 313.632 76.2624 314.261 75.5879C314.89 74.9134 315.705 74.5762 316.708 74.5762C317.679 74.5762 318.472 74.9066 319.087 75.5674C319.702 76.2282 320.01 77.1579 320.01 78.3564C320.01 78.4294 320.007 78.5387 320.003 78.6846H314.589C314.634 79.4821 314.86 80.0928 315.266 80.5166C315.671 80.9404 316.177 81.1523 316.783 81.1523C317.234 81.1523 317.619 81.0339 317.938 80.7969C318.257 80.5599 318.51 80.1816 318.697 79.6621ZM314.657 77.6729H318.711C318.656 77.0622 318.501 76.6042 318.246 76.2988C317.854 75.8249 317.346 75.5879 316.722 75.5879C316.157 75.5879 315.68 75.777 315.293 76.1553C314.91 76.5335 314.698 77.0394 314.657 77.6729ZM321.028 79.833L322.245 79.6416C322.313 80.1292 322.503 80.5029 322.812 80.7627C323.127 81.0225 323.564 81.1523 324.125 81.1523C324.69 81.1523 325.109 81.0384 325.383 80.8105C325.656 80.5781 325.793 80.307 325.793 79.9971C325.793 79.7191 325.672 79.5003 325.431 79.3408C325.262 79.2314 324.843 79.0924 324.173 78.9238C323.271 78.696 322.644 78.5 322.293 78.3359C321.947 78.1673 321.682 77.9372 321.5 77.6455C321.322 77.3493 321.233 77.0234 321.233 76.668C321.233 76.3444 321.306 76.0459 321.452 75.7725C321.603 75.4945 321.805 75.2643 322.061 75.082C322.252 74.9408 322.512 74.8223 322.84 74.7266C323.173 74.6263 323.528 74.5762 323.906 74.5762C324.476 74.5762 324.975 74.6582 325.403 74.8223C325.836 74.9863 326.155 75.2096 326.36 75.4922C326.565 75.7702 326.707 76.1439 326.784 76.6133L325.581 76.7773C325.526 76.4036 325.367 76.112 325.103 75.9023C324.843 75.6927 324.474 75.5879 323.995 75.5879C323.43 75.5879 323.027 75.6813 322.785 75.8682C322.544 76.055 322.423 76.2738 322.423 76.5244C322.423 76.6839 322.473 76.8275 322.573 76.9551C322.674 77.0872 322.831 77.1966 323.045 77.2832C323.168 77.3288 323.53 77.4336 324.132 77.5977C325.002 77.8301 325.608 78.0215 325.95 78.1719C326.297 78.3177 326.568 78.5319 326.764 78.8145C326.96 79.097 327.058 79.4479 327.058 79.8672C327.058 80.2773 326.937 80.6647 326.695 81.0293C326.458 81.3893 326.114 81.6696 325.663 81.8701C325.212 82.0661 324.701 82.1641 324.132 82.1641C323.188 82.1641 322.468 81.9681 321.972 81.5762C321.479 81.1842 321.165 80.6032 321.028 79.833ZM328.028 79.833L329.245 79.6416C329.313 80.1292 329.503 80.5029 329.812 80.7627C330.127 81.0225 330.564 81.1523 331.125 81.1523C331.69 81.1523 332.109 81.0384 332.383 80.8105C332.656 80.5781 332.793 80.307 332.793 79.9971C332.793 79.7191 332.672 79.5003 332.431 79.3408C332.262 79.2314 331.843 79.0924 331.173 78.9238C330.271 78.696 329.644 78.5 329.293 78.3359C328.947 78.1673 328.682 77.9372 328.5 77.6455C328.322 77.3493 328.233 77.0234 328.233 76.668C328.233 76.3444 328.306 76.0459 328.452 75.7725C328.603 75.4945 328.805 75.2643 329.061 75.082C329.252 74.9408 329.512 74.8223 329.84 74.7266C330.173 74.6263 330.528 74.5762 330.906 74.5762C331.476 74.5762 331.975 74.6582 332.403 74.8223C332.836 74.9863 333.155 75.2096 333.36 75.4922C333.565 75.7702 333.707 76.1439 333.784 76.6133L332.581 76.7773C332.526 76.4036 332.367 76.112 332.103 75.9023C331.843 75.6927 331.474 75.5879 330.995 75.5879C330.43 75.5879 330.027 75.6813 329.785 75.8682C329.544 76.055 329.423 76.2738 329.423 76.5244C329.423 76.6839 329.473 76.8275 329.573 76.9551C329.674 77.0872 329.831 77.1966 330.045 77.2832C330.168 77.3288 330.53 77.4336 331.132 77.5977C332.002 77.8301 332.608 78.0215 332.95 78.1719C333.297 78.3177 333.568 78.5319 333.764 78.8145C333.96 79.097 334.058 79.4479 334.058 79.8672C334.058 80.2773 333.937 80.6647 333.695 81.0293C333.458 81.3893 333.114 81.6696 332.663 81.8701C332.212 82.0661 331.701 82.1641 331.132 82.1641C330.188 82.1641 329.468 81.9681 328.972 81.5762C328.479 81.1842 328.165 80.6032 328.028 79.833ZM339.191 82.6016L340.388 82.7793C340.438 83.1484 340.577 83.4173 340.805 83.5859C341.11 83.8138 341.527 83.9277 342.056 83.9277C342.625 83.9277 343.065 83.8138 343.375 83.5859C343.685 83.3581 343.895 83.0391 344.004 82.6289C344.068 82.3783 344.097 81.8519 344.093 81.0498C343.555 81.6833 342.885 82 342.083 82C341.085 82 340.312 81.64 339.766 80.9199C339.219 80.1999 338.945 79.3363 338.945 78.3291C338.945 77.6364 339.071 76.9984 339.321 76.415C339.572 75.8271 339.934 75.3737 340.408 75.0547C340.887 74.7357 341.447 74.5762 342.09 74.5762C342.947 74.5762 343.653 74.9225 344.209 75.6152V74.7402H345.344V81.0156C345.344 82.1458 345.228 82.9456 344.995 83.415C344.767 83.889 344.403 84.2627 343.901 84.5361C343.405 84.8096 342.792 84.9463 342.062 84.9463C341.197 84.9463 340.497 84.7503 339.964 84.3584C339.431 83.971 339.173 83.3854 339.191 82.6016ZM340.21 78.2402C340.21 79.1927 340.399 79.8877 340.777 80.3252C341.156 80.7627 341.63 80.9814 342.199 80.9814C342.764 80.9814 343.238 80.765 343.621 80.332C344.004 79.8945 344.195 79.2109 344.195 78.2812C344.195 77.3926 343.997 76.7227 343.601 76.2715C343.209 75.8203 342.735 75.5947 342.179 75.5947C341.632 75.5947 341.167 75.818 340.784 76.2646C340.401 76.7067 340.21 77.3652 340.21 78.2402ZM347.196 82V74.7402H348.304V75.8408C348.586 75.3258 348.846 74.9863 349.083 74.8223C349.325 74.6582 349.589 74.5762 349.876 74.5762C350.291 74.5762 350.712 74.7083 351.141 74.9727L350.717 76.1143C350.416 75.9365 350.115 75.8477 349.814 75.8477C349.546 75.8477 349.304 75.9297 349.09 76.0938C348.876 76.2533 348.723 76.4766 348.632 76.7637C348.495 77.2012 348.427 77.6797 348.427 78.1992V82H347.196ZM351.414 78.3701C351.414 77.0257 351.788 76.0299 352.535 75.3828C353.16 74.8451 353.921 74.5762 354.818 74.5762C355.816 74.5762 356.632 74.9043 357.266 75.5605C357.899 76.2122 358.216 77.1146 358.216 78.2676C358.216 79.2018 358.075 79.9378 357.792 80.4756C357.514 81.0088 357.106 81.4235 356.568 81.7197C356.035 82.016 355.452 82.1641 354.818 82.1641C353.802 82.1641 352.979 81.8382 352.351 81.1865C351.726 80.5348 351.414 79.596 351.414 78.3701ZM352.679 78.3701C352.679 79.2998 352.882 79.9971 353.287 80.4619C353.693 80.9222 354.203 81.1523 354.818 81.1523C355.429 81.1523 355.937 80.9199 356.343 80.4551C356.748 79.9902 356.951 79.2816 356.951 78.3291C356.951 77.4313 356.746 76.7523 356.336 76.292C355.93 75.8271 355.424 75.5947 354.818 75.5947C354.203 75.5947 353.693 75.8249 353.287 76.2852C352.882 76.7454 352.679 77.4404 352.679 78.3701ZM361.005 82L358.783 74.7402H360.055L361.21 78.9307L361.641 80.4893C361.659 80.4118 361.784 79.9128 362.017 78.9922L363.172 74.7402H364.437L365.523 78.9512L365.886 80.3389L366.303 78.9375L367.547 74.7402H368.743L366.474 82H365.195L364.04 77.6523L363.76 76.415L362.29 82H361.005ZM372.469 80.8994L372.646 81.9863C372.3 82.0592 371.99 82.0957 371.717 82.0957C371.27 82.0957 370.924 82.0251 370.678 81.8838C370.432 81.7425 370.258 81.5579 370.158 81.3301C370.058 81.0977 370.008 80.6123 370.008 79.874V75.6973H369.105V74.7402H370.008V72.9424L371.231 72.2041V74.7402H372.469V75.6973H371.231V79.9424C371.231 80.2933 371.252 80.5189 371.293 80.6191C371.339 80.7194 371.409 80.7992 371.505 80.8584C371.605 80.9176 371.746 80.9473 371.929 80.9473C372.065 80.9473 372.245 80.9313 372.469 80.8994ZM373.679 82V71.9785H374.909V75.5742C375.483 74.9089 376.208 74.5762 377.083 74.5762C377.621 74.5762 378.088 74.6833 378.484 74.8975C378.881 75.1071 379.163 75.3988 379.332 75.7725C379.505 76.1462 379.592 76.6885 379.592 77.3994V82H378.361V77.3994C378.361 76.7842 378.227 76.3376 377.958 76.0596C377.694 75.777 377.318 75.6357 376.83 75.6357C376.465 75.6357 376.121 75.7314 375.798 75.9229C375.479 76.1097 375.251 76.3649 375.114 76.6885C374.978 77.012 374.909 77.4587 374.909 78.0283V82H373.679Z" fill="#9C9C9C"/>
</svg>
