<svg width="458" height="300" viewBox="0 0 458 300" fill="none" xmlns="http://www.w3.org/2000/svg">
<g clip-path="url(#clip0_76_1280)">
<path d="M109.895 90.807C113.252 91.4786 116.61 92.1502 120.07 92.8421C120.07 116.347 120.07 139.853 120.07 164.07C126.786 164.742 133.502 165.413 140.421 166.105C139.749 163.419 139.078 160.733 138.386 157.965C138.148 153.942 138.03 149.911 138.004 145.882C137.975 143.806 137.947 141.731 137.917 139.593C138.855 127.487 143.612 121.113 152.631 113.193C162.332 109.959 170.079 109.986 179.596 113.829C188.545 119.32 188.545 119.32 191.298 123.368C190.662 127.82 190.662 127.82 189.263 131.509C185.702 133.035 185.702 133.035 181.123 133.544C179.905 132.243 178.688 130.941 177.434 129.601C173.109 124.693 173.109 124.693 165.732 124.513C159.032 124.838 159.032 124.838 155.302 127.693C151.378 133.3 151.749 137.836 151.741 144.61C151.702 146.916 151.662 149.221 151.622 151.597C152.193 158.043 152.193 158.043 155.899 162.902C162.579 167.294 166.662 166.538 174.509 165.596C176.891 165.334 179.273 165.072 181.727 164.802C183.542 164.56 185.358 164.319 187.228 164.07C188.235 169.107 188.235 169.107 189.263 174.246C181.485 179.438 173.559 178.708 164.588 178.443C154.236 177.723 154.236 177.723 144.491 180.351C132.219 181.499 122.534 181.139 111.93 174.246C106.615 168.931 107.376 165.212 107.346 157.976C107.361 156.312 107.375 154.647 107.39 152.933C107.391 151.227 107.392 149.521 107.393 147.763C107.399 144.156 107.415 140.548 107.441 136.94C107.478 131.397 107.482 125.855 107.482 120.312C107.492 116.813 107.504 113.314 107.518 109.814C107.52 108.146 107.522 106.478 107.525 104.759C107.623 93.0783 107.623 93.0783 109.895 90.807Z" fill="#29347D"/>
<path d="M240.649 110.522C251.518 111.428 257.716 114.051 264.887 122.351C269.841 131.774 269.549 139.123 269.14 149.57C269.104 151.359 269.067 153.148 269.029 154.992C268.934 159.376 268.788 163.758 268.632 168.14C274.004 166.797 279.377 165.454 284.912 164.07C284.953 162.612 284.993 161.154 285.035 159.651C285.228 153.068 285.451 146.486 285.675 139.904C285.77 136.46 285.77 136.46 285.866 132.948C285.945 130.757 286.024 128.567 286.105 126.31C286.169 124.285 286.233 122.26 286.299 120.174C286.947 115.228 286.947 115.228 291.018 111.158C298.213 112.248 298.213 112.248 301.193 115.228C302.051 124.196 302.139 133.19 302.338 142.193C302.465 144.719 302.592 147.246 302.723 149.848C303.044 167.932 303.044 167.932 297.899 174.167C290.073 179.396 282.68 181.634 273.211 181.114C270.456 181.012 270.456 181.012 267.646 180.907C262.526 180.351 262.526 180.351 258.623 179.278C250.583 177.453 242.224 178.409 234.027 178.642C227.93 178.316 227.93 178.316 221.825 174.246C222.496 170.888 223.168 167.53 223.86 164.07C225.245 164.406 226.63 164.742 228.057 165.088C237.254 166.653 245.492 167.035 254.386 164.07C254.55 158.388 254.672 152.71 254.768 147.026C254.819 145.41 254.87 143.794 254.923 142.129C254.976 137.907 254.701 133.684 254.386 129.474C248.482 125.538 246.456 124.79 239.759 124.132C237.198 123.88 234.638 123.628 232 123.368C230.728 119.553 230.728 119.553 229.965 115.228C234.035 111.158 234.035 111.158 240.649 110.522Z" fill="#303A80"/>
<path d="M85.4738 119.298C88.1601 119.97 90.8464 120.641 93.6141 121.333C93.6141 138.123 93.6141 154.912 93.6141 172.211C81.337 178.349 69.4493 178.818 55.965 179.079C54.4723 179.155 52.9796 179.231 51.4417 179.309C43.1607 179.443 38.1479 178.746 31.6075 173.435C25.2971 166.949 24.161 164.372 24.2224 155.66C24.2289 154.02 24.2355 152.38 24.2423 150.691C24.2593 148.978 24.2764 147.265 24.2939 145.5C24.3031 143.771 24.3123 142.042 24.3218 140.261C24.3458 135.987 24.3823 131.713 24.4211 127.439C27.7915 126.661 31.1869 125.986 34.5966 125.403C38.9675 129.774 37.4478 140.521 37.685 146.677C38.0696 154.138 38.4967 157.71 42.7369 164.07C46.8659 164.914 46.8659 164.914 51.5927 164.666C54.1899 164.637 54.1899 164.637 56.8394 164.607C58.6496 164.556 60.4597 164.504 62.3246 164.452C64.1505 164.424 65.9763 164.397 67.8575 164.368C72.3741 164.296 76.8882 164.196 81.4036 164.07C81.3823 162.858 81.361 161.647 81.339 160.398C81.2545 154.924 81.2015 149.449 81.1492 143.974C81.1151 142.066 81.081 140.159 81.0459 138.194C81.0327 136.371 81.0196 134.548 81.0061 132.669C80.9848 130.986 80.9635 129.302 80.9415 127.567C81.4036 123.368 81.4036 123.368 85.4738 119.298Z" fill="#26317B"/>
<path d="M362.051 165.602C363.626 165.605 365.202 165.608 366.825 165.611C369.504 165.602 369.504 165.602 372.237 165.592C375.134 165.614 375.134 165.614 378.089 165.636C380.066 165.637 382.043 165.638 384.08 165.639C388.263 165.645 392.445 165.661 396.628 165.687C403.055 165.724 409.482 165.728 415.909 165.728C419.965 165.738 424.02 165.75 428.076 165.764C430.979 165.767 430.979 165.767 433.941 165.77C435.72 165.783 437.5 165.796 439.333 165.81C441.694 165.821 441.694 165.821 444.102 165.833C447.719 166.105 447.719 166.105 449.754 168.14C450.009 173.228 450.009 173.228 449.754 178.316C447.719 180.351 447.719 180.351 443.998 180.596C442.375 180.591 440.753 180.587 439.082 180.582C437.248 180.582 435.415 180.582 433.526 180.582C431.533 180.571 429.541 180.561 427.488 180.55C425.458 180.547 423.428 180.544 421.337 180.541C414.825 180.53 408.314 180.504 401.803 180.478C397.4 180.468 392.997 180.459 388.594 180.45C377.776 180.428 366.958 180.394 356.14 180.351C354.868 175.518 354.868 175.518 354.105 170.176C358.175 166.105 358.175 166.105 362.051 165.602Z" fill="#7F6EAF"/>
<path d="M356.14 115.228C367.986 115.178 379.832 115.141 391.677 115.116C395.71 115.106 399.744 115.092 403.777 115.075C409.56 115.05 415.344 115.038 421.128 115.029C422.943 115.019 424.757 115.008 426.627 114.998C430.945 114.997 435.263 115.102 439.579 115.228C441.614 117.263 441.614 117.263 441.741 122.478C441.699 124.115 441.657 125.752 441.614 127.439C434.871 130.81 427.341 129.806 419.928 129.816C418.181 129.822 416.435 129.829 414.636 129.836C410.941 129.846 407.246 129.851 403.55 129.851C397.882 129.855 392.215 129.892 386.547 129.931C382.962 129.937 379.377 129.941 375.792 129.943C373.238 129.965 373.238 129.965 370.633 129.987C358.641 129.939 358.641 129.939 354.105 125.404C354.868 120.061 354.868 120.061 356.14 115.228Z" fill="#2190C6"/>
<path d="M315.439 90.807C325.016 92.2435 325.016 92.2435 327.649 94.8772C327.88 100.699 327.983 106.471 327.991 112.295C327.998 114.044 328.005 115.793 328.012 117.595C328.022 121.302 328.027 125.01 328.026 128.717C328.031 134.403 328.068 140.088 328.106 145.774C328.112 149.369 328.116 152.963 328.118 156.558C328.133 158.267 328.148 159.975 328.163 161.736C328.115 173.78 328.115 173.78 323.579 178.316C316.384 177.226 316.384 177.226 313.404 174.246C313.198 168.252 313.119 162.306 313.133 156.311C313.131 154.512 313.129 152.713 313.127 150.859C313.126 147.048 313.13 143.236 313.138 139.425C313.149 133.569 313.138 127.714 313.125 121.858C313.127 118.164 313.129 114.47 313.133 110.776C313.129 109.013 313.125 107.249 313.121 105.432C313.17 93.076 313.17 93.076 315.439 90.807Z" fill="#353F83"/>
<path d="M201.474 90.807C211.051 92.2435 211.051 92.2435 213.684 94.8772C213.915 100.699 214.019 106.471 214.026 112.295C214.033 114.044 214.04 115.793 214.047 117.595C214.057 121.302 214.062 125.01 214.061 128.717C214.066 134.403 214.103 140.088 214.141 145.774C214.147 149.369 214.151 152.963 214.153 156.558C214.168 158.267 214.183 159.975 214.198 161.736C214.15 173.78 214.15 173.78 209.614 178.316C202.419 177.226 202.419 177.226 199.439 174.246C199.233 168.252 199.154 162.306 199.168 156.311C199.167 154.512 199.165 152.713 199.163 150.859C199.161 147.048 199.165 143.236 199.173 139.425C199.184 133.569 199.174 127.714 199.161 121.858C199.162 118.164 199.164 114.47 199.168 110.776C199.164 109.013 199.16 107.249 199.156 105.432C199.205 93.076 199.205 93.076 201.474 90.807Z" fill="#384284"/>
<path d="M370.887 141.343C373.104 141.332 373.104 141.332 375.366 141.322C378.498 141.312 381.631 141.307 384.763 141.307C389.565 141.303 394.366 141.266 399.167 141.227C402.205 141.221 405.243 141.217 408.281 141.215C410.444 141.193 410.444 141.193 412.65 141.171C422.833 141.219 422.833 141.219 427.368 145.755C426.697 148.441 426.025 151.127 425.333 153.895C402.5 153.895 379.666 153.895 356.14 153.895C355.469 150.537 354.797 147.179 354.105 143.719C358.054 139.77 365.499 141.351 370.887 141.343Z" fill="#14A168"/>
<path d="M323.833 182.767C325.093 183.313 326.352 183.859 327.649 184.421C328.321 186.436 328.992 188.45 329.684 190.526C326.326 189.855 322.968 189.183 319.509 188.491C319.509 191.177 319.509 193.864 319.509 196.631C322.867 196.631 326.225 196.631 329.684 196.631C329.684 197.975 329.684 199.318 329.684 200.702C322.968 200.702 316.253 200.702 309.333 200.702C309.333 199.358 309.333 198.015 309.333 196.631C310.677 196.631 312.02 196.631 313.404 196.631C313.278 195.036 313.152 193.441 313.022 191.798C313.148 190.035 313.274 188.272 313.404 186.456C319.509 182.386 319.509 182.386 323.833 182.767Z" fill="#3C4688"/>
<path d="M273.846 186.329C276.302 186.392 276.302 186.392 278.807 186.456C280.079 191.29 280.079 191.29 280.842 196.632C279.499 197.975 278.156 199.318 276.772 200.702C272.447 199.939 272.447 199.939 268.632 198.667C267.854 195.296 267.179 191.901 266.596 188.491C268.632 186.456 268.632 186.456 273.846 186.329Z" fill="#2D387F"/>
<path d="M48.842 109.123C52.2517 109.705 55.6471 110.38 59.0175 111.158C59.0175 114.516 59.0175 117.874 59.0175 121.333C54.1841 122.605 54.1841 122.605 48.842 123.368C47.4989 122.025 46.1557 120.682 44.7719 119.298C45.8621 112.103 45.8621 112.103 48.842 109.123Z" fill="#2F3980"/>
<path d="M284.912 186.456C288.27 186.456 291.628 186.456 295.088 186.456C296.36 191.29 296.36 191.29 297.123 196.632C295.78 197.975 294.436 199.318 293.053 200.702C288.728 199.939 288.728 199.939 284.912 198.667C282.623 191.035 282.623 191.035 284.912 186.456Z" fill="#2A357E"/>
<path d="M65.1227 109.123C68.5324 109.705 71.9278 110.38 75.2982 111.158C75.2982 114.516 75.2982 117.874 75.2982 121.333C71.9278 122.111 68.5324 122.786 65.1227 123.368C63.0876 121.333 63.0876 121.333 62.8333 116.246C63.0876 111.158 63.0876 111.158 65.1227 109.123Z" fill="#27327C"/>
<path d="M8.14031 115.228C11.55 115.81 14.9453 116.485 18.3158 117.263C17.6442 119.95 16.9726 122.636 16.2807 125.404C13.5943 125.404 10.908 125.404 8.14031 125.404C6.99558 121.461 6.99558 121.461 6.10522 117.263C6.7768 116.592 7.44838 115.92 8.14031 115.228Z" fill="#9CA0BF"/>
<path d="M315.439 192.561C320.14 193.905 324.841 195.248 329.684 196.632C329.684 197.975 329.684 199.318 329.684 200.702C322.968 200.702 316.253 200.702 309.333 200.702C309.333 199.359 309.333 198.015 309.333 196.632C311.348 196.632 313.363 196.632 315.439 196.632C315.439 195.288 315.439 193.945 315.439 192.561Z" fill="#132376"/>
</g>
<defs>
<clipPath id="clip0_76_1280">
<rect width="457.895" height="300" fill="white"/>
</clipPath>
</defs>
</svg>
