<svg width="290" height="306" viewBox="0 0 290 306" fill="none" xmlns="http://www.w3.org/2000/svg">
<path d="M331 120C331 95.5741 326.189 71.3874 316.842 48.8209C307.494 26.2543 293.794 5.74983 276.522 -11.5219C259.25 -28.7936 238.746 -42.4942 216.179 -51.8416C193.613 -61.189 169.426 -66 145 -66C120.574 -66 96.3874 -61.189 73.8209 -51.8416C51.2543 -42.4942 30.7498 -28.7936 13.4781 -11.5219C-3.79357 5.74985 -17.4942 26.2543 -26.8416 48.8209C-36.189 71.3875 -41 95.5741 -41 120L145 120H331Z" fill="url(#paint0_linear_4044_10423)" fill-opacity="0.5"/>
<path d="M245 119.864C245 106.732 242.413 93.7285 237.388 81.5959C232.362 69.4634 224.997 58.4394 215.711 49.1536C206.425 39.8677 195.401 32.5018 183.268 27.4763C171.136 22.4508 158.132 19.8643 145 19.8643C131.868 19.8643 118.864 22.4508 106.732 27.4763C94.5991 32.5018 83.5752 39.8677 74.2893 49.1536C65.0035 58.4394 57.6375 69.4634 52.612 81.5959C47.5866 93.7285 45 106.732 45 119.864L145 119.864H245Z" fill="url(#paint1_linear_4044_10423)" fill-opacity="0.5"/>
<path d="M209.282 120C209.282 111.559 207.619 103.2 204.389 95.4008C201.158 87.6018 196.423 80.5155 190.454 74.5464C184.485 68.5773 177.399 63.8423 169.6 60.6119C161.801 57.3814 153.442 55.7187 145 55.7188C136.559 55.7188 128.2 57.3814 120.401 60.6119C112.602 63.8424 105.515 68.5773 99.5464 74.5464C93.5773 80.5155 88.8423 87.6018 85.6119 95.4009C82.3814 103.2 80.7187 111.559 80.7188 120L145 120H209.282Z" fill="url(#paint2_linear_4044_10423)" fill-opacity="0.5"/>
<path d="M0 121H290" stroke="#00B9BE" stroke-width="2"/>
<g filter="url(#filter0_f_4044_10423)">
<ellipse cx="145.331" cy="120.745" rx="25.1596" ry="25.7447" fill="white" fill-opacity="0.89"/>
</g>
<circle cx="145.499" cy="121.234" r="21.065" fill="#CCF1F2"/>
<mask id="mask0_4044_10423" style="mask-type:alpha" maskUnits="userSpaceOnUse" x="134" y="109" width="24" height="24">
<rect x="134" y="109" width="24" height="24" fill="#D9D9D9"/>
</mask>
<g mask="url(#mask0_4044_10423)">
<path d="M143.249 131L142.849 127.8C142.633 127.717 142.428 127.617 142.237 127.5C142.045 127.383 141.858 127.258 141.674 127.125L138.699 128.375L135.949 123.625L138.524 121.675C138.508 121.558 138.499 121.446 138.499 121.338V120.663C138.499 120.554 138.508 120.442 138.524 120.325L135.949 118.375L138.699 113.625L141.674 114.875C141.858 114.742 142.049 114.617 142.249 114.5C142.449 114.383 142.649 114.283 142.849 114.2L143.249 111H148.749L149.149 114.2C149.366 114.283 149.57 114.383 149.762 114.5C149.953 114.617 150.141 114.742 150.324 114.875L153.299 113.625L156.049 118.375L153.474 120.325C153.491 120.442 153.499 120.554 153.499 120.663V121.338C153.499 121.446 153.483 121.558 153.449 121.675L156.024 123.625L153.274 128.375L150.324 127.125C150.141 127.258 149.949 127.383 149.749 127.5C149.549 127.617 149.349 127.717 149.149 127.8L148.749 131H143.249ZM146.049 124.5C147.016 124.5 147.841 124.158 148.524 123.475C149.208 122.792 149.549 121.967 149.549 121C149.549 120.033 149.208 119.208 148.524 118.525C147.841 117.842 147.016 117.5 146.049 117.5C145.066 117.5 144.237 117.842 143.562 118.525C142.887 119.208 142.549 120.033 142.549 121C142.549 121.967 142.887 122.792 143.562 123.475C144.237 124.158 145.066 124.5 146.049 124.5Z" fill="#00B9BE"/>
</g>
<path d="M171.66 121.33C171.66 135.871 159.871 147.66 145.33 147.66C130.788 147.66 119 135.871 119 121.33C119 106.788 130.788 95 145.33 95C159.871 95 171.66 106.788 171.66 121.33ZM120.455 121.33C120.455 135.068 131.592 146.204 145.33 146.204C159.068 146.204 170.204 135.068 170.204 121.33C170.204 107.592 159.068 96.4554 145.33 96.4554C131.592 96.4554 120.455 107.592 120.455 121.33Z" fill="#00B9BE"/>
<defs>
<filter id="filter0_f_4044_10423" x="117.831" y="92.6596" width="55.0012" height="56.1701" filterUnits="userSpaceOnUse" color-interpolation-filters="sRGB">
<feFlood flood-opacity="0" result="BackgroundImageFix"/>
<feBlend mode="normal" in="SourceGraphic" in2="BackgroundImageFix" result="shape"/>
<feGaussianBlur stdDeviation="1.17021" result="effect1_foregroundBlur_4044_10423"/>
</filter>
<linearGradient id="paint0_linear_4044_10423" x1="145" y1="306" x2="145" y2="-87.0741" gradientUnits="userSpaceOnUse">
<stop stop-color="#00B9BE" stop-opacity="0.2"/>
<stop offset="1" stop-color="#00B9BE" stop-opacity="0"/>
</linearGradient>
<linearGradient id="paint1_linear_4044_10423" x1="145" y1="219.864" x2="145" y2="8.53412" gradientUnits="userSpaceOnUse">
<stop stop-color="#00B9BE" stop-opacity="0.4"/>
<stop offset="1" stop-color="#00B9BE" stop-opacity="0"/>
</linearGradient>
<linearGradient id="paint2_linear_4044_10423" x1="145" y1="184.282" x2="145" y2="48.4356" gradientUnits="userSpaceOnUse">
<stop stop-color="#00B9BE" stop-opacity="0.6"/>
<stop offset="1" stop-color="#00B9BE" stop-opacity="0"/>
</linearGradient>
</defs>
</svg>
