<svg width="290" height="119" viewBox="0 0 290 119" fill="none" xmlns="http://www.w3.org/2000/svg">
<path d="M-1 73H289" stroke="#00B9BE" stroke-width="2"/>
<g filter="url(#filter0_f_4014_24634)">
<path d="M-1 73H289" stroke="url(#paint0_linear_4014_24634)" stroke-width="6"/>
</g>
<circle cx="215.001" cy="73.0001" r="21.065" fill="#CCF1F2"/>
<path d="M221.623 80H220.998V65.75C220.998 65.3358 220.662 65 220.248 65H209.748C209.334 65 208.998 65.3358 208.998 65.75V80H208.373C208.166 80 207.998 80.1679 207.998 80.375V81H221.998V80.375C221.998 80.1679 221.83 80 221.623 80ZM211.998 67.375C211.998 67.1679 212.166 67 212.373 67H213.623C213.83 67 213.998 67.1679 213.998 67.375V68.625C213.998 68.8321 213.83 69 213.623 69H212.373C212.166 69 211.998 68.8321 211.998 68.625V67.375ZM211.998 70.375C211.998 70.1679 212.166 70 212.373 70H213.623C213.83 70 213.998 70.1679 213.998 70.375V71.625C213.998 71.8321 213.83 72 213.623 72H212.373C212.166 72 211.998 71.8321 211.998 71.625V70.375ZM213.623 75H212.373C212.166 75 211.998 74.8321 211.998 74.625V73.375C211.998 73.1679 212.166 73 212.373 73H213.623C213.83 73 213.998 73.1679 213.998 73.375V74.625C213.998 74.8321 213.83 75 213.623 75ZM215.998 80H213.998V77.375C213.998 77.1679 214.166 77 214.373 77H215.623C215.83 77 215.998 77.1679 215.998 77.375V80ZM217.998 74.625C217.998 74.8321 217.83 75 217.623 75H216.373C216.166 75 215.998 74.8321 215.998 74.625V73.375C215.998 73.1679 216.166 73 216.373 73H217.623C217.83 73 217.998 73.1679 217.998 73.375V74.625ZM217.998 71.625C217.998 71.8321 217.83 72 217.623 72H216.373C216.166 72 215.998 71.8321 215.998 71.625V70.375C215.998 70.1679 216.166 70 216.373 70H217.623C217.83 70 217.998 70.1679 217.998 70.375V71.625ZM217.998 68.625C217.998 68.8321 217.83 69 217.623 69H216.373C216.166 69 215.998 68.8321 215.998 68.625V67.375C215.998 67.1679 216.166 67 216.373 67H217.623C217.83 67 217.998 67.1679 217.998 67.375V68.625Z" fill="#00B9BE"/>
<path d="M241.085 73.0957C241.085 87.6373 229.297 99.4255 214.756 99.4255C200.214 99.4255 188.426 87.6373 188.426 73.0957C188.426 58.5542 200.214 46.7659 214.756 46.7659C229.297 46.7659 241.085 58.5542 241.085 73.0957ZM189.881 73.0957C189.881 86.8335 201.018 97.9701 214.756 97.9701C228.493 97.9701 239.63 86.8335 239.63 73.0957C239.63 59.358 228.493 48.2213 214.756 48.2213C201.018 48.2213 189.881 59.358 189.881 73.0957Z" fill="#00B9BE"/>
<g filter="url(#filter1_f_4014_24634)">
<ellipse cx="188.15" cy="72.5107" rx="25.1596" ry="25.7447" fill="white" fill-opacity="0.89"/>
</g>
<circle cx="188.012" cy="73.0001" r="21.065" fill="#CCF1F2"/>
<path d="M194.627 80H194.002V65.75C194.002 65.3358 193.666 65 193.252 65H182.752C182.338 65 182.002 65.3358 182.002 65.75V80H181.377C181.17 80 181.002 80.1679 181.002 80.375V81H195.002V80.375C195.002 80.1679 194.834 80 194.627 80ZM185.002 67.375C185.002 67.1679 185.17 67 185.377 67H186.627C186.834 67 187.002 67.1679 187.002 67.375V68.625C187.002 68.8321 186.834 69 186.627 69H185.377C185.17 69 185.002 68.8321 185.002 68.625V67.375ZM185.002 70.375C185.002 70.1679 185.17 70 185.377 70H186.627C186.834 70 187.002 70.1679 187.002 70.375V71.625C187.002 71.8321 186.834 72 186.627 72H185.377C185.17 72 185.002 71.8321 185.002 71.625V70.375ZM186.627 75H185.377C185.17 75 185.002 74.8321 185.002 74.625V73.375C185.002 73.1679 185.17 73 185.377 73H186.627C186.834 73 187.002 73.1679 187.002 73.375V74.625C187.002 74.8321 186.834 75 186.627 75ZM189.002 80H187.002V77.375C187.002 77.1679 187.17 77 187.377 77H188.627C188.834 77 189.002 77.1679 189.002 77.375V80ZM191.002 74.625C191.002 74.8321 190.834 75 190.627 75H189.377C189.17 75 189.002 74.8321 189.002 74.625V73.375C189.002 73.1679 189.17 73 189.377 73H190.627C190.834 73 191.002 73.1679 191.002 73.375V74.625ZM191.002 71.625C191.002 71.8321 190.834 72 190.627 72H189.377C189.17 72 189.002 71.8321 189.002 71.625V70.375C189.002 70.1679 189.17 70 189.377 70H190.627C190.834 70 191.002 70.1679 191.002 70.375V71.625ZM191.002 68.625C191.002 68.8321 190.834 69 190.627 69H189.377C189.17 69 189.002 68.8321 189.002 68.625V67.375C189.002 67.1679 189.17 67 189.377 67H190.627C190.834 67 191.002 67.1679 191.002 67.375V68.625Z" fill="#00B9BE"/>
<path d="M214.48 73.0958C214.48 87.6374 202.692 99.4256 188.15 99.4256C173.609 99.4256 161.82 87.6374 161.82 73.0958C161.82 58.5543 173.609 46.7661 188.15 46.7661C202.692 46.7661 214.48 58.5543 214.48 73.0958ZM163.276 73.0958C163.276 86.8336 174.412 97.9702 188.15 97.9702C201.888 97.9702 213.025 86.8336 213.025 73.0958C213.025 59.3581 201.888 48.2214 188.15 48.2214C174.412 48.2214 163.276 59.3581 163.276 73.0958Z" fill="#00B9BE"/>
<g filter="url(#filter2_f_4014_24634)">
<ellipse cx="161.49" cy="72.5107" rx="25.1596" ry="25.7447" fill="white" fill-opacity="0.89"/>
</g>
<circle cx="161.798" cy="73.0001" r="21.065" fill="#CCF1F2"/>
<path d="M168.624 80H167.999V65.75C167.999 65.3358 167.663 65 167.249 65H156.749C156.335 65 155.999 65.3358 155.999 65.75V80H155.374C155.167 80 154.999 80.1679 154.999 80.375V81H168.999V80.375C168.999 80.1679 168.831 80 168.624 80ZM158.999 67.375C158.999 67.1679 159.167 67 159.374 67H160.624C160.831 67 160.999 67.1679 160.999 67.375V68.625C160.999 68.8321 160.831 69 160.624 69H159.374C159.167 69 158.999 68.8321 158.999 68.625V67.375ZM158.999 70.375C158.999 70.1679 159.167 70 159.374 70H160.624C160.831 70 160.999 70.1679 160.999 70.375V71.625C160.999 71.8321 160.831 72 160.624 72H159.374C159.167 72 158.999 71.8321 158.999 71.625V70.375ZM160.624 75H159.374C159.167 75 158.999 74.8321 158.999 74.625V73.375C158.999 73.1679 159.167 73 159.374 73H160.624C160.831 73 160.999 73.1679 160.999 73.375V74.625C160.999 74.8321 160.831 75 160.624 75ZM162.999 80H160.999V77.375C160.999 77.1679 161.167 77 161.374 77H162.624C162.831 77 162.999 77.1679 162.999 77.375V80ZM164.999 74.625C164.999 74.8321 164.831 75 164.624 75H163.374C163.167 75 162.999 74.8321 162.999 74.625V73.375C162.999 73.1679 163.167 73 163.374 73H164.624C164.831 73 164.999 73.1679 164.999 73.375V74.625ZM164.999 71.625C164.999 71.8321 164.831 72 164.624 72H163.374C163.167 72 162.999 71.8321 162.999 71.625V70.375C162.999 70.1679 163.167 70 163.374 70H164.624C164.831 70 164.999 70.1679 164.999 70.375V71.625ZM164.999 68.625C164.999 68.8321 164.831 69 164.624 69H163.374C163.167 69 162.999 68.8321 162.999 68.625V67.375C162.999 67.1679 163.167 67 163.374 67H164.624C164.831 67 164.999 67.1679 164.999 67.375V68.625Z" fill="#00B9BE"/>
<path d="M187.82 73.0958C187.82 87.6374 176.031 99.4256 161.49 99.4256C146.948 99.4256 135.16 87.6374 135.16 73.0958C135.16 58.5543 146.948 46.7661 161.49 46.7661C176.031 46.7661 187.82 58.5543 187.82 73.0958ZM136.616 73.0958C136.616 86.8336 147.752 97.9702 161.49 97.9702C175.228 97.9702 186.364 86.8336 186.364 73.0958C186.364 59.3581 175.228 48.2214 161.49 48.2214C147.752 48.2214 136.616 59.3581 136.616 73.0958Z" fill="#00B9BE"/>
<g filter="url(#filter3_f_4014_24634)">
<ellipse cx="134.829" cy="72.5107" rx="25.1596" ry="25.7447" fill="white" fill-opacity="0.89"/>
</g>
<circle cx="135.001" cy="73.0001" r="21.065" fill="#CCF1F2"/>
<path d="M141.627 80H141.002V65.75C141.002 65.3358 140.666 65 140.252 65H129.752C129.338 65 129.002 65.3358 129.002 65.75V80H128.377C128.17 80 128.002 80.1679 128.002 80.375V81H142.002V80.375C142.002 80.1679 141.834 80 141.627 80ZM132.002 67.375C132.002 67.1679 132.17 67 132.377 67H133.627C133.834 67 134.002 67.1679 134.002 67.375V68.625C134.002 68.8321 133.834 69 133.627 69H132.377C132.17 69 132.002 68.8321 132.002 68.625V67.375ZM132.002 70.375C132.002 70.1679 132.17 70 132.377 70H133.627C133.834 70 134.002 70.1679 134.002 70.375V71.625C134.002 71.8321 133.834 72 133.627 72H132.377C132.17 72 132.002 71.8321 132.002 71.625V70.375ZM133.627 75H132.377C132.17 75 132.002 74.8321 132.002 74.625V73.375C132.002 73.1679 132.17 73 132.377 73H133.627C133.834 73 134.002 73.1679 134.002 73.375V74.625C134.002 74.8321 133.834 75 133.627 75ZM136.002 80H134.002V77.375C134.002 77.1679 134.17 77 134.377 77H135.627C135.834 77 136.002 77.1679 136.002 77.375V80ZM138.002 74.625C138.002 74.8321 137.834 75 137.627 75H136.377C136.17 75 136.002 74.8321 136.002 74.625V73.375C136.002 73.1679 136.17 73 136.377 73H137.627C137.834 73 138.002 73.1679 138.002 73.375V74.625ZM138.002 71.625C138.002 71.8321 137.834 72 137.627 72H136.377C136.17 72 136.002 71.8321 136.002 71.625V70.375C136.002 70.1679 136.17 70 136.377 70H137.627C137.834 70 138.002 70.1679 138.002 70.375V71.625ZM138.002 68.625C138.002 68.8321 137.834 69 137.627 69H136.377C136.17 69 136.002 68.8321 136.002 68.625V67.375C136.002 67.1679 136.17 67 136.377 67H137.627C137.834 67 138.002 67.1679 138.002 67.375V68.625Z" fill="#00B9BE"/>
<path d="M161.16 73.0958C161.16 87.6374 149.371 99.4256 134.83 99.4256C120.288 99.4256 108.5 87.6374 108.5 73.0958C108.5 58.5543 120.288 46.7661 134.83 46.7661C149.371 46.7661 161.16 58.5543 161.16 73.0958ZM109.955 73.0958C109.955 86.8336 121.092 97.9702 134.83 97.9702C148.568 97.9702 159.704 86.8336 159.704 73.0958C159.704 59.3581 148.568 48.2214 134.83 48.2214C121.092 48.2214 109.955 59.3581 109.955 73.0958Z" fill="#00B9BE"/>
<g filter="url(#filter4_f_4014_24634)">
<ellipse cx="70.8295" cy="72.5107" rx="25.1596" ry="25.7447" fill="white" fill-opacity="0.89"/>
</g>
<circle cx="71.0005" cy="73.0001" r="21.065" fill="#CCF1F2"/>
<path d="M77 71H73V67C73 66.4696 72.7893 65.9609 72.4142 65.5858C72.0391 65.2107 71.5304 65 71 65C70.4696 65 69.9609 65.2107 69.5858 65.5858C69.2107 65.9609 69 66.4696 69 67L69.071 71H65C64.4696 71 63.9609 71.2107 63.5858 71.5858C63.2107 71.9609 63 72.4696 63 73C63 73.5304 63.2107 74.0391 63.5858 74.4142C63.9609 74.7893 64.4696 75 65 75L69.071 74.929L69 79C69 79.5304 69.2107 80.0391 69.5858 80.4142C69.9609 80.7893 70.4696 81 71 81C71.5304 81 72.0391 80.7893 72.4142 80.4142C72.7893 80.0391 73 79.5304 73 79V74.929L77 75C77.5304 75 78.0391 74.7893 78.4142 74.4142C78.7893 74.0391 79 73.5304 79 73C79 72.4696 78.7893 71.9609 78.4142 71.5858C78.0391 71.2107 77.5304 71 77 71Z" fill="#00B9BE"/>
<path d="M97.1596 73.0958C97.1596 87.6374 85.3713 99.4256 70.8298 99.4256C56.2882 99.4256 44.5 87.6374 44.5 73.0958C44.5 58.5543 56.2882 46.7661 70.8298 46.7661C85.3713 46.7661 97.1596 58.5543 97.1596 73.0958ZM45.9554 73.0958C45.9554 86.8336 57.092 97.9702 70.8298 97.9702C84.5675 97.9702 95.7042 86.8336 95.7042 73.0958C95.7042 59.3581 84.5675 48.2214 70.8298 48.2214C57.092 48.2214 45.9554 59.3581 45.9554 73.0958Z" fill="#00B9BE"/>
<g filter="url(#filter5_d_4014_24634)">
<path d="M97.5509 34.5201L88.9368 37.7018L92.0339 28.9788L93.8164 32.7415L97.5509 34.5201Z" fill="#00B9BE"/>
<path d="M97.5509 34.5201L88.9368 37.7018L92.0339 28.9788L93.8164 32.7415L97.5509 34.5201Z" stroke="#11E7EC" stroke-width="0.564636"/>
</g>
<g filter="url(#filter6_d_4014_24634)">
<mask id="path-23-inside-1_4014_24634" fill="white">
<path d="M96 21.552C96 14.0675 102.067 8.00006 109.552 8.00006H164.5C170.851 8.00006 176 13.1488 176 19.5001C176 25.8513 170.851 31.0001 164.5 31.0001H97.128C96.505 31.0001 96 30.495 96 29.8721V21.552Z"/>
</mask>
<path d="M96 21.552C96 14.0675 102.067 8.00006 109.552 8.00006H164.5C170.851 8.00006 176 13.1488 176 19.5001C176 25.8513 170.851 31.0001 164.5 31.0001H97.128C96.505 31.0001 96 30.495 96 29.8721V21.552Z" fill="#00B9BE" shape-rendering="crispEdges"/>
<path d="M96 21.552C96 14.0675 102.067 8.00006 109.552 8.00006H164.5C170.851 8.00006 176 13.1488 176 19.5001C176 25.8513 170.851 31.0001 164.5 31.0001H97.128C96.505 31.0001 96 30.495 96 29.8721V21.552Z" stroke="#11E7EC" stroke-width="2.25854" shape-rendering="crispEdges" mask="url(#path-23-inside-1_4014_24634)"/>
<path d="M111.714 23.5172H110.064L109.586 22.0218H107.195L106.722 23.5172H105.081L107.528 16.7953H109.323L111.714 23.5172ZM109.239 20.8593L108.517 18.6C108.464 18.4312 108.426 18.2297 108.404 17.9953H108.367C108.351 18.1922 108.312 18.3875 108.25 18.5812L107.519 20.8593H109.239ZM117.104 23.5172H115.623V22.8562H115.604C115.267 23.375 114.772 23.6343 114.119 23.6343C113.519 23.6343 113.036 23.4234 112.67 23.0015C112.304 22.5765 112.122 21.9843 112.122 21.225C112.122 20.4312 112.323 19.7953 112.726 19.3172C113.129 18.839 113.658 18.6 114.311 18.6C114.929 18.6 115.361 18.8219 115.604 19.2656H115.623V16.4109H117.104V23.5172ZM115.651 21.1828V20.8218C115.651 20.5094 115.561 20.25 115.379 20.0437C115.198 19.8375 114.962 19.7344 114.672 19.7344C114.344 19.7344 114.087 19.864 113.903 20.1234C113.719 20.3797 113.626 20.7328 113.626 21.1828C113.626 21.6047 113.715 21.9297 113.894 22.1578C114.072 22.3859 114.319 22.5 114.634 22.5C114.934 22.5 115.178 22.3797 115.365 22.139C115.556 21.8984 115.651 21.5797 115.651 21.1828ZM123.048 23.5172H121.567V22.8562H121.548C121.211 23.375 120.715 23.6343 120.062 23.6343C119.462 23.6343 118.979 23.4234 118.614 23.0015C118.248 22.5765 118.065 21.9843 118.065 21.225C118.065 20.4312 118.267 19.7953 118.67 19.3172C119.073 18.839 119.601 18.6 120.254 18.6C120.873 18.6 121.304 18.8219 121.548 19.2656H121.567V16.4109H123.048V23.5172ZM121.595 21.1828V20.8218C121.595 20.5094 121.504 20.25 121.323 20.0437C121.142 19.8375 120.906 19.7344 120.615 19.7344C120.287 19.7344 120.031 19.864 119.847 20.1234C119.662 20.3797 119.57 20.7328 119.57 21.1828C119.57 21.6047 119.659 21.9297 119.837 22.1578C120.015 22.3859 120.262 22.5 120.578 22.5C120.878 22.5 121.122 22.3797 121.309 22.139C121.5 21.8984 121.595 21.5797 121.595 21.1828ZM131.912 23.2781C131.422 23.5156 130.781 23.6343 129.99 23.6343C128.959 23.6343 128.148 23.3312 127.558 22.725C126.967 22.1187 126.672 21.3109 126.672 20.3015C126.672 19.2265 127.003 18.3547 127.665 17.6859C128.331 17.0172 129.193 16.6828 130.253 16.6828C130.909 16.6828 131.462 16.7656 131.912 16.9312V18.389C131.462 18.1203 130.95 17.9859 130.375 17.9859C129.743 17.9859 129.234 18.1844 128.847 18.5812C128.459 18.9781 128.265 19.5156 128.265 20.1937C128.265 20.8437 128.448 21.3625 128.814 21.75C129.179 22.1343 129.672 22.3265 130.29 22.3265C130.881 22.3265 131.422 22.1828 131.912 21.8953V23.2781ZM135.226 23.6343C134.426 23.6343 133.797 23.4109 133.337 22.964C132.881 22.514 132.653 21.9047 132.653 21.1359C132.653 20.3422 132.89 19.7219 133.365 19.275C133.84 18.825 134.483 18.6 135.292 18.6C136.089 18.6 136.714 18.825 137.167 19.275C137.62 19.7219 137.847 20.314 137.847 21.0515C137.847 21.8484 137.612 22.4781 137.143 22.9406C136.678 23.4031 136.039 23.6343 135.226 23.6343ZM135.264 19.7344C134.914 19.7344 134.642 19.8547 134.448 20.0953C134.254 20.3359 134.158 20.6765 134.158 21.1172C134.158 22.039 134.529 22.5 135.273 22.5C135.982 22.5 136.337 22.0265 136.337 21.0797C136.337 20.1828 135.979 19.7344 135.264 19.7344ZM146.429 23.5172H144.953V20.7797C144.953 20.0828 144.697 19.7344 144.184 19.7344C143.94 19.7344 143.742 19.839 143.589 20.0484C143.436 20.2578 143.359 20.5187 143.359 20.8312V23.5172H141.878V20.7515C141.878 20.0734 141.626 19.7344 141.123 19.7344C140.87 19.7344 140.667 19.8344 140.514 20.0344C140.364 20.2344 140.289 20.5062 140.289 20.85V23.5172H138.807V18.7172H140.289V19.4672H140.307C140.461 19.2109 140.675 19.0031 140.95 18.8437C141.228 18.6812 141.531 18.6 141.859 18.6C142.537 18.6 143.001 18.8984 143.251 19.4953C143.617 18.8984 144.154 18.6 144.864 18.6C145.907 18.6 146.429 19.2437 146.429 20.5312V23.5172ZM149.101 22.9593H149.082V25.725H147.601V18.7172H149.082V19.439H149.101C149.467 18.8797 149.981 18.6 150.643 18.6C151.265 18.6 151.745 18.814 152.082 19.2422C152.423 19.6672 152.593 20.2469 152.593 20.9812C152.593 21.7812 152.395 22.4234 151.998 22.9078C151.604 23.3922 151.079 23.6343 150.423 23.6343C149.845 23.6343 149.404 23.4093 149.101 22.9593ZM149.059 20.9906V21.375C149.059 21.7062 149.147 21.9765 149.322 22.1859C149.497 22.3953 149.726 22.5 150.011 22.5C150.348 22.5 150.609 22.3703 150.793 22.1109C150.981 21.8484 151.075 21.4781 151.075 21C151.075 20.1562 150.746 19.7344 150.09 19.7344C149.787 19.7344 149.539 19.85 149.345 20.0812C149.154 20.3094 149.059 20.6125 149.059 20.9906ZM157.454 23.5172H156.053V22.8281H156.034C155.712 23.3656 155.236 23.6343 154.604 23.6343C154.139 23.6343 153.771 23.5031 153.503 23.2406C153.237 22.975 153.104 22.6218 153.104 22.1812C153.104 21.25 153.656 20.7125 154.759 20.5687L156.062 20.3953C156.062 19.8703 155.778 19.6078 155.209 19.6078C154.637 19.6078 154.093 19.7781 153.578 20.1187V19.0031C153.784 18.8969 154.065 18.8031 154.421 18.7219C154.781 18.6406 155.107 18.6 155.401 18.6C156.77 18.6 157.454 19.2828 157.454 20.6484V23.5172ZM156.062 21.5672V21.2437L155.19 21.3562C154.709 21.4187 154.468 21.6359 154.468 22.0078C154.468 22.1765 154.526 22.3156 154.642 22.425C154.761 22.5312 154.92 22.5843 155.12 22.5843C155.398 22.5843 155.625 22.489 155.8 22.2984C155.975 22.1047 156.062 21.8609 156.062 21.5672ZM163.262 23.5172H161.786V20.85C161.786 20.1062 161.52 19.7344 160.989 19.7344C160.732 19.7344 160.521 19.8328 160.356 20.0297C160.19 20.2265 160.107 20.4765 160.107 20.7797V23.5172H158.626V18.7172H160.107V19.4765H160.126C160.479 18.8922 160.993 18.6 161.668 18.6C162.731 18.6 163.262 19.2594 163.262 20.5781V23.5172ZM169.009 18.7172L167.059 23.9015C166.59 25.1484 165.884 25.7718 164.94 25.7718C164.581 25.7718 164.286 25.7312 164.054 25.65V24.4687C164.251 24.5843 164.465 24.6421 164.696 24.6421C165.078 24.6421 165.343 24.4625 165.493 24.1031L165.746 23.5078L163.796 18.7172H165.437L166.332 21.6375C166.389 21.8187 166.432 22.0328 166.464 22.2797H166.482C166.51 22.0984 166.562 21.8875 166.637 21.6468L167.542 18.7172H169.009Z" fill="white"/>
</g>
<defs>
<filter id="filter0_f_4014_24634" x="-7" y="64" width="302" height="18" filterUnits="userSpaceOnUse" color-interpolation-filters="sRGB">
<feFlood flood-opacity="0" result="BackgroundImageFix"/>
<feBlend mode="normal" in="SourceGraphic" in2="BackgroundImageFix" result="shape"/>
<feGaussianBlur stdDeviation="3" result="effect1_foregroundBlur_4014_24634"/>
</filter>
<filter id="filter1_f_4014_24634" x="160.65" y="44.4256" width="55.0002" height="56.1702" filterUnits="userSpaceOnUse" color-interpolation-filters="sRGB">
<feFlood flood-opacity="0" result="BackgroundImageFix"/>
<feBlend mode="normal" in="SourceGraphic" in2="BackgroundImageFix" result="shape"/>
<feGaussianBlur stdDeviation="1.17021" result="effect1_foregroundBlur_4014_24634"/>
</filter>
<filter id="filter2_f_4014_24634" x="133.99" y="44.4256" width="55.0002" height="56.1702" filterUnits="userSpaceOnUse" color-interpolation-filters="sRGB">
<feFlood flood-opacity="0" result="BackgroundImageFix"/>
<feBlend mode="normal" in="SourceGraphic" in2="BackgroundImageFix" result="shape"/>
<feGaussianBlur stdDeviation="1.17021" result="effect1_foregroundBlur_4014_24634"/>
</filter>
<filter id="filter3_f_4014_24634" x="107.329" y="44.4256" width="55.0002" height="56.1702" filterUnits="userSpaceOnUse" color-interpolation-filters="sRGB">
<feFlood flood-opacity="0" result="BackgroundImageFix"/>
<feBlend mode="normal" in="SourceGraphic" in2="BackgroundImageFix" result="shape"/>
<feGaussianBlur stdDeviation="1.17021" result="effect1_foregroundBlur_4014_24634"/>
</filter>
<filter id="filter4_f_4014_24634" x="43.3295" y="44.4256" width="55.0002" height="56.1702" filterUnits="userSpaceOnUse" color-interpolation-filters="sRGB">
<feFlood flood-opacity="0" result="BackgroundImageFix"/>
<feBlend mode="normal" in="SourceGraphic" in2="BackgroundImageFix" result="shape"/>
<feGaussianBlur stdDeviation="1.17021" result="effect1_foregroundBlur_4014_24634"/>
</filter>
<filter id="filter5_d_4014_24634" x="87.3405" y="27.6784" width="12.0681" height="12.1918" filterUnits="userSpaceOnUse" color-interpolation-filters="sRGB">
<feFlood flood-opacity="0" result="BackgroundImageFix"/>
<feColorMatrix in="SourceAlpha" type="matrix" values="0 0 0 0 0 0 0 0 0 0 0 0 0 0 0 0 0 0 127 0" result="hardAlpha"/>
<feOffset dy="0.564636"/>
<feGaussianBlur stdDeviation="0.564636"/>
<feComposite in2="hardAlpha" operator="out"/>
<feColorMatrix type="matrix" values="0 0 0 0 0 0 0 0 0 0 0 0 0 0 0 0 0 0 0.25 0"/>
<feBlend mode="normal" in2="BackgroundImageFix" result="effect1_dropShadow_4014_24634"/>
<feBlend mode="normal" in="SourceGraphic" in2="effect1_dropShadow_4014_24634" result="shape"/>
</filter>
<filter id="filter6_d_4014_24634" x="92.6122" y="4.61225" width="91.2927" height="34.2927" filterUnits="userSpaceOnUse" color-interpolation-filters="sRGB">
<feFlood flood-opacity="0" result="BackgroundImageFix"/>
<feColorMatrix in="SourceAlpha" type="matrix" values="0 0 0 0 0 0 0 0 0 0 0 0 0 0 0 0 0 0 127 0" result="hardAlpha"/>
<feOffset dx="2.25854" dy="2.25854"/>
<feGaussianBlur stdDeviation="2.82318"/>
<feComposite in2="hardAlpha" operator="out"/>
<feColorMatrix type="matrix" values="0 0 0 0 1 0 0 0 0 0.278431 0 0 0 0 0.623529 0 0 0 0.1 0"/>
<feBlend mode="normal" in2="BackgroundImageFix" result="effect1_dropShadow_4014_24634"/>
<feBlend mode="normal" in="SourceGraphic" in2="effect1_dropShadow_4014_24634" result="shape"/>
</filter>
<linearGradient id="paint0_linear_4014_24634" x1="24" y1="73" x2="271" y2="73.0189" gradientUnits="userSpaceOnUse">
<stop stop-color="#00B9BE" stop-opacity="0.05"/>
<stop offset="0.5179" stop-color="#00B9BE"/>
<stop offset="1" stop-color="#00B9BE" stop-opacity="0.05"/>
</linearGradient>
</defs>
</svg>
