<svg width="290" height="145" viewBox="0 0 290 145" fill="none" xmlns="http://www.w3.org/2000/svg">
<line x1="0.5" y1="8.5" x2="289.5" y2="8.5" stroke="#E3E7EF" stroke-linecap="round" stroke-dasharray="6 6"/>
<line x1="0.5" y1="56.5" x2="289.5" y2="56.5" stroke="#E3E7EF" stroke-linecap="round" stroke-dasharray="6 6"/>
<line x1="0.5" y1="104.5" x2="289.5" y2="104.5" stroke="#E3E7EF" stroke-linecap="round" stroke-dasharray="6 6"/>
<path d="M19.351 123.855H20.2723V129.293C20.2723 129.779 20.1832 130.191 20.0049 130.53C19.8266 130.87 19.5752 131.127 19.2507 131.303C18.9263 131.479 18.5437 131.567 18.1029 131.567C17.6868 131.567 17.3165 131.491 16.9921 131.34C16.6677 131.187 16.4126 130.969 16.2268 130.686C16.0411 130.404 15.9482 130.068 15.9482 129.68H16.8547C16.8547 129.895 16.9079 130.083 17.0144 130.244C17.1234 130.403 17.272 130.527 17.4602 130.616C17.6484 130.705 17.8626 130.749 18.1029 130.749C18.3678 130.749 18.5932 130.694 18.779 130.582C18.9647 130.471 19.1059 130.307 19.2025 130.092C19.3015 129.874 19.351 129.608 19.351 129.293V123.855ZM23.6789 131.596C23.3173 131.596 22.9891 131.528 22.6944 131.392C22.3997 131.253 22.1657 131.054 21.9923 130.794C21.819 130.531 21.7323 130.214 21.7323 129.843C21.7323 129.516 21.7967 129.251 21.9255 129.048C22.0542 128.842 22.2264 128.681 22.4418 128.565C22.6573 128.449 22.895 128.362 23.1551 128.305C23.4176 128.246 23.6813 128.199 23.9463 128.164C24.2931 128.119 24.5741 128.086 24.7896 128.064C25.0075 128.039 25.1661 127.998 25.2651 127.941C25.3667 127.884 25.4174 127.785 25.4174 127.644V127.614C25.4174 127.248 25.3171 126.963 25.1165 126.76C24.9184 126.557 24.6175 126.455 24.2138 126.455C23.7953 126.455 23.4671 126.547 23.2294 126.73C22.9916 126.913 22.8244 127.109 22.7279 127.317L21.8957 127.02C22.0443 126.673 22.2425 126.403 22.4901 126.21C22.7402 126.014 23.0127 125.878 23.3074 125.801C23.6046 125.722 23.8968 125.682 24.1841 125.682C24.3674 125.682 24.5779 125.705 24.8156 125.749C25.0558 125.791 25.2874 125.879 25.5103 126.013C25.7357 126.147 25.9226 126.349 26.0712 126.618C26.2198 126.888 26.2941 127.25 26.2941 127.703V131.463H25.4174V130.69H25.3728C25.3134 130.814 25.2143 130.946 25.0757 131.087C24.937 131.229 24.7525 131.349 24.5221 131.448C24.2918 131.547 24.0107 131.596 23.6789 131.596ZM23.8126 130.809C24.1593 130.809 24.4516 130.741 24.6893 130.605C24.9295 130.468 25.1103 130.292 25.2317 130.077C25.3555 129.862 25.4174 129.635 25.4174 129.397V128.595C25.3803 128.639 25.2985 128.68 25.1722 128.717C25.0484 128.752 24.9048 128.783 24.7413 128.81C24.5803 128.835 24.4231 128.857 24.2695 128.877C24.1185 128.894 23.9959 128.909 23.9018 128.922C23.6739 128.951 23.4609 129 23.2628 129.067C23.0672 129.131 22.9087 129.229 22.7873 129.36C22.6684 129.489 22.609 129.665 22.609 129.888C22.609 130.192 22.7217 130.422 22.947 130.579C23.1749 130.732 23.4634 130.809 23.8126 130.809ZM28.771 128.03V131.463H27.8943V125.757H28.7413V126.648H28.8156C28.9493 126.358 29.1524 126.126 29.4248 125.95C29.6973 125.771 30.0489 125.682 30.4799 125.682C30.8662 125.682 31.2043 125.762 31.494 125.92C31.7838 126.076 32.0091 126.314 32.1701 126.633C32.3311 126.95 32.4116 127.352 32.4116 127.837V131.463H31.5349V127.896C31.5349 127.448 31.4185 127.099 31.1857 126.849C30.9529 126.596 30.6334 126.47 30.2272 126.47C29.9474 126.47 29.6973 126.531 29.4768 126.652C29.2589 126.773 29.0868 126.95 28.9605 127.183C28.8342 127.416 28.771 127.698 28.771 128.03Z" fill="#CDD5E0"/>
<rect x="114.438" y="116.232" width="57.1526" height="22.4611" rx="11.2305" fill="#00B9BE"/>
<path d="M128.464 123.855H129.564L132.149 130.17H132.238L134.824 123.855H135.923V131.463H135.062V125.682H134.987L132.61 131.463H131.778L129.4 125.682H129.326V131.463H128.464V123.855ZM139.331 131.596C138.969 131.596 138.641 131.528 138.346 131.392C138.052 131.253 137.818 131.054 137.644 130.794C137.471 130.531 137.384 130.214 137.384 129.843C137.384 129.516 137.449 129.251 137.577 129.048C137.706 128.842 137.878 128.681 138.094 128.565C138.309 128.449 138.547 128.362 138.807 128.305C139.07 128.246 139.333 128.199 139.598 128.164C139.945 128.119 140.226 128.086 140.442 128.064C140.66 128.039 140.818 127.998 140.917 127.941C141.019 127.884 141.069 127.785 141.069 127.644V127.614C141.069 127.248 140.969 126.963 140.769 126.76C140.57 126.557 140.27 126.455 139.866 126.455C139.447 126.455 139.119 126.547 138.881 126.73C138.644 126.913 138.476 127.109 138.38 127.317L137.548 127.02C137.696 126.673 137.894 126.403 138.142 126.21C138.392 126.014 138.665 125.878 138.959 125.801C139.257 125.722 139.549 125.682 139.836 125.682C140.019 125.682 140.23 125.705 140.468 125.749C140.708 125.791 140.939 125.879 141.162 126.013C141.388 126.147 141.575 126.349 141.723 126.618C141.872 126.888 141.946 127.25 141.946 127.703V131.463H141.069V130.69H141.025C140.965 130.814 140.866 130.946 140.728 131.087C140.589 131.229 140.404 131.349 140.174 131.448C139.944 131.547 139.663 131.596 139.331 131.596ZM139.465 130.809C139.811 130.809 140.104 130.741 140.341 130.605C140.582 130.468 140.762 130.292 140.884 130.077C141.008 129.862 141.069 129.635 141.069 129.397V128.595C141.032 128.639 140.951 128.68 140.824 128.717C140.7 128.752 140.557 128.783 140.393 128.81C140.232 128.835 140.075 128.857 139.922 128.877C139.77 128.894 139.648 128.909 139.554 128.922C139.326 128.951 139.113 129 138.915 129.067C138.719 129.131 138.561 129.229 138.439 129.36C138.32 129.489 138.261 129.665 138.261 129.888C138.261 130.192 138.374 130.422 138.599 130.579C138.827 130.732 139.115 130.809 139.465 130.809ZM143.546 131.463V125.757H144.393V126.618H144.453C144.557 126.336 144.745 126.107 145.017 125.931C145.29 125.755 145.597 125.667 145.939 125.667C146.003 125.667 146.084 125.669 146.18 125.671C146.277 125.674 146.35 125.677 146.399 125.682V126.574C146.37 126.566 146.302 126.555 146.195 126.54C146.091 126.523 145.981 126.514 145.864 126.514C145.587 126.514 145.339 126.573 145.121 126.689C144.906 126.803 144.735 126.961 144.609 127.165C144.485 127.365 144.423 127.594 144.423 127.852V131.463H143.546ZM149.583 131.582C149.048 131.582 148.587 131.455 148.201 131.203C147.815 130.95 147.518 130.602 147.309 130.159C147.101 129.715 146.997 129.209 146.997 128.639C146.997 128.06 147.104 127.548 147.317 127.105C147.532 126.659 147.832 126.311 148.216 126.061C148.602 125.809 149.053 125.682 149.568 125.682C149.969 125.682 150.331 125.757 150.653 125.905C150.975 126.054 151.239 126.262 151.444 126.529C151.65 126.797 151.777 127.109 151.827 127.465H150.95C150.883 127.205 150.735 126.975 150.504 126.774C150.276 126.571 149.969 126.47 149.583 126.47C149.241 126.47 148.942 126.559 148.684 126.737C148.429 126.913 148.23 127.162 148.086 127.484C147.945 127.804 147.874 128.179 147.874 128.61C147.874 129.05 147.943 129.434 148.082 129.761C148.223 130.088 148.421 130.342 148.677 130.523C148.934 130.704 149.236 130.794 149.583 130.794C149.811 130.794 150.018 130.754 150.203 130.675C150.389 130.596 150.546 130.482 150.675 130.333C150.804 130.185 150.896 130.006 150.95 129.798H151.827C151.777 130.135 151.655 130.439 151.459 130.709C151.266 130.976 151.01 131.189 150.69 131.347C150.373 131.504 150.004 131.582 149.583 131.582ZM153.985 128.03V131.463H153.108V123.855H153.985V126.648H154.059C154.193 126.353 154.394 126.119 154.661 125.946C154.931 125.77 155.29 125.682 155.739 125.682C156.127 125.682 156.468 125.76 156.76 125.916C157.052 126.07 157.279 126.306 157.44 126.626C157.603 126.943 157.685 127.347 157.685 127.837V131.463H156.808V127.896C156.808 127.443 156.691 127.093 156.455 126.845C156.223 126.595 155.9 126.47 155.486 126.47C155.199 126.47 154.941 126.531 154.713 126.652C154.488 126.773 154.31 126.95 154.178 127.183C154.049 127.416 153.985 127.698 153.985 128.03Z" fill="#F8F9FC"/>
<path d="M72.554 131.463V123.855H77.1158V124.672H73.4753V127.243H76.7741V128.06H73.4753V131.463H72.554ZM80.5484 131.582C79.9986 131.582 79.5243 131.46 79.1256 131.217C78.7293 130.972 78.4235 130.631 78.208 130.192C77.995 129.751 77.8885 129.239 77.8885 128.654C77.8885 128.07 77.995 127.555 78.208 127.109C78.4235 126.661 78.7231 126.311 79.107 126.061C79.4934 125.809 79.9441 125.682 80.4592 125.682C80.7564 125.682 81.0499 125.732 81.3396 125.831C81.6294 125.93 81.8932 126.091 82.1309 126.314C82.3687 126.534 82.5581 126.826 82.6993 127.191C82.8405 127.555 82.911 128.003 82.911 128.535V128.907H78.5126V128.149H82.0195C82.0195 127.827 81.9551 127.54 81.8263 127.287C81.7 127.035 81.5192 126.835 81.2839 126.689C81.0511 126.543 80.7762 126.47 80.4592 126.47C80.11 126.47 79.8079 126.557 79.5528 126.73C79.3002 126.901 79.1058 127.124 78.9696 127.399C78.8334 127.673 78.7652 127.968 78.7652 128.283V128.788C78.7652 129.219 78.8395 129.584 78.9881 129.884C79.1392 130.181 79.3485 130.408 79.616 130.564C79.8834 130.717 80.1942 130.794 80.5484 130.794C80.7787 130.794 80.9867 130.762 81.1725 130.697C81.3607 130.631 81.5229 130.531 81.6591 130.4C81.7953 130.266 81.9006 130.101 81.9749 129.902L82.8219 130.14C82.7327 130.427 82.5829 130.68 82.3724 130.898C82.1619 131.113 81.9018 131.282 81.5923 131.403C81.2827 131.522 80.9347 131.582 80.5484 131.582ZM84.3635 131.463V123.855H85.2403V126.663H85.3146C85.3789 126.564 85.4681 126.438 85.582 126.284C85.6984 126.128 85.8644 125.989 86.0798 125.868C86.2978 125.744 86.5925 125.682 86.964 125.682C87.4444 125.682 87.8679 125.802 88.2344 126.043C88.601 126.283 88.887 126.623 89.0926 127.064C89.2981 127.505 89.4009 128.025 89.4009 128.624C89.4009 129.229 89.2981 129.753 89.0926 130.196C88.887 130.637 88.6022 130.978 88.2382 131.221C87.8741 131.461 87.4543 131.582 86.9788 131.582C86.6123 131.582 86.3188 131.521 86.0984 131.399C85.878 131.276 85.7083 131.136 85.5895 130.98C85.4706 130.821 85.3789 130.69 85.3146 130.586H85.2105V131.463H84.3635ZM85.2254 128.61C85.2254 129.041 85.2885 129.421 85.4149 129.75C85.5412 130.077 85.7257 130.333 85.9684 130.519C86.2111 130.702 86.5083 130.794 86.8599 130.794C87.2265 130.794 87.5323 130.697 87.7775 130.504C88.0252 130.309 88.2109 130.046 88.3347 129.717C88.461 129.385 88.5242 129.016 88.5242 128.61C88.5242 128.208 88.4623 127.847 88.3385 127.525C88.2171 127.2 88.0326 126.944 87.7849 126.756C87.5398 126.565 87.2314 126.47 86.8599 126.47C86.5033 126.47 86.2036 126.56 85.9609 126.741C85.7182 126.919 85.535 127.17 85.4111 127.491C85.2873 127.811 85.2254 128.184 85.2254 128.61Z" fill="#CDD5E0"/>
<path d="M198.625 131.463H197.659L200.452 123.855H201.403L204.197 131.463H203.231L200.958 125.058H200.898L198.625 131.463ZM198.981 128.491H202.875V129.308H198.981V128.491ZM205.263 133.602V125.757H206.11V126.663H206.214C206.279 126.564 206.368 126.438 206.482 126.284C206.598 126.128 206.764 125.989 206.979 125.868C207.197 125.744 207.492 125.682 207.864 125.682C208.344 125.682 208.768 125.802 209.134 126.043C209.501 126.283 209.787 126.623 209.992 127.064C210.198 127.505 210.301 128.025 210.301 128.624C210.301 129.229 210.198 129.753 209.992 130.196C209.787 130.637 209.502 130.978 209.138 131.221C208.774 131.461 208.354 131.582 207.878 131.582C207.512 131.582 207.218 131.521 206.998 131.399C206.778 131.276 206.608 131.136 206.489 130.98C206.37 130.821 206.279 130.69 206.214 130.586H206.14V133.602H205.263ZM206.125 128.61C206.125 129.041 206.188 129.421 206.315 129.75C206.441 130.077 206.625 130.333 206.868 130.519C207.111 130.702 207.408 130.794 207.76 130.794C208.126 130.794 208.432 130.697 208.677 130.504C208.925 130.309 209.111 130.046 209.234 129.717C209.361 129.385 209.424 129.016 209.424 128.61C209.424 128.208 209.362 127.847 209.238 127.525C209.117 127.2 208.932 126.944 208.685 126.756C208.439 126.565 208.131 126.47 207.76 126.47C207.403 126.47 207.103 126.56 206.861 126.741C206.618 126.919 206.435 127.17 206.311 127.491C206.187 127.811 206.125 128.184 206.125 128.61ZM211.638 131.463V125.757H212.485V126.618H212.544C212.648 126.336 212.837 126.107 213.109 125.931C213.381 125.755 213.689 125.667 214.03 125.667C214.095 125.667 214.175 125.669 214.272 125.671C214.368 125.674 214.441 125.677 214.491 125.682V126.574C214.461 126.566 214.393 126.555 214.287 126.54C214.183 126.523 214.072 126.514 213.956 126.514C213.679 126.514 213.431 126.573 213.213 126.689C212.998 126.803 212.827 126.961 212.7 127.165C212.577 127.365 212.515 127.594 212.515 127.852V131.463H211.638Z" fill="#CDD5E0"/>
<path d="M254.902 123.855H256.002L258.587 130.17H258.676L261.262 123.855H262.361V131.463H261.5V125.682H261.425L259.048 131.463H258.216L255.838 125.682H255.764V131.463H254.902V123.855ZM265.769 131.596C265.407 131.596 265.079 131.528 264.784 131.392C264.49 131.253 264.256 131.054 264.082 130.794C263.909 130.531 263.822 130.214 263.822 129.843C263.822 129.516 263.887 129.251 264.015 129.048C264.144 128.842 264.316 128.681 264.532 128.565C264.747 128.449 264.985 128.362 265.245 128.305C265.508 128.246 265.771 128.199 266.036 128.164C266.383 128.119 266.664 128.086 266.88 128.064C267.098 128.039 267.256 127.998 267.355 127.941C267.457 127.884 267.507 127.785 267.507 127.644V127.614C267.507 127.248 267.407 126.963 267.206 126.76C267.008 126.557 266.707 126.455 266.304 126.455C265.885 126.455 265.557 126.547 265.319 126.73C265.082 126.913 264.914 127.109 264.818 127.317L263.986 127.02C264.134 126.673 264.332 126.403 264.58 126.21C264.83 126.014 265.103 125.878 265.397 125.801C265.695 125.722 265.987 125.682 266.274 125.682C266.457 125.682 266.668 125.705 266.906 125.749C267.146 125.791 267.377 125.879 267.6 126.013C267.826 126.147 268.013 126.349 268.161 126.618C268.31 126.888 268.384 127.25 268.384 127.703V131.463H267.507V130.69H267.463C267.403 130.814 267.304 130.946 267.166 131.087C267.027 131.229 266.842 131.349 266.612 131.448C266.382 131.547 266.101 131.596 265.769 131.596ZM265.903 130.809C266.249 130.809 266.542 130.741 266.779 130.605C267.02 130.468 267.2 130.292 267.322 130.077C267.445 129.862 267.507 129.635 267.507 129.397V128.595C267.47 128.639 267.389 128.68 267.262 128.717C267.138 128.752 266.995 128.783 266.831 128.81C266.67 128.835 266.513 128.857 266.36 128.877C266.208 128.894 266.086 128.909 265.992 128.922C265.764 128.951 265.551 129 265.353 129.067C265.157 129.131 264.999 129.229 264.877 129.36C264.758 129.489 264.699 129.665 264.699 129.888C264.699 130.192 264.812 130.422 265.037 130.579C265.265 130.732 265.553 130.809 265.903 130.809ZM270.345 133.602C270.196 133.602 270.064 133.59 269.947 133.565C269.831 133.543 269.75 133.521 269.706 133.498L269.929 132.726C270.142 132.78 270.33 132.8 270.493 132.785C270.657 132.77 270.802 132.697 270.928 132.566C271.057 132.437 271.174 132.228 271.281 131.938L271.444 131.492L269.334 125.757H270.285L271.86 130.304H271.92L273.495 125.757H274.446L272.024 132.295C271.915 132.589 271.78 132.833 271.619 133.027C271.458 133.222 271.271 133.367 271.058 133.461C270.847 133.555 270.61 133.602 270.345 133.602Z" fill="#CDD5E0"/>
<g style="mix-blend-mode:multiply" opacity="0.33">
<path d="M36.9232 38.1432L0 62.3319V112H374V66.2533C366.418 61.5477 349.881 51.121 344.391 47.0593C337.527 41.9822 324.782 44.335 315.958 44.2112C307.134 44.0873 303.212 39.3817 303.604 31.9518C298.584 29.5742 277.888 31.9515 275 29.2273C262.123 37.4002 237.718 52.1611 230.659 56.7182C223.6 61.2752 216.475 58.6169 213.795 56.7182C202.814 49.9899 178.538 35.0722 169.283 29.2273C160.028 23.3824 151.439 26.7919 148.301 29.2273C144.903 31.2912 137.046 35.9638 132.81 38.1432C127.516 40.8676 114.574 39.01 107.319 38.1432C100.064 37.2764 96.73 36.5334 88.6904 41.3629C80.6507 46.1923 75.2583 46.6258 61.8262 38.1432C51.0805 31.3572 40.7468 35.3157 36.9232 38.1432Z" fill="url(#paint0_linear_3911_31010)"/>
</g>
<path d="M2 62.6156L38.5283 38.2604C42.311 35.4134 52.5341 31.4277 63.1649 38.2604C76.4534 46.8013 81.7881 46.3649 89.7418 41.5022C97.6955 36.6395 100.993 37.3876 108.171 38.2604C115.349 39.1332 128.152 41.0035 133.39 38.2604C137.58 36.0659 145.353 31.3612 148.715 29.2831C151.819 26.8309 160.316 23.3979 169.472 29.2831C178.629 35.1683 202.645 50.1887 213.509 56.9632C216.16 58.8751 223.208 61.5516 230.192 56.9632C237.176 52.3748 257.261 40.2555 270 32.0263C278 26.8583 326 29.2831 302.357 60.4789C298.575 65.4694 302.745 24.5452 302.357 32.0263C301.969 39.5074 305.849 44.2454 314.578 44.3701C323.308 44.4948 335.917 42.1258 342.707 47.2379C348.139 51.3275 364.499 61.826 372 66.564" stroke="#00B9BE" stroke-width="2.61526" stroke-linecap="round" stroke-linejoin="round"/>
<line x1="200.826" y1="49.826" x2="200.826" y2="103.174" stroke="#00B9BE" stroke-width="1.65195" stroke-linecap="round"/>
<g filter="url(#filter0_d_3911_31010)">
<circle cx="6.56821" cy="6.56821" r="6.56821" transform="matrix(-1 0 0 1 207.137 42)" fill="#00B9BE"/>
<circle cx="6.56821" cy="6.56821" r="5.65964" transform="matrix(-1 0 0 1 207.137 42)" stroke="#F1F4F8" stroke-width="1.81714"/>
</g>
<defs>
<filter id="filter0_d_3911_31010" x="189.154" y="41.3943" width="22.8281" height="22.8278" filterUnits="userSpaceOnUse" color-interpolation-filters="sRGB">
<feFlood flood-opacity="0" result="BackgroundImageFix"/>
<feColorMatrix in="SourceAlpha" type="matrix" values="0 0 0 0 0 0 0 0 0 0 0 0 0 0 0 0 0 0 127 0" result="hardAlpha"/>
<feOffset dy="4.24"/>
<feGaussianBlur stdDeviation="2.42286"/>
<feComposite in2="hardAlpha" operator="out"/>
<feColorMatrix type="matrix" values="0 0 0 0 0 0 0 0 0 0.72549 0 0 0 0 0.745098 0 0 0 0.13 0"/>
<feBlend mode="normal" in2="BackgroundImageFix" result="effect1_dropShadow_3911_31010"/>
<feBlend mode="normal" in="SourceGraphic" in2="effect1_dropShadow_3911_31010" result="shape"/>
</filter>
<linearGradient id="paint0_linear_3911_31010" x1="187" y1="112" x2="187" y2="21.128" gradientUnits="userSpaceOnUse">
<stop stop-color="#00B9BE" stop-opacity="0"/>
<stop offset="1" stop-color="#00B9BE" stop-opacity="0.6"/>
</linearGradient>
</defs>
</svg>
