<svg width="43" height="55" viewBox="0 0 43 55" fill="none" xmlns="http://www.w3.org/2000/svg">
<path d="M11.3223 23.9531V28.9571L11.4332 28.8481C11.6118 28.6724 11.8325 28.5315 12.0804 28.435C12.3283 28.3384 12.5976 28.2885 12.8701 28.2885H16.3828V23.9531H11.3223Z" fill="#13416F"/>
<path d="M40.6171 39.1698H27.0102V30.3848C27.0102 30.2149 26.985 30.0458 26.9354 29.8814C26.7483 29.259 26.182 28.7699 25.4815 28.535L24.8107 28.3103H34.7051V31.225C34.705 31.4486 34.7566 31.6701 34.8568 31.8767C34.957 32.0834 35.1039 32.2711 35.2891 32.4292C35.4743 32.5874 35.6942 32.7128 35.9362 32.7984C36.1781 32.884 36.4375 32.928 36.6994 32.928H39.8032V28.2513C39.8032 27.6874 39.6732 27.129 39.4205 26.608C39.1678 26.0871 38.7974 25.6137 38.3305 25.2149C37.8635 24.8162 37.3091 24.4999 36.699 24.2842C36.0889 24.0684 35.435 23.9574 34.7747 23.9574H21.9094V39.1698H16.3894V32.8957H14.3641C13.5612 32.8997 12.7917 33.1708 12.2191 33.6515C11.6466 34.1322 11.316 34.7845 11.2978 35.47H11.2968C11.2958 35.4815 11.2941 35.4929 11.2916 35.5042V50.8155L12.8848 49.4551V45.821C12.669 45.7935 12.4735 45.6973 12.3373 45.5518C12.2011 45.4063 12.1344 45.2222 12.1506 45.0364C12.1667 44.8506 12.2646 44.677 12.4244 44.5502C12.5843 44.4235 12.7944 44.353 13.0125 44.353C13.2307 44.353 13.4407 44.4235 13.6006 44.5502C13.7605 44.677 13.8583 44.8506 13.8745 45.0364C13.8906 45.2222 13.8239 45.4063 13.6878 45.5518C13.5516 45.6973 13.356 45.7935 13.1402 45.821V49.5455L11.2917 51.1207V54.6941C12.7017 54.6236 13.8756 54.2105 14.7437 53.5275V43.5154C14.5276 43.4879 14.3317 43.3916 14.1953 43.2459C14.0589 43.1001 13.992 42.9157 14.0082 42.7297C14.0244 42.5436 14.1223 42.3697 14.2825 42.2427C14.4426 42.1157 14.653 42.0452 14.8715 42.0452C15.09 42.0452 15.3004 42.1157 15.4605 42.2427C15.6206 42.3697 15.7186 42.5436 15.7347 42.7297C15.7509 42.9157 15.6841 43.1001 15.5476 43.2459C15.4112 43.3916 15.2153 43.4879 14.9992 43.5154V53.316C15.8906 52.4986 16.3895 51.3563 16.3895 49.9794V43.5233H42.906V41.124C42.906 40.8673 42.8469 40.6131 42.7319 40.376C42.6169 40.1389 42.4482 39.9234 42.2357 39.742C42.0231 39.5605 41.7708 39.4166 41.4931 39.3184C41.2154 39.2202 40.9177 39.1697 40.6171 39.1698Z" fill="#13416F"/>
<path d="M29.3953 0.172791C28.3454 0.17262 27.3226 0.457144 26.4743 0.985343C25.626 1.51354 24.996 2.25813 24.6752 3.11176L24.5772 3.37042H15.2439C14.6587 3.37035 14.0793 3.46871 13.5387 3.6599C12.998 3.85108 12.5068 4.13133 12.093 4.48465C11.6793 4.83797 11.3511 5.25743 11.1272 5.71907C10.9033 6.18072 10.7881 6.6755 10.7882 7.17517V15.1439H0.621582V43.3775H0.874398C1.18182 43.377 1.48848 43.3515 1.79028 43.3015V31.3897C1.57453 31.3621 1.37895 31.266 1.24278 31.1204C1.10661 30.9749 1.03991 30.7908 1.05607 30.6051C1.07224 30.4193 1.17006 30.2456 1.32993 30.1189C1.48979 29.9921 1.69987 29.9217 1.91801 29.9217C2.13615 29.9217 2.34623 29.9921 2.50609 30.1189C2.66596 30.2456 2.76378 30.4193 2.77994 30.6051C2.79611 30.7908 2.72941 30.9749 2.59324 31.1204C2.45706 31.266 2.26149 31.3621 2.04574 31.3897V43.2512C2.86029 43.0766 3.60796 42.7247 4.21588 42.2299C4.8238 41.7351 5.27123 41.1143 5.51455 40.4279L3.52799 38.7337V35.0083C3.31224 34.9807 3.11666 34.8846 2.98049 34.739C2.84432 34.5935 2.77762 34.4094 2.79378 34.2236C2.80995 34.0379 2.90777 33.8642 3.06764 33.7375C3.2275 33.6107 3.43757 33.5403 3.65572 33.5403C3.87386 33.5403 4.08394 33.6107 4.2438 33.7375C4.40366 33.8642 4.50149 34.0379 4.51765 34.2236C4.53382 34.4094 4.46712 34.5935 4.33095 34.739C4.19477 34.8846 3.99919 34.9807 3.78345 35.0083V38.6445L5.5895 40.1844C5.67544 39.8755 5.71958 39.5591 5.72108 39.2415L5.71595 21.8018C5.71589 21.6808 5.70467 21.5599 5.6824 21.4404C5.51595 20.5592 4.69941 19.8686 3.68675 19.6493L3.13591 19.4984H24.5397C25.8648 19.4984 27.1356 19.049 28.0726 18.2489C29.0095 17.4488 29.5359 16.3636 29.5359 15.2321V0.173918H29.3953V0.172791ZM24.4365 15.1439H15.8876V9.82901C15.8874 9.49359 15.7803 9.16452 15.5778 8.8771C15.3753 8.58968 15.085 8.35474 14.7381 8.19747L13.6973 7.72492L24.4366 7.72379L24.4365 15.1439Z" fill="#13416F"/>
</svg>
