<svg width="66" height="56" viewBox="0 0 66 56" fill="none" xmlns="http://www.w3.org/2000/svg">
<g clip-path="url(#clip0_798_2596)">
<path d="M37.2658 0C35.5104 0 34.0874 1.4281 34.0874 3.1896C34.0874 3.89254 33.5198 4.46211 32.8193 4.46211C34.4224 4.46211 35.7472 5.65404 35.9659 7.203C37.1481 6.26807 37.9081 4.81913 37.9081 3.19099V0H37.2644H37.2658Z" fill="url(#paint0_linear_798_2596)"/>
<path d="M32.8206 4.4607C32.1201 4.4607 31.5526 3.89113 31.5526 3.1882C31.5526 1.42669 30.1295 -0.00140381 28.3742 -0.00140381H27.7305V3.1882C27.7305 4.81634 28.4905 6.26527 29.6727 7.2002C30.5392 7.88508 31.6301 8.29489 32.8192 8.29489C34.007 8.29489 35.0992 7.88508 35.9658 7.2002C35.7484 5.65125 34.4236 4.45931 32.8192 4.45931L32.8206 4.4607Z" fill="#00BABE"/>
<path d="M22.3885 4.74411C21.8458 6.41948 22.7594 8.21849 24.4289 8.76306C25.0948 8.97977 25.4589 9.69799 25.2429 10.3662C25.7385 8.83669 27.2765 7.93926 28.8117 8.21016C28.2912 6.79317 27.1519 5.6193 25.6098 5.11641L22.5878 4.13147L22.3885 4.7455V4.74411Z" fill="url(#paint1_linear_798_2596)"/>
<path d="M25.2431 10.3648C25.0271 11.033 24.3114 11.3984 23.6456 11.1817C21.9761 10.6371 20.1834 11.554 19.6407 13.2293L19.4414 13.8434L22.4634 14.8283C24.0069 15.3312 25.6141 15.0534 26.8655 14.2143C27.7819 13.5989 28.5073 12.6834 28.8755 11.5498C29.2424 10.4162 29.1911 9.2465 28.8105 8.20877C27.2752 7.93787 25.7373 8.83391 25.2417 10.3648H25.2431Z" fill="#E4B46E"/>
<path d="M22.2877 20.4087C23.708 21.4437 25.6945 21.1283 26.7272 19.703C27.1383 19.1348 27.9315 19.0084 28.4977 19.421C27.2006 18.475 26.8268 16.7301 27.5578 15.3479C26.053 15.4062 24.5898 16.1314 23.636 17.4483L21.7686 20.0281L22.2891 20.4073L22.2877 20.4087Z" fill="url(#paint2_linear_798_2596)"/>
<path d="M28.4964 19.4224C29.0626 19.835 29.1886 20.631 28.7775 21.1992C27.7461 22.6245 28.0604 24.618 29.4807 25.6543L30.0012 26.0336L31.8686 23.4538C32.8224 22.1369 33.0564 20.5157 32.6466 19.0626C32.3476 17.9985 31.7039 17.0218 30.7418 16.3217C29.7811 15.6215 28.657 15.3076 27.5551 15.352C26.8242 16.7329 27.198 18.4791 28.4951 19.4252L28.4964 19.4224Z" fill="#A7C0C3"/>
<path d="M37.1012 25.3459C38.5215 24.311 38.8358 22.3161 37.8045 20.8908C37.3933 20.3226 37.5179 19.5266 38.0855 19.114C36.7884 20.06 35.0178 19.878 33.9353 18.7528C33.5269 20.2073 33.7595 21.8271 34.7133 23.144L36.5807 25.7238L37.1012 25.3445V25.3459Z" fill="url(#paint3_linear_798_2596)"/>
<path d="M38.0852 19.1154C38.6514 18.7028 39.4446 18.8278 39.8558 19.3974C40.8871 20.8227 42.875 21.138 44.2953 20.1031L44.8158 19.7238L42.9483 17.1441C41.9945 15.8271 40.5313 15.1033 39.0266 15.0436C37.9247 15.0005 36.802 15.3131 35.8399 16.0133C34.8792 16.7134 34.2355 17.69 33.9351 18.7542C35.0176 19.8794 36.7881 20.0614 38.0852 19.1154Z" fill="#84C98B"/>
<path d="M46.3598 12.7334C45.8172 11.058 44.0245 10.1411 42.355 10.6857C41.6892 10.9024 40.9749 10.5371 40.7575 9.86887C41.2531 11.3984 40.5333 13.0321 39.1323 13.7183C40.3837 14.5574 41.9923 14.8353 43.5344 14.3324L46.5564 13.3474L46.3571 12.7334H46.3598Z" fill="url(#paint4_linear_798_2596)"/>
<path d="M40.7573 9.86887C40.5414 9.20066 40.9055 8.48383 41.5713 8.26573C43.2408 7.72116 44.1544 5.92215 43.6118 4.24678L43.4124 3.63275L40.3905 4.61769C38.847 5.12058 37.7091 6.29446 37.1886 7.71144C36.8079 8.74917 36.7567 9.91888 37.1235 11.0525C37.4903 12.186 38.2157 13.1015 39.1335 13.7169C40.5345 13.0307 41.2543 11.3984 40.7587 9.86748L40.7573 9.86887Z" fill="#9E76B4"/>
<path d="M12.0904 40.6077H3.4121C1.74123 40.6077 0.381836 39.2435 0.381836 37.5667V33.2908C0.381836 32.6823 0.873268 32.1877 1.4796 32.1877C2.08593 32.1877 2.57874 32.6809 2.57874 33.2908V37.5667C2.57874 38.0279 2.95251 38.403 3.4121 38.403H12.0918C12.5514 38.403 12.9251 38.0279 12.9251 37.5667V33.2908C12.9251 32.6823 13.4166 32.1877 14.0229 32.1877C14.6292 32.1877 15.122 32.6809 15.122 33.2908V37.5667C15.122 39.2435 13.7626 40.6077 12.0918 40.6077H12.0904Z" fill="#00BABE"/>
<path d="M29.1591 32.1891H20.4795C18.8086 32.1891 17.4492 33.5533 17.4492 35.2301V39.5061C17.4492 40.1145 17.9406 40.6091 18.547 40.6091C19.1533 40.6091 19.6461 40.1159 19.6461 39.5061V38.2711H29.9925V39.5061C29.9925 40.1145 30.4839 40.6091 31.0916 40.6091C31.6994 40.6091 32.1894 40.1159 32.1894 39.5061V35.2301C32.1894 33.5533 30.83 32.1891 29.1591 32.1891ZM19.6461 36.0664V35.2301C19.6461 34.7689 20.0199 34.3938 20.4795 34.3938H29.1591C29.6187 34.3938 29.9925 34.7689 29.9925 35.2301V36.0664H19.6461Z" fill="black"/>
<path d="M46.042 32.1891H35.4313C34.8249 32.1891 34.3335 32.6823 34.3335 33.2922V39.5061C34.3335 40.1145 34.8249 40.6091 35.4313 40.6091C36.0376 40.6091 36.5304 40.1159 36.5304 39.5061V38.2711H46.0434C47.7143 38.2711 49.0737 36.9069 49.0737 35.2301C49.0737 33.5533 47.7143 32.1891 46.0434 32.1891H46.042ZM46.042 36.0664H36.529V34.3938H46.042C46.5016 34.3938 46.8754 34.7689 46.8754 35.2301C46.8754 35.6913 46.5016 36.0664 46.042 36.0664Z" fill="black"/>
<path d="M64.9008 38.403H59.7276V34.3938H64.9008C65.5071 34.3938 65.9986 33.9006 65.9986 33.2922C65.9986 32.6837 65.5071 32.1905 64.9008 32.1905H52.3575C51.7512 32.1905 51.2598 32.6837 51.2598 33.2922C51.2598 33.9006 51.7512 34.3938 52.3575 34.3938H57.5307V38.403H52.3575C51.7512 38.403 51.2598 38.8962 51.2598 39.5047C51.2598 40.1131 51.7512 40.6063 52.3575 40.6063H64.9008C65.5071 40.6063 65.9986 40.1131 65.9986 39.5047C65.9986 38.8962 65.5071 38.403 64.9008 38.403Z" fill="black"/>
<path d="M1.94635 50.3737C2.11662 50.3084 2.2592 50.2126 2.37548 50.0834C2.49177 49.9542 2.58036 49.7958 2.63989 49.6069C2.69941 49.418 2.72987 49.1985 2.72987 48.9484V46.8813H2.22875V48.8859C2.22875 49.054 2.2149 49.2082 2.18583 49.3471C2.15676 49.486 2.1097 49.6069 2.04186 49.7083C1.97403 49.8083 1.88544 49.8875 1.77469 49.9431C1.66395 49.9987 1.5269 50.0264 1.36493 50.0264C1.20297 50.0264 1.06592 49.9987 0.956562 49.9431C0.847201 49.8875 0.758605 49.8083 0.690773 49.7083C0.622942 49.6083 0.575875 49.4874 0.546804 49.3471C0.517734 49.2068 0.503891 49.0526 0.503891 48.8859V46.8813H0V48.9484C0 49.4471 0.117667 49.825 0.354385 50.0834C0.592487 50.3418 0.928875 50.471 1.36493 50.471C1.58227 50.471 1.77746 50.439 1.94635 50.3737Z" fill="black"/>
<path d="M4.93651 47.5078H4.9462L6.53678 50.4099H7.18187V46.8813H6.67936V49.7208H6.66967L5.11924 46.8813H4.43262V50.4099H4.93651V47.5078Z" fill="black"/>
<path d="M9.38426 46.8813H8.88037V50.4099H9.38426V46.8813Z" fill="black"/>
<path d="M11.5591 48.8039H12.8631V48.3594H11.5591V47.3258H12.924V46.8813H11.0552V50.4099H11.5591V48.8039Z" fill="black"/>
<path d="M14.9116 46.8813H14.4077V50.4099H14.9116V46.8813Z" fill="black"/>
<path d="M18.6077 49.9653H17.1417V48.8039H18.4776V48.3594H17.1417V47.3258H18.6077V46.8813H16.6406V50.4099H18.6077V49.9653Z" fill="black"/>
<path d="M22.008 50.2959C22.2391 50.2209 22.4357 50.107 22.5977 49.9584C22.7596 49.8097 22.8842 49.6222 22.9714 49.3971C23.0587 49.1721 23.1016 48.9123 23.1016 48.6164C23.1016 48.3455 23.0531 48.1024 22.9548 47.8871C22.8565 47.6717 22.7236 47.4911 22.5534 47.3411C22.3831 47.1925 22.1851 47.0786 21.9581 46.9994C21.7311 46.9202 21.4875 46.8813 21.2272 46.8813H20.189V50.4099H21.2272C21.5151 50.4099 21.7754 50.3723 22.0066 50.2959H22.008ZM20.6956 49.9653V47.3244H21.284C21.4653 47.3244 21.6356 47.3536 21.792 47.4133C21.9484 47.4731 22.0841 47.5578 22.2004 47.6704C22.3153 47.7829 22.4066 47.919 22.4717 48.0816C22.5368 48.2441 22.57 48.4275 22.57 48.6331C22.57 48.8609 22.5409 49.0582 22.4814 49.2249C22.4219 49.3916 22.336 49.5305 22.2225 49.6402C22.109 49.75 21.9678 49.8319 21.8003 49.8847C21.6328 49.9389 21.4418 49.9653 21.2244 49.9653H20.6956Z" fill="black"/>
<path d="M27.9811 46.8813L26.4805 50.4099H27.0093L27.3664 49.5222H29.0871L29.4457 50.4099H29.9939L28.5085 46.8813H27.9797H27.9811ZM27.5284 49.1068L28.2261 47.3578L28.9266 49.1068H27.527H27.5284Z" fill="black"/>
<path d="M32.7375 48.9442C32.887 48.9067 33.0185 48.8456 33.1348 48.7623C33.2497 48.6789 33.3438 48.5692 33.4144 48.4344C33.485 48.2997 33.5196 48.1357 33.5196 47.9412C33.5196 47.7468 33.485 47.5731 33.4158 47.4384C33.3466 47.3036 33.251 47.1952 33.132 47.1133C33.0129 47.0313 32.8731 46.9716 32.7126 46.9369C32.5534 46.9021 32.3831 46.8841 32.2017 46.8841H31.2798V50.4126H31.7837V49.004H32.2751C32.4343 49.004 32.588 48.9845 32.7375 48.947V48.9442ZM31.7837 47.3258H32.2114C32.289 47.3258 32.372 47.3369 32.462 47.3578C32.552 47.3786 32.6364 47.4133 32.7139 47.462C32.7915 47.5092 32.8565 47.5731 32.9077 47.6509C32.959 47.7287 32.9853 47.8232 32.9853 47.9329C32.9853 48.0496 32.9631 48.1482 32.9188 48.2288C32.8745 48.3094 32.8178 48.3733 32.7499 48.4219C32.6821 48.4705 32.606 48.5053 32.5243 48.5261C32.4412 48.5469 32.3609 48.5567 32.282 48.5567H31.7823V47.3258H31.7837Z" fill="black"/>
<path d="M35.3901 49.0012H35.8816C36.0408 49.0012 36.1944 48.9818 36.3439 48.9442C36.4934 48.9067 36.6249 48.8456 36.7412 48.7623C36.8561 48.6789 36.9502 48.5692 37.0208 48.4344C37.0914 48.2997 37.1261 48.1357 37.1261 47.9412C37.1261 47.7468 37.0914 47.5731 37.0222 47.4384C36.953 47.3036 36.8575 47.1952 36.7384 47.1133C36.6194 47.0313 36.4796 46.9716 36.319 46.9369C36.1598 46.9021 35.9895 46.8841 35.8082 46.8841H34.8862V50.4126H35.3901V49.004V49.0012ZM35.3901 47.3258H35.8179C35.8954 47.3258 35.9785 47.3369 36.0684 47.3578C36.1584 47.3786 36.2429 47.4133 36.3204 47.462C36.3979 47.5092 36.463 47.5731 36.5142 47.6509C36.5654 47.7287 36.5917 47.8232 36.5917 47.9329C36.5917 48.0496 36.5696 48.1482 36.5253 48.2288C36.481 48.3094 36.4242 48.3733 36.3564 48.4219C36.2885 48.4705 36.2124 48.5053 36.1307 48.5261C36.0477 48.5469 35.9674 48.5567 35.8885 48.5567H35.3887V47.3258H35.3901Z" fill="black"/>
<path d="M39.021 46.8813H38.5171V50.4099H40.4911V49.9653H39.021V46.8813Z" fill="black"/>
<path d="M42.3506 46.8813H41.8467V50.4099H42.3506V46.8813Z" fill="black"/>
<path d="M46.1017 50.4487C46.1751 50.4418 46.2471 50.4293 46.3163 50.4112C46.3855 50.3932 46.4547 50.3696 46.5239 50.3418L46.4949 49.8528C46.4506 49.8792 46.398 49.9042 46.3357 49.925C46.2734 49.9472 46.2083 49.9653 46.1391 49.9806C46.0699 49.9959 46.0007 50.007 45.9287 50.0139C45.8567 50.0209 45.7902 50.025 45.7279 50.025C45.5466 50.025 45.3749 49.9917 45.2144 49.9264C45.0538 49.8611 44.914 49.768 44.7935 49.6472C44.6745 49.5263 44.579 49.3818 44.5097 49.211C44.4405 49.0401 44.4059 48.8512 44.4059 48.6442C44.4059 48.4372 44.4378 48.2608 44.5028 48.0927C44.5679 47.9246 44.6593 47.7787 44.7769 47.6551C44.8946 47.5314 45.0372 47.437 45.2019 47.3675C45.368 47.298 45.5508 47.2633 45.7529 47.2633C46.0131 47.2633 46.2554 47.3286 46.4782 47.4606L46.5198 46.9702C46.3924 46.9146 46.2623 46.8757 46.1322 46.8535C46.002 46.8313 45.8664 46.8202 45.7279 46.8202C45.4594 46.8202 45.2116 46.8632 44.9846 46.9494C44.7575 47.0355 44.561 47.1577 44.3962 47.3161C44.2315 47.4745 44.1028 47.6634 44.01 47.8857C43.9173 48.1079 43.8716 48.3552 43.8716 48.6289C43.8716 48.9026 43.9159 49.1637 44.0045 49.3902C44.0931 49.6166 44.2177 49.8097 44.3796 49.9695C44.5416 50.1292 44.7354 50.2529 44.9638 50.339C45.1922 50.4251 45.4455 50.4682 45.7238 50.4682C45.829 50.4682 45.955 50.4613 46.1031 50.446L46.1017 50.4487Z" fill="black"/>
<path d="M49.0465 46.8813L47.5459 50.4099H48.0747L48.4319 49.5222H50.1526L50.5111 50.4099H51.0593L49.5739 46.8813H49.0451H49.0465ZM48.5938 49.1068L49.2915 47.3578L49.992 49.1068H48.5924H48.5938Z" fill="black"/>
<path d="M52.7021 50.4099H53.206V47.3258H54.2982V46.8813H51.6099V47.3258H52.7021V50.4099Z" fill="black"/>
<path d="M56.1118 46.8813H55.6079V50.4099H56.1118V46.8813Z" fill="black"/>
<path d="M58.0764 49.9611C58.2203 50.1223 58.3975 50.2473 58.6079 50.3376C58.8184 50.4279 59.0565 50.4724 59.3264 50.4724C59.5963 50.4724 59.8344 50.4279 60.0449 50.3376C60.2553 50.2473 60.4311 50.1223 60.5764 49.9611C60.7204 49.8 60.8312 49.6069 60.9059 49.3832C60.9807 49.1596 61.0194 48.9137 61.0194 48.6456C61.0194 48.3775 60.9807 48.1427 60.9045 47.9204C60.8284 47.6981 60.7162 47.5064 60.5709 47.3425C60.4255 47.1786 60.2484 47.0522 60.0393 46.9605C59.8303 46.8688 59.5936 46.8229 59.3278 46.8229C59.062 46.8229 58.8225 46.8688 58.6121 46.9605C58.4017 47.0522 58.2259 47.18 58.0805 47.3425C57.9365 47.505 57.8258 47.6981 57.7497 47.9204C57.6735 48.1427 57.6348 48.3844 57.6348 48.6456C57.6348 48.9067 57.6721 49.1596 57.7483 49.3832C57.823 49.6069 57.9338 49.8 58.0777 49.9611H58.0764ZM58.2397 48.1302C58.2882 47.9635 58.3601 47.8148 58.4557 47.687C58.5512 47.5592 58.6716 47.4564 58.8156 47.38C58.9596 47.3036 59.1298 47.2661 59.325 47.2675C59.5188 47.2661 59.6877 47.3036 59.8331 47.38C59.9784 47.4564 60.0988 47.5592 60.1944 47.687C60.2899 47.8148 60.3619 47.9635 60.4089 48.1302C60.456 48.2969 60.4809 48.4691 60.4823 48.647C60.4823 48.8234 60.4602 48.9943 60.4145 49.1596C60.3688 49.3249 60.2996 49.4721 60.2041 49.5999C60.1085 49.7278 59.9895 49.8319 59.8441 49.9097C59.6988 49.9875 59.5257 50.0264 59.3236 50.0264C59.1215 50.0264 58.9485 49.9875 58.8017 49.9097C58.6564 49.8319 58.536 49.7278 58.4418 49.5999C58.3477 49.4721 58.2785 49.3249 58.2328 49.1596C58.1871 48.9943 58.165 48.8234 58.165 48.647C58.165 48.4705 58.1885 48.2969 58.2369 48.1302H58.2397Z" fill="black"/>
<path d="M64.7775 46.8813V49.7208H64.7678L63.216 46.8813H62.5308V50.4099H63.0347V47.5078H63.0443L64.6349 50.4099H65.2786V46.8813H64.7775Z" fill="black"/>
<path d="M2.62321 52.6395C2.50416 52.5576 2.36434 52.4978 2.20376 52.4631C2.04457 52.4284 1.8743 52.4103 1.69295 52.4103H0.770996V55.9389H1.27489V54.5302H1.76632C1.92552 54.5302 2.07917 54.5108 2.22868 54.4733C2.37819 54.4358 2.5097 54.3746 2.62598 54.2913C2.74088 54.2079 2.83501 54.0982 2.90561 53.9634C2.97621 53.8287 3.01082 53.6648 3.01082 53.4703C3.01082 53.2758 2.97621 53.1021 2.90699 52.9674C2.83778 52.8326 2.74226 52.7243 2.62321 52.6423V52.6395ZM2.41141 53.7578C2.36711 53.8384 2.31035 53.9023 2.24252 53.9509C2.17469 53.9996 2.09855 54.0343 2.01688 54.0551C1.93382 54.076 1.85353 54.0857 1.77462 54.0857H1.27489V52.8549H1.70264C1.78016 52.8549 1.86322 52.866 1.9532 52.8868C2.04318 52.9076 2.12763 52.9424 2.20515 52.991C2.28267 53.0382 2.34773 53.1021 2.39895 53.1799C2.45017 53.2577 2.47647 53.3522 2.47647 53.4619C2.47647 53.5786 2.45432 53.6773 2.41003 53.7578H2.41141Z" fill="black"/>
<path d="M5.25893 54.2996C5.2354 54.2746 5.2091 54.2524 5.17726 54.2329C5.14542 54.2135 5.11081 54.1954 5.07343 54.1788V54.169C5.17449 54.1524 5.27 54.1218 5.3586 54.076C5.4472 54.0301 5.52333 53.9732 5.5884 53.9051C5.65346 53.8356 5.70468 53.7564 5.74206 53.6648C5.77943 53.5731 5.79881 53.4744 5.79881 53.3675C5.79881 53.2605 5.78912 53.1674 5.76836 53.0841C5.74759 53.0007 5.71991 52.9257 5.68253 52.8618C5.64515 52.7979 5.60086 52.7423 5.54964 52.6951C5.49842 52.6479 5.44028 52.6076 5.3766 52.5728C5.31292 52.5381 5.2437 52.5103 5.17172 52.4895C5.09835 52.4687 5.02221 52.452 4.94192 52.4409C4.86163 52.4284 4.77857 52.42 4.69413 52.4159C4.60969 52.4117 4.52386 52.4103 4.43526 52.4103H3.57422V55.9389H4.07811V54.3719H4.37989C4.44911 54.3719 4.51002 54.3746 4.564 54.3774C4.61799 54.3816 4.66921 54.3941 4.71489 54.4163C4.76058 54.4385 4.80487 54.4719 4.8464 54.5191C4.88793 54.5663 4.92808 54.6316 4.96684 54.715L5.50534 55.9389H6.08121L5.41674 54.5344C5.36137 54.4274 5.30877 54.3496 5.25893 54.2996ZM4.50448 53.9273H4.07673V52.8535H4.55847C4.79242 52.8535 4.96961 52.8993 5.08728 52.991C5.20494 53.0827 5.26447 53.2105 5.26447 53.3758C5.26447 53.5495 5.19802 53.6842 5.06651 53.7815C4.935 53.8787 4.74673 53.9273 4.50448 53.9273Z" fill="black"/>
<path d="M9.43271 52.8715C9.28736 52.709 9.11017 52.5812 8.90114 52.4895C8.69211 52.3978 8.45539 52.352 8.1896 52.352C7.92381 52.352 7.68432 52.3978 7.47391 52.4895C7.26349 52.5812 7.08768 52.709 6.94233 52.8715C6.79836 53.0341 6.68762 53.2272 6.61148 53.4494C6.53534 53.6717 6.49658 53.9134 6.49658 54.1746C6.49658 54.4358 6.53396 54.6886 6.6101 54.9123C6.68485 55.1359 6.79559 55.329 6.93956 55.4902C7.08353 55.6513 7.26072 55.7763 7.47114 55.8666C7.68156 55.9569 7.91966 56.0014 8.1896 56.0014C8.45954 56.0014 8.69764 55.9569 8.90806 55.8666C9.11847 55.7763 9.29428 55.6513 9.43964 55.4902C9.58361 55.329 9.69435 55.1359 9.7691 54.9123C9.84386 54.6886 9.88262 54.4427 9.88262 54.1746C9.88262 53.9065 9.84386 53.6717 9.76772 53.4494C9.69158 53.2272 9.57945 53.0354 9.4341 52.8715H9.43271ZM9.28044 54.6886C9.23476 54.8539 9.16554 55.0012 9.07002 55.129C8.97451 55.2568 8.85545 55.361 8.7101 55.4388C8.56475 55.5166 8.39171 55.5555 8.1896 55.5555C7.98749 55.5555 7.81445 55.5166 7.66771 55.4388C7.52236 55.361 7.40192 55.2568 7.30779 55.129C7.21366 55.0012 7.14444 54.8539 7.09876 54.6886C7.05308 54.5233 7.03093 54.3524 7.03093 54.176C7.03093 53.9995 7.05446 53.8259 7.10291 53.6592C7.15136 53.4925 7.22335 53.3438 7.31887 53.216C7.41438 53.0882 7.53482 52.9854 7.67879 52.909C7.82276 52.8326 7.99303 52.7951 8.18822 52.7965C8.38202 52.7951 8.55091 52.8326 8.69626 52.909C8.84161 52.9854 8.96205 53.0882 9.05757 53.216C9.15308 53.3438 9.22507 53.4925 9.27213 53.6592C9.3192 53.8259 9.34412 53.9982 9.3455 54.176C9.3455 54.3524 9.32335 54.5233 9.27767 54.6886H9.28044Z" fill="black"/>
<path d="M12.0976 54.4233H12.8382V55.4971C12.8064 55.5041 12.7759 55.511 12.7455 55.5179C12.715 55.5249 12.679 55.5318 12.6389 55.5374C12.5974 55.543 12.5489 55.5471 12.4908 55.5513C12.4326 55.5541 12.3607 55.5568 12.2734 55.5568C12.0921 55.5568 11.9204 55.5235 11.7599 55.4582C11.5993 55.3929 11.4595 55.2998 11.339 55.179C11.22 55.0581 11.1245 54.9136 11.0552 54.7428C10.986 54.5719 10.9514 54.383 10.9514 54.176C10.9486 53.9815 10.9791 53.7995 11.0456 53.6314C11.1106 53.4633 11.2034 53.3161 11.3224 53.1924C11.4415 53.0688 11.584 52.9702 11.7502 52.8993C11.9163 52.8285 12.099 52.7937 12.2997 52.7951C12.5323 52.7951 12.7206 52.816 12.8632 52.8562C13.0113 52.8951 13.1456 52.9563 13.2688 53.0368L13.3075 52.5284C13.2342 52.5034 13.1622 52.4812 13.093 52.4589C13.0237 52.4381 12.9504 52.4186 12.8728 52.402C12.7953 52.3853 12.7081 52.3728 12.6126 52.3631C12.5171 52.3547 12.4036 52.3492 12.2748 52.3492C12.0063 52.3492 11.7585 52.3923 11.5314 52.4784C11.3044 52.5645 11.1078 52.6868 10.9431 52.8451C10.7784 53.0035 10.6496 53.1924 10.5569 53.4147C10.4641 53.637 10.4185 53.8842 10.4185 54.1579C10.4185 54.4316 10.4628 54.6928 10.5514 54.9192C10.6399 55.1456 10.7645 55.3387 10.9265 55.4985C11.0885 55.6583 11.2823 55.7819 11.5107 55.868C11.7391 55.9542 11.9924 55.9972 12.2707 55.9972C12.4105 55.9972 12.5351 55.9931 12.6458 55.9833C12.7566 55.9736 12.8549 55.9611 12.9393 55.943C13.1137 55.9083 13.248 55.8736 13.3421 55.8389V54.0051H12.1004V54.4191L12.0976 54.4233Z" fill="black"/>
<path d="M15.8878 54.2996C15.8643 54.2746 15.838 54.2524 15.8062 54.2329C15.7743 54.2135 15.7397 54.1954 15.7023 54.1788V54.169C15.8034 54.1524 15.8989 54.1218 15.9875 54.076C16.0761 54.0301 16.1522 53.9732 16.2173 53.9051C16.2824 53.8356 16.3336 53.7564 16.371 53.6648C16.4083 53.5731 16.4277 53.4744 16.4277 53.3675C16.4277 53.2605 16.418 53.1674 16.3973 53.0841C16.3765 53.0007 16.3488 52.9257 16.3114 52.8618C16.2741 52.7979 16.2298 52.7423 16.1785 52.6951C16.1273 52.6479 16.0692 52.6076 16.0055 52.5728C15.9418 52.5381 15.8726 52.5103 15.8006 52.4895C15.7273 52.4687 15.6511 52.452 15.5708 52.4409C15.4905 52.4284 15.4075 52.42 15.323 52.4159C15.2386 52.4117 15.1528 52.4103 15.0642 52.4103H14.2031V55.9389H14.707V54.3719H15.0088C15.078 54.3719 15.1389 54.3746 15.1929 54.3774C15.2469 54.3816 15.2981 54.3941 15.3438 54.4163C15.3895 54.4385 15.4338 54.4719 15.4753 54.5191C15.5168 54.5663 15.557 54.6316 15.5957 54.715L16.1342 55.9389H16.7101L16.0456 54.5344C15.9903 54.4274 15.9377 54.3496 15.8878 54.2996ZM15.1334 53.9273H14.7056V52.8535H15.1874C15.4213 52.8535 15.5985 52.8993 15.7162 52.991C15.8338 53.0827 15.8934 53.2105 15.8934 53.3758C15.8934 53.5495 15.8269 53.6842 15.6954 53.7815C15.5639 53.8787 15.3756 53.9273 15.1334 53.9273Z" fill="black"/>
<path d="M18.421 52.4103L16.9204 55.9389H17.4492L17.8064 55.0512H19.5271L19.8856 55.9389H20.4338L18.9484 52.4103H18.4196H18.421ZM17.9683 54.6358L18.666 52.8868L19.3665 54.6358H17.967H17.9683Z" fill="black"/>
<path d="M22.884 55.3415L21.7793 52.4103H20.9487V55.9389H21.4526V52.8868H21.4623L22.6251 55.9389H23.1207L24.2835 52.8868H24.2932V55.9389H24.7971V52.4103H23.9665L22.884 55.3415Z" fill="black"/>
<path d="M27.6379 55.3415L26.5332 52.4103H25.7026V55.9389H26.2065V52.8868H26.2162L27.379 55.9389H27.8732L29.0361 52.8868H29.0458V55.9389H29.5496V52.4103H28.7191L27.6379 55.3415Z" fill="black"/>
<path d="M30.9546 52.4103H30.4507V55.9389H30.9546V52.4103Z" fill="black"/>
<path d="M34.0915 55.2498H34.0818L32.53 52.4103H31.8447V55.9389H32.3486V53.0368H32.3583L33.9489 55.9389H34.594V52.4103H34.0915V55.2498Z" fill="black"/>
<path d="M36.9887 54.4233H37.7294V55.4971C37.6975 55.5041 37.6671 55.511 37.6366 55.5179C37.6061 55.5249 37.5702 55.5318 37.53 55.5374C37.4885 55.543 37.44 55.5471 37.3819 55.5513C37.3237 55.5541 37.2518 55.5568 37.1646 55.5568C36.9832 55.5568 36.8116 55.5235 36.651 55.4582C36.4904 55.3929 36.3506 55.2998 36.2301 55.179C36.1111 55.0581 36.0156 54.9136 35.9464 54.7428C35.8771 54.5719 35.8425 54.383 35.8425 54.176C35.8398 53.9815 35.8702 53.7995 35.9367 53.6314C36.0017 53.4633 36.0945 53.3161 36.2135 53.1924C36.3326 53.0688 36.4752 52.9702 36.6413 52.8993C36.8074 52.8285 36.9901 52.7937 37.1909 52.7951C37.4234 52.7951 37.6117 52.816 37.7543 52.8562C37.9024 52.8951 38.0367 52.9563 38.1599 53.0368L38.1986 52.5284C38.1253 52.5034 38.0533 52.4812 37.9841 52.4589C37.9149 52.4381 37.8415 52.4186 37.764 52.402C37.6864 52.3853 37.5992 52.3728 37.5037 52.3631C37.4082 52.3547 37.2947 52.3492 37.1659 52.3492C36.8974 52.3492 36.6496 52.3923 36.4226 52.4784C36.1955 52.5645 35.999 52.6868 35.8342 52.8451C35.6695 53.0035 35.5408 53.1924 35.448 53.4147C35.3553 53.637 35.3096 53.8842 35.3096 54.1579C35.3096 54.4316 35.3539 54.6928 35.4425 54.9192C35.5311 55.1456 35.6556 55.3387 35.8176 55.4985C35.9796 55.6583 36.1734 55.7819 36.4018 55.868C36.6302 55.9542 36.8835 55.9972 37.1618 55.9972C37.3016 55.9972 37.4262 55.9931 37.5369 55.9833C37.6477 55.9736 37.746 55.9611 37.8304 55.943C38.0048 55.9083 38.1391 55.8736 38.2332 55.8389V54.0051H36.9915V54.4191L36.9887 54.4233Z" fill="black"/>
<path d="M41.0254 52.4103H40.5215V55.9389H41.0254V52.4103Z" fill="black"/>
<path d="M44.1637 55.2498H44.154L42.6021 52.4103H41.9155V55.9389H42.4194V53.0368H42.4291L44.0211 55.9389H44.6648V52.4103H44.1637V55.2498Z" fill="black"/>
<path d="M45.166 52.8549H46.2582V55.9389H46.7621V52.8549H47.8544V52.4103H45.166V52.8549Z" fill="black"/>
<path d="M48.3857 55.9389H50.3529V55.4943H48.8869V54.333H50.2213V53.8884H48.8869V52.8549H50.3529V52.4103H48.3857V55.9389Z" fill="black"/>
<path d="M52.8156 54.2996C52.792 54.2746 52.7657 54.2524 52.7339 54.2329C52.7021 54.2135 52.6675 54.1954 52.6301 54.1788V54.169C52.7311 54.1524 52.8266 54.1218 52.9152 54.076C53.0038 54.0301 53.08 53.9732 53.145 53.9051C53.2101 53.8356 53.2613 53.7564 53.2987 53.6648C53.3361 53.5731 53.3555 53.4744 53.3555 53.3675C53.3555 53.2605 53.3458 53.1674 53.325 53.0841C53.3042 53.0007 53.2765 52.9257 53.2392 52.8618C53.2018 52.7979 53.1575 52.7423 53.1063 52.6951C53.0551 52.6479 52.9969 52.6076 52.9332 52.5728C52.8696 52.5381 52.8003 52.5103 52.7284 52.4895C52.655 52.4687 52.5789 52.452 52.4986 52.4409C52.4183 52.4284 52.3352 52.42 52.2508 52.4159C52.1663 52.4117 52.0805 52.4103 51.9919 52.4103H51.1309V55.9389H51.6348V54.3719H51.9365C52.0057 54.3719 52.0667 54.3746 52.1206 54.3774C52.1746 54.3816 52.2259 54.3941 52.2715 54.4163C52.3172 54.4385 52.3615 54.4719 52.403 54.5191C52.4446 54.5663 52.4847 54.6316 52.5235 54.715L53.062 55.9389H53.6379L52.9734 54.5344C52.918 54.4274 52.8654 54.3496 52.8156 54.2996ZM52.0611 53.9273H51.6334V52.8535H52.1151C52.3491 52.8535 52.5263 52.8993 52.6439 52.991C52.7616 53.0827 52.8211 53.2105 52.8211 53.3758C52.8211 53.5495 52.7547 53.6842 52.6232 53.7815C52.4916 53.8787 52.3034 53.9273 52.0611 53.9273Z" fill="black"/>
<path d="M54.2056 55.9389H54.7095V54.333H56.0135V53.8884H54.7095V52.8549H56.0744V52.4103H54.2056V55.9389Z" fill="black"/>
<path d="M57.6803 52.4103L56.1797 55.9389H56.7085L57.0657 55.0512H58.7864L59.1449 55.9389H59.6931L58.2077 52.4103H57.6789H57.6803ZM57.2276 54.6358L57.9253 52.8868L58.6258 54.6358H57.2262H57.2276Z" fill="black"/>
<path d="M62.4865 55.4554C62.4243 55.4776 62.3592 55.4957 62.29 55.511C62.2208 55.5263 62.1515 55.5374 62.0796 55.5443C62.0076 55.5513 61.9411 55.5554 61.8788 55.5554C61.6975 55.5554 61.5258 55.5221 61.3652 55.4568C61.2047 55.3915 61.0649 55.2984 60.9444 55.1776C60.8254 55.0567 60.7298 54.9122 60.6606 54.7414C60.5914 54.5705 60.5568 54.3816 60.5568 54.1746C60.5568 53.9676 60.5886 53.7912 60.6537 53.6231C60.7188 53.455 60.8101 53.3091 60.9278 53.1855C61.0455 53.0618 61.1881 52.9674 61.3528 52.8979C61.5189 52.8284 61.7016 52.7937 61.9037 52.7937C62.164 52.7937 62.4063 52.859 62.6291 52.991L62.6707 52.5006C62.5433 52.445 62.4132 52.4061 62.2831 52.3839C62.1529 52.3617 62.0173 52.3506 61.8788 52.3506C61.6103 52.3506 61.3625 52.3936 61.1355 52.4797C60.9084 52.5659 60.7119 52.6881 60.5471 52.8465C60.3824 53.0049 60.2536 53.1938 60.1609 53.4161C60.0681 53.6383 60.0225 53.8856 60.0225 54.1593C60.0225 54.433 60.0668 54.6941 60.1554 54.9206C60.244 55.147 60.3685 55.3401 60.5305 55.4999C60.6925 55.6596 60.8863 55.7833 61.1147 55.8694C61.3431 55.9555 61.5964 55.9986 61.8747 55.9986C61.9799 55.9986 62.1059 55.9916 62.254 55.9764C62.3273 55.9694 62.3993 55.9569 62.4685 55.9389C62.5378 55.9208 62.607 55.8972 62.6762 55.8694L62.6471 55.3804C62.6028 55.4068 62.5502 55.4318 62.4879 55.4526L62.4865 55.4554Z" fill="black"/>
<path d="M63.3062 55.9389H65.2733V55.4943H63.8073V54.333H65.1431V53.8884H63.8073V52.8549H65.2733V52.4103H63.3062V55.9389Z" fill="black"/>
</g>
<defs>
<linearGradient id="paint0_linear_798_2596" x1="35.97" y1="3.59247" x2="32.678" y2="7.17617" gradientUnits="userSpaceOnUse">
<stop stop-color="#00A8A5"/>
<stop offset="1" stop-color="#07616D"/>
</linearGradient>
<linearGradient id="paint1_linear_798_2596" x1="25.3913" y1="7.09163" x2="27.7997" y2="11.3244" gradientUnits="userSpaceOnUse">
<stop stop-color="#D0A666"/>
<stop offset="1" stop-color="#9A7742"/>
</linearGradient>
<linearGradient id="paint2_linear_798_2596" x1="25.4401" y1="18.2667" x2="30.2" y2="17.2971" gradientUnits="userSpaceOnUse">
<stop stop-color="#889FA6"/>
<stop offset="1" stop-color="#43595C"/>
</linearGradient>
<linearGradient id="paint3_linear_798_2596" x1="36.0458" y1="21.675" x2="36.595" y2="16.8321" gradientUnits="userSpaceOnUse">
<stop stop-color="#39BA9C"/>
<stop offset="1" stop-color="#0AA587"/>
</linearGradient>
<linearGradient id="paint4_linear_798_2596" x1="38.7309" y1="10.2134" x2="43.203" y2="13.0705" gradientUnits="userSpaceOnUse">
<stop stop-color="#1D1848"/>
<stop offset="1" stop-color="#6951A2"/>
</linearGradient>
<clipPath id="clip0_798_2596">
<rect width="66" height="56" fill="white"/>
</clipPath>
</defs>
</svg>
