<svg width="15" height="17" viewBox="0 0 15 17" fill="none" xmlns="http://www.w3.org/2000/svg">
<g clip-path="url(#clip0_716_209)">
<path d="M7.22543 4.83506C5.20638 4.83506 3.57781 6.43818 3.57781 8.42568C3.57781 10.4132 5.20638 12.0163 7.22543 12.0163C9.24447 12.0163 10.873 10.4132 10.873 8.42568C10.873 6.43818 9.24447 4.83506 7.22543 4.83506ZM7.22543 10.7601C5.92067 10.7601 4.854 9.71318 4.854 8.42568C4.854 7.13818 5.91749 6.09131 7.22543 6.09131C8.53336 6.09131 9.59685 7.13818 9.59685 8.42568C9.59685 9.71318 8.53019 10.7601 7.22543 10.7601ZM11.873 4.68818C11.873 5.15381 11.4921 5.52568 11.0222 5.52568C10.5492 5.52568 10.1715 5.15068 10.1715 4.68818C10.1715 4.22568 10.5524 3.85068 11.0222 3.85068C11.4921 3.85068 11.873 4.22568 11.873 4.68818ZM14.2889 5.53818C14.2349 4.41631 13.9746 3.42256 13.1397 2.60381C12.308 1.78506 11.2984 1.52881 10.1588 1.47256C8.98415 1.40693 5.46352 1.40693 4.28892 1.47256C3.15241 1.52568 2.14289 1.78193 1.30797 2.60068C0.47305 3.41943 0.215907 4.41318 0.158765 5.53506C0.092098 6.69131 0.092098 10.1569 0.158765 11.3132C0.212733 12.4351 0.47305 13.4288 1.30797 14.2476C2.14289 15.0663 3.14924 15.3226 4.28892 15.3788C5.46352 15.4444 8.98415 15.4444 10.1588 15.3788C11.2984 15.3257 12.308 15.0694 13.1397 14.2476C13.9715 13.4288 14.2318 12.4351 14.2889 11.3132C14.3556 10.1569 14.3556 6.69443 14.2889 5.53818ZM12.7715 12.5538C12.5238 13.1663 12.0445 13.6382 11.4191 13.8851C10.4826 14.2507 8.26035 14.1663 7.22543 14.1663C6.19051 14.1663 3.96511 14.2476 3.03178 13.8851C2.40956 13.6413 1.93019 13.1694 1.6794 12.5538C1.30797 11.6319 1.39368 9.44443 1.39368 8.42568C1.39368 7.40693 1.31114 5.21631 1.6794 4.29756C1.92702 3.68506 2.40638 3.21318 3.03178 2.96631C3.96829 2.60068 6.19051 2.68506 7.22543 2.68506C8.26035 2.68506 10.4857 2.60381 11.4191 2.96631C12.0413 3.21006 12.5207 3.68193 12.7715 4.29756C13.1429 5.21943 13.0572 7.40693 13.0572 8.42568C13.0572 9.44443 13.1429 11.6351 12.7715 12.5538Z" fill="#15416E"/>
</g>
<defs>
<clipPath id="clip0_716_209">
<rect width="14.2222" height="16" fill="white" transform="translate(0.111145 0.428711)"/>
</clipPath>
</defs>
</svg>
