<svg width="660" height="720" viewBox="0 0 660 720" fill="none" xmlns="http://www.w3.org/2000/svg">
<g opacity="0.11" clip-path="url(#clip0_798_3015)">
<path d="M559.376 -39C504.291 -39 459.632 5.65095 459.632 60.7271C459.632 82.6874 441.823 100.493 419.859 100.493C470.173 100.493 511.767 137.754 518.598 186.18C555.714 156.944 579.566 111.639 579.566 60.7271V-39H559.376Z" fill="url(#paint0_linear_798_3015)"/>
<path d="M419.859 100.493C397.895 100.493 380.087 82.6874 380.087 60.7271C380.087 5.65095 335.428 -39 280.343 -39H260.153V60.7271C260.153 111.629 284.005 156.944 321.121 186.18C348.303 207.591 382.573 220.406 419.859 220.406C457.146 220.406 491.416 207.6 518.598 186.18C511.767 137.754 470.182 100.493 419.859 100.493Z" fill="url(#paint1_linear_798_3015)"/>
<path d="M92.4674 109.334C75.4465 161.716 104.118 217.968 156.5 234.996C177.392 241.778 188.825 264.222 182.041 285.111C197.591 237.263 245.884 209.232 294.053 217.703C277.705 173.374 241.984 136.692 193.559 120.964L98.7009 90.1434L92.458 109.343L92.4674 109.334Z" fill="url(#paint2_linear_798_3015)"/>
<path d="M182.041 285.111C175.257 305.999 152.809 317.43 131.917 310.647C79.5262 293.629 23.2641 322.296 6.23364 374.669L-0.00927734 393.869L94.8488 424.689C143.274 440.417 193.739 431.737 233.018 405.479C261.785 386.251 284.565 357.622 296.083 322.163C307.601 286.704 306.007 250.155 294.043 217.703C245.874 209.232 197.582 237.263 182.031 285.111H182.041Z" fill="#E3B972"/>
<path d="M89.2795 599.157C133.843 631.533 196.215 621.648 228.597 577.092C241.51 559.325 266.387 555.388 284.157 568.298C243.445 538.73 231.709 484.138 254.65 440.957C207.439 442.798 161.5 465.441 131.576 506.62L72.9512 587.299L89.2795 599.166V599.157Z" fill="url(#paint3_linear_798_3015)"/>
<path d="M284.157 568.298C301.928 581.209 305.865 606.082 292.952 623.849C260.571 668.405 270.457 730.766 315.021 763.142L331.349 775.009L389.973 694.33C419.898 653.142 427.241 602.477 414.404 557.01C405.002 523.714 384.812 493.207 354.641 471.294C324.48 449.381 289.214 439.601 254.641 440.957C231.7 484.147 243.445 538.73 284.148 568.298H284.157Z" fill="#AFD0D5"/>
<path d="M554.224 753.552C598.788 721.176 608.665 658.815 576.293 614.259C563.38 596.491 567.317 571.619 585.088 558.708C544.376 588.276 488.826 582.575 454.841 547.41C442.004 592.877 449.338 643.551 479.271 684.731L537.896 765.41L554.224 753.542V753.552Z" fill="url(#paint4_linear_798_3015)"/>
<path d="M585.088 558.708C602.858 545.798 627.735 549.734 640.648 567.502C673.029 612.058 735.402 621.933 779.965 589.566L796.294 577.699L737.669 497.02C707.745 455.832 661.805 433.198 614.595 431.358C580.021 430.01 544.765 439.781 514.594 461.694C484.433 483.607 464.233 514.114 454.831 547.41C488.826 582.575 544.376 588.276 585.078 558.708H585.088Z" fill="#87CA90"/>
<path d="M844.757 359.14C827.736 306.758 771.465 278.091 719.074 295.118C698.182 301.901 675.743 290.47 668.95 269.582C684.5 317.43 661.91 368.493 617.954 389.951C657.233 416.208 707.707 424.888 756.123 409.16L850.981 378.34L844.738 359.14H844.757Z" fill="url(#paint5_linear_798_3015)"/>
<path d="M668.959 269.582C662.176 248.694 673.608 226.259 694.5 219.467C746.891 202.449 775.563 146.187 758.533 93.805L752.29 74.6052L657.432 105.425C609.007 121.153 573.285 157.846 556.938 202.164C544.965 234.626 543.371 271.176 554.898 306.625C566.416 342.084 589.196 370.713 617.963 389.941C661.92 368.484 684.5 317.42 668.959 269.572V269.582Z" fill="#9D76B4"/>
</g>
<defs>
<linearGradient id="paint0_linear_798_3015" x1="518.702" y1="73.3246" x2="415.827" y2="185.781" gradientUnits="userSpaceOnUse">
<stop stop-color="#00A08C"/>
<stop offset="1" stop-color="#056B5D"/>
</linearGradient>
<linearGradient id="paint1_linear_798_3015" x1="554.243" y1="60.2149" x2="259.927" y2="103.287" gradientUnits="userSpaceOnUse">
<stop stop-color="#56C6D0"/>
<stop offset="1" stop-color="#089DBC"/>
</linearGradient>
<linearGradient id="paint2_linear_798_3015" x1="186.733" y1="182.729" x2="261.88" y2="315.329" gradientUnits="userSpaceOnUse">
<stop stop-color="#C9A263"/>
<stop offset="1" stop-color="#987C4C"/>
</linearGradient>
<linearGradient id="paint3_linear_798_3015" x1="188.221" y1="532.193" x2="337.563" y2="501.688" gradientUnits="userSpaceOnUse">
<stop stop-color="#839CA1"/>
<stop offset="1" stop-color="#596C6F"/>
</linearGradient>
<linearGradient id="paint4_linear_798_3015" x1="521.102" y1="638.772" x2="538.239" y2="487.338" gradientUnits="userSpaceOnUse">
<stop stop-color="#40BA8E"/>
<stop offset="1" stop-color="#0BA586"/>
</linearGradient>
<linearGradient id="paint5_linear_798_3015" x1="605.363" y1="280.349" x2="745.397" y2="370.185" gradientUnits="userSpaceOnUse">
<stop stop-color="#231D47"/>
<stop offset="1" stop-color="#635BA7"/>
</linearGradient>
<clipPath id="clip0_798_3015">
<rect width="851" height="814" fill="white" transform="translate(0 -39)"/>
</clipPath>
</defs>
</svg>
