<svg width="753" height="300" viewBox="0 0 753 300" fill="none" xmlns="http://www.w3.org/2000/svg">
<g clip-path="url(#clip0_76_1267)">
<path d="M48.6188 195.348C44.2854 187.861 40.0775 180.557 35.8334 173.273C27.1387 158.352 26.9952 143.326 35.5911 128.387C50.6052 102.295 65.6175 76.1987 80.9402 50.2874C88.9977 36.6618 101.161 29.502 117.247 29.5119C148.464 29.5311 179.682 29.4682 210.899 29.5391C226.02 29.5734 237.851 36.418 245.462 49.0748C261.699 76.0758 277.462 103.37 292.955 130.806C300.416 144.019 300.024 157.992 292.577 171.112C277.371 197.902 261.823 224.502 246.113 251.001C238.04 264.618 225.917 271.747 209.785 271.705C178.869 271.626 147.953 271.706 117.037 271.673C101.224 271.656 89.171 264.564 81.1398 251.219C70.0678 232.821 59.5075 214.114 48.6188 195.348ZM115.057 62.8479C108.79 65.4946 106.759 71.098 109.963 77.0742C111.48 79.9035 113.135 82.6583 114.696 85.4649C116.735 89.1332 116.52 92.7441 114.425 96.3372C106.79 109.427 99.1566 122.517 91.5749 135.638C89.5147 139.203 86.4928 140.906 82.4413 140.944C79.2296 140.973 76.0071 140.853 72.8086 141.076C66.8443 141.492 63.1331 145.458 63.2929 150.979C63.4444 156.213 67.4745 159.998 73.2338 160.194C76.4428 160.304 79.6599 160.178 82.8687 160.291C86.1454 160.407 89.1139 161.573 90.8141 164.447C98.8361 178.008 106.735 191.641 114.647 205.267C116.684 208.775 116.605 212.351 114.626 215.877C113.055 218.677 111.347 221.405 109.888 224.261C107.144 229.633 108.568 234.92 113.323 237.54C117.914 240.07 123.613 238.324 126.59 233.422C127.788 231.45 128.994 229.468 129.989 227.391C132.544 222.057 136.801 219.787 142.597 219.891C147.714 219.982 152.835 219.899 157.955 219.899C166.789 219.9 175.622 219.928 184.456 219.902C190.012 219.885 194.446 221.652 196.939 227.051C197.944 229.228 199.263 231.272 200.555 233.302C203.401 237.774 209.019 239.296 213.453 236.871C217.897 234.442 219.536 228.996 217.119 224.109C215.742 221.325 214.085 218.68 212.532 215.985C210.364 212.221 210.598 208.477 212.722 204.826C220.341 191.727 228.018 178.661 235.633 165.56C237.764 161.894 240.935 160.248 245.085 160.246C248.097 160.245 251.112 160.31 254.119 160.181C259.916 159.932 263.764 156.14 263.815 150.772C263.867 145.26 259.962 141.274 254.123 141.018C251.217 140.891 248.302 140.941 245.391 140.961C240.896 140.991 237.554 139.223 235.261 135.206C227.799 122.132 220.23 109.118 212.668 96.1011C210.416 92.2264 210.683 88.474 212.853 84.6904C214.449 81.9064 216.165 79.1661 217.453 76.2412C218.139 74.6826 218.457 72.7058 218.193 71.0361C217.556 67.0085 215.051 64.3418 211.009 63.4614C206.73 62.5294 202.933 64.1587 200.613 67.8124C199 70.3523 197.483 72.9563 196.002 75.5758C193.971 79.1647 190.941 80.7499 186.83 80.7347C171.371 80.6774 155.912 80.6665 140.453 80.7431C136.169 80.7643 133.185 78.8622 131.058 75.3331C129.556 72.8404 128.128 70.3024 126.617 67.815C123.845 63.2507 120.433 61.7041 115.057 62.8479Z" fill="#081717"/>
<path d="M652.399 78.9144C652.399 83.1311 652.413 87.0467 652.395 90.9621C652.339 103.55 643.306 112.605 630.718 112.64C618.871 112.673 607.019 112.844 595.18 112.532C591.494 112.435 587.861 110.873 584.169 110.164C582.719 109.886 581.128 109.875 579.678 110.149C575.887 110.863 572.151 112.458 568.37 112.531C554.421 112.801 540.463 112.626 526.508 112.534C524.699 112.522 523.735 113.097 523.217 114.832C519.206 128.277 505.715 134.557 495.035 134.331C487.518 134.173 479.89 134.747 472.508 133.656C458.598 131.602 448.682 119.361 448.885 105.239C448.948 100.804 449.883 96.323 450.944 91.9916C451.338 90.3841 452.976 88.4463 454.501 87.8784C458.097 86.5389 461.967 85.9322 466.574 84.8254C465.982 86.7107 465.589 87.668 465.385 88.6641C464.445 93.2471 462.908 97.8238 462.786 102.434C462.523 112.425 469.355 119.715 479.326 120.301C485.007 120.634 490.775 120.409 496.442 119.828C504.842 118.966 509.492 113.527 509.6 105.02C509.695 97.4914 509.612 89.9606 509.636 82.4309C509.662 74.4859 514.878 68.1021 522.56 66.496C524.412 66.1088 524.617 67.2791 524.638 68.566C524.691 71.8783 524.68 75.1916 524.688 78.5045C524.698 82.6208 524.639 86.7383 524.722 90.853C524.831 96.2726 526.994 98.641 532.445 98.708C543.787 98.8475 555.135 98.8584 566.477 98.6941C572.023 98.6138 573.994 96.3364 574.077 90.8143C574.123 87.803 574.02 84.7864 574.159 81.7802C574.417 76.1651 576.757 71.9666 581.956 69.1715C589.287 65.2294 589.217 64.6702 589.157 73.3854C589.12 78.9066 589.029 84.4342 589.236 89.9487C589.488 96.6682 591.602 98.6859 598.341 98.7528C607.978 98.8485 617.617 98.8453 627.255 98.7619C634.996 98.695 637.762 96.0087 637.879 88.1697C638.035 77.7307 637.933 67.2878 637.941 56.8465C637.949 47.6367 642.226 42.3438 652.284 39.9087C652.323 46.4905 652.376 52.9135 652.395 59.3367C652.414 65.7621 652.399 72.1877 652.399 78.9144Z" fill="#081717"/>
<path d="M653.604 246.382C653.604 228.015 653.598 209.95 653.61 191.886C653.613 187.108 653.949 186.735 658.768 186.788C662.874 186.833 666.985 186.954 671.081 187.232C674.189 187.443 676.375 189.168 678.102 191.797C687.578 206.221 697.147 220.584 706.692 234.962C706.957 235.362 707.308 235.703 708.205 236.765C708.205 231.98 708.234 227.967 708.2 223.954C708.104 212.621 707.973 201.289 707.88 189.956C707.863 187.853 709.044 186.843 711.092 186.822C714.203 186.789 717.314 186.747 720.424 186.785C724.091 186.829 724.651 187.357 724.667 190.98C724.707 200.013 724.686 209.045 724.687 218.078C724.687 230.723 724.697 243.369 724.678 256.014C724.671 260.414 724.257 260.804 719.832 260.832C716.52 260.852 713.208 260.797 709.897 260.833C706.257 260.873 703.575 259.309 701.64 256.251C691.605 240.396 681.545 224.559 671.487 208.719C671.282 208.396 670.992 208.126 670.03 207.868C670.03 211.157 670.004 214.445 670.035 217.734C670.157 231.072 670.302 244.411 670.424 257.75C670.442 259.685 669.47 260.771 667.493 260.785C663.88 260.809 660.268 260.803 656.655 260.791C654.493 260.785 653.632 259.557 653.632 257.521C653.632 253.908 653.614 250.296 653.604 246.382Z" fill="#081717"/>
<path d="M496.98 186.767C504.207 186.769 511.132 186.741 518.057 186.787C521.693 186.81 522.195 187.363 522.266 191.021C522.295 192.526 522.298 194.033 522.257 195.537C522.132 200.134 520.627 201.72 516.06 201.77C509.135 201.847 502.209 201.8 495.284 201.805C491.069 201.808 486.853 201.778 482.638 201.821C478.834 201.86 478.378 202.357 478.314 206.25C478.293 207.554 478.299 208.86 478.31 210.164C478.35 214.623 478.727 215.038 483.093 215.05C492.126 215.074 501.159 215.058 510.192 215.06C516.856 215.063 516.865 215.064 516.858 221.688C516.849 230.846 517.561 230.103 508.381 230.116C499.95 230.127 491.519 230.104 483.088 230.128C478.723 230.14 478.347 230.551 478.311 235.016C478.294 237.123 478.296 239.231 478.31 241.339C478.34 245.994 478.681 246.367 483.245 246.374C494.686 246.393 506.128 246.374 517.57 246.387C522.59 246.393 522.888 246.671 522.873 251.655C522.843 261.886 523.857 260.809 513.654 260.83C497.595 260.864 481.536 260.845 465.477 260.834C460.524 260.83 460.242 260.541 460.239 255.498C460.231 236.428 460.226 217.359 460.241 198.289C460.247 189.976 463.008 187.016 471.387 186.835C479.814 186.652 488.248 186.777 496.98 186.767Z" fill="#081717"/>
<path d="M625.874 251.829C626.78 253.981 627.585 255.926 628.413 257.863C629.209 259.723 628.738 260.795 626.592 260.799C621.878 260.809 617.15 261.001 612.459 260.668C611.126 260.573 609.378 259.198 608.728 257.941C606.845 254.299 605.613 250.32 603.716 246.687C603.076 245.463 601.23 244.154 599.903 244.12C591.082 243.892 582.252 244.015 573.425 243.989C571.232 243.983 569.905 244.946 569.149 247.029C567.816 250.705 566.272 254.305 564.925 257.976C564.201 259.949 562.924 260.841 560.85 260.823C556.838 260.79 552.825 260.874 548.814 260.811C545.664 260.761 545.229 260.107 546.427 257.146C552.521 242.085 558.653 227.04 564.78 211.992C567.313 205.769 569.915 199.573 572.393 193.327C573.862 189.623 576.296 187.268 580.415 187.14C585.521 186.982 590.641 186.729 595.731 186.983C596.98 187.045 598.682 188.679 599.256 189.992C607.201 208.19 614.986 226.458 622.811 244.709C623.799 247.013 624.792 249.315 625.874 251.829ZM591.128 213.375C589.543 209.254 587.957 205.132 586.254 200.703C585.659 201.409 585.388 201.603 585.293 201.861C582.25 210.136 579.216 218.414 576.201 226.699C575.333 229.083 576.806 229.491 578.667 229.494C583.778 229.503 588.889 229.548 594 229.485C597.038 229.448 597.418 228.853 596.305 226.048C594.679 221.951 592.974 217.884 591.128 213.375Z" fill="#081717"/>
<path d="M412.042 260.839C401.507 260.838 391.273 260.854 381.04 260.826C377.009 260.814 376.517 260.331 376.514 256.304C376.495 236.338 376.482 216.373 376.524 196.408C376.536 190.466 378.914 187.875 384.842 186.992C393.858 185.65 394.57 186.246 394.571 195.131C394.571 210.481 394.564 225.831 394.577 241.182C394.58 246.036 394.905 246.368 399.651 246.376C410.185 246.393 420.72 246.371 431.254 246.391C435.702 246.4 436.09 246.805 436.13 251.178C436.147 253.084 436.053 254.994 436.142 256.896C436.273 259.709 435.03 260.89 432.207 260.855C425.587 260.773 418.964 260.835 412.042 260.839Z" fill="#081717"/>
<path d="M559.658 130.671C559.965 124.926 561.858 122.984 567.227 122.919C573.233 122.847 579.242 122.853 585.248 122.921C589.838 122.973 592.422 125.293 592.712 129.411C593.083 134.684 591.236 137.717 586.339 138.069C579.776 138.541 573.138 138.565 566.571 138.157C561.968 137.87 560.13 135.418 559.658 130.671Z" fill="#081717"/>
<path d="M480.957 61.232C477.163 56.4708 477.987 50.7579 482.592 48.5805C486.06 46.9413 490.393 47.7504 492.479 50.4263C494.462 52.9704 494.497 58.1889 492.548 60.6164C490.417 63.2705 486.17 64.0203 482.647 62.3376C482.11 62.0811 481.63 61.703 480.957 61.232Z" fill="#081717"/>
</g>
<defs>
<clipPath id="clip0_76_1267">
<rect width="753" height="299.995" fill="white"/>
</clipPath>
</defs>
</svg>
