<svg width="50" height="50" viewBox="0 0 50 50" fill="none" xmlns="http://www.w3.org/2000/svg">
<path d="M25.0002 0C11.1929 0 0 11.1929 0 25.0002C0 38.8076 11.1929 50.0005 25.0002 50.0005C38.8075 50.0005 50.0004 38.8076 50.0004 25.0002C50.0004 11.1929 38.8071 0 25.0002 0ZM38.3123 27.1477L33.5272 35.3807C33.1455 36.0343 32.5978 36.5773 31.9382 36.9541C31.2788 37.3308 30.5315 37.5293 29.7706 37.5283H20.2216C19.4607 37.5288 18.7134 37.3308 18.0539 36.9541C17.3944 36.5773 16.8466 36.0343 16.465 35.3807L11.6868 27.1477C11.3095 26.4941 11.1116 25.7533 11.1116 25.0002C11.1116 24.2471 11.3099 23.5063 11.6868 22.8526L16.465 14.6198C16.8472 13.9651 17.3959 13.4223 18.0564 13.0449C18.7169 12.6682 19.4656 12.4702 20.227 12.4717H29.776C30.5369 12.4712 31.2841 12.6691 31.9437 13.0459C32.6031 13.4227 33.1508 13.9656 33.5326 14.6192L38.3123 22.8522C38.6905 23.5058 38.8889 24.2461 38.8889 24.9997C38.8889 25.7533 38.69 26.4946 38.3123 27.1477Z" fill="#000029"/>
<path d="M34.4161 23.9848H33.3857C33.2063 23.9848 33.0305 23.9378 32.8752 23.8492C32.7198 23.7599 32.5909 23.6326 32.5009 23.4782L31.2866 21.3895L30.0793 19.3007C29.9897 19.1464 29.9427 18.9715 29.9427 18.7932C29.9427 18.6148 29.9897 18.4399 30.0793 18.2856L30.5948 17.3909C30.7174 17.1591 30.7453 16.8887 30.6717 16.6372C30.5983 16.3855 30.4302 16.1718 30.2014 16.0405C29.9731 15.9092 29.7025 15.871 29.4463 15.9337C29.1901 15.9965 28.9682 16.1546 28.8271 16.3761L28.3116 17.2621C28.2224 17.4168 28.0935 17.5453 27.9382 17.6343C27.7828 17.7236 27.6065 17.7706 27.4271 17.7702H22.5715C22.3923 17.7702 22.2159 17.7236 22.0606 17.6343C21.9051 17.5453 21.7763 17.4168 21.6872 17.2621L21.1717 16.3761C21.1074 16.2551 21.0199 16.1483 20.9131 16.0616C20.8061 15.9754 20.6833 15.9112 20.5509 15.8729C20.4186 15.8348 20.2799 15.8239 20.1433 15.8406C20.0065 15.8573 19.8748 15.9008 19.7556 15.9695C19.6366 16.038 19.5322 16.1297 19.45 16.2389C19.3671 16.3482 19.3079 16.4731 19.275 16.6059C19.2422 16.7387 19.2368 16.8768 19.2588 17.0116C19.2809 17.1464 19.3304 17.2757 19.4039 17.3913L19.9194 18.286C20.009 18.4404 20.056 18.6153 20.056 18.7937C20.056 18.972 20.009 19.1469 19.9194 19.3012L18.7052 21.39L17.491 23.4788C17.4014 23.6331 17.2725 23.761 17.1172 23.8497C16.9619 23.9384 16.7859 23.9854 16.6067 23.9854H15.5762C15.3052 23.9854 15.0456 24.0922 14.8541 24.2827C14.6624 24.4734 14.5547 24.7312 14.5547 25.0006C14.5547 25.27 14.6624 25.5278 14.8541 25.7183C15.0456 25.909 15.3052 26.0158 15.5762 26.0158H16.6067C16.7859 26.0158 16.9619 26.0624 17.1172 26.1515C17.2725 26.2407 17.4014 26.3686 17.491 26.5224L18.7052 28.6112L19.9194 30.7C20.009 30.8543 20.056 31.0292 20.056 31.2075C20.056 31.3858 20.009 31.5609 19.9194 31.7152L19.4039 32.601C19.3304 32.7167 19.2809 32.8455 19.2588 32.9808C19.2368 33.1155 19.2422 33.2536 19.275 33.3864C19.3079 33.5193 19.3677 33.6442 19.45 33.7534C19.5328 33.8627 19.6366 33.9543 19.7556 34.0229C19.8748 34.0915 20.0065 34.1351 20.1433 34.1517C20.2799 34.1685 20.4186 34.1572 20.5509 34.1194C20.6833 34.0812 20.8061 34.0175 20.9131 33.9308C21.0199 33.8446 21.1074 33.7372 21.1717 33.6163L21.6872 32.7304C21.7763 32.5755 21.9051 32.4471 22.0606 32.358C22.2159 32.2688 22.3923 32.2218 22.5715 32.2222H27.4198C27.5992 32.2222 27.7756 32.2688 27.9309 32.358C28.0862 32.4471 28.215 32.576 28.3043 32.7304L28.8197 33.6163C28.9608 33.8377 29.1827 33.9959 29.4389 34.0587C29.6952 34.1213 29.9657 34.0832 30.194 33.9519C30.4223 33.821 30.5909 33.6069 30.664 33.3551C30.7374 33.1033 30.71 32.8333 30.587 32.601L30.0715 31.7152C29.9819 31.5609 29.9348 31.3858 29.9348 31.2075C29.9348 31.0292 29.9819 30.8543 30.0715 30.7L31.2857 28.6112L32.5071 26.5224C32.5969 26.3686 32.7262 26.2407 32.8814 26.1521C33.0369 26.0634 33.2127 26.0162 33.392 26.0162H34.4155C34.6866 26.0162 34.9462 25.9095 35.1378 25.7189C35.3294 25.5283 35.4372 25.2706 35.4372 25.001C35.4372 24.7316 35.3294 24.4739 35.1378 24.2833C34.9462 24.0931 34.6871 23.9848 34.4161 23.9848Z" fill="#000029"/>
</svg>
