<svg width="15" height="14" viewBox="0 0 15 14" fill="none" xmlns="http://www.w3.org/2000/svg">
<g clip-path="url(#clip0_716_213)">
<path d="M3.67351 13.6509V4.65486H0.624357V13.6509H3.67351ZM2.14933 3.42588C3.21262 3.42588 3.87447 2.73509 3.87447 1.87184C3.85466 0.989118 3.21267 0.317505 2.16951 0.317505C1.12651 0.317505 0.444458 0.989132 0.444458 1.87184C0.444458 2.73513 1.10614 3.42588 2.12942 3.42588H2.14923H2.14933ZM5.36121 13.6509H8.41037V8.62705C8.41037 8.35818 8.43018 8.0896 8.5107 7.8974C8.73113 7.36021 9.23284 6.80384 10.0751 6.80384C11.1785 6.80384 11.6199 7.6288 11.6199 8.83813V13.6508H14.6689V8.49257C14.6689 5.72936 13.1646 4.44367 11.1584 4.44367C9.51353 4.44367 8.79131 5.34529 8.39008 5.95939H8.41044V4.65468H5.36128C5.4013 5.49881 5.36128 13.6507 5.36128 13.6507L5.36121 13.6509Z" fill="#15416E"/>
</g>
<defs>
<clipPath id="clip0_716_213">
<rect width="14.2222" height="13.3333" fill="white" transform="translate(0.444458 0.317627)"/>
</clipPath>
</defs>
</svg>
