<svg width="206" height="80" viewBox="0 0 206 80" fill="none" xmlns="http://www.w3.org/2000/svg">
<g clip-path="url(#clip0_401_201)">
<path d="M7.03308 70.9792L6.07944 72.0475C5.60262 71.3353 4.76819 70.9792 3.93376 70.9792C3.21853 70.9792 2.62251 71.2166 2.14569 71.8101C1.66887 72.2849 1.43046 72.997 1.43046 73.7092C1.43046 74.4214 1.66887 75.1335 2.14569 75.727C2.62251 76.2018 3.33773 76.5579 4.05296 76.5579C4.52978 76.5579 4.8874 76.4392 5.24501 76.2018C5.60262 75.9644 5.84103 75.6083 6.07944 75.1335H3.93376V73.5905H7.62911V73.9466C7.62911 74.6587 7.5099 75.3709 7.15229 75.9644C6.91388 76.5579 6.43706 77.0326 5.84103 77.3887C5.24501 77.7448 4.64899 77.8635 4.05296 77.8635C3.33773 77.8635 2.62251 77.7448 2.02648 77.3887C1.43046 77.0326 0.953638 76.4392 0.596024 75.8457C0.119205 75.1335 0 74.4214 0 73.7092C0 72.7596 0.357614 71.6914 0.953638 70.9792C1.66887 70.0297 2.74171 69.5549 3.93376 69.5549C4.52978 69.5549 5.12581 69.6736 5.72183 69.911C6.19865 70.1484 6.67547 70.5044 7.03308 70.9792ZM14.1854 75.1335H9.77479C9.77479 75.4896 10.0132 75.8457 10.2516 76.2018C10.49 76.4392 10.9668 76.5579 11.3245 76.5579C11.8013 76.5579 12.2781 76.3205 12.6357 75.9644L13.8278 76.5579C13.5893 76.9139 13.2317 77.27 12.7549 77.5074C12.2781 77.7448 11.8013 77.8635 11.3245 77.8635C10.49 77.8635 9.77479 77.5074 9.29797 76.9139C8.70195 76.3205 8.46354 75.4896 8.46354 74.6587C8.46354 73.8279 8.70195 72.997 9.29797 72.4036C9.77479 71.8101 10.49 71.454 11.3245 71.454C12.1589 71.454 12.8741 71.8101 13.4701 72.4036C14.0662 73.1157 14.3046 73.9466 14.3046 74.7774V75.1335H14.1854ZM12.8741 73.9466C12.7549 73.5905 12.6357 73.3531 12.3973 73.1157C12.1589 72.8783 11.8013 72.7596 11.4437 72.7596C11.086 72.7596 10.7284 72.8783 10.49 73.1157C10.2516 73.3531 10.1324 73.5905 10.0132 73.9466H12.8741ZM15.2582 71.8101H16.6887V72.4036C16.9271 72.1662 17.1655 71.9288 17.5231 71.8101C17.7615 71.6914 17.9999 71.6914 18.2383 71.6914C18.7152 71.6914 19.3112 71.9288 19.6688 72.2849C20.0264 72.7596 20.1456 73.2344 20.1456 73.8279V77.7448H18.7152V75.1335C18.7152 74.6587 18.7152 74.184 18.5959 73.7092C18.5959 73.4718 18.4767 73.3531 18.3575 73.1157C18.2383 72.997 17.9999 72.8783 17.8807 72.8783C17.6423 72.8783 17.4039 72.997 17.1655 73.1157C16.9271 73.3531 16.8079 73.5905 16.6887 73.9466C16.6887 74.3027 16.6887 74.7774 16.6887 75.1335V77.5074H15.2582V71.8101ZM26.8211 75.1335H22.4105C22.4105 75.4896 22.6489 75.8457 22.8873 76.2018C23.1257 76.4392 23.6025 76.5579 23.9602 76.5579C24.437 76.5579 24.9138 76.3205 25.2714 75.9644L26.4635 76.5579C25.9866 77.3887 25.033 77.8635 24.0794 77.8635C23.2449 77.8635 22.5297 77.5074 21.9337 76.9139C21.3377 76.3205 21.0992 75.4896 21.0992 74.6587C21.0992 73.8279 21.3377 72.997 21.9337 72.4036C22.4105 71.8101 23.1257 71.454 23.9602 71.454C24.7946 71.454 25.5098 71.8101 26.1058 72.4036C26.7019 73.1157 26.9403 73.9466 26.9403 74.7774V75.1335H26.8211ZM25.5098 73.9466C25.3906 73.5905 25.2714 73.3531 24.9138 73.1157C24.6754 72.8783 24.3178 72.7596 23.9602 72.7596C23.6025 72.7596 23.2449 72.8783 23.0065 73.1157C22.7681 73.3531 22.6489 73.5905 22.5297 73.9466H25.5098ZM27.6555 71.8101H28.8476V72.5222C28.9668 72.2849 29.086 72.0475 29.3244 71.8101C29.5628 71.6914 29.8012 71.5727 30.0396 71.5727C30.278 71.5727 30.3972 71.5727 30.6356 71.6914L30.1588 72.997C30.0396 72.8783 29.9204 72.8783 29.8012 72.8783C29.5628 72.8783 29.4436 72.997 29.3244 73.3531C29.2052 73.9466 29.086 74.4214 29.086 75.0148V77.7448H27.7747V71.8101H27.6555ZM35.2846 71.8101H36.5959V77.7448H35.2846V77.1513C35.0462 77.3887 34.8078 77.6261 34.4502 77.7448C34.2118 77.8635 33.8542 77.9822 33.6157 77.9822C32.9005 77.9822 32.1853 77.6261 31.8277 77.0326C31.2317 76.4392 30.9932 75.6083 30.9932 74.7774C30.9932 73.9466 31.2317 73.1157 31.7085 72.5222C32.1853 71.9288 32.7813 71.6914 33.4965 71.6914C33.8542 71.6914 34.0926 71.8101 34.4502 71.9288C34.8078 72.0475 35.0462 72.2849 35.2846 72.5222V71.8101ZM33.8542 72.997C33.4965 72.997 33.0197 73.2344 32.7813 73.4718C32.5429 73.8279 32.3045 74.3027 32.4237 74.7774C32.4237 75.2522 32.5429 75.727 32.9005 76.0831C33.1389 76.4392 33.4965 76.5579 33.9734 76.5579C34.331 76.5579 34.8078 76.4392 35.0462 76.0831C35.2846 75.727 35.523 75.2522 35.523 74.7774C35.523 74.3027 35.4038 73.8279 35.0462 73.4718C34.6886 73.2344 34.2118 72.997 33.8542 72.997ZM37.9071 69.4362H39.2184V77.7448H37.9071V69.4362ZM46.9667 69.4362C48.0395 69.4362 48.9932 69.911 49.5892 70.6231C51.1389 72.4036 51.1389 74.8961 49.5892 76.6766C48.2779 78.2196 46.013 78.3383 44.5826 77.0326C44.4634 76.9139 44.3442 76.7952 44.225 76.6766C43.5097 75.8457 43.1521 74.7774 43.1521 73.7092C43.1521 72.997 43.2713 72.2849 43.6289 71.5727C43.9866 70.9792 44.4634 70.3858 45.0594 70.0297C45.5362 69.6736 46.2515 69.4362 46.9667 69.4362ZM46.9667 70.9792C46.2515 70.9792 45.6554 71.2166 45.2978 71.8101C44.821 72.4036 44.5826 73.1157 44.5826 73.8279C44.5826 74.6587 44.821 75.3709 45.417 75.9644C46.2515 76.7952 47.6819 76.7952 48.5163 75.8457L48.6356 75.727C49.5892 74.5401 49.5892 72.997 48.6356 71.8101C48.1587 71.2166 47.5627 70.9792 46.9667 70.9792ZM51.6157 71.8101H52.8077V72.5222C52.9269 72.2849 53.0461 72.0475 53.2845 71.8101C53.5229 71.6914 53.7614 71.5727 53.9998 71.5727C54.2382 71.5727 54.3574 71.5727 54.5958 71.6914L54.2382 72.997C54.119 72.8783 53.9998 72.8783 53.8806 72.8783C53.6422 72.8783 53.5229 72.997 53.4037 73.3531C53.1653 73.9466 53.1653 74.4214 53.1653 75.0148V77.7448H51.7349V71.8101H51.6157ZM59.1256 71.8101H60.4368V76.9139C60.556 77.7448 60.3176 78.457 59.8408 79.1691C59.2448 79.8813 58.4103 80.2374 57.5759 80.1187C57.0991 80.1187 56.6223 80.1187 56.2647 79.8813C55.907 79.7626 55.5494 79.5252 55.311 79.1691C55.0726 78.813 54.8342 78.457 54.715 78.1009H56.2647C56.3839 78.2196 56.6223 78.457 56.7415 78.457C56.9799 78.5757 57.2183 78.5757 57.4567 78.5757C57.8143 78.5757 58.0527 78.5757 58.2911 78.3383C58.5296 78.2196 58.6488 78.1009 58.768 77.8635C58.8872 77.5074 58.8872 77.1513 58.8872 76.7952C58.6488 77.0326 58.4103 77.27 58.1719 77.3887C57.9335 77.5074 57.5759 77.6261 57.2183 77.6261C56.5031 77.6261 55.7878 77.27 55.4302 76.7952C54.9534 76.2018 54.5958 75.3709 54.5958 74.5401C54.5958 73.7092 54.8342 72.8783 55.4302 72.2849C55.907 71.8101 56.5031 71.454 57.2183 71.454C57.5759 71.454 57.8143 71.454 58.0527 71.6914C58.4103 71.8101 58.6488 72.0475 58.8872 72.2849L59.1256 71.8101ZM57.6951 72.997C57.3375 72.997 56.8607 73.1157 56.6223 73.4718C56.3839 73.8279 56.1455 74.184 56.2647 74.6587C56.2647 75.1335 56.3839 75.4896 56.7415 75.8457C57.2183 76.4392 58.1719 76.4392 58.768 75.9644L58.8872 75.8457C59.364 75.1335 59.364 74.184 58.8872 73.4718C58.5296 73.1157 58.1719 72.997 57.6951 72.997ZM65.801 71.8101H67.1123V77.7448H65.801V77.1513C65.5626 77.3887 65.3242 77.6261 64.9666 77.7448C64.7282 77.8635 64.3706 77.9822 64.1322 77.9822C63.4169 77.9822 62.7017 77.6261 62.3441 77.0326C61.7481 76.4392 61.5097 75.6083 61.5097 74.7774C61.5097 73.9466 61.7481 73.1157 62.2249 72.5222C62.7017 71.9288 63.2977 71.6914 64.013 71.6914C64.3706 71.6914 64.609 71.8101 64.9666 71.9288C65.3242 72.0475 65.5626 72.2849 65.801 72.5222V71.8101ZM64.3706 72.997C64.013 72.997 63.5361 73.1157 63.2977 73.4718C62.9401 73.8279 62.8209 74.3027 62.8209 74.7774C62.8209 75.2522 62.9401 75.727 63.2977 76.0831C63.5361 76.4392 63.8938 76.5579 64.3706 76.5579C64.7282 76.5579 65.205 76.4392 65.4434 76.0831C65.6818 75.727 65.9202 75.2522 65.801 74.7774C65.801 74.3027 65.6818 73.8279 65.4434 73.4718C65.205 73.2344 64.8474 72.997 64.3706 72.997ZM68.5428 71.8101H69.854V72.4036C70.0924 72.1662 70.3308 71.9288 70.6884 71.8101C70.9268 71.6914 71.1653 71.6914 71.5229 71.6914C71.9997 71.6914 72.5957 71.9288 72.9533 72.2849C73.3109 72.7596 73.4301 73.2344 73.4301 73.8279V77.7448H72.1189V75.1335C72.1189 74.6587 72.1189 74.184 71.9997 73.7092C71.9997 73.4718 71.8805 73.3531 71.7613 73.1157C71.6421 72.997 71.4037 72.8783 71.1653 72.8783C70.9268 72.8783 70.6884 72.997 70.45 73.1157C70.2116 73.3531 70.0924 73.5905 70.0924 73.9466C70.0924 74.3027 69.9732 74.7774 70.0924 75.1335V77.5074H68.7812V71.8101H68.5428ZM75.2182 69.3175C75.4566 69.3175 75.695 69.4362 75.8142 69.5549C75.9334 69.7923 76.0527 70.0297 76.0527 70.2671C76.0527 70.5044 75.9334 70.7418 75.8142 70.9792C75.695 71.2166 75.4566 71.2166 75.2182 71.2166C74.9798 71.2166 74.7414 71.0979 74.6222 70.9792C74.503 70.7418 74.3838 70.5044 74.3838 70.2671C74.3838 70.0297 74.503 69.7923 74.6222 69.5549C74.7414 69.4362 74.9798 69.3175 75.2182 69.3175ZM74.6222 71.8101H75.9334V77.7448H74.6222V71.8101ZM76.8871 71.8101H81.0593L78.6752 76.4392H80.94V77.7448H76.5295L78.9136 73.1157H76.8871V71.8101ZM85.9466 71.8101H87.2579V77.7448H85.9466V77.1513C85.7082 77.3887 85.4698 77.6261 85.1122 77.7448C84.8738 77.8635 84.5162 77.9822 84.2778 77.9822C83.5625 77.9822 82.8473 77.6261 82.4897 77.0326C81.8937 76.4392 81.6553 75.6083 81.6553 74.7774C81.6553 73.9466 81.8937 73.1157 82.3705 72.5222C82.8473 71.9288 83.4433 71.6914 84.1586 71.6914C84.5162 71.6914 84.7546 71.8101 85.1122 71.9288C85.4698 72.0475 85.7082 72.2849 85.9466 72.5222V71.8101ZM84.397 72.997C84.0394 72.997 83.5626 73.1157 83.3241 73.4718C82.9665 73.8279 82.8473 74.3027 82.8473 74.7774C82.8473 75.2522 82.9665 75.727 83.3241 76.0831C83.5626 76.4392 83.9202 76.5579 84.397 76.5579C84.7546 76.5579 85.2314 76.4392 85.4698 76.0831C85.7082 75.727 85.8274 75.2522 85.8274 74.7774C85.8274 74.3027 85.7082 73.8279 85.4698 73.4718C85.2314 73.2344 84.8738 72.997 84.397 72.997ZM88.8076 69.5549H90.1188V71.8101H90.9533V73.1157H90.1188V77.7448H88.8076V73.1157H88.0923V71.8101H88.8076V69.5549ZM92.1453 69.3175C92.3837 69.3175 92.6221 69.4362 92.7413 69.5549C92.8605 69.7923 92.9797 70.0297 92.9797 70.2671C92.9797 70.5044 92.8605 70.7418 92.7413 70.9792C92.5029 71.3353 92.0261 71.3353 91.6685 71.0979L91.5493 70.9792C91.4301 70.7418 91.3109 70.5044 91.3109 70.2671C91.3109 70.0297 91.4301 69.7923 91.5493 69.5549C91.7877 69.4362 92.0261 69.3175 92.1453 69.3175ZM91.5493 71.8101H92.8605V77.7448H91.5493V71.8101ZM96.6751 71.5727C97.1519 71.5727 97.7479 71.6914 98.1055 72.0475C98.5824 72.2849 98.94 72.7596 99.1784 73.2344C99.6552 74.184 99.6552 75.3709 99.1784 76.4392C98.94 76.9139 98.5824 77.3887 98.1055 77.6261C97.6287 77.8635 97.1519 78.1009 96.6751 77.9822C95.9598 77.9822 95.1254 77.6261 94.6486 77.0326C93.4566 75.727 93.5758 73.7092 94.7678 72.4036C95.2446 71.9288 95.9598 71.5727 96.6751 71.5727ZM96.6751 72.997C96.3175 72.997 95.8406 73.1157 95.6022 73.4718C95.0062 74.184 95.0062 75.2522 95.6022 75.9644C95.8406 76.3205 96.1983 76.4392 96.6751 76.4392C97.0327 76.4392 97.5095 76.3205 97.7479 75.9644C98.3439 75.2522 98.3439 74.184 97.7479 73.4718C97.5095 73.1157 97.0327 72.997 96.6751 72.997ZM100.609 71.8101H101.92V72.4036C102.158 72.1662 102.397 71.9288 102.755 71.8101C102.993 71.6914 103.231 71.6914 103.589 71.6914C104.066 71.6914 104.662 71.9288 105.019 72.2849C105.377 72.7596 105.496 73.2344 105.496 73.8279V77.7448H104.185V75.1335C104.185 74.6587 104.185 74.184 104.066 73.7092C104.066 73.4718 103.947 73.3531 103.827 73.1157C103.708 72.997 103.47 72.8783 103.351 72.8783C103.112 72.8783 102.874 72.997 102.635 73.1157C102.397 73.3531 102.278 73.5905 102.278 73.9466C102.159 74.3027 102.158 74.7774 102.158 75.1335V77.5074H100.847V71.8101H100.609ZM109.072 71.8101H109.549C109.549 70.9792 109.549 70.5044 109.549 70.3858C109.549 70.0297 109.668 69.7923 109.907 69.5549C110.145 69.3175 110.503 69.1988 110.86 69.3175C111.218 69.3175 111.456 69.4362 111.814 69.5549V70.7418C111.695 70.7418 111.456 70.6231 111.337 70.6231C111.218 70.6231 111.099 70.6231 110.98 70.7418C110.86 70.8605 110.86 70.9792 110.86 71.0979V71.8101H111.695V73.1157H110.86V77.7448H109.549V72.997H109.072V71.8101ZM115.033 71.5727C115.509 71.5727 116.105 71.6914 116.463 72.0475C116.94 72.2849 117.298 72.7596 117.536 73.2344C118.013 74.184 118.013 75.3709 117.536 76.4392C117.298 76.9139 116.94 77.3887 116.463 77.6261C115.986 77.8635 115.509 78.1009 115.033 77.9822C114.317 77.9822 113.483 77.6261 113.006 77.0326C111.814 75.727 111.933 73.7092 113.125 72.4036C113.721 71.9288 114.437 71.5727 115.033 71.5727ZM115.152 72.997C114.794 72.997 114.317 73.1157 114.079 73.4718C113.483 74.184 113.483 75.2522 114.079 75.9644C114.317 76.3205 114.675 76.4392 115.152 76.4392C115.509 76.4392 115.986 76.3205 116.225 75.9644C116.463 75.6083 116.701 75.1335 116.582 74.7774C116.582 74.3027 116.463 73.8279 116.225 73.4718C115.867 73.2344 115.509 72.997 115.152 72.997ZM118.728 71.8101H119.92V72.5222C120.039 72.2849 120.158 72.0475 120.397 71.8101C120.635 71.6914 120.874 71.5727 121.112 71.5727C121.35 71.5727 121.47 71.5727 121.708 71.6914L121.35 72.997C121.231 72.8783 121.112 72.8783 120.993 72.8783C120.754 72.8783 120.635 72.997 120.516 73.3531C120.397 73.9466 120.278 74.4214 120.278 75.0148V77.7448H118.847V71.8101H118.728ZM129.218 70.7418L128.145 71.6914C127.788 71.0979 127.43 70.8605 127.072 70.8605C126.953 70.8605 126.715 70.8605 126.595 70.9792C126.476 71.0979 126.476 71.2166 126.357 71.3353C126.357 71.454 126.357 71.5727 126.476 71.6914C126.834 72.0475 127.192 72.4036 127.549 72.7596C128.026 73.2344 128.384 73.5905 128.503 73.7092C128.741 73.9466 128.98 74.3027 129.099 74.6587C129.218 74.8961 129.218 75.2522 129.218 75.6083C129.218 76.2018 128.98 76.7952 128.622 77.27C128.145 77.7448 127.549 77.9822 126.953 77.8635C126.476 77.8635 125.999 77.7448 125.523 77.5074C125.046 77.1513 124.688 76.6765 124.569 76.2018L125.761 75.3709C126.119 76.0831 126.476 76.4392 126.953 76.4392C127.192 76.4392 127.43 76.3205 127.549 76.2018C127.668 76.0831 127.788 75.8457 127.788 75.6083C127.788 75.3709 127.668 75.2522 127.549 75.0148C127.311 74.6587 127.072 74.4214 126.715 74.184C126.119 73.7092 125.642 73.1157 125.165 72.5222C124.927 72.1662 124.807 71.8101 124.807 71.3353C124.807 70.7418 125.046 70.2671 125.403 69.911C125.761 69.5549 126.357 69.3175 126.834 69.3175C127.192 69.3175 127.549 69.4362 127.907 69.5549C128.503 70.0297 128.98 70.3857 129.218 70.7418ZM133.033 71.5727C133.509 71.5727 134.105 71.6914 134.463 72.0475C134.94 72.2849 135.297 72.7596 135.536 73.2344C136.013 74.184 136.013 75.3709 135.536 76.4392C135.059 77.3887 134.105 77.9822 133.033 77.9822C132.317 77.9822 131.483 77.6261 131.006 77.0326C129.814 75.727 129.933 73.7092 131.125 72.5222C131.721 71.9288 132.317 71.5727 133.033 71.5727ZM133.033 72.997C132.675 72.997 132.198 73.1157 131.96 73.4718C131.364 74.184 131.364 75.2522 131.96 75.9644C132.198 76.3205 132.556 76.4392 133.033 76.4392C133.39 76.4392 133.867 76.3205 134.105 75.9644C134.463 75.6083 134.582 75.1335 134.582 74.6587C134.582 74.184 134.463 73.7092 134.225 73.3531C133.867 73.2344 133.509 72.997 133.033 72.997ZM142.331 72.997L141.138 73.7092C141.019 73.4718 140.781 73.3531 140.542 73.2344C139.827 72.997 139.112 73.1157 138.516 73.5905C138.158 73.9466 138.039 74.4214 138.039 74.8961C138.039 75.3709 138.158 75.8457 138.516 76.2018C138.874 76.5579 139.231 76.6766 139.708 76.6766C140.304 76.6766 140.781 76.4392 141.138 75.9644L142.211 76.7952C141.258 78.2196 139.231 78.457 137.92 77.5074C137.801 77.3887 137.562 77.27 137.443 77.1513C136.847 76.5579 136.609 75.727 136.609 75.0148C136.609 74.4214 136.728 73.9466 136.966 73.4718C137.205 72.997 137.562 72.5223 138.039 72.2849C138.993 71.8101 140.066 71.6914 141.019 72.1662C141.615 72.1662 141.973 72.5222 142.331 72.997ZM144.119 69.3175C144.357 69.3175 144.595 69.4362 144.715 69.5549C144.834 69.7923 144.953 70.0297 144.953 70.2671C144.953 70.5044 144.834 70.7418 144.715 70.9792C144.595 71.2166 144.357 71.2166 144.119 71.2166C143.88 71.2166 143.642 71.0979 143.523 70.9792C143.403 70.7418 143.284 70.5044 143.284 70.2671C143.284 70.0297 143.403 69.7923 143.523 69.5549C143.642 69.4362 143.88 69.3175 144.119 69.3175ZM143.403 71.8101H144.715V77.7448H143.403V71.8101ZM150.079 71.8101H151.39V77.7448H150.079V77.1513C149.84 77.3887 149.602 77.6261 149.244 77.7448C149.006 77.8635 148.648 77.9822 148.41 77.9822C147.695 77.9822 146.979 77.6261 146.622 77.0326C146.145 76.4392 145.787 75.6083 145.907 74.7774C145.907 73.9466 146.145 73.1157 146.622 72.5222C147.099 71.9288 147.695 71.6914 148.41 71.6914C148.768 71.6914 149.006 71.8101 149.364 71.9288C149.721 72.0475 149.96 72.2849 150.198 72.5222L150.079 71.8101ZM148.648 72.997C148.291 72.997 147.814 73.2344 147.576 73.4718C147.337 73.8279 147.099 74.3027 147.099 74.6587C147.099 75.1335 147.218 75.6083 147.576 75.9644C147.814 76.3205 148.172 76.4392 148.648 76.4392C149.006 76.4392 149.483 76.3205 149.721 75.9644C150.079 75.6083 150.198 75.1335 150.198 74.7774C150.198 74.3027 150.079 73.8279 149.721 73.4718C149.483 73.2344 149.125 72.997 148.648 72.997ZM152.701 69.4362H154.013V77.7448H152.701V69.4362ZM158.185 69.6736H159.496V77.7448H158.185V69.6736ZM160.926 71.8101H162.238V72.4036C162.476 72.1662 162.715 71.9288 163.072 71.8101C163.311 71.6914 163.549 71.6914 163.907 71.6914C164.383 71.6914 164.979 71.9288 165.218 72.2849C165.575 72.7596 165.695 73.2344 165.695 73.8279V77.7448H164.383V75.1335C164.383 74.6587 164.383 74.184 164.264 73.7092C164.264 73.4718 164.145 73.3531 164.026 73.1157C163.907 72.997 163.668 72.8783 163.549 72.8783C163.311 72.8783 163.072 72.997 162.834 73.1157C162.595 73.3531 162.476 73.5905 162.476 73.9466C162.476 74.3027 162.357 74.7774 162.357 75.1335V77.5074H160.926V71.8101ZM170.463 72.6409L169.628 73.5905C169.39 73.2344 169.032 73.1157 168.675 72.997C168.556 72.997 168.436 72.997 168.317 73.1157C168.198 73.2344 168.198 73.2344 168.198 73.3531C168.198 73.4718 168.198 73.4718 168.317 73.5905C168.436 73.7092 168.556 73.8279 168.675 73.8279L169.152 74.0653C169.628 74.3027 169.986 74.5401 170.224 74.8961C170.463 75.2522 170.582 75.6083 170.463 75.9644C170.463 76.4392 170.344 76.9139 169.986 77.27C169.628 77.6261 169.152 77.8635 168.556 77.7448C167.84 77.7448 167.125 77.3887 166.648 76.6766L167.483 75.727C167.602 75.9644 167.84 76.0831 168.079 76.2018C168.198 76.3205 168.436 76.4392 168.675 76.4392C168.794 76.4392 169.032 76.4392 169.152 76.3205C169.271 76.2018 169.271 76.0831 169.271 75.9644C169.271 75.727 169.032 75.4896 168.675 75.2522L168.198 75.0148C167.483 74.6587 166.887 73.9466 166.887 73.2344C166.887 72.7596 167.006 72.4036 167.364 72.0475C167.721 71.6914 168.198 71.5727 168.675 71.5727C169.032 71.5727 169.39 71.6914 169.628 71.8101C169.986 72.0475 170.224 72.2849 170.463 72.6409ZM171.655 71.8101H172.966V74.6587C172.966 75.0148 172.966 75.4896 173.085 75.8457C173.085 76.0831 173.324 76.2018 173.443 76.3205C173.562 76.4392 173.801 76.5579 174.039 76.5579C174.277 76.5579 174.397 76.5579 174.635 76.3205C174.754 76.2018 174.993 75.9644 174.993 75.8457C175.112 75.4896 175.112 75.1335 175.112 74.7774V71.8101H176.423V74.3027C176.423 75.0148 176.423 75.727 176.185 76.4392C176.065 76.9139 175.708 77.27 175.35 77.5074C174.993 77.7448 174.516 77.8635 174.039 77.8635C172.966 77.9822 172.013 77.27 171.774 76.2018C171.655 75.6083 171.536 74.8961 171.655 74.184V71.8101ZM177.496 71.8101H178.688V72.5222C178.807 72.2849 178.926 72.0475 179.165 71.8101C179.403 71.6914 179.642 71.5727 179.88 71.5727C180.118 71.5727 180.238 71.6914 180.476 71.6914L179.999 72.997C179.88 72.8783 179.761 72.8783 179.642 72.8783C179.403 72.8783 179.284 72.997 179.165 73.3531C179.046 73.9466 178.926 74.4214 178.926 75.0148V77.7448H177.615L177.496 71.8101ZM185.006 71.8101H186.317V77.7448H185.006V77.1513C184.767 77.3887 184.529 77.6261 184.171 77.7448C183.933 77.8635 183.575 77.9822 183.337 77.9822C182.622 77.9822 181.906 77.6261 181.43 77.0326C180.953 76.4392 180.595 75.6083 180.714 74.7774C180.714 73.9466 180.953 73.1157 181.43 72.5222C181.906 71.9288 182.503 71.6914 183.218 71.6914C183.575 71.6914 183.814 71.8101 184.171 71.9288C184.529 72.0475 184.767 72.2849 185.006 72.5222V71.8101ZM183.575 72.997C183.218 72.997 182.741 73.2344 182.503 73.4718C182.264 73.8279 182.026 74.3027 182.026 74.6587C182.026 75.1335 182.145 75.6083 182.503 75.9644C182.741 76.3205 183.099 76.4392 183.575 76.4392C183.933 76.4392 184.41 76.3205 184.648 75.9644C184.887 75.6083 185.125 75.1335 185.125 74.6587C185.125 74.184 185.006 73.7092 184.648 73.3531C184.41 73.1157 184.052 72.997 183.575 72.997ZM187.748 71.8101H189.059V72.4036C189.297 72.1662 189.536 71.9288 189.893 71.8101C190.132 71.6914 190.37 71.6914 190.608 71.6914C191.085 71.6914 191.681 71.9288 192.039 72.2849C192.397 72.7596 192.516 73.2344 192.516 73.8279V77.7448H191.204V75.1335C191.204 74.6587 191.204 74.184 191.085 73.7092C191.085 73.4718 190.966 73.3531 190.847 73.1157C190.728 72.997 190.489 72.8783 190.37 72.8783C190.132 72.8783 189.893 72.997 189.655 73.1157C189.416 73.3531 189.297 73.5905 189.178 73.9466C189.178 74.3027 189.059 74.7774 189.059 75.1335V77.5074H187.748V71.8101ZM199.191 72.997L197.999 73.7092C197.88 73.4718 197.642 73.3531 197.403 73.2344C196.688 72.997 195.973 73.1157 195.496 73.5905C195.138 73.9466 195.019 74.4214 195.019 74.8961C195.019 75.3709 195.138 75.8457 195.496 76.2018C195.853 76.5579 196.211 76.6766 196.688 76.6766C197.284 76.6766 197.761 76.4392 198.118 75.9644L199.191 76.7952C198.238 78.2196 196.211 78.457 194.9 77.5074C194.781 77.3887 194.661 77.27 194.423 77.1513C193.946 76.5579 193.589 75.727 193.589 75.0148C193.589 74.4214 193.708 73.9466 193.946 73.4718C194.185 72.997 194.542 72.5223 195.019 72.2849C195.973 71.8101 197.046 71.6914 198.118 72.1662C198.476 72.1662 198.834 72.5222 199.191 72.997ZM205.867 75.1335H201.456C201.456 75.4896 201.694 75.8457 201.933 76.2018C202.171 76.4392 202.648 76.5579 203.006 76.5579C203.483 76.5579 203.959 76.3205 204.317 75.9644L205.509 76.5579C205.271 76.9139 204.913 77.27 204.436 77.5074C203.959 77.7448 203.483 77.8635 203.006 77.8635C202.171 77.8635 201.456 77.5074 200.86 76.9139C200.264 76.3205 200.026 75.4896 200.026 74.6587C200.026 73.8279 200.264 72.997 200.86 72.4036C201.337 71.8101 202.052 71.454 202.887 71.454C203.721 71.454 204.436 71.8101 205.032 72.4036C205.628 73.1157 205.867 73.9466 205.867 74.7774V75.1335ZM204.555 73.9466C204.436 73.5905 204.317 73.3531 204.079 73.1157C203.84 72.8783 203.483 72.7596 203.125 72.7596C202.767 72.7596 202.41 72.8783 202.171 73.1157C201.933 73.3531 201.814 73.5905 201.694 73.9466H204.555ZM99.0592 20.5341C99.0592 20.5341 97.2711 17.6855 98.5824 16.0237L107.284 7.71513L120.993 20.7715L98.4631 42.3739C98.4631 42.3739 78.9136 42.2552 69.0196 27.7745C69.0196 27.7745 61.5097 16.1424 75.4566 5.93472C75.4566 5.93472 83.9202 0.356083 89.2844 0L89.4036 0.593472C84.2778 1.78042 79.6288 4.03561 75.4566 7.24036C62.5825 17.6855 72.8341 27.6558 72.8341 27.6558C82.1321 37.1513 97.6287 37.8635 97.6287 37.8635L115.509 20.7715L107.046 12.7003L99.0592 20.5341Z" fill="#998543"/>
<path d="M1.54966 55.074C1.90728 55.3114 2.14569 55.4301 2.62251 55.6675C2.62251 55.6675 2.86091 55.4301 3.45694 54.8366L2.3841 54.2431C2.14569 54.3618 1.90728 54.5992 1.78807 54.8366C1.43046 54.7179 1.19205 54.4805 0.834433 54.2431C0.357614 54.5992 0.119205 54.8366 0 55.074C0.23841 55.3114 0.596024 55.4301 0.953638 55.6675C1.07284 55.5488 1.19205 55.4301 1.54966 55.074ZM14.6622 63.1452C14.3046 63.0265 14.0662 62.7891 13.7086 62.5518C13.4701 62.7891 13.2317 63.1452 12.9933 63.5013C13.1125 63.62 13.3509 63.7387 13.4701 63.8574C13.5893 63.9761 13.8278 64.0948 13.947 64.0948L14.1854 63.8574L14.543 63.5013L15.4966 64.0948C15.735 63.7387 16.0926 63.5013 16.3311 63.1452L15.2582 62.5518C15.0198 62.7891 14.9006 62.9078 14.6622 63.1452ZM22.8873 59.8218H21.6953H21.0992C20.7416 59.8218 20.5032 59.8218 20.5032 59.8218C20.384 59.8218 20.2648 59.8218 20.1456 59.8218C19.5496 59.4657 19.0728 59.1096 18.8344 58.5161C19.3112 58.2788 19.788 58.1601 20.384 58.1601C20.6224 58.1601 20.8608 58.1601 21.0992 58.1601C21.6953 58.2788 22.1721 58.5161 22.5297 58.8722V58.6348C22.4105 58.2788 22.2913 57.9227 22.0529 57.6853C21.8145 57.4479 21.5761 57.2105 21.3377 57.0918C21.0992 56.9731 20.8608 56.8544 20.5032 56.8544C20.384 56.8544 20.2648 56.8544 20.1456 56.9731C19.4304 57.3292 18.7152 57.9227 18.2383 58.6348C18.1191 58.8722 17.9999 58.9909 17.8807 59.2283C17.8807 59.347 17.8807 59.4657 17.8807 59.5844C17.8807 59.7031 17.8807 59.8218 17.8807 59.9405H16.9271C16.3311 59.8218 16.0926 59.5844 16.0926 59.2283C16.0926 59.1096 16.0926 58.8722 16.2119 58.6348C16.2119 58.3975 16.3311 58.1601 16.3311 57.9227C16.3311 57.804 16.3311 57.6853 16.3311 57.5666C15.9734 57.804 15.735 58.1601 15.4966 58.5161C15.4966 58.7535 15.4966 58.8722 15.4966 59.1096C15.4966 59.347 15.3774 59.5844 15.3774 59.9405H12.9933H4.8874H4.76819C4.41058 59.9405 4.29137 59.8218 4.29137 59.7031C3.93376 57.9227 3.69535 56.4983 3.57614 55.6675C3.09932 56.3796 2.86091 56.8544 2.86091 56.8544C2.86091 56.9731 2.98012 57.0918 2.98012 57.3292C2.5033 57.5666 2.14569 57.804 1.90728 58.0414C1.54966 58.1601 1.19205 58.5161 0.953638 58.8722C0.596024 59.9405 0.476819 60.4153 0.476819 60.4153V60.5339L2.62251 60.89C2.86091 60.89 2.98012 60.6526 3.21853 60.4153C3.45694 60.1779 3.57614 59.8218 3.69535 59.8218C3.81455 60.2966 3.93376 60.6526 3.93376 60.89C3.93376 61.0087 4.05296 61.1274 4.17217 61.2461C4.17217 61.2461 4.29137 61.3648 4.41058 61.3648H14.9006L15.3774 60.5339C15.4966 60.7713 15.4966 60.89 15.6158 61.1274C15.735 61.3648 15.9734 61.4835 16.0926 61.4835H22.4105L23.2449 59.9405L22.8873 59.8218ZM3.45694 59.347H2.62251C2.26489 59.347 1.90728 59.2283 1.54966 59.1096C1.78807 58.9909 2.02648 58.8722 2.26489 58.7535C2.5033 58.6348 2.74171 58.3975 2.86091 58.0414C2.86091 57.9227 2.98012 57.804 3.09932 57.804C3.21853 58.2788 3.33773 58.6348 3.33773 59.1096V59.347H3.45694ZM37.7879 56.261C38.0263 56.0236 38.1455 55.9049 38.3839 55.6675C38.7416 55.9049 39.0992 56.1423 39.4568 56.261C39.4568 56.261 39.576 56.261 39.576 56.1423C39.8144 55.9049 40.0528 55.6675 40.2912 55.3114L39.0992 54.7179L38.3839 55.3114L38.1455 55.1927C38.0263 55.074 37.7879 55.074 37.6687 54.9553C37.5495 54.8366 37.4303 54.8366 37.3111 54.7179C37.3111 54.7179 37.0727 54.8366 36.9535 55.074C36.8343 55.1927 36.5959 55.4301 36.4767 55.5488C36.7151 55.7862 37.0727 55.9049 37.3111 56.0236L37.7879 56.261ZM47.9203 58.2788L46.4899 57.5666C46.2515 57.4479 46.013 57.4479 45.6554 57.4479C45.1786 57.4479 44.7018 57.804 44.1058 58.6348C43.9866 58.7535 43.9866 58.7535 43.9866 58.8722V58.9909C44.225 58.9909 44.3442 58.8722 44.5826 58.7535C44.7018 58.6348 44.9402 58.6348 45.0594 58.6348C45.7746 58.7535 46.3707 58.9909 47.0859 59.347L46.6091 59.5844C46.3707 59.7031 46.013 59.7031 45.7746 59.8218H42.9137H40.5296C40.4104 59.8218 40.2912 59.7031 40.172 59.7031C40.0528 59.5844 39.9336 59.4657 39.9336 59.347V59.2283L40.0528 57.5666L39.576 58.0414C39.4568 58.1601 39.2184 58.3975 39.2184 58.6348C39.2184 58.8722 39.0992 59.1096 39.0992 59.2283C39.0992 59.4657 39.0992 59.7031 38.98 59.9405H36.5959H35.1654H35.0462C34.5694 59.4657 34.331 58.9909 34.0926 58.3974C34.0926 58.2788 34.0926 58.1601 34.0926 58.1601V58.0414V57.9227C34.0926 57.804 33.9734 57.6853 33.735 57.6853C33.3773 57.6853 33.0197 57.9227 32.6621 58.0414C32.3045 58.2788 31.9469 58.5161 31.5893 58.8722C31.5893 58.8722 31.4701 59.1096 31.2317 59.4657C30.9932 59.8218 30.874 59.9405 30.874 59.9405H29.2052H26.8211C26.7019 59.9405 26.7019 59.9405 26.5827 59.8218C26.4635 59.8218 26.4635 59.7031 26.3443 59.7031C26.2251 59.7031 26.2251 59.5844 26.2251 59.5844C26.1058 58.5161 25.8674 56.9731 25.7482 54.8366C25.7482 54.2432 25.629 53.7684 25.629 53.6497C25.3906 53.8871 25.033 54.2431 24.7946 54.5992C24.6754 54.7179 24.6754 54.8366 24.5562 54.8366L25.033 61.3648H30.278C30.3972 61.3648 30.5164 61.2461 30.6356 61.1274C30.7548 61.0087 30.874 60.7713 30.9932 60.6526L33.9734 62.1957C34.0926 62.1957 34.0926 62.077 34.2118 61.8396C34.331 61.6022 34.331 61.4835 34.4502 61.4835H38.6224L39.0992 60.6526C39.0992 60.7713 39.2184 61.0087 39.3376 61.1274C39.4568 61.2461 39.576 61.3648 39.6952 61.4835C39.8144 61.4835 39.8144 61.6022 39.9336 61.6022H45.2978C45.6554 61.4835 46.013 61.3648 46.3707 61.1274C46.7283 60.89 47.2051 60.6526 47.6819 60.6526L49.8276 60.7713C49.8276 60.7713 50.066 60.6526 50.3044 60.2966C50.5428 59.9405 50.7812 59.5844 50.7812 59.5844L49.8276 59.347C49.2316 58.9909 48.6356 58.7535 47.9203 58.2788ZM33.8542 60.0592H33.6157C33.2581 60.0592 33.0197 59.9405 32.7813 59.7031C32.5429 59.5844 32.3045 59.347 32.0661 59.2283C32.1853 59.1096 32.3045 58.9909 32.5429 58.9909C32.6621 58.8722 32.9005 58.8722 33.1389 58.8722C33.3773 58.8722 33.6157 58.9909 33.735 59.2283C33.8542 59.4657 33.8542 59.7031 33.8542 59.8218V60.0592ZM45.8938 63.1452L47.2051 63.8574L48.2779 62.7891C47.8011 62.5518 47.3243 62.3144 46.9667 62.077L45.8938 63.1452ZM58.1719 54.4805C57.9335 54.3618 57.8143 54.2431 57.6951 54.1245C57.6951 54.0058 57.5759 53.7684 57.5759 53.6497L56.5031 55.3114C56.7415 55.5488 56.8607 55.9049 56.8607 56.261C56.8607 56.8544 56.7415 57.3292 56.5031 57.804C55.7878 56.4983 54.715 55.4301 53.523 54.5992C53.523 54.7179 53.523 54.8366 53.523 54.9553H52.4501C52.3309 55.1927 52.3309 55.5488 52.2117 55.7862C52.2117 56.1423 52.3309 56.3796 52.4501 56.4983C53.4037 56.9731 53.8806 57.3292 54.119 57.4479C54.2382 57.3292 54.2382 57.2105 54.3574 57.0918C54.715 57.3292 54.9534 57.5666 55.1918 57.804C55.4302 58.0414 55.6686 58.2788 55.7878 58.6348C54.9534 59.347 54.3574 59.8218 54.119 59.8218C53.9998 59.8218 53.7614 59.7031 53.6422 59.5844C53.6422 59.4657 53.6422 59.347 53.523 59.347C53.4037 59.4657 53.4037 59.7031 53.4037 59.8218C53.4037 60.0592 53.4037 60.2966 53.4037 60.4153C53.4037 60.89 53.5229 61.2461 53.6422 61.2461H57.3375C57.4567 60.89 57.4567 60.4153 57.4567 60.0592C57.4567 59.5844 57.3375 59.1096 57.0991 58.6348L56.9799 58.5161V58.3974C57.0991 58.2788 57.0991 58.1601 57.2183 57.9227C57.3375 57.6853 57.4567 57.5666 57.5759 57.3292C57.6951 56.8544 57.8143 56.4983 57.9335 56.0236C58.0527 56.1423 58.1719 56.1423 58.1719 56.1423H58.2911C58.5295 55.7862 58.8872 55.3114 59.1256 54.9553C59.0064 55.074 58.768 54.8366 58.1719 54.4805ZM56.0262 59.9405C55.7878 59.9405 55.6686 59.9405 55.4302 59.9405C55.7878 59.7031 56.0262 59.4657 56.2647 59.1096C56.3839 59.347 56.5031 59.5844 56.6223 59.9405C56.3839 59.9405 56.2647 59.9405 56.0262 59.9405ZM61.0328 55.074C60.7944 55.3114 60.6752 55.6675 60.556 55.9049L61.1521 61.3648C61.6289 60.6526 61.8673 59.7031 61.8673 58.7535L61.5097 54.2431C61.3905 54.3618 61.2713 54.5992 61.0328 55.074ZM68.662 55.9049L69.6156 56.3796C69.854 56.1423 70.2116 55.9049 70.3308 55.5488L69.258 54.9553C69.1388 55.074 69.0196 55.1927 68.9004 55.1927L68.662 55.4301C68.5427 55.3114 68.3043 55.3114 68.1851 55.1927C68.0659 55.074 67.9467 54.9553 67.7083 54.9553C67.5891 54.9553 67.3507 55.1927 66.8739 55.7862C67.2315 56.0236 67.5891 56.1423 67.9467 56.3796C68.3043 56.261 68.5427 56.0236 68.662 55.9049ZM71.7613 57.2105L71.046 58.5161C71.2845 58.8722 71.5229 59.2283 71.6421 59.7031C71.6421 59.8218 71.6421 59.8218 71.5229 59.9405H66.8739C66.6355 59.9405 66.3971 59.8218 66.2779 59.7031C66.0394 59.5844 65.9202 59.4657 65.801 59.2283C65.801 59.1096 65.6818 58.8722 65.6818 58.6348C65.6818 58.6348 65.6818 58.3975 65.6818 58.0414C65.6818 57.804 65.6818 57.5666 65.6818 57.3292H65.5626C65.4434 57.4479 65.205 57.804 64.9666 58.3974C64.8474 58.8722 64.7282 59.347 64.7282 59.8218C64.7282 59.9405 64.7282 60.0592 64.7282 60.1779C64.8474 60.4153 64.9666 60.7713 65.205 60.89C65.4434 61.1274 65.6818 61.2461 65.9202 61.2461H66.0394H66.1587H71.5229C71.9997 60.5339 72.2381 59.5844 72.2381 58.7535C72.2381 58.3974 72.1189 58.1601 71.9997 57.9227C72.1189 57.5666 71.8805 57.3292 71.7613 57.2105ZM86.3043 56.261C86.4235 56.3796 86.6619 56.4983 86.7811 56.617H86.9003C87.1387 56.4983 87.3771 56.261 87.6155 56.0236C87.6155 56.0236 87.7347 55.9049 87.7347 55.7862C87.7347 55.7862 87.6155 55.5488 87.2579 55.3114C87.1387 55.1927 86.9003 54.9553 86.7811 54.8366H86.6619H86.5427C86.3043 55.074 86.0659 55.1927 85.8274 55.4301C85.7082 55.4301 85.7082 55.5488 85.7082 55.6675C85.8274 55.7862 85.9467 55.9049 86.3043 56.261ZM90.834 63.1452C90.4764 63.0265 90.238 62.7891 89.8804 62.5518C89.642 62.7891 89.4036 63.1452 89.1652 63.5013C89.2844 63.62 89.5228 63.7387 89.642 63.8574C89.7612 63.9761 89.9996 64.0948 90.1188 64.0948L90.3572 63.8574L90.7148 63.5013L91.7877 64.0948C92.0261 63.7387 92.3837 63.5013 92.6221 63.1452L91.5493 62.5518C91.4301 62.5518 91.1917 62.7891 90.834 63.1452ZM98.5824 56.8544C97.9863 56.9731 97.5095 57.0918 97.0327 57.3292C96.6751 57.5666 96.3175 57.804 96.0791 58.1601C95.8406 58.5161 95.6022 58.8722 95.483 59.2283C95.483 59.4657 95.3638 59.5844 95.2446 59.8218H92.9797C92.5029 59.7031 92.1453 59.4657 92.1453 59.1096C92.1453 58.9909 92.1453 58.7535 92.1453 58.5161C92.1453 58.2788 92.2645 58.0414 92.2645 57.804C92.2645 57.6853 92.2645 57.5666 92.2645 57.4479C91.9069 57.6853 91.6685 58.0414 91.4301 58.3974C91.4301 58.6348 91.4301 58.7535 91.4301 58.9909C91.4301 59.2283 91.3109 59.4657 91.3109 59.8218H88.8076C88.5692 59.8218 88.3307 59.7031 88.2115 59.5844C88.2115 59.4657 88.0923 59.4657 88.0923 59.347C88.0923 59.2283 88.0923 59.1096 88.0923 58.9909C88.0923 58.7535 88.2115 58.6348 88.2115 58.6348V57.6853C87.8539 58.0414 87.4963 58.3974 87.2579 58.7535C87.0195 58.8722 87.0195 59.1096 87.0195 59.2283C87.0195 59.4657 87.0195 59.5844 86.9003 59.8218H84.6354H75.8142C75.695 59.8218 75.695 59.8218 75.5758 59.7031C75.4566 59.7031 75.4566 59.5844 75.3374 59.5844C75.2182 59.5844 75.2182 59.4657 75.2182 59.4657C75.099 58.3974 74.8606 56.8544 74.7414 54.7179C74.7414 54.1245 74.6222 53.6497 74.6222 53.531C74.1454 54.0058 73.907 54.3618 73.7878 54.4805C73.6686 54.5992 73.6686 54.7179 73.5494 54.7179L74.1454 61.2461H86.6619L87.1387 60.4153C87.2579 60.7713 87.3771 61.0087 87.7347 61.2461C87.8539 61.2461 87.8539 61.3648 87.9731 61.3648H90.9532L91.4301 60.5339C91.5493 60.7713 91.5493 60.89 91.6685 61.1274C91.7877 61.3648 92.0261 61.4835 92.1453 61.4835H95.0062C95.1254 61.2461 95.2446 61.1274 95.3638 60.89C95.483 60.6526 95.6022 60.5339 95.8406 60.4153L98.4631 61.3648C98.8208 60.7713 99.1784 60.2966 99.2976 60.1779C99.4168 60.0592 99.4168 59.9405 99.4168 59.8218C99.4168 59.7031 99.4168 59.5844 99.4168 59.4657C99.2976 58.6348 99.0592 57.9227 98.7016 57.2105M96.6751 58.7535C96.7943 58.6348 97.0327 58.5161 97.2711 58.3974C97.3903 58.3974 97.5095 58.2788 97.6287 58.2788C97.7479 58.2788 97.7479 58.2788 97.8671 58.2788C97.9863 58.3974 98.1055 58.5161 98.2247 58.7535C98.2247 58.9909 98.3439 59.1096 98.3439 59.347L96.6751 58.7535ZM102.635 52.5814H101.801C101.205 52.5814 100.847 52.4627 100.847 52.344C100.847 52.2253 100.966 52.2253 101.086 52.1066C101.205 52.1066 101.324 51.988 101.443 51.988H101.562C101.682 51.988 101.801 52.1066 101.801 52.2253C101.92 52.1066 102.039 51.988 102.039 51.8693C102.039 51.6319 101.92 51.6319 101.562 51.6319H101.324C100.847 51.7506 100.49 52.1066 100.37 52.4627C100.251 52.5814 100.251 52.7001 100.251 52.9375C100.609 53.0562 100.847 53.1749 100.966 53.1749C100.609 53.4123 100.49 53.531 100.49 53.6497V53.7684H100.609C101.086 53.4123 101.562 53.1749 102.158 53.1749C102.516 52.9375 102.516 52.7001 102.635 52.5814ZM106.807 56.261C106.807 56.261 107.046 56.0236 107.404 55.6675C107.761 55.9049 108.119 56.1423 108.476 56.261C108.476 56.261 108.596 56.261 108.596 56.1423C108.834 55.9049 109.072 55.6675 109.311 55.3114L108.119 54.7179L107.404 55.3114H107.284C107.165 55.1927 106.927 55.1927 106.807 55.074C106.688 54.9553 106.569 54.9553 106.45 54.8366C106.45 54.8366 106.211 54.9553 106.092 55.1927C105.973 55.3114 105.735 55.5488 105.615 55.6675C105.854 55.9049 106.211 56.0236 106.45 56.1423C106.688 56.1423 106.688 56.261 106.807 56.261ZM115.629 54.4805C115.509 54.3618 115.509 54.1245 115.509 53.8871C115.152 54.3618 114.794 54.9553 114.556 55.5488L115.033 55.9049C115.271 56.9731 115.39 57.6853 115.509 58.2788C115.629 58.6348 115.629 59.1096 115.629 59.4657C115.629 59.5844 115.629 59.7031 115.629 59.9405H113.364C113.125 59.9405 113.006 59.8218 112.887 59.5844C112.887 59.5844 112.887 59.5844 112.887 59.4657C112.768 57.5666 112.649 56.2609 112.529 55.3114C112.41 54.8366 112.41 54.4805 112.41 54.1245L111.337 55.5488L111.933 59.8218H109.549C109.43 59.8218 109.311 59.7031 109.192 59.5844C109.072 59.4657 108.953 59.347 108.953 59.1096V58.9909L109.072 57.3292C108.953 57.4479 108.715 57.6853 108.596 57.804C108.476 57.9227 108.238 58.1601 108.238 58.3974C108.238 58.6348 108.238 58.8722 108.238 58.9909C108.238 59.2283 108.238 59.4657 108.119 59.7031H105.735H103.351C103.231 59.7031 103.231 59.7031 103.112 59.5844C102.993 59.5844 102.993 59.4657 102.874 59.4657C102.755 59.4657 102.755 59.347 102.755 59.347C102.635 58.2788 102.397 56.7357 102.278 54.5992C102.278 54.0058 102.158 53.531 102.158 53.4123C101.682 53.8871 101.443 54.2431 101.324 54.3618C101.205 54.4805 101.205 54.5992 101.086 54.5992L101.682 61.1274H107.88L108.357 60.2966C108.357 60.4153 108.476 60.6526 108.596 60.7713C108.715 60.89 108.834 61.0087 108.953 61.1274C109.072 61.1274 109.072 61.2461 109.192 61.2461H111.576C111.814 60.89 112.052 60.6526 112.172 60.4153C112.172 60.5339 112.291 60.7713 112.291 60.89C112.291 61.0087 112.41 61.1274 112.41 61.2461H116.105H116.225H116.344L116.701 59.4657L116.463 57.0918C116.463 56.9731 116.463 56.9731 116.463 56.9731L117.178 56.1423C117.298 56.0236 117.417 55.9049 117.536 55.6675L116.582 55.074C116.344 54.9553 116.105 54.7179 115.867 54.4805M122.543 55.1927C122.9 55.4301 123.139 55.5488 123.496 55.7862C123.496 55.7862 123.735 55.5488 124.331 54.9553L123.258 54.3618C123.019 54.4805 122.781 54.7179 122.662 54.9553C122.304 54.8366 122.066 54.5992 121.708 54.3618C121.35 54.7179 121.112 55.074 120.993 55.1927C121.231 55.4301 121.589 55.5488 121.946 55.7862C122.066 55.6675 122.185 55.5488 122.543 55.1927ZM136.847 56.9731C136.251 57.0918 135.774 57.2105 135.297 57.4479C134.94 57.6853 134.582 57.9227 134.344 58.2788C134.105 58.6348 133.867 58.9909 133.748 59.347C133.748 59.5844 133.629 59.7031 133.509 59.9405H125.999C125.642 59.9405 125.523 59.8218 125.523 59.7031C125.165 57.9227 124.927 56.4983 124.807 55.6675C124.331 56.3796 124.092 56.8544 124.092 56.8544C124.092 56.9731 124.211 57.0918 124.211 57.3292C123.735 57.5666 123.377 57.804 123.139 58.0414C122.781 58.1601 122.423 58.5161 122.185 58.8722C121.827 59.9405 121.708 60.4153 121.708 60.4153V60.5339L123.854 60.89C124.092 60.89 124.211 60.6526 124.331 60.4153C124.45 60.1779 124.688 59.8218 124.807 59.8218C124.927 60.2966 125.046 60.6526 125.046 60.89C125.046 61.0087 125.165 61.1274 125.284 61.2461C125.284 61.2461 125.403 61.3648 125.523 61.3648H133.629C133.748 61.1274 133.867 61.0087 133.986 60.7713C134.105 60.5339 134.225 60.4153 134.463 60.2966L137.086 61.2461C137.443 60.6526 137.801 60.1779 137.92 60.0592C138.039 59.9405 138.039 59.8218 138.039 59.7031C138.039 59.5844 138.039 59.4657 138.039 59.347C137.562 58.3975 137.324 57.6853 136.847 56.9731ZM124.331 59.347H123.496C123.139 59.347 122.781 59.2283 122.423 59.1096C122.662 58.9909 122.9 58.8722 123.139 58.7535C123.377 58.6348 123.615 58.3975 123.735 58.0414C123.735 57.9227 123.854 57.804 123.973 57.804C124.092 58.2788 124.211 58.6348 124.211 59.1096L124.331 59.347ZM134.701 58.6348C134.821 58.5161 135.059 58.3974 135.297 58.2788C135.417 58.2788 135.536 58.1601 135.655 58.1601C135.774 58.1601 135.774 58.1601 135.893 58.1601C136.013 58.2788 136.132 58.3975 136.251 58.6348C136.251 58.8722 136.37 58.9909 136.37 59.2283L134.701 58.6348ZM151.032 54.3618C150.913 54.2431 150.913 54.0058 150.913 53.7684C150.556 54.2431 150.198 54.8366 149.96 55.4301L150.436 55.7862C150.675 56.8544 150.794 57.5666 150.913 58.1601C151.032 58.5161 151.032 58.9909 151.032 59.347C151.032 59.4657 151.032 59.5844 151.032 59.8218H148.052V59.7031L148.41 59.1096C148.529 58.9909 148.529 58.7535 148.529 58.6348C148.529 58.2788 148.291 57.9227 147.933 57.6853C147.576 57.4479 147.218 57.2105 146.741 57.2105C146.503 57.2105 146.264 57.2105 145.907 57.3292L145.311 57.5666L144.595 58.9909H144.953C145.43 58.9909 145.907 59.347 146.145 59.8218H143.523H141.019C140.9 59.8218 140.9 59.8218 140.781 59.7031C140.662 59.7031 140.662 59.5844 140.542 59.5844C140.423 59.5844 140.423 59.4657 140.423 59.4657C140.304 58.3974 140.066 56.8544 139.946 54.7179C139.946 54.1245 139.827 53.6497 139.827 53.531C139.589 53.7684 139.231 54.1245 138.993 54.4805C138.874 54.5992 138.874 54.7179 138.754 54.7179L139.35 61.2461H146.145L146.622 60.4153L147.099 61.2461H151.271H151.39H151.509L151.867 59.4657L151.628 57.0918C151.628 56.9731 151.628 56.9731 151.628 56.9731L152.344 56.1423C152.463 56.0236 152.582 55.9049 152.701 55.6675L151.748 55.074C151.509 54.9553 151.271 54.7179 151.032 54.4805M154.966 55.3114C154.728 55.5488 154.609 55.9049 154.489 56.1423L155.205 61.6022C155.681 60.89 156.039 59.9405 155.92 58.9909L155.562 54.4805C155.443 54.5992 155.205 54.8366 154.966 55.3114ZM160.688 55.3114C161.046 55.5488 161.403 55.6675 161.761 55.9049C161.761 55.9049 161.999 55.6675 162.595 55.074L161.522 54.4805C161.284 54.5992 161.046 54.8366 160.926 55.074C160.569 54.9553 160.33 54.7179 159.973 54.4805L159.258 55.3114C159.496 55.5488 159.854 55.7862 160.211 55.9049C160.211 55.7862 160.45 55.6675 160.688 55.3114ZM183.575 58.5161C183.456 58.6348 183.337 58.8722 183.218 59.1096L183.337 59.4657C183.337 59.7031 183.456 59.8218 183.456 59.9405H182.383V59.4657L182.741 58.0414L182.145 58.6348C182.026 58.7535 181.787 58.9909 181.668 59.1096C181.549 59.347 181.549 59.7031 181.549 59.9405H180.476C180.476 59.9405 180.476 59.9405 180.476 59.8218L180.357 59.9405C180.118 60.0592 179.761 60.0592 179.642 59.8218C179.642 59.8218 179.642 59.8218 179.642 59.7031C179.642 59.7031 179.761 59.347 179.999 58.6348C180.118 58.3975 180.118 58.0414 180.118 57.804C179.761 58.1601 179.284 58.5161 179.046 58.9909C179.046 59.1096 179.046 59.347 179.046 59.4657C179.046 59.5844 178.926 59.9405 178.807 59.9405H177.019H174.635C174.516 59.9405 174.277 59.9405 174.277 59.8218C174.397 59.5844 174.397 59.2283 174.397 58.9909V57.9227C174.277 58.0414 174.158 58.1601 174.158 58.1601C173.92 58.3975 173.681 58.7535 173.562 59.1096C173.562 59.2283 173.562 59.347 173.681 59.4657C173.681 59.5844 173.801 59.7031 173.801 59.8218C173.801 59.9405 173.801 59.9405 173.801 60.0592H172.489V59.7031L172.847 58.2788C172.37 58.6348 172.013 58.9909 171.774 59.4657V60.1779H170.344H170.463V60.0592L170.344 60.1779H170.224C169.986 60.1779 169.867 60.0592 169.628 59.9405L169.986 58.8722C170.105 58.6348 170.105 58.2788 170.105 58.0414C169.748 58.3975 169.271 58.7535 169.032 59.2283C169.032 59.347 169.032 59.5844 169.032 59.7031C169.032 59.8218 168.913 60.1779 168.794 60.1779H167.006H164.503H164.383C164.026 60.1779 163.907 60.0592 163.907 59.9405C163.549 58.1601 163.311 56.7357 163.191 55.9049C162.715 56.617 162.476 57.0918 162.476 57.0918C162.476 57.2105 162.595 57.3292 162.595 57.5666C162.118 57.804 161.761 58.0414 161.522 58.2788C161.165 58.3974 160.807 58.7535 160.569 59.1096C160.211 60.1779 160.092 60.6526 160.092 60.6526V60.5339L162.238 60.89C162.476 60.89 162.595 60.6526 162.834 60.4153C163.072 60.1779 163.191 59.8218 163.311 59.8218C163.43 60.2966 163.549 60.6526 163.549 60.89C163.549 61.0087 163.668 61.1274 163.787 61.2461L163.907 61.3648H168.317C168.436 61.3648 168.675 61.1274 169.032 60.89C169.032 61.0087 169.152 61.1274 169.271 61.2461C169.39 61.3648 169.509 61.3648 169.628 61.4835H171.774L172.132 61.1274C172.251 61.2461 172.251 61.3648 172.37 61.4835H174.277C174.277 61.3648 174.397 61.1274 174.397 61.0087L174.754 61.4835H178.807C178.926 61.4835 179.165 61.2461 179.403 61.0087C179.403 61.1274 179.522 61.2461 179.642 61.3648C179.761 61.4835 179.88 61.4835 179.999 61.6022H181.787C181.906 61.6022 182.026 61.4835 182.026 61.3648C182.145 61.2461 182.145 61.2461 182.145 61.2461C182.145 61.2461 182.264 61.3648 182.383 61.4835H184.171H184.291C184.41 61.2461 184.529 61.0087 184.648 60.6526C184.767 60.4153 184.767 60.1779 184.767 60.0592V57.9227C184.052 57.9227 183.814 58.1601 183.575 58.5161ZM162.715 59.347H161.88C161.522 59.347 161.165 59.2283 160.807 59.1096L161.522 58.7535C161.761 58.6348 161.999 58.3975 162.118 58.0414C162.118 57.9227 162.238 57.804 162.357 57.804C162.476 58.2788 162.595 58.6348 162.595 59.1096V59.347H162.715ZM186.794 56.7357C186.317 56.9731 186.079 57.2105 186.079 57.4479H186.198C186.794 57.0918 187.509 56.8544 188.105 56.7357C188.224 56.617 188.344 56.3796 188.463 56.1423H187.152C186.913 56.1423 186.794 56.1423 186.675 56.0236C186.555 56.0236 186.555 55.9049 186.555 55.7862L186.913 55.5488C187.032 55.5488 187.152 55.4301 187.152 55.4301H187.271C187.39 55.4301 187.628 55.5488 187.748 55.6675C187.986 55.3114 187.986 55.074 187.986 55.1927C187.986 54.9553 187.867 54.8366 187.509 54.8366C187.152 54.8366 186.794 55.074 186.555 55.3114C186.317 55.5488 186.079 55.9049 186.079 56.261C186.079 56.3796 186.079 56.3796 186.198 56.3796C186.317 56.617 186.555 56.7357 186.794 56.7357ZM200.979 54.4805C200.86 54.3618 200.86 54.1245 200.86 53.8871C200.502 54.3618 200.145 54.9553 199.906 55.5488L200.383 55.9049C200.622 56.9731 200.741 57.6853 200.86 58.2788C200.979 58.6348 200.979 59.1096 200.979 59.4657C200.979 59.5844 200.979 59.7031 200.979 59.9405H198.357C197.88 59.4657 197.642 58.9909 197.403 58.3974C197.403 58.2788 197.403 58.1601 197.403 58.1601V58.0414V57.9227C197.403 57.804 197.284 57.6853 197.046 57.6853C196.688 57.6853 196.33 57.9227 195.973 58.0414C195.615 58.2788 195.257 58.5161 194.9 58.8722C194.9 58.8722 194.781 59.1096 194.542 59.4657C194.304 59.8218 194.304 59.9405 194.185 59.9405H192.516H190.012C189.893 59.1096 189.655 58.2788 189.297 57.5666C189.178 57.3292 188.94 57.2105 188.701 57.0918H188.582C188.463 57.0918 188.224 57.2105 188.105 57.3292C187.748 57.5666 187.509 57.9227 187.39 58.2788C187.271 58.6348 187.032 58.9909 186.913 59.347C186.794 59.7031 186.675 60.0592 186.675 60.2966C186.675 60.2966 186.675 60.4153 186.675 60.5339C186.675 60.6526 186.794 60.89 187.032 61.0087C187.152 61.1274 187.39 61.2461 187.509 61.2461C187.986 61.3648 188.463 61.3648 189.059 61.4835C188.463 62.3144 187.509 62.9078 186.555 63.2639C186.317 63.2639 186.198 63.3826 185.959 63.3826L185.244 63.2639C185.006 63.1452 184.767 63.1452 184.529 63.1452C184.41 63.1452 184.291 63.1452 184.291 63.1452V63.2639C184.41 63.3826 184.648 63.62 184.887 63.62C185.006 63.7387 185.244 63.8574 185.483 63.8574C186.079 64.0948 186.555 64.2135 186.913 64.3322C187.032 64.3322 187.152 64.3322 187.271 64.3322H187.628C187.986 64.2135 188.344 64.0948 188.582 63.8574C188.94 63.5013 189.178 63.1452 189.416 62.7891C189.655 62.4331 189.774 61.9583 190.012 61.6022H193.827C193.946 61.6022 194.065 61.4835 194.185 61.3648C194.304 61.1274 194.423 61.0087 194.542 60.7713L197.403 62.3144C197.522 62.3144 197.522 62.1957 197.642 61.9583C197.761 61.7209 197.761 61.6022 197.88 61.6022H201.456H201.575H201.694L202.052 59.8218L201.814 57.4479C201.814 57.3292 201.814 57.3292 201.814 57.3292L202.529 56.4983C202.648 56.3796 202.767 56.261 202.887 56.0236L201.933 55.4301C201.694 55.3114 201.456 55.074 201.218 54.8366M188.82 59.8218C188.582 59.8218 188.463 59.8218 188.344 59.8218H188.105C187.867 59.8218 187.628 59.7031 187.509 59.4657C187.39 59.347 187.39 59.2283 187.39 59.2283C187.39 59.2283 187.509 59.1096 187.628 58.8722C187.748 58.6348 187.986 58.6348 188.105 58.6348C188.224 58.6348 188.344 58.7535 188.463 58.7535C188.701 58.9909 188.82 59.347 188.94 59.7031M197.284 60.1779H197.046C196.688 60.1779 196.449 60.0592 196.211 59.8218C195.973 59.7031 195.734 59.4657 195.496 59.347C195.615 59.2283 195.734 59.1096 195.973 59.1096C196.092 58.9909 196.33 58.9909 196.569 58.9909C196.807 58.9909 197.045 59.1096 197.165 59.347C197.284 59.5844 197.284 59.8218 197.284 59.9405V60.1779ZM205.628 54.2431C205.509 54.3618 205.39 54.7179 205.032 55.074C204.794 55.3114 204.675 55.6675 204.555 55.9049L205.151 61.3648C205.628 60.6526 205.986 59.7031 205.867 58.7535L205.628 54.2431ZM106.807 22.4331C106.807 22.4331 108.596 25.163 107.284 26.8248L98.5824 35.1334L84.8738 22.077L107.404 0.474609C107.404 0.474609 126.953 0.593304 136.847 15.074C136.847 15.074 144.357 26.7061 130.41 36.9138C130.41 36.9138 121.827 42.4924 116.582 42.8485L116.463 42.255C121.47 41.0681 126.238 38.8129 130.291 35.6081C143.165 25.163 132.913 15.1927 132.913 15.1927C123.615 5.69716 108.119 4.98499 108.119 4.98499L90.238 22.077L98.5824 30.1482L106.807 22.4331ZM106.45 16.0236L98.4631 23.7387C97.8671 25.163 98.1055 26.7061 98.94 28.0117L106.092 21.0087C107.284 19.4657 107.404 17.4479 106.45 16.0236Z" fill="#1A5632"/>
</g>
<defs>
<clipPath id="clip0_401_201">
<rect width="205.867" height="80" fill="white"/>
</clipPath>
</defs>
</svg>
