<?xml version="1.0" encoding="utf-8"?>
<!-- Generator: Adobe Illustrator 24.3.0, SVG Export Plug-In . SVG Version: 6.00 Build 0)  -->
<svg version="1.0" id="katman_1" xmlns="http://www.w3.org/2000/svg" xmlns:xlink="http://www.w3.org/1999/xlink" x="0px" y="0px"
	 viewBox="0 0 841.89 595.28" style="enable-background:new 0 0 841.89 595.28;" xml:space="preserve">
<style type="text/css">
	.st0{fill:#097CB8;}
	.st1{clip-path:url(#SVGID_2_);fill:#097CB8;}
	.st2{clip-path:url(#SVGID_4_);fill:url(#SVGID_5_);}
	.st3{clip-path:url(#SVGID_7_);fill:#097CB8;}
</style>
<path class="st0" d="M255.06,486.98l-1.26-3.67h-7.21l-1.25,3.67h-2.96l6.71-18.28h2.23l6.7,18.28H255.06z M250.26,472.84
	l-2.85,8.11h5.62L250.26,472.84z"/>
<polygon class="st0" points="286.96,486.99 286.96,474.76 282.74,483.67 280.7,483.67 276.38,474.76 276.38,486.99 273.61,486.99 
	273.61,468.7 276.38,468.7 281.72,480.08 286.96,468.7 289.73,468.7 289.73,486.99 "/>
<g>
	<defs>
		<rect id="SVGID_1_" x="208.73" y="59.06" width="425.05" height="476.76"/>
	</defs>
	<clipPath id="SVGID_2_">
		<use xlink:href="#SVGID_1_"  style="overflow:visible;"/>
	</clipPath>
	<path class="st1" d="M304.17,487.14c-3.72,0-6.55-2.54-6.55-6.31V468.7h2.77v12c0,2.43,1.49,3.95,3.77,3.95
		c2.29,0,3.8-1.52,3.8-3.95v-12h2.77v12.13C310.74,484.6,307.89,487.14,304.17,487.14"/>
	<path class="st1" d="M326.05,486.98h-7.4V468.7h7.11c3.39,0,5.52,1.92,5.52,5.01c0,1.98-1.23,3.39-2.47,3.88
		c1.41,0.56,2.75,1.92,2.75,4.23C331.56,485.18,329.28,486.98,326.05,486.98 M325.54,471.2h-4.11v5.23h4.11
		c1.77,0,2.98-0.92,2.98-2.62C328.52,472.12,327.3,471.2,325.54,471.2 M325.79,478.92h-4.36v5.58h4.36c1.92,0,3.01-1.19,3.01-2.8
		C328.8,480.08,327.71,478.92,325.79,478.92"/>
	<path class="st1" d="M349.6,486.98l-1.25-3.67h-7.22l-1.25,3.67h-2.96l6.71-18.28h2.23l6.7,18.28H349.6z M344.8,472.84l-2.85,8.11
		h5.62L344.8,472.84z"/>
	<path class="st1" d="M369.71,485.26c-1.16,1.16-2.83,1.72-4.73,1.72h-6.42V468.7h6.42c1.9,0,3.57,0.57,4.73,1.72
		c1.97,1.98,1.84,4.65,1.84,7.3C371.55,480.36,371.69,483.29,369.71,485.26 M367.81,472.43c-0.77-0.85-1.79-1.23-3.11-1.23h-3.36
		v13.3h3.36c1.32,0,2.34-0.39,3.11-1.23c0.95-1.06,0.98-3.04,0.98-5.55S368.76,473.48,367.81,472.43"/>
	<path class="st1" d="M389.33,486.98l-1.26-3.67h-7.21l-1.26,3.67h-2.95l6.71-18.28h2.23l6.7,18.28H389.33z M384.53,472.84
		l-2.85,8.11h5.62L384.53,472.84z"/>
	<polygon class="st1" points="398.29,486.99 398.29,468.7 401.07,468.7 401.07,484.5 409.88,484.5 409.88,486.99 	"/>
	<path class="st1" d="M426.96,486.98l-1.26-3.67h-7.21l-1.26,3.67h-2.95l6.71-18.28h2.23l6.7,18.28H426.96z M422.16,472.84
		l-2.85,8.11h5.62L422.16,472.84z"/>
	<path class="st1" d="M451.41,487.14c-1.91,0-3.54-0.69-4.8-1.95c-1.8-1.79-1.77-3.82-1.77-7.34c0-3.52-0.03-5.55,1.77-7.34
		c1.26-1.26,2.9-1.95,4.8-1.95c3.36,0,5.88,1.98,6.52,5.62h-2.82c-0.44-1.85-1.67-3.13-3.7-3.13c-1.07,0-2.06,0.4-2.7,1.1
		c-0.9,0.97-1.1,2.03-1.1,5.7c0,3.67,0.21,4.73,1.1,5.7c0.64,0.69,1.63,1.11,2.7,1.11c2.03,0,3.29-1.29,3.73-3.14h2.79
		C457.31,485.16,454.73,487.14,451.41,487.14"/>
	<path class="st1" d="M475.78,485.19c-1.25,1.25-2.87,1.94-4.82,1.94c-1.95,0-3.54-0.69-4.81-1.94c-1.79-1.8-1.77-3.83-1.77-7.35
		c0-3.51-0.03-5.54,1.77-7.34c1.27-1.26,2.86-1.95,4.81-1.95c1.95,0,3.57,0.69,4.82,1.95c1.8,1.8,1.76,3.83,1.76,7.34
		C477.53,481.36,477.58,483.39,475.78,485.19 M473.68,472.17c-0.64-0.69-1.64-1.13-2.72-1.13c-1.08,0-2.08,0.44-2.73,1.13
		c-0.9,0.97-1.07,2-1.07,5.67c0,3.67,0.18,4.71,1.07,5.68c0.64,0.69,1.64,1.13,2.73,1.13c1.07,0,2.07-0.44,2.72-1.13
		c0.9-0.97,1.07-2.01,1.07-5.68C474.75,474.17,474.57,473.14,473.68,472.17"/>
	<polygon class="st1" points="498.41,486.99 498.41,474.76 494.19,483.67 492.15,483.67 487.83,474.76 487.83,486.99 485.06,486.99 
		485.06,468.7 487.83,468.7 493.17,480.08 498.41,468.7 501.18,468.7 501.18,486.99 	"/>
	<path class="st1" d="M516.29,479.8h-4.17v7.18h-2.77V468.7h6.94c3.56,0,5.85,2.36,5.85,5.55
		C522.14,477.43,519.85,479.8,516.29,479.8 M516.13,471.19h-4.01v6.09h4.01c1.92,0,3.23-1.11,3.23-3.04
		C519.36,472.32,518.06,471.19,516.13,471.19"/>
	<path class="st1" d="M538.14,486.98l-1.26-3.67h-7.21l-1.26,3.67h-2.95l6.71-18.28h2.23l6.7,18.28H538.14z M533.34,472.84
		l-2.85,8.11h5.62L533.34,472.84z"/>
	<polygon class="st1" points="558.33,486.99 549.88,474.12 549.88,486.99 547.1,486.99 547.1,468.7 549.64,468.7 558.1,481.54 
		558.1,468.7 560.87,468.7 560.87,486.99 	"/>
	<polygon class="st1" points="575.05,479.46 575.05,486.98 572.28,486.98 572.28,479.46 566.8,468.7 569.84,468.7 573.66,476.74 
		577.49,468.7 580.51,468.7 	"/>
	<path class="st1" d="M591.37,391.14c-11.28,0-21.16,9.86-21.16,21.08v38.25h10.1v-38.25c0-6.35,4.66-10.97,11.06-10.97h8.87v-10.11
		H591.37z"/>
	<path class="st1" d="M490.71,377.24v17.12c-3.35-2.12-7.2-3.22-11.03-3.22h-12.69c-11.27,0-21.15,9.8-21.15,21.03v17.16
		c0,11.28,9.88,21.11,21.15,21.14h8.57c5.68-0.03,10.93-1.92,15.15-5.09v5.09h10.11v-73.23H490.71z M490.71,425.11
		c0,8.31-6.77,15.07-15.07,15.19h-8.65c-6.51,0-11.04-5.78-11.04-10.97v-17.16c0-6.35,4.64-10.94,11.04-10.94h12.69
		c6.17,0,11.03,4.15,11.03,9.47V425.11z"/>
	<path class="st1" d="M541.5,391.14h-9.66c-9.32,0-17.68,6.79-20.31,15.4h11.03c2.03-3.05,5.55-5.3,9.3-5.3h9.64
		c6.42,0,11.08,4.64,11.08,11v1.08h-23.39c-11.86,0-21.17,7.95-21.17,18.1c0,10.34,9.7,19.05,21.17,19.05h8.14
		c5.75,0,11.07-1.93,15.32-5.18v5.18h10.1v-38.23C562.67,401.02,552.79,391.14,541.5,391.14 M529.19,440.3
		c-6.52,0-11.06-4.68-11.06-8.87c0-4.42,4.86-7.89,11.06-7.89h23.39v2.1c-0.26,8.09-7.03,14.59-15.16,14.67H529.19z"/>
	<path class="st1" d="M353.86,391.14h-9.66c-9.33,0-17.68,6.79-20.31,15.4h11.03c2.03-3.05,5.55-5.3,9.3-5.3h9.64
		c6.42,0,11.08,4.64,11.08,11v1.08h-23.39c-11.86,0-21.17,7.95-21.17,18.1c0,10.34,9.7,19.05,21.17,19.05h8.14
		c5.75,0,11.06-1.93,15.32-5.18v5.18h10.1v-38.23C375.03,401.02,365.15,391.14,353.86,391.14 M341.55,440.3
		c-6.51,0-11.06-4.68-11.06-8.87c0-4.42,4.86-7.89,11.06-7.89h23.39v2.1c-0.26,8.09-7.02,14.59-15.16,14.67H341.55z"/>
	<path class="st1" d="M416.9,413.33h-16.93c-3.72,0.08-6.87-2.87-6.87-6.12c0-3.24,3.15-5.99,6.87-5.96h17.33
		c3.75,0,7.26,2.25,9.29,5.3h11.02c-2.61-8.61-10.98-15.41-20.3-15.41h-17.34c-9.33,0.02-16.94,7.21-16.94,16.07
		s7.6,16.26,16.94,16.31h16.93c6.2,0,11.06,3.48,11.06,7.9c0,4.19-4.54,8.87-11.06,8.87h-13.55c-3.75,0.02-7.26-2.23-9.3-5.27
		h-11.02c2.62,8.6,10.98,15.41,20.31,15.44h13.56c11.48,0,21.17-8.71,21.17-19.05C438.07,421.28,428.78,413.33,416.9,413.33"/>
	<polygon class="st1" points="300.1,377.44 277.24,436.1 254.38,377.44 242.27,377.44 242.27,450.47 252.37,450.47 252.37,400.93 
		270.85,450.47 283.63,450.47 302.13,400.93 302.13,450.47 312.23,450.47 312.23,377.44 	"/>
</g>
<g>
	<defs>
		<path id="SVGID_3_" d="M404.68,123.87c-1.01,1.02-1.96,2.07-2.86,3.19c-11.59,14.3-11.76,34.21-1.68,48.6l-0.01,0.01
			c-2.9-0.83-5.62-2.25-8.03-4.2c-4.76-3.86-7.74-9.34-8.38-15.45c-0.08-0.79-0.13-1.61-0.13-2.42c0-9.34,5.85-17.9,14.55-21.32
			l0.07-0.03l-6.39-16.23l-0.07,0.03c-15.31,6.01-25.6,21.1-25.59,37.53c-0.01,1.42,0.07,2.85,0.21,4.27
			c1.92,18.32,15.88,32.5,33.17,35.56v0.01c-2.63,1.45-5.56,2.38-8.66,2.7c-6.09,0.64-12.07-1.12-16.82-4.98
			c-0.64-0.51-1.24-1.06-1.81-1.63c-6.6-6.6-8.53-16.8-4.8-25.36l0.04-0.07l-16-6.96l-0.03,0.07c-6.56,15.07-3.17,33.01,8.44,44.63
			c1.01,1.01,2.07,1.96,3.18,2.87c14.32,11.58,34.21,11.75,48.6,1.68h0.01c-0.83,2.9-2.24,5.62-4.2,8.03
			c-3.86,4.76-9.34,7.74-15.43,8.38c-0.81,0.08-1.63,0.13-2.43,0.13c-9.33,0-17.9-5.84-21.33-14.54l-0.02-0.07l-16.23,6.39
			l0.02,0.07c6.03,15.3,21.1,25.59,37.54,25.59c1.42,0,2.85-0.07,4.27-0.22c18.31-1.92,32.49-15.88,35.54-33.17h0.02
			c1.46,2.63,2.39,5.57,2.71,8.66c0.64,6.09-1.14,12.08-5,16.83c-0.5,0.64-1.05,1.24-1.61,1.81c-6.6,6.6-16.81,8.52-25.36,4.79
			l-0.07-0.03l-6.95,15.99l0.07,0.03c15.08,6.57,33,3.18,44.62-8.44c1-1,1.97-2.06,2.87-3.17c11.58-14.32,11.75-34.22,1.67-48.6
			l0.02-0.03c2.89,0.85,5.61,2.26,8.03,4.22c4.76,3.85,7.74,9.34,8.38,15.42c0.08,0.81,0.12,1.63,0.12,2.43
			c0,9.34-5.84,17.9-14.55,21.33l-0.06,0.02l6.39,16.23l0.06-0.02c15.31-6.03,25.61-21.09,25.61-37.53c0-1.42-0.07-2.86-0.23-4.27
			c-1.92-18.32-15.88-32.51-33.17-35.55c0,0,0-0.02-0.01-0.03c2.64-1.45,5.58-2.38,8.66-2.7c6.1-0.64,12.08,1.13,16.84,5
			c0.64,0.5,1.24,1.05,1.8,1.62c6.6,6.6,8.54,16.8,4.8,25.36l-0.03,0.07l15.99,6.95l0.02-0.07c6.58-15.08,3.19-33.01-8.44-44.64
			c-1.01-1-2.07-1.96-3.18-2.85c-14.31-11.59-34.21-11.76-48.6-1.68l-0.01-0.02c0.83-2.89,2.26-5.61,4.21-8.02
			c3.86-4.77,9.33-7.74,15.43-8.39c0.8-0.08,1.62-0.12,2.42-0.12c9.34,0,17.91,5.84,21.33,14.54l0.03,0.07l16.23-6.39l-0.03-0.06
			c-6.02-15.31-21.1-25.6-37.53-25.6c-1.41,0-2.85,0.07-4.27,0.21c-18.32,1.93-32.5,15.89-35.55,33.17l-0.02,0.01
			c-1.45-2.64-2.38-5.57-2.7-8.65c-0.64-6.11,1.13-12.08,4.99-16.85c0.5-0.63,1.06-1.23,1.63-1.79c6.6-6.61,16.79-8.54,25.34-4.8
			l0.07,0.02l6.95-15.97l-0.06-0.04c-5.13-2.24-10.58-3.32-16-3.32C422.78,112.12,412.35,116.21,404.68,123.87"/>
	</defs>
	<clipPath id="SVGID_4_">
		<use xlink:href="#SVGID_3_"  style="overflow:visible;"/>
	</clipPath>
	
		<radialGradient id="SVGID_5_" cx="596.3617" cy="658.3186" r="9.3417" gradientTransform="matrix(7.8296 0 0 7.8296 -4248.0439 -4969.1118)" gradientUnits="userSpaceOnUse">
		<stop  offset="0" style="stop-color:#C3E5F2"/>
		<stop  offset="0.1001" style="stop-color:#BAE1F1"/>
		<stop  offset="0.2639" style="stop-color:#A0D6ED"/>
		<stop  offset="0.4696" style="stop-color:#6FC5E6"/>
		<stop  offset="0.65" style="stop-color:#00B3DF"/>
		<stop  offset="0.7844" style="stop-color:#009BCE"/>
		<stop  offset="0.9257" style="stop-color:#0085BE"/>
		<stop  offset="1" style="stop-color:#097CB8"/>
	</radialGradient>
	<rect x="344.89" y="112.12" class="st2" width="152.73" height="149.49"/>
</g>
<g>
	<defs>
		<rect id="SVGID_6_" x="208.73" y="59.06" width="425.05" height="476.76"/>
	</defs>
	<clipPath id="SVGID_7_">
		<use xlink:href="#SVGID_6_"  style="overflow:visible;"/>
	</clipPath>
	<path class="st3" d="M251.15,358.98c11.27,0,21.16-9.86,21.16-21.08v-38.25H262.2v38.25c0,6.35-4.65,10.96-11.05,10.96h-8.88v10.12
		H251.15z"/>
	<path class="st3" d="M579.09,299.65H557.8c-11.27,0-21.16,9.81-21.16,21.04v17.15v0.04c-0.03,5.17-4.56,10.9-11.04,10.93h-43.56
		c2.07-3.24,3.29-7.02,3.29-10.97v-17.15c0-11.23-9.89-21.04-21.16-21.04H418.1c-3.98,0-7.77,1.22-11.03,3.3v-8.08h-10.12v43.01
		c-0.04,5.17-4.58,10.9-11.06,10.93h-40.24v-28.12c0-11.23-9.88-21.04-21.16-21.04H303.2c-9.35,0-17.75,6.76-20.33,15.49h10.68
		c1.83-3.31,5.34-5.39,9.65-5.39h21.29c6.41,0,11.05,4.59,11.05,10.94v28.12h-53.49v10.18h103.84c6.3,0,12.15-3.08,16.1-7.77
		c2.55,3.01,8.16,7.77,16.11,7.77h107.5c6.3,0,12.15-3.08,16.1-7.77c2.55,3.01,8.16,7.77,16.11,7.77h21.29
		c11.27-0.03,21.16-9.87,21.16-21.15v-17.15C600.25,309.46,590.36,299.65,579.09,299.65 M418.1,348.8c-6.34,0-10.8-5.47-11.03-10.56
		V320.2c0.23-6.1,4.79-10.45,11.03-10.45h46.06c6.4,0,11.05,4.59,11.05,10.94v17.15c0,5.16-4.49,10.9-10.95,10.97H418.1z
		 M590.14,337.84c0,5.19-4.54,10.97-11.05,10.97H557.8c-6.51,0-11.05-5.78-11.05-10.97v-17.15c0-6.35,4.65-10.94,11.05-10.94h21.29
		c6.4,0,11.05,4.59,11.05,10.94V337.84z"/>
</g>
</svg>
