<svg width="38" height="38" viewBox="0 0 38 38" fill="none" xmlns="http://www.w3.org/2000/svg">
<path d="M18.5462 1.88843C11.6189 1.88843 4.8726 1.34714 0.0546875 0.322266C1.01787 5.14018 1.62086 11.8825 1.62086 18.8078C1.62086 25.7909 1.07956 32.4755 0.0546875 37.2914C4.8726 36.3282 11.6189 35.7253 18.5462 35.7253C25.5333 35.7253 32.2199 36.2685 37.0378 37.2914C36.0746 32.4755 35.4716 25.7909 35.4716 18.8078C35.593 11.7631 36.0746 5.14018 37.0378 0.322266C32.2199 1.28545 25.5333 1.88843 18.5462 1.88843ZM24.7512 9.5959C24.7512 9.60386 24.7512 9.64366 24.7512 9.7153C24.787 9.7153 24.8069 9.7153 24.8109 9.7153C24.8109 9.7153 25.2925 9.775 25.2925 10.4377C25.2925 10.4417 25.2925 10.4616 25.2925 10.4974C25.3283 10.4974 25.3482 10.4974 25.3522 10.4974C25.3522 10.4974 25.7741 10.7382 25.8338 11.1004C25.8338 11.2198 25.8338 11.2815 25.7741 11.3412C25.7144 11.3412 25.5333 11.3412 25.4139 11.3412C25.1114 11.3412 24.8706 11.2815 24.8109 11.1601C24.8109 11.1601 24.3293 10.979 23.8477 10.6188C23.8437 10.6148 23.8238 10.5949 23.786 10.5591C23.7502 10.5591 23.7303 10.5591 23.7263 10.5591C23.7263 10.5591 23.5452 10.6785 23.3661 10.6785C23.1233 10.6785 22.9442 10.5591 22.7034 10.4377C22.6995 10.4337 22.6776 10.4138 22.6418 10.378C22.6059 10.4138 22.586 10.4337 22.582 10.4377C22.582 10.4377 22.5223 10.4974 22.4009 10.5591C22.397 10.5591 22.3771 10.5591 22.3413 10.5591H22.2816C22.1005 10.5591 21.9194 10.4974 21.6786 10.3183C21.6746 10.3143 21.6547 10.2944 21.6189 10.2566C21.583 10.3302 21.5631 10.37 21.5572 10.378C21.5572 10.378 21.4378 10.6188 20.8348 10.6188C20.7154 10.6188 20.6537 10.6188 20.594 10.6188C20.4746 10.5591 19.8119 10.3183 19.1492 10.1969C19.1333 10.1929 19.0517 10.173 18.9084 10.1372C19.1492 10.0775 19.3303 9.9561 19.5711 9.8964C19.8716 9.775 20.2338 9.7153 20.2338 9.7153C20.7751 9.4745 20.8965 9.17401 20.9562 8.99291C21.197 8.99291 21.3164 8.93321 21.4378 8.87351C21.4378 8.87351 21.8 8.69242 22.1602 8.69242C22.2815 8.69242 22.4009 8.75212 22.4009 8.81182C22.4626 8.87351 22.4626 8.93321 22.4626 8.99291C22.4626 9.00485 22.4626 9.06455 22.4626 9.17401C22.5343 9.13819 22.5741 9.11829 22.582 9.11431C22.582 9.11431 23.0636 8.87351 23.4258 8.87351C23.5452 8.87351 23.6069 8.87351 23.6666 8.93321C23.6666 8.99291 23.6666 9.05261 23.6666 9.11431C23.6626 9.12227 23.6427 9.16207 23.6069 9.23371C23.6786 9.23371 23.7184 9.23371 23.7263 9.23371C23.7263 9.23371 23.9074 9.17401 24.0268 9.17401C24.4487 9.17401 24.6298 9.23371 24.6895 9.3551C24.7512 9.4148 24.7512 9.47451 24.7512 9.5959ZM22.1602 15.1342C22.1562 15.1382 22.1363 15.1581 22.1005 15.1939C22.1005 15.2297 22.1005 15.2516 22.1005 15.2556C22.1005 15.375 22.1602 15.7372 22.0408 15.9163C22.0228 15.9282 21.8776 16.0257 21.8597 16.0377C21.6189 15.7969 21.4378 15.4964 21.4378 15.3153C21.4378 15.3153 21.197 14.8934 21.197 14.3521C21.197 14.3481 21.197 14.3282 21.197 14.2924C21.1612 14.2924 21.1413 14.2924 21.1373 14.2924C21.1373 14.2924 20.7154 14.0496 20.7154 13.5083C20.7154 13.5044 20.7154 13.4845 20.7154 13.4486C20.6796 13.4486 20.6597 13.4486 20.6537 13.4486C20.6537 13.4486 20.3532 13.4486 20.2338 12.7262C20.2338 12.7183 20.2338 12.6785 20.2338 12.6049C20.1602 12.6427 20.1204 12.6626 20.1124 12.6665C20.1124 12.6665 19.8716 12.7859 19.4497 12.1233C19.39 12.0039 19.1492 11.2815 18.8467 10.7382C19.4497 11.1601 20.1721 12.0039 20.1721 12.0039C20.4129 12.2447 20.7154 12.3044 20.8965 12.3044C21.0756 12.3044 21.1373 12.2447 21.197 12.185C21.2567 12.3044 21.3781 12.4257 21.4378 12.4257C21.4338 12.4297 21.4139 12.4496 21.3781 12.4855L21.2567 12.5452C21.3283 12.581 21.3701 12.6009 21.3781 12.6049C21.6189 12.7859 22.1005 13.0864 22.0408 13.2675C22.0328 13.2755 21.991 13.3153 21.9194 13.3889L21.8 13.4486C21.8716 13.5203 21.9114 13.5601 21.9194 13.568C22.0408 13.6894 22.3413 14.0496 22.3413 14.2924C22.3413 14.3004 22.3413 14.3402 22.3413 14.4118C22.5024 14.6526 22.4408 14.8934 22.1602 15.1342ZM15.1134 15.8566C14.9323 15.6158 15.0537 15.1939 15.0537 15.1939C15.0537 15.1899 15.0537 15.17 15.0537 15.1342C15.0159 15.0984 14.996 15.0785 14.992 15.0745C14.6318 14.774 14.8129 14.3521 14.8129 14.3521C14.8169 14.3481 14.8368 14.3282 14.8726 14.2924L14.8129 14.2307C14.7393 14.1233 14.6995 14.0636 14.6915 14.0496C14.6915 13.8088 14.992 13.4486 15.1134 13.3272C15.1214 13.3193 15.1612 13.2795 15.2328 13.2078L15.1134 13.1481C15.0417 13.0745 15 13.0347 14.992 13.0267C14.992 12.8456 15.3542 12.5452 15.6547 12.3641C15.6626 12.3601 15.7044 12.3402 15.7761 12.3044L15.6547 12.2447C15.6189 12.2088 15.599 12.1889 15.595 12.185C15.6547 12.1233 15.7164 12.0039 15.8358 11.9442C15.8955 12.0039 16.0169 12.0636 16.1363 12.0636C16.3791 12.0636 16.6199 11.9442 16.8607 11.7631C16.8607 11.7631 17.583 10.9193 18.186 10.4974C17.9432 11.0407 17.6427 11.7631 17.583 11.8825C17.2209 12.5452 16.9204 12.4257 16.9204 12.4257C16.9124 12.4218 16.8726 12.3999 16.799 12.3641C16.799 12.4377 16.799 12.4775 16.799 12.4855C16.7393 13.1481 16.3791 13.2078 16.3791 13.2078C16.3731 13.2078 16.3532 13.2078 16.3174 13.2078C16.3174 13.2795 16.3174 13.3193 16.3174 13.3272C16.3174 13.9899 15.8955 14.1113 15.8955 14.1113C15.8915 14.1113 15.8716 14.1113 15.8358 14.1113C15.8358 14.1471 15.8358 14.167 15.8358 14.171C15.8358 14.7123 15.595 15.1342 15.595 15.1342C15.7164 15.4347 15.4139 15.7372 15.2945 15.978C15.2587 15.9541 15.1313 15.8685 15.1134 15.8566ZM12.8248 12.5452C12.8288 12.5412 12.8487 12.5213 12.8845 12.4855C12.8845 12.4496 12.8845 12.4297 12.8845 12.4257C12.8248 12.3044 12.8248 12.185 12.8845 12.0636C13.0656 11.7034 13.6666 11.5223 13.6666 11.5223C13.6766 11.5223 13.7164 11.5223 13.788 11.5223C13.7522 11.4486 13.7323 11.4088 13.7283 11.4009C13.6666 11.2815 13.6666 11.1601 13.7283 11.1601C13.9094 10.9193 14.4507 10.8596 14.6915 10.8596C14.6995 10.8596 14.7393 10.8596 14.8129 10.8596L14.7512 10.7382V10.6188C14.787 10.6188 14.8089 10.6188 14.8129 10.6188C14.992 10.6188 15.1731 10.5591 15.4139 10.378C15.5353 10.4974 15.6547 10.6188 16.198 10.6188C16.3174 10.6188 16.4388 10.6188 16.4985 10.6188C16.4985 10.6188 17.583 10.1969 18.186 10.1372C18.194 10.1372 18.2338 10.1372 18.3054 10.1372L18.1243 10.2566C17.9811 10.366 17.8995 10.4257 17.8835 10.4377C17.3422 10.8596 16.7393 11.582 16.6796 11.6417C16.4388 11.8228 16.198 11.8825 16.0169 11.8825C15.8358 11.8825 15.7761 11.7631 15.7761 11.7631C15.7721 11.7591 15.7522 11.7392 15.7164 11.7034L15.6547 11.6417C15.6189 11.7153 15.599 11.7551 15.595 11.7631C15.4736 11.9442 15.4139 12.0039 15.3542 12.1233C15.3482 12.1292 15.3005 12.179 15.2945 12.185C15.1134 12.3641 15.0537 12.3641 14.992 12.3641C14.984 12.3601 14.9442 12.3402 14.8726 12.3044L14.8129 12.2447C14.7751 12.3163 14.7552 12.3561 14.7512 12.3641C14.4507 13.0267 14.0288 13.0864 13.9691 13.0864C13.9651 13.0864 13.9452 13.0864 13.9094 13.0864H13.8477C13.8477 13.1243 13.8477 13.1442 13.8477 13.1481C13.5472 13.8705 13.1253 14.2307 13.1253 14.2307C13.0059 14.4715 12.5223 14.774 12.3432 14.8337C12.0408 14.5332 12.584 13.6894 12.584 13.6297C12.7432 12.9471 12.8248 12.585 12.8248 12.5452ZM18.3054 22.5412L17.8835 20.6128L18.186 20.3123L17.7641 18.567L18.1243 18.3859L17.6427 16.4596L18.0646 16.1571L17.7024 14.5332L18.1243 14.2924L17.8835 12.8456L18.186 12.6049L18.1243 11.0407C18.1243 10.979 18.3054 10.5591 18.6059 10.2566C18.9681 10.5591 19.0895 11.0407 19.0895 11.0407C19.0855 11.1442 19.0636 11.6655 19.0278 12.6049L19.3303 12.8456L19.0895 14.2924L19.5094 14.5332L19.1492 16.1571L19.5711 16.4596L19.1492 18.3859L19.4497 18.567L19.0278 20.3123L19.3303 20.6128L19.0278 22.5412C20.2577 22.5412 20.9403 22.5412 21.0756 22.5412C21.0756 22.5412 21.3164 22.6606 21.2567 22.8417C21.1373 23.0825 20.0527 24.1054 20.0527 24.0456C19.9313 23.9859 19.9313 23.5641 19.8716 23.5044C19.8119 23.4427 19.39 23.9243 19.1492 24.0456C19.1492 24.0456 18.9084 23.8049 18.6059 23.6238C18.3054 23.8646 17.9432 24.0456 17.9432 24.0456C17.7024 23.9243 17.4019 23.4427 17.4019 23.5044C17.3422 23.5641 17.3422 23.9859 17.2209 24.0456C17.1014 24.1054 16.0169 23.0228 16.0169 22.8417C15.8955 22.6009 16.198 22.5412 16.198 22.5412C16.4786 22.5412 17.1811 22.5412 18.3054 22.5412ZM22.2816 12.3641C22.2457 12.3999 22.2238 12.4218 22.2199 12.4257C22.2199 12.4257 22.1602 12.4855 22.1005 12.4855C22.0408 12.4855 21.8597 12.4257 21.8 12.3044C21.794 12.2984 21.7442 12.2506 21.7383 12.2447C21.6786 12.1233 21.5572 12.0039 21.4975 11.8825C21.4935 11.8745 21.4736 11.8347 21.4378 11.7631L21.3781 11.8228C21.3422 11.8586 21.3204 11.8785 21.3164 11.8825C21.3164 11.8825 21.2567 12.0039 21.0756 12.0039C20.8965 12.0039 20.7154 11.8825 20.4129 11.7631C20.3532 11.6417 19.6905 11.0407 19.2089 10.5591C19.0895 10.4974 19.0278 10.4377 18.9681 10.378C18.9562 10.37 18.8965 10.3302 18.787 10.2566C18.8607 10.2566 18.9005 10.2566 18.9084 10.2566C19.6308 10.378 20.594 10.7382 20.594 10.7382C20.7154 10.7382 20.8348 10.7382 20.8965 10.7382C21.3781 10.7382 21.6189 10.5591 21.6786 10.4974C21.9194 10.6785 22.1005 10.7382 22.3413 10.7382C22.3452 10.7382 22.3651 10.7382 22.4009 10.7382V10.8596L22.3413 10.979C22.4129 10.979 22.4527 10.979 22.4626 10.979C22.7034 10.979 23.2447 11.0407 23.4258 11.2815C23.4855 11.3412 23.4855 11.4626 23.4258 11.5223C23.4219 11.5302 23.4019 11.57 23.3661 11.6417C23.4378 11.6775 23.4776 11.6994 23.4855 11.7034C23.4855 11.7034 24.0885 11.8825 24.2696 12.2447C24.3293 12.3641 24.3293 12.4854 24.2696 12.6049C24.2696 12.6088 24.2696 12.6287 24.2696 12.6665C24.3054 12.7024 24.3253 12.7223 24.3293 12.7262C24.3293 12.7262 24.8109 13.0267 24.5701 13.8088C24.5701 13.8128 24.5701 13.8347 24.5701 13.8705C24.5701 13.9063 24.5701 13.9262 24.5701 13.9302C24.5701 13.9302 25.1114 14.7123 24.8109 15.1342C24.5701 15.0148 24.0885 14.8337 24.0268 14.5332C24.0268 14.5332 23.6069 14.1113 23.3044 13.4486C23.3005 13.4447 23.2806 13.4248 23.2447 13.3889H23.185C23.1492 13.3889 23.1273 13.3889 23.1233 13.3889C22.9442 13.1481 22.582 13.1481 22.3413 12.4855C22.3333 12.4695 22.3134 12.4297 22.2816 12.3641ZM22.8228 6.88545C22.8945 6.88545 22.9363 6.88545 22.9442 6.88545C22.9442 6.88545 23.0636 6.82575 23.185 6.82575C23.3661 6.82575 23.4855 6.94515 23.6069 7.12625C23.6069 7.13023 23.6069 7.15013 23.6069 7.18595H23.6666C23.7024 7.18595 23.7223 7.18595 23.7263 7.18595C23.8477 7.18595 24.1482 7.18595 24.2696 7.36704C24.3293 7.42674 24.3293 7.48843 24.3293 7.60784C24.1482 7.72923 23.8477 7.97003 23.6069 7.97003C23.6029 7.97003 23.581 7.97003 23.5452 7.97003C23.5452 7.97003 23.3044 8.08943 22.8825 8.08943C22.7631 8.08943 22.7034 8.08943 22.6418 8.08943C22.6378 8.08943 22.6179 8.08943 22.582 8.08943C22.582 8.12525 22.582 8.14515 22.582 8.14913C22.582 8.14913 22.3413 8.45162 21.9194 8.45162C21.9074 8.45162 21.8477 8.45162 21.7383 8.45162H21.6786C21.6786 8.48744 21.6786 8.50734 21.6786 8.51132C21.6786 8.51132 21.6786 8.63271 21.5572 8.69242C21.5532 8.69639 21.5333 8.7163 21.4975 8.75212L21.3164 8.81182C21.2806 8.81182 21.2607 8.81182 21.2567 8.81182C21.197 8.81182 21.0756 8.81182 21.0159 8.81182C21.0119 8.81182 20.992 8.81182 20.9562 8.81182V8.87351C20.9562 8.93321 20.9562 9.17401 20.3532 9.53421C20.2338 9.53421 19.6905 9.7153 19.2089 9.83669C19.0278 9.8964 18.9681 9.9561 18.787 10.0158C18.8965 9.87251 18.9562 9.79092 18.9681 9.775C19.2686 9.4745 19.6905 9.05261 19.6905 9.05261C19.993 8.63271 19.993 8.33023 19.993 8.27052C20.3532 8.02973 20.4129 7.78893 20.4129 7.66754C20.594 7.60784 20.6537 7.48844 20.7751 7.42674C20.8348 7.42674 20.8965 7.42674 20.8965 7.54814C20.9005 7.5561 20.9204 7.5959 20.9562 7.66754C20.992 7.5959 21.0119 7.5561 21.0159 7.54814C21.197 7.30734 21.4975 6.94515 21.6786 6.94515C21.6786 6.94515 21.7383 6.94515 21.8 7.06654C21.8039 7.0745 21.8238 7.11431 21.8597 7.18595C21.9313 7.11431 21.9711 7.0745 21.9791 7.06654C22.1005 6.94515 22.401 6.76605 22.6418 6.76605C22.7631 6.70436 22.8228 6.76605 22.8228 6.88545ZM19.6308 7.24764C19.6666 7.13819 19.6865 7.07848 19.6905 7.06654C19.7502 6.76605 19.9313 6.34416 19.993 6.34416C19.997 6.34814 20.0169 6.36804 20.0527 6.40386L20.1721 6.52525C20.2099 6.45162 20.2298 6.41182 20.2338 6.40386C20.2935 6.22276 20.4746 5.86256 20.7154 5.86256C20.7233 5.86654 20.7631 5.88644 20.8348 5.92227L20.8965 5.98197C20.9323 5.94615 20.9522 5.92625 20.9562 5.92227C20.9562 5.92227 21.0756 5.74117 21.197 5.74117C21.3164 5.74117 21.3781 5.80286 21.4378 5.86256C21.4417 5.86654 21.4617 5.88644 21.4975 5.92227C21.5333 5.92227 21.5532 5.92227 21.5572 5.92227C21.5572 5.92227 21.8 5.80286 21.9194 5.80286C22.0408 5.80286 22.1602 5.86256 22.1602 5.92227C22.0408 6.16306 21.9194 6.46356 21.7383 6.46356C21.7383 6.46356 21.4975 6.70436 21.0159 6.88545C21.0119 6.88545 20.992 6.88545 20.9562 6.88545C20.9562 6.92127 20.9562 6.94117 20.9562 6.94515C20.9562 6.94515 20.9562 7.06654 20.8348 7.18595C20.7751 7.30734 20.594 7.42674 20.4746 7.42674H20.4129V7.48844V7.54814C20.4129 7.58396 20.4129 7.60386 20.4129 7.60784C20.4129 7.66754 20.4129 7.78893 20.2935 7.84863C20.2338 7.90834 20.1124 7.97003 20.0527 8.08943C20.0487 8.09341 20.0288 8.11331 19.993 8.14913C20.0288 8.18694 20.0487 8.20684 20.0527 8.21082C20.0527 8.21082 20.1721 8.45162 19.8119 8.93321C19.7502 8.99291 19.5094 9.17401 19.2089 9.4148C19.197 9.42674 19.1373 9.48645 19.0278 9.5959L18.8467 9.775C18.8845 9.70336 18.9044 9.66356 18.9084 9.6556C19.1492 8.99291 19.4497 7.78893 19.5711 7.06654C19.5671 7.07052 19.5472 7.09043 19.5094 7.12625L19.6308 7.24764ZM17.8835 6.58495C17.9194 6.51331 17.9393 6.47152 17.9432 6.46356C17.8835 5.86256 17.9432 5.38097 18.0646 5.25958C18.0686 5.2556 18.0885 5.2357 18.1243 5.19988H18.186L18.3054 5.25958C18.3054 5.18794 18.3054 5.14814 18.3054 5.14018C18.4268 4.71829 18.5462 4.41779 18.6676 4.29639C18.787 4.41779 18.9084 4.65858 19.0278 5.14018C19.0278 5.14814 19.0278 5.18794 19.0278 5.25958L19.1492 5.19988H19.2089C19.2447 5.2357 19.2646 5.2556 19.2686 5.25958C19.39 5.44067 19.4497 5.92227 19.39 6.46356C19.39 6.47152 19.39 6.51331 19.39 6.58495C19.4258 6.58495 19.4457 6.58495 19.4497 6.58495C19.4497 6.64465 19.4497 6.82575 19.39 7.00684C19.39 7.0148 19.39 7.0546 19.39 7.12625C19.3542 7.27152 19.3343 7.35112 19.3303 7.36704C19.2089 7.90834 19.0278 8.63271 18.787 9.4745C18.787 9.47849 18.787 9.49839 18.787 9.53421L18.7273 9.775V9.83669V9.775L18.6676 9.53421C18.6676 9.49839 18.6676 9.47849 18.6676 9.4745C18.4268 8.75212 18.2457 7.90834 18.1243 7.36704C18.1204 7.35112 18.1005 7.27152 18.0646 7.12625C18.0646 7.0546 18.0646 7.0148 18.0646 7.00684C17.8835 6.76605 17.8835 6.58495 17.8835 6.58495ZM15.7164 5.92227C15.7204 5.92227 15.7403 5.92227 15.7761 5.92227C15.8119 5.88644 15.8318 5.86654 15.8358 5.86256C15.9572 5.80286 16.0169 5.74117 16.0766 5.74117C16.2577 5.74117 16.3174 5.92227 16.3174 5.92227C16.3214 5.92625 16.3413 5.94615 16.3791 5.98197L16.4388 5.92227C16.5104 5.88644 16.5502 5.86654 16.5582 5.86256C16.7393 5.86256 16.9204 6.22276 16.9801 6.40386C16.984 6.41182 17.0039 6.45162 17.0398 6.52525L17.1015 6.40386C17.1373 6.36804 17.1572 6.34814 17.1612 6.34416C17.2825 6.34416 17.402 6.70436 17.4617 7.06654C17.4617 7.07848 17.4617 7.13819 17.4617 7.24764L17.583 7.12625C17.6547 7.09043 17.6945 7.07052 17.7024 7.06654C17.8835 7.78893 18.186 9.05261 18.3651 9.6556C18.3691 9.66356 18.389 9.70336 18.4268 9.775L18.2457 9.5959C18.1363 9.48645 18.0766 9.42674 18.0646 9.4148C17.8238 9.17401 17.5233 8.93321 17.4617 8.93321C17.1015 8.45162 17.2209 8.21082 17.2209 8.21082C17.2248 8.20684 17.2447 8.18694 17.2825 8.14913C17.2447 8.11331 17.2248 8.09341 17.2209 8.08943C17.1014 8.02973 16.9801 7.97003 16.9801 7.84863C16.8607 7.72923 16.8607 7.60784 16.8607 7.60784C16.8607 7.60386 16.8607 7.58396 16.8607 7.54814V7.48844H16.799C16.5582 7.42674 16.4985 7.30734 16.4388 7.24764C16.3174 7.06654 16.3174 7.00684 16.3174 7.00684C16.3174 7.00286 16.3174 6.98296 16.3174 6.94515C16.2816 6.94515 16.2616 6.94515 16.2577 6.94515C15.8955 6.76605 15.5353 6.52525 15.5353 6.52525C15.3542 6.52525 15.2328 6.22276 15.1134 5.98197C15.1731 5.80286 15.2945 5.80286 15.3542 5.80286C15.5353 5.80286 15.6427 5.89839 15.7164 5.92227ZM13.4875 7.24764C13.4915 7.24764 13.5114 7.24764 13.5472 7.24764H13.6069C13.6069 7.20983 13.6069 7.18993 13.6069 7.18595C13.7283 6.94515 13.8477 6.88545 14.0288 6.88545C14.1502 6.88545 14.2696 6.94515 14.2696 6.94515C14.2736 6.94913 14.2935 6.96903 14.3293 7.00684C14.3671 6.96903 14.387 6.94913 14.391 6.94515C14.4507 6.82575 14.5104 6.76605 14.6318 6.76605C14.8726 6.76605 15.2945 7.06654 15.2945 7.06654C15.3024 7.0745 15.3422 7.11431 15.4139 7.18595C15.4497 7.11431 15.4696 7.0745 15.4736 7.06654C15.4736 6.94515 15.5353 6.94515 15.595 6.94515C15.7761 6.94515 16.0766 7.30734 16.2577 7.54814C16.2616 7.5561 16.2816 7.5959 16.3174 7.66754C16.3532 7.5959 16.3731 7.5561 16.3791 7.54814C16.4388 7.42674 16.4985 7.42674 16.5582 7.42674C16.6796 7.54814 16.799 7.66754 16.9204 7.66754C16.9204 7.78893 16.9801 8.02973 17.3422 8.27052C17.2825 8.38993 17.2825 8.69242 17.583 9.05261C17.583 9.05261 18.0049 9.3551 18.3054 9.775C18.3174 9.79092 18.3771 9.87251 18.4865 10.0158C18.3651 9.9561 18.2457 9.8964 18.0646 9.83669C17.583 9.6556 17.0398 9.53421 16.9204 9.53421C16.3174 9.29341 16.3174 8.93321 16.3174 8.87351V8.81182H16.2577C16.186 8.81182 16.1442 8.81182 16.1363 8.81182C16.0169 8.81182 15.9572 8.81182 15.8955 8.81182C15.8915 8.81182 15.8716 8.81182 15.8358 8.81182L15.6547 8.75212C15.6189 8.7163 15.599 8.69639 15.595 8.69242C15.4736 8.57102 15.4736 8.51132 15.4736 8.51132C15.4736 8.50734 15.4736 8.48744 15.4736 8.45162H15.4139C15.3064 8.45162 15.2447 8.45162 15.2328 8.45162C14.8129 8.45162 14.5701 8.14913 14.5701 8.14913C14.5661 8.14515 14.5462 8.12525 14.5104 8.08943C14.4746 8.08943 14.4547 8.08943 14.4507 8.08943C14.3293 8.08943 14.2696 8.08943 14.2099 8.08943C13.8477 8.08943 13.5472 7.97003 13.5472 7.97003C13.5114 7.97003 13.4915 7.97003 13.4875 7.97003C13.2467 7.97003 12.9442 7.72923 12.7631 7.60784C12.8845 7.48843 12.9442 7.48844 12.9442 7.42674C13.1253 7.24764 13.4258 7.24764 13.4875 7.24764ZM11.8 10.378C11.8039 10.378 11.8238 10.378 11.8597 10.378C11.8597 10.3422 11.8597 10.3223 11.8597 10.3183C11.8597 9.6556 12.3432 9.5959 12.3432 9.5959C12.3472 9.5959 12.3671 9.5959 12.4029 9.5959C12.4029 9.52227 12.4029 9.48246 12.4029 9.4745C12.4029 9.3551 12.4029 9.29341 12.4626 9.23371C12.584 9.11431 12.7631 9.05261 13.0656 9.05261C13.2467 9.05261 13.3661 9.11431 13.3661 9.11431C13.3741 9.11431 13.4139 9.11431 13.4875 9.11431C13.4517 9.04067 13.4298 9.00087 13.4258 8.99291C13.4258 8.93321 13.4258 8.81182 13.4258 8.81182C13.4875 8.75212 13.5472 8.75212 13.6666 8.75212C13.9691 8.75212 14.5104 8.99291 14.5104 8.99291C14.5184 8.99689 14.5582 9.01679 14.6318 9.05261C14.6318 8.94515 14.6318 8.88545 14.6318 8.87351C14.6318 8.75212 14.6318 8.69242 14.6915 8.69242C14.7512 8.63271 14.8726 8.57102 14.9323 8.57102C15.2328 8.57102 15.6547 8.75212 15.6547 8.75212C15.6607 8.75212 15.7104 8.75212 15.7164 8.75212C15.8358 8.81182 15.9572 8.87351 16.198 8.87351C16.198 9.05261 16.3791 9.29341 16.9204 9.5959C16.9204 9.5959 17.1612 9.6556 17.583 9.775C17.8238 9.83669 18.0049 9.8964 18.2457 10.0158C18.1005 10.0536 18.0209 10.0735 18.0049 10.0775C17.3422 10.2566 16.6796 10.4974 16.5582 10.4974C16.4388 10.4974 16.3174 10.4974 16.3174 10.4974C15.7164 10.4974 15.595 10.2566 15.595 10.2566C15.591 10.2486 15.5711 10.2088 15.5353 10.1372C15.4995 10.173 15.4796 10.1929 15.4736 10.1969C15.2328 10.378 15.0537 10.4377 14.8726 10.4377H14.8129C14.7751 10.4377 14.7552 10.4377 14.7512 10.4377C14.6318 10.378 14.5701 10.3183 14.5701 10.3183C14.5661 10.3143 14.5462 10.2944 14.5104 10.2566C14.4746 10.2944 14.4547 10.3143 14.4507 10.3183C14.2099 10.4974 14.0288 10.5591 13.788 10.5591C13.5472 10.5591 13.4258 10.4377 13.4258 10.4377C13.4219 10.4377 13.4019 10.4377 13.3661 10.4377C13.3303 10.4735 13.3104 10.4934 13.3064 10.4974C12.8248 10.8596 12.3432 11.0407 12.3432 11.0407C12.2219 11.1601 12.1024 11.2198 11.7403 11.2198C11.5592 11.2198 11.4995 11.2198 11.3781 11.2198C11.3184 11.1601 11.3184 11.1004 11.3184 10.979C11.3781 10.6785 11.7044 10.4974 11.8 10.378ZM19.6905 28.5611C20.4129 29.2238 21.0756 29.8248 21.7383 30.6088C21.7422 30.6049 21.7621 30.585 21.8 30.5471H21.9791L22.0408 30.6685C22.1124 30.5611 22.1522 30.4994 22.1602 30.4874C22.1005 30.3063 22.1602 30.1272 22.3413 30.0058C22.582 29.8248 22.7631 29.8248 22.9442 30.0058C23.1233 30.1869 23.0636 30.4277 22.8825 30.6088C22.7631 30.7282 22.6418 30.7879 22.4626 30.7282C22.3413 30.9093 22.4009 30.969 22.4009 30.969C22.582 31.3909 23.3661 31.6914 24.0268 31.6914C24.5104 31.6914 24.8109 31.5123 25.2925 31.0307C25.8338 30.4874 26.3174 31.0307 26.3174 31.0307C27.0398 32.173 25.5333 33.1362 24.4487 33.1362C23.1233 33.1362 21.8597 32.3541 21.5572 31.9322C21.4378 31.8128 21.3164 31.7531 21.2567 31.8128C21.197 31.8128 21.1373 31.9322 21.1373 32.0536C21.1373 32.2347 21.0756 32.2944 20.9562 32.4138C20.7751 32.5949 20.5343 32.5949 20.3532 32.4138C20.1721 32.2347 20.2338 31.9939 20.4129 31.8128C20.5343 31.6914 20.6537 31.6914 20.7154 31.6914C20.7194 31.6914 20.7393 31.6914 20.7751 31.6914L20.7154 31.6317V31.4506C20.8228 31.3432 20.8845 31.2835 20.8965 31.2715C20.6537 31.0307 19.8119 30.1869 18.7273 29.2238C17.6427 30.1869 16.8607 30.969 16.5582 31.2715C16.5701 31.2835 16.6318 31.3432 16.7393 31.4506V31.6317L16.6796 31.6914C16.7154 31.6914 16.7353 31.6914 16.7393 31.6914C16.8607 31.6914 16.9801 31.7531 17.0398 31.8128C17.2209 31.9939 17.2825 32.2347 17.1015 32.4138C16.9204 32.5949 16.6796 32.5949 16.4985 32.4138C16.3791 32.2944 16.3174 32.173 16.3174 32.0536C16.3174 31.9322 16.2577 31.8725 16.198 31.8128C16.0766 31.7531 16.0169 31.8128 15.8955 31.9322C15.595 32.2944 14.391 33.1362 13.0656 33.1362C11.9214 33.1362 10.4149 32.1133 11.199 31.0307C11.199 31.0307 11.6806 30.4874 12.2218 31.0307C12.7034 31.5123 13.0059 31.6914 13.4875 31.6914C14.0885 31.6914 14.8726 31.3312 15.0537 30.969C15.0537 30.969 15.1134 30.7879 14.992 30.7282C14.8726 30.7879 14.7512 30.7282 14.5701 30.6088C14.391 30.4277 14.3293 30.1869 14.5104 30.0058C14.6915 29.8248 14.9323 29.8248 15.1134 30.0058C15.2945 30.1272 15.3542 30.3063 15.2945 30.4874C15.3024 30.4994 15.3422 30.5611 15.4139 30.6685V30.5471H15.595C15.6308 30.585 15.6507 30.6049 15.6547 30.6088C16.3791 29.8864 17.0398 29.2238 17.7024 28.5611C16.4985 27.5382 15.0537 26.3939 13.6069 25.4307C9.08951 22.3601 5.65668 22.7203 5.65668 22.7203C8.24573 21.7571 11.4995 22.7203 12.9442 23.5044C14.0288 24.1054 16.2577 25.4904 18.787 27.6576C21.3164 25.4904 23.6069 24.1054 24.6298 23.5044C26.1363 22.6606 29.3283 21.7571 31.9174 22.7203C31.7383 22.6606 28.3034 22.4198 23.786 25.4307C22.3413 26.3939 20.8965 27.5382 19.6905 28.5611Z" fill="#0A6562"/>
</svg>
