<svg width="56" height="14" viewBox="0 0 56 14" fill="none" xmlns="http://www.w3.org/2000/svg">
<path fill-rule="evenodd" clip-rule="evenodd" d="M1.42675 7.7001V7.3501H2.14013V7.7001H1.42675ZM2.49682 7.7001V7.3501H3.21019V7.7001H2.49682ZM5.35032 7.3501H5.70701V10.8501L6.42038 11.5501V11.9001H5.70701L5.35032 11.5501V7.3501ZM19.2611 8.7501V8.4001H19.9745L20.3312 8.7501V9.1001H19.6178L19.2611 8.7501ZM0 11.2001V8.7501H0.713376V11.2001L1.07006 11.5501H1.42675V11.9001H0.713376L0 11.2001ZM3.92357 8.7501H4.28025V11.5501H3.92357V8.7501ZM12.1274 11.5501V8.7501H12.4841L12.8408 11.5501H13.9108V8.7501H14.2675L14.6242 11.5501H15.6943L16.051 8.7501H16.4076V11.5501L17.4777 11.9001V12.2501H6.42038V11.9001L9.27389 11.5501V10.8501L8.9172 10.5001V9.8001H9.27389L9.63057 10.1501V11.2001L9.98726 11.5501H12.1274ZM7.49045 8.7501H7.84713V9.1001H7.49045V8.7501ZM18.1911 9.1001L18.5478 8.7501H19.2611V9.1001L18.5478 9.8001V10.8501L19.2611 11.5501V11.9001H17.4777V11.5501L18.1911 10.8501V9.1001ZM7.84713 9.4501V9.1001H8.56051V9.4501H7.84713ZM20.3312 9.1001H20.6879V9.4501L21.0446 9.8001V10.8501L20.6879 11.2001V11.5501H20.3312V9.1001ZM8.56051 9.4501H8.9172V9.8001H8.56051V9.4501ZM3.21019 11.9001V11.5501H3.92357V11.9001H3.21019ZM19.9745 11.5501H20.3312V11.9001H19.9745V11.5501ZM1.42675 12.2501V11.9001H3.21019V12.2501H1.42675ZM19.2611 12.2501V11.9001H19.9745V12.2501H19.2611Z" fill="#2C2C2D"/>
<path d="M23.541 0V8.4H24.2544L26.3945 8.75L26.0378 9.1V9.45L25.6811 9.8V10.15L25.3245 10.5V10.85L24.9678 11.2V11.55L24.6111 11.9V12.25V12.6L24.2544 12.95V13.3L23.8977 13.65L24.2544 14H28.8913L29.248 13.65V13.3L29.6047 12.95V12.6L29.9614 12.25L30.3181 11.9V11.55L30.6748 11.2V10.85L31.0315 10.5L31.3881 10.15V9.8L31.7448 9.45V9.1L32.1015 8.75V8.4L32.4582 8.05V7.7V7.35V3.85L31.7448 6.3V7V7.35V7.7L31.3881 8.05V8.4L31.0315 8.75V9.1L30.6748 9.45L30.3181 9.8V10.15L29.9614 10.5V10.85L29.6047 11.2V11.55L29.248 11.9L28.8913 12.25V12.6L28.5346 12.95L25.3245 13.3L24.9678 12.95L25.3245 12.6V12.25L25.6811 11.9V11.55L26.0378 11.2V10.85L26.3945 10.5V10.15L26.7512 9.8V9.45V9.1L27.1079 8.75L26.7512 8.05H24.9678L24.2544 7.7V2.8V2.45V0.7H26.3945V0H23.541Z" fill="#B6BB36" fill-opacity="0.9"/>
<path d="M33.8848 11.9001V9.1001H34.2415H34.5981V9.4501V9.8001H34.9548V10.1501V10.5001H34.5981V10.1501V9.8001L34.2415 10.1501V10.5001V11.9001H33.8848Z" fill="black"/>
<path d="M36.3816 9.4501V9.1001H36.7383H37.095V11.9001H36.7383V10.1501L36.3816 9.8001V10.1501V10.5001H36.0249V10.1501V9.8001H36.3816V9.4501Z" fill="black"/>
<path d="M39.9485 9.1001H40.3051V9.4501H40.6618V9.8001H40.3051V9.4501H39.9485V9.1001Z" fill="black"/>
<path d="M42.0886 9.1001V11.9001H42.4453V11.5501V10.8501V10.5001V10.1501V9.4501L42.0886 9.1001Z" fill="black"/>
<path d="M46.3688 9.1001H46.0122V9.4501H46.3688V9.1001Z" fill="black"/>
<path d="M47.4389 9.1001V9.4501H47.7956H48.1523V9.1001H47.7956H47.4389Z" fill="black"/>
<path d="M50.6491 9.1001V9.4501H51.3625V9.1001H51.0058H50.6491Z" fill="black"/>
<path d="M54.9294 9.1001L54.5727 9.4501V11.9001H54.9294V9.4501V9.1001Z" fill="black"/>
<path d="M38.5217 9.8001V9.4501H38.8784V9.8001V10.1501H39.2351H39.5918V10.5001H39.2351H38.8784V10.1501H38.5217V9.8001Z" fill="black"/>
<path d="M45.6555 9.8001V10.1501V10.8501V11.2001H46.0122V10.8501V10.1501V9.8001H45.6555Z" fill="black"/>
<path d="M50.2924 10.1501V9.8001H50.6491V10.1501V10.5001V10.8501H50.2924V11.2001V11.5501H49.9357V11.2001V10.8501H50.2924V10.5001V10.1501Z" fill="black"/>
<path d="M51.3625 9.8001V10.1501V10.5001H51.7192V10.1501V9.8001H51.3625Z" fill="black"/>
<path d="M39.9485 10.5001V10.8501V11.5501V11.9001H40.3051H40.6618V11.5501V11.2001V10.8501V10.5001H40.3051H39.9485Z" fill="black"/>
<path d="M48.1523 10.5001V10.8501L47.7956 11.2001L47.4389 11.5501V11.9001H47.7956H48.1523H48.509V10.5001H48.1523Z" fill="black"/>
<path d="M34.9548 10.8501V11.2001V11.5501L35.3115 11.9001H35.6682L36.0249 11.5501V11.2001V10.8501H35.6682H35.3115H34.9548Z" fill="black"/>
<path d="M51.7192 11.2001L52.0758 10.8501V11.2001V11.5501H52.4325V11.9001H52.0758V11.5501H51.7192V11.2001Z" fill="black"/>
<path d="M38.5217 11.2001V11.5501V11.9001H38.8784H39.2351V11.5501L38.8784 11.2001H38.5217Z" fill="black"/>
<path d="M46.0122 11.5501V11.9001H46.3688H46.7255V11.5501H46.3688H46.0122Z" fill="black"/>
<path fill-rule="evenodd" clip-rule="evenodd" d="M26.396 0.7V0H32.4597V3.85L31.7463 6.3V0.7H26.396ZM24.9692 8.05L24.2559 7.7H24.9692V8.05ZM26.0393 8.75H26.396V9.1H26.0393V8.75ZM25.6826 9.45H26.0393V9.8H25.6826V9.45ZM24.2559 12.6H24.6125V12.95H24.2559V12.6Z" fill="#B6BB36" fill-opacity="0.9"/>
<path fill-rule="evenodd" clip-rule="evenodd" d="M18.9037 8.3999H19.2604V8.7499H18.9037V8.3999ZM4.27953 11.1999V8.7499H4.63621V11.1999H4.27953ZM7.13303 8.7499H7.48972V9.0999H7.13303V8.7499ZM7.84641 8.7499H8.20309V9.0999H7.84641V8.7499ZM14.6235 11.5499L14.2668 8.7499H14.6235V11.5499ZM15.6935 11.5499V8.7499H16.0502L15.6935 11.5499ZM20.3305 8.7499H20.6872V9.0999H20.3305V8.7499ZM7.48972 9.0999H7.84641V9.4499H7.48972V9.0999ZM8.55978 9.0999H8.91647V9.4499H8.55978V9.0999ZM19.9738 9.0999H20.3305V9.4499H19.9738V9.0999ZM8.20309 9.4499H8.55978V9.7999H8.20309V9.4499ZM8.91647 9.4499H9.27316V9.7999H8.91647V9.4499ZM20.6872 9.4499H21.0439V9.7999H20.6872V9.4499ZM17.8337 10.8499H18.1904V11.1999H17.8337V10.8499ZM9.62984 11.1999H9.98653V11.5499H9.62984V11.1999ZM19.9738 11.1999H20.3305V11.5499H19.9738V11.1999ZM1.42602 11.8999V11.5499H3.20946V11.8999H1.42602ZM3.92284 11.5499H4.27953V11.8999H3.92284V11.5499ZM6.41965 11.8999V11.5499H9.27316L6.41965 11.8999ZM17.477 11.8999L16.4069 11.5499H17.477V11.8999ZM19.6171 11.5499H19.9738V11.8999H19.6171V11.5499ZM20.3305 11.5499H20.6872V11.8999H20.3305V11.5499ZM1.06934 11.8999H1.42602V12.2499H1.06934V11.8999ZM3.20946 11.8999H3.56615V12.2499H3.20946V11.8999ZM6.06297 11.8999H6.41965V12.2499H6.06297V11.8999ZM17.477 11.8999H17.8337V12.2499H17.477V11.8999ZM18.9037 11.8999H19.2604V12.2499H18.9037V11.8999ZM12.1267 11.5499H9.98653H11.77H12.1267ZM13.9101 11.5499H12.84H13.5534H13.9101Z" fill="#2C2C2C" fill-opacity="0.8"/>
<path d="M32.4582 0V3.85V7.35H32.8149L32.4582 0Z" fill="#B6BB36" fill-opacity="0.5"/>
<path d="M26.0378 9.1H25.6811V9.45H26.0378V9.1Z" fill="#B6BB36" fill-opacity="0.5"/>
<path d="M27.1079 9.1H26.7512V9.45H27.1079V9.1Z" fill="#B6BB36" fill-opacity="0.5"/>
<path d="M5.70727 7H5.35058V7.35H5.70727V7Z" fill="#2C2C2C" fill-opacity="0.2"/>
<path d="M12.1276 8.4H12.4843V8.75H12.1276V11.55H11.771L12.1276 8.75V8.4Z" fill="#2C2C2C" fill-opacity="0.2"/>
<path d="M18.9047 8.4H18.548V8.75H18.9047V8.4Z" fill="#2C2C2C" fill-opacity="0.2"/>
<path d="M13.9111 8.75L13.5544 11.55H13.9111V8.75Z" fill="#2C2C2C" fill-opacity="0.2"/>
<path d="M16.4079 8.75V11.55H16.7646L16.4079 8.75Z" fill="#2C2C2C" fill-opacity="0.2"/>
<path d="M18.1913 9.45H17.8347V9.8H18.1913V9.45Z" fill="#2C2C2C" fill-opacity="0.2"/>
<path d="M20.3315 9.45H19.9748V9.8H20.3315V9.45Z" fill="#2C2C2C" fill-opacity="0.2"/>
<path d="M8.91746 10.85V11.55H9.27415V10.85H8.91746Z" fill="#2C2C2C" fill-opacity="0.2"/>
<path d="M6.42064 11.2H6.06396V11.55H6.42064V11.2Z" fill="#2C2C2C" fill-opacity="0.2"/>
<path d="M17.8347 11.2H17.478V11.55H17.8347V11.2Z" fill="#2C2C2C" fill-opacity="0.2"/>
<path d="M6.06396 11.9H5.70727V12.25H6.06396V11.9Z" fill="#2C2C2C" fill-opacity="0.2"/>
<path d="M18.1913 11.9H17.8347V12.25H18.1913V11.9Z" fill="#2C2C2C" fill-opacity="0.2"/>
<path d="M18.9047 11.9H18.548V12.25H18.9047V11.9Z" fill="#2C2C2C" fill-opacity="0.2"/>
<path d="M38.8784 8.75H39.2351V9.1H39.5918V9.45H39.2351V9.1H38.8784V8.75Z" fill="black" fill-opacity="0.5"/>
<path d="M42.802 9.45L44.2287 9.1V9.45H42.802V10.15H42.4453V9.45H42.802Z" fill="black" fill-opacity="0.5"/>
<path d="M47.0822 9.1H46.7255V9.45H47.0822V9.1Z" fill="black" fill-opacity="0.5"/>
<path d="M53.5026 9.45V9.1L54.216 9.45H54.5727V11.9H54.9293V12.25H54.5727V11.9H54.216V9.45H53.5026Z" fill="black" fill-opacity="0.5"/>
<path d="M54.9293 9.1V9.45L55.9994 9.1H54.9293Z" fill="black" fill-opacity="0.5"/>
<path d="M34.9548 9.45H34.5981V9.8H34.9548V9.45Z" fill="black" fill-opacity="0.5"/>
<path d="M51.0058 9.8H50.6491V10.15H51.0058V9.8Z" fill="black" fill-opacity="0.5"/>
<path d="M38.8784 10.15H38.5217V10.5H38.8784V10.15Z" fill="black" fill-opacity="0.5"/>
<path d="M39.9485 10.15H40.3051V10.5H39.9485V10.85H39.5918V10.5H39.9485V10.15Z" fill="black" fill-opacity="0.5"/>
<path d="M45.2988 10.15V10.85H45.6555V10.15H45.2988Z" fill="black" fill-opacity="0.5"/>
<path d="M48.1523 10.15L47.0822 10.5H47.7956H48.1523H48.509V10.15H48.1523Z" fill="black" fill-opacity="0.5"/>
<path d="M52.0758 10.15H51.7192V10.5H52.0758V10.15Z" fill="black" fill-opacity="0.5"/>
<path d="M42.802 10.85V10.5H44.2287L42.802 10.85V11.55H42.4453V10.85H42.802Z" fill="black" fill-opacity="0.5"/>
<path d="M50.6491 10.5V10.85H51.3625V10.5H50.6491Z" fill="black" fill-opacity="0.5"/>
<path d="M41.0185 11.2H40.6618V11.55H41.0185V11.2Z" fill="black" fill-opacity="0.5"/>
<path d="M49.9357 11.2H49.579V11.55H49.9357V11.2Z" fill="black" fill-opacity="0.5"/>
<path d="M46.7255 11.55H47.0822V11.9H46.7255V12.25H46.3688V11.9H46.7255V11.55Z" fill="black" fill-opacity="0.5"/>
<path d="M34.2415 11.9H33.8848V12.25H34.2415V11.9Z" fill="black" fill-opacity="0.5"/>
<path d="M35.6682 11.9H35.3115V12.25H35.6682V11.9Z" fill="black" fill-opacity="0.5"/>
<path d="M37.095 11.9H36.7383V12.25H37.095V11.9Z" fill="black" fill-opacity="0.5"/>
<path d="M42.0886 11.9L44.2287 12.25V11.9H42.802H42.4453H42.0886Z" fill="black" fill-opacity="0.5"/>
<path d="M47.7956 11.9H47.4389V12.25H47.7956V11.9Z" fill="black" fill-opacity="0.5"/>
<path d="M48.509 11.9H48.1523V12.25H48.509V11.9Z" fill="black" fill-opacity="0.5"/>
<path d="M49.9357 11.9H49.579V12.25H49.9357V11.9Z" fill="black" fill-opacity="0.5"/>
<path d="M52.4325 11.9H52.0758V12.25H52.4325V11.9Z" fill="black" fill-opacity="0.5"/>
<path d="M46.0122 8.75H46.3688V9.1H46.0122V9.45H45.6555V9.1H46.0122V8.75Z" fill="black" fill-opacity="0.2"/>
<path d="M48.1523 8.75H47.7956V9.1H48.1523V8.75Z" fill="black" fill-opacity="0.2"/>
<path d="M36.3816 9.1H36.0249V9.45H36.3816V9.1Z" fill="black" fill-opacity="0.2"/>
<path d="M44.5854 9.1H44.2287V9.45H44.5854V9.1Z" fill="black" fill-opacity="0.2"/>
<path d="M50.6491 9.1H50.2924V9.45H50.6491V9.1Z" fill="black" fill-opacity="0.2"/>
<path d="M51.7192 9.1H51.3625V9.45H51.7192V9.1Z" fill="black" fill-opacity="0.2"/>
<path d="M53.5026 9.1H53.1459V9.45H53.5026V9.1Z" fill="black" fill-opacity="0.2"/>
<path d="M40.6618 9.45H41.0185V9.8H40.6618V10.15H40.3051V9.8H40.6618V9.45Z" fill="black" fill-opacity="0.2"/>
<path d="M38.5217 9.8H38.165V10.15H38.5217V9.8Z" fill="black" fill-opacity="0.2"/>
<path d="M45.6555 9.8H45.2988V10.15H45.6555V9.8Z" fill="black" fill-opacity="0.2"/>
<path d="M46.3688 9.8H46.0122V10.15H46.3688V9.8Z" fill="black" fill-opacity="0.2"/>
<path d="M48.509 9.8H48.1523V10.15H48.509V9.8Z" fill="black" fill-opacity="0.2"/>
<path d="M35.3115 10.15H34.9548V10.5H35.3115V10.15Z" fill="black" fill-opacity="0.2"/>
<path d="M36.3816 10.15V10.5L36.0249 10.85V11.2L36.7383 11.9V10.15H36.3816Z" fill="black" fill-opacity="0.2"/>
<path d="M44.5854 10.15H44.2287V10.5H44.5854V10.15Z" fill="black" fill-opacity="0.2"/>
<path d="M34.2415 10.5V11.9L34.5981 11.2V10.85V10.5H34.2415Z" fill="black" fill-opacity="0.2"/>
<path d="M41.0185 10.5H40.6618V10.85H41.0185V10.5Z" fill="black" fill-opacity="0.2"/>
<path d="M45.6555 10.85H45.2988V11.2H45.6555V10.85Z" fill="black" fill-opacity="0.2"/>
<path d="M52.4325 10.85H52.0758V11.2H52.4325V10.85Z" fill="black" fill-opacity="0.2"/>
<path d="M38.5217 11.55H38.165V11.9H38.5217V11.55Z" fill="black" fill-opacity="0.2"/>
<path d="M46.0122 11.55H45.6555V11.9H46.0122V11.55Z" fill="black" fill-opacity="0.2"/>
<path d="M40.6618 11.9H40.3051V12.25H40.6618V11.9Z" fill="black" fill-opacity="0.2"/>
<path d="M44.5854 11.9H44.2287V12.25H44.5854V11.9Z" fill="black" fill-opacity="0.2"/>
<path d="M50.2924 11.9H49.9357V12.25H50.2924V11.9Z" fill="black" fill-opacity="0.2"/>
<path d="M54.5727 11.9H54.216V12.25H54.5727V11.9Z" fill="black" fill-opacity="0.2"/>
<path d="M34.2415 8.75H33.8848V9.1H34.2415V8.75Z" fill="black" fill-opacity="0.8"/>
<path d="M37.095 8.75H36.7383V9.1H37.095V8.75Z" fill="black" fill-opacity="0.8"/>
<path d="M39.2351 8.75V9.1H39.5918H39.9485V8.75H39.2351Z" fill="black" fill-opacity="0.8"/>
<path d="M44.2287 8.75L42.0886 9.1L42.4453 9.45H42.802L44.2287 9.1V8.75Z" fill="black" fill-opacity="0.8"/>
<path d="M46.7255 8.75V9.1H47.0822H47.4389H47.7956V8.75H46.7255Z" fill="black" fill-opacity="0.8"/>
<path d="M51.3625 8.75H51.0058V9.1H51.3625V8.75Z" fill="black" fill-opacity="0.8"/>
<path d="M53.5026 8.75V9.1L54.216 9.45H54.5727L54.9293 9.1H55.9994L53.5026 8.75Z" fill="black" fill-opacity="0.8"/>
<path d="M46.3688 9.45H46.0122V9.8H46.3688V9.45Z" fill="black" fill-opacity="0.8"/>
<path d="M51.7192 9.45H51.3625V9.8H51.7192V9.45Z" fill="black" fill-opacity="0.8"/>
<path d="M42.802 10.5V10.15H44.2287V10.5H42.802V10.85H42.4453V10.5H42.802Z" fill="black" fill-opacity="0.8"/>
<path d="M34.9548 10.5H34.5981V10.85H34.9548V10.5Z" fill="black" fill-opacity="0.8"/>
<path d="M47.0822 10.5V10.85H47.7956V10.5H47.0822Z" fill="black" fill-opacity="0.8"/>
<path d="M50.2924 10.5H49.9357V10.85H50.2924V10.5Z" fill="black" fill-opacity="0.8"/>
<path d="M50.6491 10.85V11.2H51.3625V10.85H50.6491Z" fill="black" fill-opacity="0.8"/>
<path d="M46.3688 11.2H46.0122V11.55H46.3688V11.2Z" fill="black" fill-opacity="0.8"/>
<path d="M42.802 11.55V11.9H44.2287V11.55H42.802Z" fill="black" fill-opacity="0.8"/>
<path d="M47.0822 11.55L46.7255 11.9V12.25H47.4389V11.9V11.55H47.0822Z" fill="black" fill-opacity="0.8"/>
<path d="M39.9485 11.9H39.5918V12.25H39.9485V11.9Z" fill="black" fill-opacity="0.8"/>
<path d="M34.5989 8.75H34.2422V9.1H34.5989V8.75Z" fill="black" fill-opacity="0.6"/>
<path d="M36.739 8.75H36.3823V9.1H36.739V8.75Z" fill="black" fill-opacity="0.6"/>
<path d="M39.9492 8.75H40.3059V9.1H39.9492V9.45H39.5925V9.1H39.9492V8.75Z" fill="black" fill-opacity="0.6"/>
<path d="M46.7263 8.75H46.3696V9.1H46.7263V8.75Z" fill="black" fill-opacity="0.6"/>
<path d="M51.0065 8.75H50.6498V9.1H51.0065V8.75Z" fill="black" fill-opacity="0.6"/>
<path d="M47.4396 9.1H47.083V9.45H47.4396V9.1Z" fill="black" fill-opacity="0.6"/>
<path d="M36.3823 9.45H36.0256V9.8H36.3823V9.45Z" fill="black" fill-opacity="0.6"/>
<path d="M48.5097 9.45H48.153V9.8H48.5097V9.45Z" fill="black" fill-opacity="0.6"/>
<path d="M50.6498 9.45H50.2931V9.8H50.6498V9.45Z" fill="black" fill-opacity="0.6"/>
<path d="M35.3123 10.5H34.9556V10.85H35.3123V10.5Z" fill="black" fill-opacity="0.6"/>
<path d="M35.6689 10.5V10.85H36.0256L36.3823 10.5H36.0256H35.6689Z" fill="black" fill-opacity="0.6"/>
<path d="M41.0193 10.85H40.6626V11.2H41.0193V10.85Z" fill="black" fill-opacity="0.6"/>
<path d="M48.153 10.85H47.7963V11.2H48.153V10.85Z" fill="black" fill-opacity="0.6"/>
<path d="M38.5224 11.2H38.1658V11.55H38.5224V11.2Z" fill="black" fill-opacity="0.6"/>
<path d="M52.0766 11.2H52.4333V11.55H52.0766V11.9H51.7199V11.55H52.0766V11.2Z" fill="black" fill-opacity="0.6"/>
<path d="M39.5925 11.55H39.9492V11.9H40.3059V12.25H39.9492V11.9H39.5925V12.25H39.2358V11.9H39.5925V11.55Z" fill="black" fill-opacity="0.6"/>
<path d="M50.2931 11.55H49.9365V11.9H50.2931V11.55Z" fill="black" fill-opacity="0.6"/>
<path d="M5.7075 7.3501V10.8501H6.06419L5.7075 7.3501Z" fill="#2C2C2C" fill-opacity="0.5"/>
<path d="M20.3317 8.4001H19.975V8.7501H20.3317V8.4001Z" fill="#2C2C2C" fill-opacity="0.5"/>
<path d="M7.49094 9.1001H7.13425V9.4501H7.49094V9.1001Z" fill="#2C2C2C" fill-opacity="0.5"/>
<path d="M9.63106 9.8001H9.27438V10.1501H9.63106V9.8001Z" fill="#2C2C2C" fill-opacity="0.5"/>
<path d="M17.8349 9.8001V10.8501H18.1916V9.8001H17.8349Z" fill="#2C2C2C" fill-opacity="0.5"/>
<path d="M18.5483 9.8001V10.8501H18.9049V9.8001H18.5483Z" fill="#2C2C2C" fill-opacity="0.5"/>
<path d="M9.98775 10.8501H9.63106V11.2001H9.98775V10.8501Z" fill="#2C2C2C" fill-opacity="0.5"/>
<path d="M1.07056 11.2001H0.713867V11.5501H1.07056V11.2001Z" fill="#2C2C2C" fill-opacity="0.5"/>
<path d="M4.63743 11.2001H4.28075V11.5501H4.63743V11.2001Z" fill="#2C2C2C" fill-opacity="0.5"/>
<path d="M21.0451 11.2001H20.6884V11.5501H21.0451V11.2001Z" fill="#2C2C2C" fill-opacity="0.5"/>
<path d="M3.92406 11.9001H3.56737V12.2501H3.92406V11.9001Z" fill="#2C2C2C" fill-opacity="0.5"/>
<path fill-rule="evenodd" clip-rule="evenodd" d="M32.4582 7.3501H32.8149V7.7001H32.4582V7.3501ZM24.2544 8.7501L23.541 8.4001H24.2544V8.7501ZM24.9678 10.8501H25.3245V11.2001H24.9678V10.8501ZM24.6111 11.5501H24.9678V11.9001H24.6111V11.5501ZM24.2544 12.2501H24.6111V12.6001H24.2544V12.2501Z" fill="#B6BB36" fill-opacity="0.6"/>
<path d="M24.9685 7.7002V8.0502H26.7519L24.9685 7.7002Z" fill="#B6BB35" fill-opacity="0.7"/>
<path d="M24.2551 8.4002V8.7502H26.0386H26.3953L24.2551 8.4002Z" fill="#B6BB35" fill-opacity="0.7"/>
<path d="M25.6819 10.1502H25.3252V10.5002H25.6819V10.1502Z" fill="#B6BB35" fill-opacity="0.7"/>
<path d="M24.2551 13.3002H23.8984V13.6502H24.2551V13.3002Z" fill="#B6BB35" fill-opacity="0.7"/>
<path d="M38.8791 9.1001L38.5225 9.4501H38.8791H39.2358V9.1001H38.8791Z" fill="black" fill-opacity="0.9"/>
<path d="M40.6626 9.1001H40.3059V9.4501H40.6626V9.1001Z" fill="black" fill-opacity="0.9"/>
<path d="M46.7263 9.1001H46.3696V9.4501H46.7263V9.1001Z" fill="black" fill-opacity="0.9"/>
<path d="M46.0129 9.4501H45.6562V9.8001H46.0129V9.4501Z" fill="black" fill-opacity="0.9"/>
<path d="M48.153 9.4501H47.7963V9.8001H48.153V9.4501Z" fill="black" fill-opacity="0.9"/>
<path d="M50.6498 9.4501V9.8001H51.0065H51.3632V9.4501H50.6498Z" fill="black" fill-opacity="0.9"/>
<path d="M39.9492 10.1501H39.5925V10.5001H39.9492V10.1501Z" fill="black" fill-opacity="0.9"/>
<path d="M42.8027 10.1501H42.446V10.5001H42.8027V10.1501Z" fill="black" fill-opacity="0.9"/>
<path d="M48.153 10.5001H47.7963V10.8501H48.153V10.5001Z" fill="black" fill-opacity="0.9"/>
<path d="M51.3632 10.5001V10.8501V11.2001H51.7199L52.0766 10.8501V10.5001H51.7199H51.3632Z" fill="black" fill-opacity="0.9"/>
<path d="M50.6498 10.8501H50.2932V11.2001H50.6498V10.8501Z" fill="black" fill-opacity="0.9"/>
<path d="M46.0129 11.2001H45.6562V11.5501H46.0129V11.2001Z" fill="black" fill-opacity="0.9"/>
<path d="M39.5925 11.5501H39.2358V11.9001H39.5925V11.5501Z" fill="black" fill-opacity="0.9"/>
<path d="M42.8027 11.5501H42.446V11.9001H42.8027V11.5501Z" fill="black" fill-opacity="0.9"/>
<path d="M49.9365 11.5501H49.5798V11.9001H49.9365V11.5501Z" fill="black" fill-opacity="0.9"/>
<path d="M32.8156 7.7002H32.4589V8.0502H32.8156V7.7002Z" fill="#B6BB36" fill-opacity="0.3"/>
<path d="M25.6819 9.8002H25.3252V10.1502H25.6819V9.8002Z" fill="#B6BB36" fill-opacity="0.3"/>
<path d="M26.0386 11.5502H25.6819V11.9002H26.0386V11.5502Z" fill="#B6BB36" fill-opacity="0.3"/>
<path d="M25.6819 12.2502H25.3252V12.6002H25.6819V12.2502Z" fill="#B6BB36" fill-opacity="0.3"/>
<path d="M29.9621 12.6002H29.6054V12.9502H29.9621V12.6002Z" fill="#B6BB36" fill-opacity="0.3"/>
<path d="M24.2551 12.9502H23.8984V13.3002H24.2551V12.9502Z" fill="#B6BB36" fill-opacity="0.3"/>
<path d="M25.3252 12.9502H24.9685V13.3002H25.3252V12.9502Z" fill="#B6BB36" fill-opacity="0.3"/>
<path d="M44.5861 8.75H44.2294V9.1H44.5861V8.75Z" fill="black" fill-opacity="0.4"/>
<path d="M53.5033 8.75H53.1466V9.1H53.5033V8.75Z" fill="black" fill-opacity="0.4"/>
<path d="M38.5224 9.45H38.1658V9.8H38.5224V9.45Z" fill="black" fill-opacity="0.4"/>
<path d="M40.3059 9.45H39.9492V9.8H40.3059V9.45Z" fill="black" fill-opacity="0.4"/>
<path d="M51.3632 9.8H51.0065V10.15H51.3632V9.8Z" fill="black" fill-opacity="0.4"/>
<path d="M34.5989 10.15H34.2422V10.5H34.5989V10.15Z" fill="black" fill-opacity="0.4"/>
<path d="M36.0256 10.15H35.6689V10.5H36.0256V10.15Z" fill="black" fill-opacity="0.4"/>
<path d="M50.2931 10.15H49.9365V10.5H50.2931V10.15Z" fill="black" fill-opacity="0.4"/>
<path d="M39.5925 10.5H39.2358V10.85H39.5925V10.5Z" fill="black" fill-opacity="0.4"/>
<path d="M34.9556 10.85H34.5989V11.2H34.9556V10.85Z" fill="black" fill-opacity="0.4"/>
<path d="M44.5861 11.55H44.2294V11.9H44.5861V11.55Z" fill="black" fill-opacity="0.4"/>
<path d="M39.2358 11.9H38.8791V12.25H39.2358V11.9Z" fill="black" fill-opacity="0.4"/>
<path d="M8.91769 9.7998H8.561V10.1498H8.91769V9.7998Z" fill="#2C2C2D" fill-opacity="0.7"/>
<path d="M6.06419 10.8498H5.7075V11.1998H6.06419V10.8498Z" fill="#2C2C2D" fill-opacity="0.7"/>
<path d="M18.905 10.8498H18.5483V11.1998H18.905V10.8498Z" fill="#2C2C2D" fill-opacity="0.7"/>
<path d="M3.92406 11.1998H3.56737V11.5498H3.92406V11.1998Z" fill="#2C2C2D" fill-opacity="0.7"/>
<path d="M19.6183 11.5498H19.2616V11.8998H19.6183V11.5498Z" fill="#2C2C2D" fill-opacity="0.7"/>
<path d="M1.07056 11.8998H0.713867V12.2498H1.07056V11.8998Z" fill="#2C2C2D" fill-opacity="0.7"/>
<path d="M20.3317 11.8998H19.975V12.2498H20.3317V11.8998Z" fill="#2C2C2D" fill-opacity="0.7"/>
<path d="M8.55981 8.75H8.20312V9.1H8.55981V8.75Z" fill="#2C2C2D" fill-opacity="0.3"/>
<path d="M18.5471 8.75H18.1904V9.1H18.5471V8.75Z" fill="#2C2C2D" fill-opacity="0.3"/>
<path d="M21.0439 9.1H20.6872V9.45H21.0439V9.1Z" fill="#2C2C2D" fill-opacity="0.3"/>
<path d="M9.98656 10.5H9.62988V10.85H9.98656V10.5Z" fill="#2C2C2D" fill-opacity="0.3"/>
<path d="M24.2551 2.4502H23.8984V2.8002H24.2551V2.4502Z" fill="#B6BB36" fill-opacity="0.9"/>
<path d="M32.1023 7.0002H31.7456V7.3502H32.1023V7.0002Z" fill="#B6BB36" fill-opacity="0.9"/>
<path d="M27.1086 8.7502H26.7519V9.1002H27.1086V8.7502Z" fill="#B6BB36" fill-opacity="0.9"/>
<path d="M29.9621 12.2502H29.6054V12.6002H29.9621V12.2502Z" fill="#B6BB36" fill-opacity="0.9"/>
<path d="M25.3252 12.6002H24.9685V12.9502H25.3252V12.6002Z" fill="#B6BB36" fill-opacity="0.9"/>
<path d="M19.6178 8.75H19.2611V9.1H19.6178V8.75Z" fill="#2C2C2C" fill-opacity="0.8"/>
<path d="M18.9045 9.45H18.5478V9.8H18.9045V9.45Z" fill="#2C2C2C" fill-opacity="0.8"/>
<path d="M21.0446 10.85H20.6879V11.2H21.0446V10.85Z" fill="#2C2C2C" fill-opacity="0.8"/>
<path d="M0.356688 11.2H0V11.55H0.356688V11.2Z" fill="#2C2C2C" fill-opacity="0.8"/>
<path d="M30.675 9.4502H30.3184V9.8002H30.675V9.4502Z" fill="#B6BB36" fill-opacity="0.5"/>
<path d="M19.262 9.1001H18.9053V9.4501H19.262V9.1001Z" fill="#2C2C2C" fill-opacity="0.2"/>
<path d="M20.332 10.8501H19.9753V11.2001H20.332V10.8501Z" fill="#2C2C2C" fill-opacity="0.2"/>
<path d="M39.2346 9.7998H38.8779V10.1498H39.2346V9.7998Z" fill="black" fill-opacity="0.5"/>
<path d="M47.0822 10.5H46.7255V10.85H47.0822V10.5Z" fill="black" fill-opacity="0.2"/>
<path d="M35.6682 10.85H35.3115V11.2H35.6682V10.85Z" fill="black" fill-opacity="0.2"/>
<path d="M46.3688 10.85H46.0122V11.2H46.3688V10.85Z" fill="black" fill-opacity="0.2"/>
<path d="M34.5989 9.7998H34.2422V10.1498H34.5989V9.7998Z" fill="black" fill-opacity="0.8"/>
<path d="M36.7395 9.7998H36.3828V10.1498H36.7395V9.7998Z" fill="black" fill-opacity="0.6"/>
<path d="M35.3127 11.5498H34.9561V11.8998H35.3127V11.5498Z" fill="black" fill-opacity="0.6"/>
<path d="M36.0261 11.5498H35.6694V11.8998H36.0261V11.5498Z" fill="black" fill-opacity="0.6"/>
<path d="M9.27368 10.5H8.91699V10.85H9.27368V10.5Z" fill="#2C2C2C" fill-opacity="0.5"/>
<path d="M31.7461 7.7002H31.3894V8.0502H31.7461V7.7002Z" fill="#B6BB36" fill-opacity="0.6"/>
<path d="M31.3894 8.4002H31.0327V8.7502H31.3894V8.4002Z" fill="#B6BB36" fill-opacity="0.6"/>
<path d="M32.1028 8.7502H31.7461V9.1002H32.1028V8.7502Z" fill="#B6BB36" fill-opacity="0.6"/>
<path d="M31.7461 9.4502H31.3894V9.8002H31.7461V9.4502Z" fill="#B6BB36" fill-opacity="0.6"/>
<path d="M26.7524 9.8002H26.3958V10.1502H26.7524V9.8002Z" fill="#B6BB36" fill-opacity="0.6"/>
<path d="M30.3193 10.1502H29.9626V10.5002H30.3193V10.1502Z" fill="#B6BB36" fill-opacity="0.6"/>
<path d="M26.3958 10.5002H26.0391V10.8502H26.3958V10.5002Z" fill="#B6BB36" fill-opacity="0.6"/>
<path d="M30.676 11.2002H30.3193V11.5502H30.676V11.2002Z" fill="#B6BB36" fill-opacity="0.6"/>
<path d="M29.2493 11.9002H28.8926V12.2502H29.2493V11.9002Z" fill="#B6BB36" fill-opacity="0.6"/>
<path d="M30.3193 11.9002H29.9626V12.2502H30.3193V11.9002Z" fill="#B6BB36" fill-opacity="0.6"/>
<path d="M28.8926 12.6002H28.5359V12.9502H28.8926V12.6002Z" fill="#B6BB36" fill-opacity="0.6"/>
<path d="M29.2493 13.6502H28.8926V14.0002H29.2493V13.6502Z" fill="#B6BB36" fill-opacity="0.6"/>
<path d="M32.459 8.0498H32.1023V8.3998H32.459V8.0498Z" fill="#B6BB35" fill-opacity="0.7"/>
<path d="M31.0322 9.0998H30.6755V9.4498H31.0322V9.0998Z" fill="#B6BB35" fill-opacity="0.7"/>
<path d="M31.0322 10.4998H30.6755V10.8498H31.0322V10.4998Z" fill="#B6BB35" fill-opacity="0.7"/>
<path d="M29.9621 10.8498H29.6054V11.1998H29.9621V10.8498Z" fill="#B6BB35" fill-opacity="0.7"/>
<path d="M26.0386 11.1998H25.6819V11.5498H26.0386V11.1998Z" fill="#B6BB35" fill-opacity="0.7"/>
<path d="M29.6054 11.5498H29.2488V11.8998H29.6054V11.5498Z" fill="#B6BB35" fill-opacity="0.7"/>
<path d="M25.6819 11.8998H25.3252V12.2498H25.6819V11.8998Z" fill="#B6BB35" fill-opacity="0.7"/>
<path d="M29.6054 12.9498H29.2488V13.2998H29.6054V12.9498Z" fill="#B6BB35" fill-opacity="0.7"/>
<path d="M31.3889 10.1499H31.0322V10.4999H31.3889V10.1499Z" fill="#B6BB36" fill-opacity="0.3"/>
<path d="M18.5481 11.5498H18.1914V11.8998H18.5481V11.5498Z" fill="#2C2C2D" fill-opacity="0.7"/>
<path d="M5.70727 11.5498H5.35059V11.8998H5.70727V11.5498Z" fill="#2C2C2D" fill-opacity="0.3"/>
</svg>
