<svg width="871" height="311" viewBox="0 0 871 311" fill="none" xmlns="http://www.w3.org/2000/svg">
<g clip-path="url(#clip0_277_683)">
<path d="M589.173 176.443C594.094 176.159 598.165 174.11 601.863 170.874C606.146 167.127 608.073 162.19 609.897 157.059C613.242 147.65 616.776 138.309 620.203 128.929C621.661 124.941 623.106 120.946 624.441 116.915C624.972 115.311 625.726 114.681 627.54 114.696C640.035 114.794 652.53 114.747 665.025 114.747C665.628 114.747 666.23 114.747 667.066 114.747C666.714 116.053 666.482 117.244 666.074 118.373C664.537 122.631 662.968 126.878 661.365 131.112C659.675 135.576 657.885 140.003 656.229 144.48C655.025 147.735 654.036 151.07 652.831 154.325C650.076 161.771 647.715 169.397 643.226 176.314C643.55 176.628 643.868 176.769 644.186 176.77C652.426 176.782 660.666 176.786 668.907 176.765C669.495 176.763 670.084 176.552 670.672 176.439C676.073 176.433 680.46 174.134 684.413 170.619C688.002 167.427 689.922 163.391 691.414 158.931C693.54 152.577 696.043 146.35 698.348 140.055C700.244 134.877 702.072 129.674 703.957 124.491C705.015 121.582 706.075 118.67 707.264 115.813C707.469 115.319 708.324 114.794 708.881 114.792C722.315 114.735 735.749 114.748 749.469 114.748C748.834 116.665 748.287 118.445 747.658 120.196C746.351 123.829 744.996 127.445 743.67 131.072C742.249 134.959 740.85 138.854 739.42 142.738C738.018 146.547 736.578 150.343 735.171 154.151C732.4 161.652 729.954 169.294 725.543 176.312C725.865 176.628 726.183 176.769 726.501 176.77C735.013 176.782 743.524 176.786 752.036 176.765C752.625 176.763 753.214 176.555 753.804 176.444C760.111 175.918 764.902 172.816 768.982 168.084C772.678 163.797 773.767 158.443 775.668 153.435C780.384 141.009 784.915 128.513 789.419 116.008C789.826 114.879 790.353 114.741 791.29 114.742C804.127 114.75 816.964 114.743 829.801 114.762C830.416 114.763 831.031 114.981 831.625 115.094C829.409 121.385 827.343 127.484 825.113 133.522C821.857 142.337 818.278 151.037 815.235 159.922C813.361 165.39 811.062 170.597 808.137 175.543C804.375 181.905 799.755 187.577 794.51 192.806C788.64 198.657 782.195 203.666 774.994 207.758C769.425 210.922 763.713 213.738 757.51 215.405C752.539 216.74 747.585 218.17 742.345 218.17C738.048 218.17 733.752 218.53 729.455 218.53C594.057 218.551 458.66 218.547 323.262 218.547C322.328 218.547 321.395 218.547 320.128 218.547C322.146 213.002 324.087 207.71 325.996 202.407C327.779 197.455 329.496 192.48 331.303 187.538C332.653 183.846 334.1 180.189 335.794 176.56C336.753 176.663 337.422 176.774 338.09 176.774C359.224 176.783 380.358 176.785 401.492 176.768C402.286 176.767 403.079 176.567 403.872 176.459C412.285 176.162 420.501 169.29 423.09 161.518C424.459 157.408 426.334 153.465 427.675 149.347C428.754 146.031 428.703 142.679 426.365 139.705C424.497 137.327 422.01 136.256 419.086 136.249C404.015 136.216 388.944 136.233 373.873 136.233C373.138 136.233 372.402 136.233 371.346 136.233C371.669 134.738 371.805 133.373 372.26 132.124C375.802 122.399 379.414 112.699 382.985 102.984C383.909 100.468 384.675 97.8881 385.722 95.4261C385.943 94.9069 387.076 94.5109 387.792 94.5067C397.726 94.4475 407.66 94.4667 417.595 94.4666C424.286 94.4665 430.989 94.2121 437.663 94.5395C444.011 94.8509 450.039 96.6604 455.646 99.8293C460.273 102.445 464.055 106.019 466.842 110.392C469.452 114.487 471.366 119.047 471.988 123.984C472.311 126.555 472.807 129.145 472.749 131.716C472.632 136.961 471.905 142.163 470.17 147.144C467.88 153.72 465.623 160.317 463.013 166.767C461.695 170.026 459.632 172.983 458.003 176.298C458.896 176.608 459.694 176.77 460.492 176.771C502.526 176.783 544.56 176.783 586.594 176.767C587.454 176.767 588.314 176.556 589.173 176.443Z" fill="#EF7620"/>
<path d="M156.925 176.446C165.016 176.302 173.714 169.16 176.021 162.179C177.606 157.383 179.754 152.75 181.034 147.882C182.398 142.692 179.409 136.271 172.014 136.253C149.921 136.199 127.828 136.233 105.734 136.233C104.996 136.233 104.257 136.233 103.321 136.233C108.384 122.251 113.395 108.409 118.443 94.4666C119.263 94.4666 119.996 94.4666 120.729 94.4666C143.97 94.4666 167.213 94.3724 190.453 94.5336C196.165 94.5732 201.771 96.1294 206.816 98.8032C215.937 103.637 221.964 111.106 224.482 121.253C226.215 128.234 226.285 135.259 224.435 142.158C222.841 148.1 220.622 153.871 218.777 159.748C216.731 166.271 213.806 172.351 209.89 177.946C207.857 180.85 206.048 183.993 203.607 186.511C198.549 191.729 193.355 196.863 187.791 201.522C184.219 204.514 179.97 206.747 175.876 209.057C168.274 213.348 160.036 216.021 151.506 217.662C147.923 218.351 144.194 218.506 140.53 218.512C105.397 218.572 70.2644 218.548 35.1315 218.548C34.3262 218.548 33.5208 218.548 32.4232 218.548C32.5404 217.878 32.5573 217.32 32.7377 216.82C35.8668 208.156 39.0184 199.499 42.1599 190.839C43.6587 186.707 45.1373 182.568 46.6519 178.442C46.8279 177.963 47.1754 177.546 47.6542 176.947C83.2244 176.789 118.584 176.788 153.943 176.767C154.937 176.767 155.931 176.558 156.925 176.446Z" fill="#EF7620"/>
<path d="M346.074 36.9962C343.503 43.7833 341.055 50.4626 338.614 57.145C337.383 60.5167 336.142 63.885 334.952 67.271C333.18 72.3095 331.513 77.3857 329.68 82.4012C328.319 86.1244 326.708 89.7558 325.313 93.4673C324.129 96.6178 323.143 99.8419 321.985 103.003C318.2 113.342 314.338 123.654 310.582 134.004C308.484 139.787 306.593 145.646 304.503 151.432C303.052 155.45 301.358 159.379 299.885 163.389C298.117 168.203 296.501 173.072 294.761 177.897C291.557 186.784 288.484 195.724 285.009 204.505C283.249 208.953 279.966 212.409 275.861 215.013C271.845 217.561 267.473 218.593 262.752 218.562C254.041 218.504 245.328 218.546 236.246 218.546C236.881 217.161 237.316 215.905 237.99 214.793C243.241 206.126 245.723 196.33 249.328 186.996C252.608 178.507 255.745 169.961 258.854 161.407C260.139 157.872 261.077 154.211 262.368 150.678C264.245 145.536 266.351 140.477 268.265 135.348C271.281 127.265 274.228 119.157 277.185 111.052C280.055 103.189 282.934 95.328 285.749 87.4448C287.99 81.1665 290.083 74.8346 292.353 68.5667C294.229 63.3877 296.329 58.2901 298.218 53.1155C300.55 46.7259 302.73 40.2805 305.044 33.8839C307.528 27.0147 310.154 20.1959 312.568 13.3024C313.04 11.9528 313.847 12.1604 314.735 12.1594C325.68 12.1478 336.624 12.1518 347.569 12.1518C349.791 12.1518 352.012 12.1518 354.676 12.1518C353.789 14.8616 353.044 17.3388 352.169 19.7694C350.297 24.9681 348.351 30.1399 346.46 35.3318C346.283 35.8181 346.282 36.3688 346.074 36.9962Z" fill="#9D9D9C"/>
<path d="M531.181 278.52C530.368 280.705 529.591 282.738 528.768 284.754C526.058 291.393 523.291 292.947 516.888 293.09C507.568 293.3 498.24 293.118 488.916 293.187C488.024 293.193 486.987 293.601 486.27 294.152C482.755 296.85 478.745 297.257 474.602 296.641C473.516 296.48 472.26 295.556 471.642 294.615C470.749 293.252 469.688 293.122 468.302 293.127C458.167 293.159 448.032 293.144 437.897 293.144C437.157 293.144 436.418 293.144 435.488 293.144C436.07 291.312 436.49 289.583 437.205 287.986C437.423 287.497 438.446 287.124 439.107 287.115C444.168 287.044 449.231 287.076 454.257 287.076C456.391 281.051 456.196 276.717 446.626 276.413C446.597 276.289 446.508 276.133 446.552 276.044C447.356 274.451 447.909 271.766 449.045 271.49C452.197 270.722 455.516 271.178 458.385 273.245C461.989 275.839 461.598 279.547 461.293 283.216C461.19 284.459 460.734 285.672 460.397 287.074C463.398 287.074 466.34 287.133 469.275 287.019C469.785 286.999 470.536 286.344 470.719 285.823C472.744 280.046 476.854 276.411 482.662 275.145C487.188 274.159 491.665 274.867 492.743 280.139C493.078 281.774 492.493 283.604 492.277 285.338C492.215 285.838 491.971 286.314 491.722 287.067C494.696 287.067 497.469 287.309 500.178 286.994C502.563 286.717 503.618 284.481 504.37 282.542C506.799 276.275 509.008 269.923 511.284 263.598C511.411 263.247 511.38 262.839 511.428 262.406C513.419 262.406 515.299 262.406 517.599 262.406C514.497 270.724 511.458 278.871 508.399 287.075C511.887 287.075 515.399 287.055 518.91 287.081C522.074 287.105 522.955 284.745 523.823 282.407C526.162 276.105 528.456 269.786 530.803 263.486C530.963 263.056 531.388 262.434 531.724 262.411C533.377 262.299 535.042 262.36 537.089 262.36C535.033 267.943 533.114 273.152 531.181 278.52ZM479.296 282.005C477.776 283.907 476.334 285.821 476.439 288.466C476.532 290.809 477.955 291.98 480.255 291.48C483.549 290.764 486.537 287.042 486.591 283.588C486.629 281.135 484.636 279.573 482.28 280.335C481.303 280.651 480.432 281.298 479.296 282.005Z" fill="#9D9D9C"/>
<path d="M748.814 271.662C751.911 272.938 753.735 274.977 753.392 278.361C753.1 281.234 752.677 284.094 752.297 287.074C754.764 287.074 757.523 287.257 760.242 287.004C761.829 286.856 763.318 286.115 763.982 284.25C765.52 279.934 767.221 275.675 768.876 271.342C770.734 271.342 772.538 271.342 774.642 271.342C773.886 273.506 773.242 275.552 772.459 277.542C771.166 280.826 769.87 284.114 768.416 287.328C766.393 291.802 762.425 293.103 757.958 293.119C740.594 293.18 723.23 293.157 705.866 293.134C702.413 293.13 700.457 291.816 700.021 288.759C699.802 287.224 700.327 285.483 700.861 283.956C703.296 276.989 705.851 270.063 708.382 263.129C708.481 262.858 708.782 262.47 708.999 262.463C710.768 262.409 712.54 262.433 714.647 262.433C713.393 265.924 712.301 268.98 711.196 272.031C709.843 275.767 708.541 279.523 707.098 283.225C706.162 285.625 706.87 286.99 709.465 287.054C712.909 287.138 716.358 287.122 719.801 287.027C720.338 287.012 721.156 286.461 721.34 285.969C724.266 278.154 727.109 270.308 729.99 262.416C731.775 262.416 733.519 262.416 735.771 262.416C733.809 267.408 731.912 272.235 730.014 277.061C730.145 277.129 730.276 277.196 730.407 277.264C732.023 276.244 733.625 275.2 735.26 274.209C738.964 271.965 742.922 270.713 747.311 271.281C747.764 271.34 748.201 271.53 748.814 271.662ZM734.552 287.076C736.847 287.076 739.143 287.076 741.439 287.076C746.36 287.076 746.565 286.902 747.312 282.078C747.691 279.63 746.347 276.676 744.429 276.647C742.245 276.614 739.919 276.988 737.895 277.79C735.745 278.641 733.771 280.065 731.911 281.488C729.885 283.038 727.535 284.363 726.474 287.076C729.151 287.076 731.649 287.076 734.552 287.076ZM729.993 277.77C729.897 277.654 729.801 277.538 729.705 277.422C729.731 277.609 729.756 277.796 729.993 277.77Z" fill="#9D9D9C"/>
<path d="M626.533 286.427C629.064 284.896 629.636 282.324 630.521 279.987C631.592 277.16 632.515 274.277 633.525 271.352C635.476 271.352 637.404 271.352 639.63 271.352C637.637 276.653 635.712 281.776 633.799 286.864C638.655 287.692 641.149 286.928 643.173 281.217C644.208 278.297 645.249 275.378 646.373 272.492C646.566 271.996 647.169 271.357 647.626 271.32C649.338 271.181 651.068 271.264 653.001 271.264C650.997 276.142 649.257 280.889 647.117 285.448C644.753 290.485 640.407 293.056 634.958 293.093C615.912 293.222 596.863 293.142 577.815 293.137C577.617 293.137 577.418 293.087 576.966 293.027C577.619 291.154 578.187 289.31 578.944 287.546C579.084 287.221 579.988 287.1 580.541 287.096C585.134 287.061 589.728 287.028 594.32 287.109C595.476 287.129 596.098 286.736 596.361 285.699C597.892 279.661 596.087 277.222 589.869 276.542C589.284 276.478 588.685 276.533 587.961 276.533C588.62 274.684 589.21 273.024 589.791 271.393C600.652 270.34 605.399 275.231 601.923 287.075C605.053 287.075 608.152 287.13 611.248 287.056C613.491 287.003 615.811 284.706 616.733 281.863C617.701 278.882 618.632 275.886 619.702 272.941C620.069 271.932 620.597 270.926 622.155 271.216C623.385 271.445 624.691 271.262 626.387 271.262C625.405 274.119 624.575 276.718 623.616 279.269C622.653 281.831 621.562 284.344 620.348 287.316C622.526 287.036 624.47 286.786 626.533 286.427Z" fill="#9D9D9C"/>
<path d="M390.525 293.143C388.157 292.75 385.856 292.858 384.087 291.04C381.84 288.732 381.963 285.868 382.56 283.242C383.719 278.151 387.063 274.692 391.799 272.455C394.06 271.387 396.353 271.201 398.76 271.249C401.382 271.3 404.08 273.804 404.279 276.432C404.531 279.748 403.815 282.836 402.195 285.731C402.015 286.052 401.939 286.433 401.757 286.952C405.737 286.952 409.542 286.952 413.338 286.952C413.725 285.023 413.887 283.017 414.54 281.187C416.768 274.935 423.602 269.903 430.725 270.917C433.899 271.369 436.174 273.459 436.37 277.242C436.767 284.908 430.972 289.865 426.095 292.206C424.394 293.023 422.226 293.071 420.265 293.104C414.055 293.21 407.842 293.192 401.632 293.107C400.215 293.087 399.411 293.514 398.585 294.678C395.685 298.761 391.778 300.917 386.629 300.395C386.416 297.625 387.395 296.261 389.764 295.536C391.045 295.144 392.231 294.439 393.46 293.876C393.385 293.632 393.31 293.388 393.235 293.143C392.393 293.143 391.551 293.143 390.525 293.143ZM429.67 277.401C427.873 275.854 426.359 275.782 424.318 276.961C421.646 278.504 420.514 281.062 419.74 283.815C419.3 285.379 421.064 287.382 422.761 287.481C427.148 287.736 431.376 281.869 429.67 277.401ZM393.865 287.076C395.215 287.256 396.096 286.92 396.461 285.382C396.791 283.992 397.716 282.729 397.963 281.336C398.182 280.107 398.207 278.562 397.633 277.543C396.863 276.175 395.315 276.461 393.86 276.906C391.203 277.719 389.876 279.804 388.908 282.07C387.611 285.103 389.035 287.055 392.282 287.076C392.687 287.078 393.091 287.076 393.865 287.076Z" fill="#9D9D9C"/>
<path d="M368.144 271.844C369.487 271.541 370.743 271.425 371.976 271.19C376.491 270.331 379.406 272.421 380.63 275.866C380.996 276.896 380.771 277.706 379.68 278.125C378.276 278.663 376.866 279.184 375.7 279.622C374.812 278.579 374.127 277.202 373.021 276.604C371.185 275.612 367.744 276.882 366.494 278.911C365.42 280.657 364.572 282.571 363.852 284.496C363.23 286.158 364.052 287.07 365.895 287.074C369.601 287.081 373.307 287.076 377.429 287.076C376.693 289.091 376.132 290.849 375.378 292.52C375.213 292.886 374.363 293.116 373.828 293.117C364.232 293.153 354.636 293.203 345.042 293.08C343.556 293.061 341.828 292.538 340.65 291.661C338 289.687 338.812 286.994 339.759 284.395C341.282 280.21 342.752 276.006 344.275 271.821C345.412 268.693 346.596 265.583 347.778 262.417C349.659 262.417 351.537 262.417 353.659 262.417C351.873 267.271 350.129 271.978 348.413 276.694C347.585 278.971 346.773 281.255 346.023 283.558C345.464 285.274 346.466 286.826 348.207 287.062C348.605 287.116 349.017 287.076 349.422 287.076C352.111 287.076 354.801 287.076 357.515 287.076C358.207 279.937 361.966 275.135 368.144 271.844Z" fill="#9D9D9C"/>
<path d="M657.81 294.519C659.367 290.337 660.614 286.194 662.373 282.282C664.761 276.969 668.645 273.046 674.404 271.321C674.84 271.191 675.34 271.265 675.811 271.264C680.946 271.261 686.082 271.238 691.218 271.271C694.478 271.292 697.927 273.654 697.997 277.882C698.113 284.927 692.39 291.793 685.689 292.997C682.933 293.492 679.791 293.99 677.097 291.764C674.887 289.937 674.589 285.114 675.893 282.091C676.637 280.365 677.613 278.74 678.48 277.08C673.551 276.302 670.395 278.749 668.673 282.437C666.465 287.168 664.768 292.146 662.997 297.07C661.627 300.879 661.727 300.917 657.606 300.863C657.142 300.857 656.678 300.81 655.91 300.764C656.544 298.639 657.136 296.651 657.81 294.519ZM685.63 277.36C684.475 278.752 683.084 280.014 682.233 281.571C681.39 283.112 680.544 284.955 681.915 286.719C682.955 288.057 684.491 288.231 685.928 287.735C689.196 286.607 691.044 284.115 691.739 280.809C692.241 278.418 690.599 276.304 688.535 276.559C687.655 276.668 686.806 277.03 685.63 277.36Z" fill="#9E9E9D"/>
<path d="M312.236 287.076C315.95 287.076 319.462 287.078 322.975 287.076C327.305 287.073 329.563 285.254 330.884 281.068C331.845 278.019 333.045 275.043 334.219 272.067C334.365 271.698 334.998 271.326 335.426 271.301C336.967 271.209 338.517 271.265 340.357 271.265C339.401 274.115 338.556 276.779 337.61 279.406C336.947 281.244 336.077 283.008 335.418 284.848C333.386 290.52 329.936 293.03 324.085 293.126C319.088 293.209 314.086 293.223 309.09 293.109C306.722 293.055 304.263 292.966 302.021 292.301C298.114 291.142 295.885 287.747 297.02 283.123C297.924 279.44 299.313 275.873 300.588 272.291C300.75 271.836 301.504 271.356 302.021 271.309C303.487 271.177 304.972 271.263 306.732 271.263C305.801 274.03 304.888 276.553 304.116 279.119C303.681 280.564 303.069 282.135 303.264 283.549C303.604 286.016 305.206 286.959 308.184 287.068C309.466 287.115 310.751 287.076 312.236 287.076Z" fill="#9D9D9C"/>
<path d="M555.612 271.262C558.829 271.047 561.729 271.394 564.079 273.537C567.468 276.627 567.418 280.537 566.332 284.514C565.641 287.043 564.597 289.48 563.625 291.925C563.431 292.412 562.851 293.091 562.443 293.095C555.3 293.166 548.155 293.147 540.665 293.147C541.341 291.137 541.88 289.323 542.599 287.582C542.731 287.261 543.583 287.101 544.105 287.097C549.162 287.062 554.22 287.076 559.236 287.076C562.788 280.278 559.592 276.303 551.73 276.48C552.166 275.323 552.763 274.229 552.971 273.066C553.241 271.551 553.981 271.017 555.612 271.262Z" fill="#9D9D9C"/>
<path d="M575.218 271.155C576.296 268.601 577.357 266.183 578.138 263.679C578.476 262.596 578.929 262.289 579.948 262.329C581.339 262.383 582.735 262.342 584.491 262.342C580.651 272.819 576.943 282.934 573.215 293.103C571.5 293.103 569.692 293.103 567.519 293.103C567.946 291.652 568.249 290.341 568.714 289.091C570.758 283.595 572.856 278.119 574.91 272.627C575.067 272.207 575.033 271.715 575.218 271.155Z" fill="#9D9D9C"/>
<path d="M588.986 176.415C588.314 176.556 587.454 176.767 586.594 176.767C544.56 176.783 502.526 176.783 460.492 176.771C459.694 176.77 458.896 176.608 457.959 176.43C468.346 176.352 478.872 176.372 489.399 176.375C522.532 176.382 555.665 176.383 588.986 176.415Z" fill="#FF8000"/>
<path d="M156.737 176.416C155.931 176.558 154.937 176.767 153.943 176.767C118.584 176.788 83.2244 176.789 47.6783 176.796C48.006 176.658 48.5204 176.394 49.0349 176.394C84.8728 176.378 120.711 176.383 156.737 176.416Z" fill="#FF8000"/>
<path d="M744.594 267.611C743.904 267.572 743.401 267.533 742.703 267.479C743.038 266.845 743.31 266.418 743.5 265.958C744.037 264.659 744.228 262.572 745.126 262.21C746.67 261.587 748.646 262.037 750.571 262.037C749.964 263.919 749.387 265.706 748.772 267.611C747.453 267.611 746.116 267.611 744.594 267.611Z" fill="#9E9E9D"/>
<path d="M429.692 262.006C431.542 261.955 433.219 261.955 435.256 261.955C434.573 263.93 433.959 265.707 433.328 267.534C431.525 267.534 429.788 267.534 427.528 267.534C428.234 265.592 428.877 263.824 429.692 262.006Z" fill="#9E9E9D"/>
<path d="M322.784 269.278C323.42 265.997 325.583 265.566 328.246 265.987C328.689 266.057 329.142 266.069 329.864 266.132C329.214 267.813 328.692 269.363 327.997 270.829C327.805 271.235 327.108 271.592 326.617 271.629C325.211 271.735 323.791 271.666 322.15 271.666C322.376 270.857 322.574 270.148 322.784 269.278Z" fill="#9D9D9B"/>
<path d="M776.03 261.936C777.721 261.818 778.158 262.272 777.386 263.744C776.762 264.935 776.396 266.26 775.904 267.557C774.143 267.557 772.41 267.557 770.174 267.557C770.899 265.6 771.549 263.842 772.254 261.936C773.445 261.936 774.645 261.936 776.03 261.936Z" fill="#9D9D9D"/>
<path d="M315.536 271.667C314.751 271.667 314.154 271.667 313.21 271.667C313.895 269.846 314.437 268.249 315.118 266.714C315.274 266.364 315.902 266.052 316.331 266.025C317.732 265.939 319.142 265.993 320.963 265.993C320.299 267.89 319.978 269.736 319.013 271.141C318.58 271.772 316.86 271.519 315.536 271.667Z" fill="#9D9D9C"/>
<path d="M403.685 176.424C403.079 176.567 402.286 176.767 401.492 176.768C380.358 176.785 359.224 176.783 338.09 176.774C337.422 176.774 336.753 176.663 335.939 176.531C337.549 176.43 339.304 176.38 341.059 176.38C361.872 176.378 382.684 176.384 403.685 176.424Z" fill="#FF8000"/>
<path d="M753.616 176.415C753.214 176.555 752.625 176.763 752.036 176.765C743.524 176.786 735.013 176.782 726.501 176.77C726.183 176.769 725.865 176.628 725.504 176.448C734.784 176.358 744.106 176.372 753.616 176.415Z" fill="#FF8000"/>
<path d="M670.485 176.412C670.084 176.552 669.495 176.763 668.907 176.765C660.666 176.786 652.426 176.782 644.186 176.77C643.868 176.769 643.55 176.628 643.189 176.448C652.197 176.357 661.247 176.371 670.485 176.412Z" fill="#FF8000"/>
<path d="M729.887 277.876C729.756 277.796 729.731 277.609 729.705 277.422C729.801 277.538 729.897 277.654 729.887 277.876Z" fill="black"/>
</g>
<defs>
<clipPath id="clip0_277_683">
<rect width="871" height="310.608" fill="white" transform="translate(0 0.391998)"/>
</clipPath>
</defs>
</svg>
