<?xml version="1.0" encoding="utf-8"?>
<!-- Generator: Adobe Illustrator 26.0.1, SVG Export Plug-In . SVG Version: 6.00 Build 0)  -->
<svg version="1.1" id="Layer_1" xmlns="http://www.w3.org/2000/svg" xmlns:xlink="http://www.w3.org/1999/xlink" x="0px" y="0px"
	 viewBox="0 0 803.34 444.43" style="enable-background:new 0 0 803.34 444.43;" xml:space="preserve">
<style type="text/css">
	.st0{fill:#65BBB0;}
	.st1{fill:#007A61;}
	.st2{fill:#231F20;}
</style>
<path class="st0" d="M388.55,130.86h52.79v66.21h-52.79v13.25h66.08v-92.7h-66.08"/>
<path class="st1" d="M414.78,157.34h-52.79v-66.2h52.79V77.88H348.7v92.7h66.08"/>
<path class="st2" d="M190.83,258.19c1,0,1.85-0.36,2.57-1.08c0.72-0.71,1.08-1.57,1.08-2.57s-0.36-1.84-1.08-2.54
	c-0.72-0.69-1.57-1.04-2.57-1.04c-0.99,0-1.84,0.35-2.53,1.04c-0.7,0.7-1.04,1.54-1.04,2.54s0.35,1.85,1.04,2.57
	C188.99,257.83,189.84,258.19,190.83,258.19"/>
<path class="st2" d="M182.48,258.19c0.99,0,1.85-0.36,2.57-1.08c0.72-0.71,1.08-1.57,1.08-2.57s-0.36-1.84-1.08-2.54
	c-0.72-0.69-1.58-1.04-2.57-1.04s-1.84,0.35-2.53,1.04c-0.7,0.7-1.04,1.54-1.04,2.54s0.34,1.85,1.04,2.57
	C180.65,257.83,181.49,258.19,182.48,258.19"/>
<path class="st2" d="M212.51,292.46c-0.99,0-1.85,0.36-2.57,1.08c-0.72,0.72-1.08,1.58-1.08,2.57s0.36,1.84,1.08,2.54
	c0.72,0.7,1.58,1.04,2.57,1.04s1.84-0.35,2.54-1.04c0.69-0.7,1.04-1.54,1.04-2.54s-0.35-1.85-1.04-2.57
	C214.34,292.82,213.5,292.46,212.51,292.46"/>
<path class="st2" d="M189.71,279.5h-3.65c-1.49,0-2.24-0.77-2.24-2.31v-5.59c0-0.75,0.2-1.36,0.6-1.83c0.4-0.47,0.95-0.71,1.64-0.71
	h3.65V279.5z M208.93,277.04c0,1.64-0.82,2.46-2.46,2.46h-9.68v-17.58h-10.65c-2.63,0-4.8,0.77-6.48,2.31
	c-1.99,1.79-2.98,4.2-2.98,7.23v5.59c0,2.64,0.74,4.82,2.23,6.56c1.79,2.04,4.25,3.05,7.38,3.05h20.34c2.58,0,4.74-0.77,6.48-2.31
	c1.98-1.79,2.98-4.18,2.98-7.15v-15.27h-7.15"/>
<path class="st2" d="M204.16,292.46c-1,0-1.85,0.36-2.57,1.08c-0.72,0.72-1.08,1.58-1.08,2.57s0.36,1.84,1.08,2.54
	c0.72,0.7,1.57,1.04,2.57,1.04c0.99,0,1.84-0.35,2.54-1.04c0.69-0.7,1.04-1.54,1.04-2.54s-0.35-1.85-1.04-2.57
	C206,292.82,205.16,292.46,204.16,292.46"/>
<path class="st2" d="M231.43,261.92h-4.17v7.15h3.57c1.99,0,3.53,0.57,4.62,1.71c1.14,1.15,1.71,2.73,1.71,4.77
	c0,1.44-0.23,2.46-0.71,3.05c-0.47,0.59-1.28,0.89-2.42,0.89h-11.03v7.15h11.62c2.93,0,5.26-0.87,7-2.61
	c1.89-1.89,2.83-4.59,2.83-8.12c0-3.68-0.82-6.71-2.46-9.09C239.77,263.56,236.25,261.92,231.43,261.92"/>
<path class="st2" d="M290.43,275.77c-1.64-1.89-3.23-3.32-4.77-4.32c1.39-1.89,2.98-2.83,4.77-2.83c1.89,0,3.45,0.94,4.69,2.83
	C293.44,272.59,291.87,274.04,290.43,275.77 M263.16,279.5h-3.57c-1.49,0-2.23-0.82-2.23-2.46v-5.66c0-1.54,0.74-2.31,2.23-2.31
	h3.57V279.5z M361.28,277.04c0,1.64-0.8,2.46-2.39,2.46h-5.88v-17.58l-7.15,1.46v16.12h-5.89v-17.58l-7.15,1.46v16.12h-5.96v-17.58
	l-7.07,1.46v16.12h-22.8c2.09-2.63,4.15-4.59,6.18-5.89v-0.6c0-3.18-1.19-5.86-3.57-8.04c-2.54-2.29-5.59-3.43-9.16-3.43
	c-3.08,0-5.81,0.87-8.2,2.61c-3.03,2.18-4.54,5.07-4.54,8.64v0.82c1.89,1.29,3.95,3.25,6.18,5.89h-13.56v-17.58h-10.5
	c-2.78,0-5.04,0.82-6.78,2.46c-1.94,1.84-2.91,4.2-2.91,7.08v5.73c0,2.44,0.75,4.52,2.23,6.26c1.84,2.14,4.32,3.2,7.45,3.2h3.43
	v0.52c0,1.94-0.92,3.43-2.76,4.47c-1.89,1.14-4.5,1.71-7.82,1.71h-0.67l4.54,6.33c4.77-0.2,8.27-1.36,10.5-3.5
	c2.18-2.04,3.28-5.12,3.28-9.24v-0.3h16.02c1.49,0,2.86-0.42,4.1-1.27c1.29,0.85,2.66,1.27,4.1,1.27h64.29
	c2.78,0,5.04-0.87,6.78-2.61c1.84-1.79,2.76-4.07,2.76-6.86v-25.33h-7.07"/>
<path class="st2" d="M423.71,258.19c0.99,0,1.84-0.36,2.54-1.08c0.7-0.72,1.04-1.58,1.04-2.57s-0.35-1.84-1.04-2.54
	c-0.7-0.69-1.54-1.04-2.54-1.04s-1.85,0.35-2.57,1.04c-0.72,0.7-1.08,1.54-1.08,2.54s0.36,1.85,1.08,2.57
	C421.86,257.83,422.71,258.19,423.71,258.19"/>
<path class="st2" d="M415.36,258.19c0.99,0,1.84-0.36,2.53-1.08c0.7-0.72,1.04-1.58,1.04-2.57s-0.34-1.84-1.04-2.54
	c-0.69-0.69-1.54-1.04-2.53-1.04s-1.85,0.35-2.57,1.04c-0.72,0.7-1.08,1.54-1.08,2.54s0.36,1.85,1.08,2.57
	S414.37,258.19,415.36,258.19"/>
<path class="st2" d="M433.02,276.82c0,1.79-0.77,2.68-2.31,2.68h-22.42c-1.59,0-2.38-0.89-2.38-2.68v-10.36l-7.08,4.62v6.11
	c0,2.73,0.79,4.94,2.38,6.63c1.74,1.89,4.17,2.83,7.3,2.83h22.2c2.64,0,4.82-0.77,6.56-2.31c1.94-1.74,2.91-4.12,2.91-7.15v-15.27
	h-7.15"/>
<path class="st2" d="M469.52,277.19v-5.73c0-0.7,0.21-1.27,0.63-1.71s0.98-0.67,1.68-0.67h10.8v-7.15h-10.58
	c-2.63,0-4.84,0.77-6.63,2.31c-2.04,1.79-3.05,4.2-3.05,7.23v5.73c0,1.09,0.12,1.86,0.37,2.31h-6.11c-1.59,0-2.38-0.79-2.38-2.38
	v-25.25h-7.07v25.55c0,2.34,0.69,4.37,2.08,6.11c1.69,2.09,3.92,3.13,6.7,3.13h30.1v-7.15h-14.23
	C470.29,279.5,469.52,278.73,469.52,277.19"/>
<path class="st2" d="M529.34,258.19c0.99,0,1.84-0.36,2.53-1.08c0.7-0.72,1.04-1.58,1.04-2.57s-0.34-1.84-1.04-2.54
	c-0.7-0.69-1.54-1.04-2.53-1.04s-1.85,0.35-2.57,1.04c-0.72,0.7-1.08,1.54-1.08,2.54s0.36,1.85,1.08,2.57
	C527.49,257.83,528.35,258.19,529.34,258.19"/>
<path class="st2" d="M532.32,276.82c0,1.79-0.8,2.68-2.38,2.68h-3.5v-7.9c0-1.68,0.75-2.53,2.24-2.53h3.65V276.82z M504.84,279.5
	h-3.58c-1.49,0-2.23-0.82-2.23-2.46v-5.66c0-1.54,0.75-2.31,2.23-2.31h3.58V279.5z M521.89,264.6c-1.74,1.79-2.61,4.07-2.61,6.85
	v8.05h-7.3v-17.58h-10.51c-2.78,0-5.04,0.82-6.78,2.46c-1.94,1.84-2.91,4.2-2.91,7.08v5.74c0,2.43,0.75,4.52,2.23,6.26
	c1.84,2.14,4.32,3.2,7.45,3.2h3.43v0.52c0,1.94-0.92,3.43-2.76,4.47c-1.89,1.14-4.5,1.71-7.82,1.71h-0.67l4.54,6.33
	c4.77-0.2,8.27-1.37,10.5-3.5c2.19-2.04,3.28-5.11,3.28-9.24v-0.3h17.95c2.68,0,4.86-0.77,6.55-2.31c1.98-1.74,2.98-4.12,2.98-7.15
	v-15.27h-10.58C525.96,261.92,523.63,262.81,521.89,264.6"/>
<path class="st2" d="M589.09,283.3c0,1.69-1,2.54-2.98,2.54c-1.98,0-2.98-0.84-2.98-2.54v-12.14c0-1.69,0.99-2.54,2.98-2.54
	c1.99,0,2.98,0.84,2.98,2.54V283.3z M604.44,277.04c0,1.64-0.79,2.46-2.38,2.46h-5.89v-8.34c0-2.73-0.82-4.96-2.46-6.71
	c-1.88-1.93-4.42-2.91-7.6-2.91c-2.63,0-4.84,0.65-6.63,1.94c-2.29,1.74-3.43,4.29-3.43,7.67v8.34h-8.2v-4.02
	c0-3.57-0.92-6.58-2.76-9.02c-2.29-3.03-5.66-4.54-10.13-4.54h-4.32v7.15h3.72c4.22,0,6.33,2.01,6.33,6.04v4.39h-14.3v7.15h30.1
	c0.65,1.93,1.79,3.45,3.43,4.54c1.73,1.14,3.8,1.71,6.18,1.71c2.39,0,4.42-0.56,6.11-1.68c1.69-1.12,2.83-2.65,3.43-4.58h6.33
	c2.78,0,5.04-0.87,6.78-2.61c1.84-1.79,2.76-4.07,2.76-6.85v-25.33h-7.08"/>
<path class="st2" d="M617.85,251.86v38.05l7.75-3.26v-34.79H617.85z"/>
<path class="st2" d="M375.02,289.91l7.75-3.26v-34.79h-7.75V289.91z"/>
<g>
	<path class="st2" d="M176.82,364.67l1.12-6.89c3.09,1.35,6.17,2.02,9.21,2.02c3.45,0,5.17-1.27,5.17-3.82c0-1.05-0.4-1.91-1.2-2.58
		c-0.8-0.67-2.39-1.51-4.79-2.51c-3.29-1.35-5.59-2.62-6.89-3.82c-1.85-1.75-2.77-4.02-2.77-6.82c0-3.54,1.35-6.14,4.04-7.79
		c2.1-1.35,4.97-2.02,8.61-2.02c3.35,0,6.37,0.65,9.06,1.95l-1.27,6.74c-2.99-1.35-5.67-2.02-8.01-2.02c-3.2,0-4.79,1.02-4.79,3.07
		c0,0.65,0.34,1.24,1.01,1.76c0.68,0.52,2.06,1.23,4.16,2.13c3.5,1.45,5.94,2.82,7.34,4.12c2.04,1.9,3.07,4.24,3.07,7.04
		c0,3.89-1.22,6.81-3.67,8.76c-2.15,1.7-5.12,2.54-8.91,2.54C183.16,366.54,179.67,365.92,176.82,364.67"/>
</g>
<g>
	<path class="st2" d="M225.12,353.21l-3.52-12.28l-3.52,12.28H225.12z M237.04,366.02h-8.24l-1.95-6.52h-10.48l-1.95,6.52h-8.16
		l11.38-34.97h7.94"/>
</g>
<g>
	<path class="st2" d="M265.12,353.44v-19.12l7.86-3.28v23.07c0,3.39-1.02,6.19-3.07,8.39c-2.44,2.7-6.16,4.04-11.16,4.04
		c-5.59,0-9.59-1.67-11.98-5.02c-1.5-2.1-2.25-4.57-2.25-7.41v-19.79l7.79-3.28v22.39c0,1.89,0.57,3.42,1.72,4.57
		c1.1,1.2,2.67,1.8,4.72,1.8c2.3,0,4-0.75,5.09-2.25C264.69,356.46,265.12,355.09,265.12,353.44"/>
</g>
<g>
	<path class="st2" d="M305.6,352.77c0,4.04-2.12,6.07-6.36,6.07h-8.43v-20.59h8.43c4.24,0,6.36,2.02,6.36,6.07V352.77z
		 M310.02,335.62c-2.3-3.04-5.7-4.57-10.19-4.57h-16.14v34.97h16.14c4.49,0,7.89-1.52,10.19-4.57c1.84-2.45,2.77-5.46,2.77-9.06
		v-7.71C312.79,341.09,311.86,338.07,310.02,335.62"/>
</g>
<g>
	<path class="st2" d="M331.84,366.02h-7.79v-31.7l7.79-3.28V366.02z"/>
</g>
<g>
	<path class="st2" d="M403.96,353.21l-3.52-12.28l-3.52,12.28H403.96z M415.86,366.02h-8.24l-1.95-6.52h-10.48l-1.95,6.52h-8.16
		l11.39-34.97h7.94"/>
</g>
<g>
	<path class="st2" d="M435.48,366.02h-7.71v-13.78l-10.86-21.2h8.32l6.36,13.93l6.44-13.93h8.24l-10.79,21.2"/>
</g>
<g>
	<path class="st2" d="M490.68,366.02h-6.89v-27.03l-7.27,27.03h-8.31l-7.19-27.03v27.03h-6.89v-34.97h11.46l6.82,27.63l7.64-27.63
		h10.64"/>
</g>
<g>
	<path class="st2" d="M522.65,366.02h-21.19v-34.97h22.31l-1.12,6.52h-13.41v7.34h12.29l-1.05,6.52h-11.23v8.09h14.53"/>
</g>
<g>
	<path class="st2" d="M561.59,366.02H555l-14.75-22.09v22.09h-7.04v-34.97h6.59l14.75,22.09v-22.09h7.04"/>
</g>
<g>
	<path class="st2" d="M587.13,366.02h-7.79v-28.46h-8.39v-6.52h25.24l-1.12,6.52h-7.93"/>
</g>
<g>
	<path class="st2" d="M603.61,364.67l1.12-6.89c3.09,1.35,6.16,2.02,9.21,2.02c3.45,0,5.17-1.27,5.17-3.82c0-1.05-0.4-1.91-1.2-2.58
		c-0.8-0.67-2.4-1.51-4.79-2.51c-3.3-1.35-5.59-2.62-6.89-3.82c-1.85-1.75-2.77-4.02-2.77-6.82c0-3.54,1.35-6.14,4.04-7.79
		c2.1-1.35,4.97-2.02,8.61-2.02c3.34,0,6.36,0.65,9.06,1.95l-1.27,6.74c-3-1.35-5.67-2.02-8.02-2.02c-3.2,0-4.79,1.02-4.79,3.07
		c0,0.65,0.34,1.24,1.01,1.76c0.68,0.52,2.06,1.23,4.16,2.13c3.49,1.45,5.94,2.82,7.34,4.12c2.05,1.9,3.07,4.24,3.07,7.04
		c0,3.89-1.22,6.81-3.67,8.76c-2.14,1.7-5.12,2.54-8.91,2.54C609.95,366.54,606.45,365.92,603.61,364.67"/>
</g>
<g>
	<path class="st2" d="M373.93,346.4c0,1.55-0.75,2.32-2.25,2.32h-8.46v-10.48h8.46c0.7,0,1.25,0.24,1.65,0.71
		c0.4,0.48,0.6,1.09,0.6,1.84V346.4z M378.12,333.37c-1.7-1.55-3.87-2.32-6.52-2.32h-15.5v34.97h7.72v-10.11h7.63
		c3.15,0,5.62-1.03,7.42-3.07c1.49-1.75,2.24-3.94,2.24-6.59v-5.62C381.11,337.59,380.12,335.17,378.12,333.37"/>
</g>
</svg>
