<?xml version="1.0" encoding="UTF-8" standalone="no"?>
<!-- Created with Inkscape (http://www.inkscape.org/) -->

<svg
   version="1.1"
   id="svg2"
   width="321.05334"
   height="188.92"
   viewBox="0 0 321.05334 188.92"
   sodipodi:docname="simah.eps"
   xmlns:inkscape="http://www.inkscape.org/namespaces/inkscape"
   xmlns:sodipodi="http://sodipodi.sourceforge.net/DTD/sodipodi-0.dtd"
   xmlns="http://www.w3.org/2000/svg"
   xmlns:svg="http://www.w3.org/2000/svg">
  <defs
     id="defs6">
    <linearGradient
       x1="0"
       y1="0"
       x2="1"
       y2="0"
       gradientUnits="userSpaceOnUse"
       gradientTransform="matrix(430.453,-716.394,-716.394,-430.453,176.396,1470.34)"
       spreadMethod="pad"
       id="linearGradient20">
      <stop
         style="stop-opacity:1;stop-color:#aee2ea"
         offset="0"
         id="stop14" />
      <stop
         style="stop-opacity:1;stop-color:#449ad6"
         offset="0.797814"
         id="stop16" />
      <stop
         style="stop-opacity:1;stop-color:#449ad6"
         offset="1"
         id="stop18" />
    </linearGradient>
    <linearGradient
       x1="0"
       y1="0"
       x2="1"
       y2="0"
       gradientUnits="userSpaceOnUse"
       gradientTransform="matrix(430.421,-716.341,-716.341,-430.421,378.491,1412.88)"
       spreadMethod="pad"
       id="linearGradient30">
      <stop
         style="stop-opacity:1;stop-color:#aee2ea"
         offset="0"
         id="stop24" />
      <stop
         style="stop-opacity:1;stop-color:#449ad6"
         offset="0.797814"
         id="stop26" />
      <stop
         style="stop-opacity:1;stop-color:#449ad6"
         offset="1"
         id="stop28" />
    </linearGradient>
    <linearGradient
       x1="0"
       y1="0"
       x2="1"
       y2="0"
       gradientUnits="userSpaceOnUse"
       gradientTransform="matrix(430.48,-716.439,-716.439,-430.48,67.2754,1350.52)"
       spreadMethod="pad"
       id="linearGradient40">
      <stop
         style="stop-opacity:1;stop-color:#aee2ea"
         offset="0"
         id="stop34" />
      <stop
         style="stop-opacity:1;stop-color:#449ad6"
         offset="0.797814"
         id="stop36" />
      <stop
         style="stop-opacity:1;stop-color:#449ad6"
         offset="1"
         id="stop38" />
    </linearGradient>
    <linearGradient
       x1="0"
       y1="0"
       x2="1"
       y2="0"
       gradientUnits="userSpaceOnUse"
       gradientTransform="matrix(2011.76,-282.735,-282.735,-2011.76,391.919,997.51)"
       spreadMethod="pad"
       id="linearGradient52">
      <stop
         style="stop-opacity:1;stop-color:#479ad2"
         offset="0"
         id="stop44" />
      <stop
         style="stop-opacity:1;stop-color:#479ad2"
         offset="0.102041"
         id="stop46" />
      <stop
         style="stop-opacity:1;stop-color:#2f628e"
         offset="0.245902"
         id="stop48" />
      <stop
         style="stop-opacity:1;stop-color:#2f628e"
         offset="1"
         id="stop50" />
    </linearGradient>
  </defs>
  <sodipodi:namedview
     id="namedview4"
     pagecolor="#ffffff"
     bordercolor="#000000"
     borderopacity="0.25"
     inkscape:showpageshadow="2"
     inkscape:pageopacity="0.0"
     inkscape:pagecheckerboard="0"
     inkscape:deskcolor="#d1d1d1" />
  <g
     id="g8"
     inkscape:groupmode="layer"
     inkscape:label="ink_ext_XXXXXX"
     transform="matrix(1.3333333,0,0,-1.3333333,0,188.92)">
    <g
       id="g10"
       transform="scale(0.1)">
      <path
         d="m 432.844,909.527 c 0,-54.961 -44.551,-99.453 -99.465,-99.453 -54.895,0 -99.418,44.492 -99.418,99.453 0,54.942 44.523,99.403 99.418,99.403 54.914,0 99.465,-44.461 99.465,-99.403"
         style="fill:#f1511b;fill-opacity:1;fill-rule:evenodd;stroke:none"
         id="path12" />
      <path
         d="m 324.23,1344.61 c 0,-39.94 -32.367,-72.28 -72.289,-72.28 -39.89,0 -72.285,32.34 -72.285,72.28 0,39.92 32.395,72.27 72.285,72.27 39.922,0 72.289,-32.35 72.289,-72.27"
         style="fill:url(#linearGradient20);fill-opacity:1;fill-rule:evenodd;stroke:none"
         id="path22" />
      <path
         d="m 491.797,1344.61 c 0,-39.94 -32.363,-72.28 -72.254,-72.28 -39.902,0 -72.324,32.34 -72.324,72.28 0,39.92 32.422,72.27 72.324,72.27 39.891,0 72.254,-32.35 72.254,-72.27"
         style="fill:url(#linearGradient30);fill-opacity:1;fill-rule:evenodd;stroke:none"
         id="path32" />
      <path
         d="M 540.488,846.578 C 512.617,757.301 429.297,692.32 330.793,692.32 c -98.559,0 -181.879,65 -209.715,154.356 -6.422,20.664 -89.7382,42.703 -89.7382,65.488 0,23.281 83.5312,45.652 90.2542,66.758 28.301,88.538 111.258,152.698 209.199,152.698 97.867,0 180.789,-64.07 209.168,-152.522 6.758,-21.172 91.457,-43.653 91.457,-67.168 0,-22.696 -84.527,-44.649 -90.93,-65.352 z M 330.793,1242.78 C 148.152,1242.78 0,1094.67 0,911.93 0,729.234 148.152,581.305 330.793,581.305 c 182.652,0 330.738,147.929 330.738,330.625 0,182.74 -148.086,330.85 -330.738,330.85"
         style="fill:url(#linearGradient40);fill-opacity:1;fill-rule:evenodd;stroke:none"
         id="path42" />
      <path
         d="m 1155.14,595.453 c 0,-30.183 -24.27,-54.648 -54.47,-54.648 -30.2,0 -54.5,24.465 -54.5,54.648 v 436.677 c 0,30.08 24.3,54.48 54.5,54.48 30.2,0 54.47,-24.4 54.47,-54.48 z m 1149.61,642.597 c -103.65,0 -101.79,-98.91 -102.03,-99.63 l 0.46,-127.17 c 0,0 0.74,-236 0.74,-248.383 0,-12.402 -7.86,-31.094 -45.46,-33.242 l -62.62,-0.988 0.15,411.633 c 0,0 0.41,100.11 -103.14,100.11 -103.62,0 -101.81,-99.01 -101.98,-99.62 0,0 0.42,-367.287 0.42,-378.889 0,-14.043 -12.3,-32.246 -38.88,-32.246 h -131.17 l 0.02,408.285 c 0,0 0.62,100.05 -103.06,100.05 -103.63,0 -101.81,-98.91 -102.03,-99.6 0,0 0.5,-368.512 0.5,-375.493 0,-6.816 -11.23,-31.094 -42.13,-31.094 h -117.65 v 307.387 c 0,0 4.13,199.1 -255.73,199.1 -259.773,0 -256.238,-199.04 -256.387,-199.02 V 730.785 H 566.582 C 515.867,650.738 431.504,594.254 333.391,581.051 h 511.382 c 0,0 -3.835,-189.442 257.167,-189.442 261.28,0 254.73,189.11 254.73,189.11 l 838.37,0.332 c 0,0 212.87,12.324 212.87,176.316 v 380.613 c 0,0 0.5,100.07 -103.16,100.07"
         style="fill:url(#linearGradient52);fill-opacity:1;fill-rule:evenodd;stroke:none"
         id="path54" />
      <path
         d="m 92.7734,301.672 c 0,-5.844 -4.7109,-11.313 -11.3086,-11.313 -6.5976,0 -11.6835,5.09 -11.6835,11.692 0,6.019 5.0859,11.488 11.6835,11.488 6.0313,0 11.3086,-4.898 11.3086,-11.867 z M 76.7539,256.82 c -3.582,-0.191 -6.9726,-0.379 -10.1758,-0.379 -6.4062,-0.191 -12.0625,-2.453 -16.7734,-7.16 -4.7109,-4.711 -6.9727,-10.551 -6.9727,-17.531 0.1914,-16.391 6.0313,-24.68 17.5235,-24.68 5.6562,0 11.1172,0.75 16.3984,2.25 z m -14.1328,44.852 c 0,-5.844 -4.7109,-11.313 -11.3086,-11.313 -6.5937,0 -11.4922,5.09 -11.4922,11.692 0,6.019 4.8985,11.488 11.4922,11.488 6.2227,0 11.3086,-4.898 11.3086,-11.867 z M 104.27,187.281 c -9.9927,0 -17.9067,3.199 -23.938,9.61 -6.5937,-3.582 -14.6953,-5.27 -24.3047,-5.461 -20.1679,0 -32.414,14.32 -32.414,36.929 0,12.25 3.957,22.063 12.0586,29.403 8.1015,7.539 18.8437,11.308 32.039,11.308 h 6.0274 l -1.1328,8.469 c 8.1093,2.07 15.6406,3.77 22.6133,5.09 v -63.117 c 0,-10.192 4.5273,-15.274 13.7612,-15.274 h 11.872 V 187.281 H 104.27"
         style="fill:#2f628e;fill-opacity:1;fill-rule:nonzero;stroke:none"
         id="path56" />
      <path
         d="m 167.738,156.941 c 0,-5.839 -4.894,-11.312 -11.492,-11.312 -6.223,0 -11.308,4.723 -11.308,11.5 0,6.211 5.085,11.312 11.308,11.312 6.219,0 11.492,-4.902 11.492,-11.5 z m 20.918,30.34 h -14.129 c -7.539,0 -13.761,1.891 -18.472,5.649 -4.899,-3.758 -10.926,-5.649 -18.09,-5.649 h -22.422 v 16.957 h 17.523 c 9.235,0 13.754,4.91 13.754,14.891 v 19.41 l -3.769,24.313 22.429,4.898 v -48.621 c 0,-9.981 4.52,-14.891 13.754,-14.891 h 9.422 z m -50.879,-30.34 c 0,-5.839 -5.086,-11.312 -11.683,-11.312 -6.031,0 -11.492,4.723 -11.492,11.5 0,6.211 5.461,11.312 11.492,11.312 6.219,0 11.683,-4.902 11.683,-11.5"
         style="fill:#2f628e;fill-opacity:1;fill-rule:nonzero;stroke:none"
         id="path58" />
      <path
         d="m 229.719,297.141 c 0,-6.219 -4.715,-11.301 -11.313,-11.301 -6.593,0 -11.492,4.711 -11.492,11.301 0,6.597 4.899,11.5 11.492,11.5 6.223,0 11.313,-4.903 11.313,-11.5 z m 10.359,-82.539 c 0,-16.762 -10.738,-27.321 -27.887,-27.321 h -28.832 v 16.957 h 24.305 c 9.234,0 13.762,4.91 13.762,14.891 v 18.652 l -3.203,24.117 21.855,4.903 v -52.199"
         style="fill:#2f628e;fill-opacity:1;fill-rule:nonzero;stroke:none"
         id="path60" />
      <path
         d="m 306.77,187.281 h -14.7 c -17.148,0 -27.89,10.559 -27.89,28.078 v 64.071 l -3.203,24.121 22.046,5.09 v -88.95 c 0,-10.371 4.52,-15.453 13.571,-15.453 h 10.176 v -16.957"
         style="fill:#2f628e;fill-opacity:1;fill-rule:nonzero;stroke:none"
         id="path62" />
      <path
         d="m 382.504,200.66 v 34.481 l -1.508,10.558 c -2.828,0.949 -5.84,1.321 -9.043,1.321 -15.644,0 -23.555,-9.809 -23.555,-29.59 0,-15.821 6.782,-25.258 15.825,-25.258 6.789,0 12.82,2.828 18.281,8.488 z m 41.644,-13.379 h -13.566 c -6.969,0 -13.004,1.891 -17.902,5.84 -9.235,-10.93 -20.352,-16.402 -33.356,-16.402 -10.551,0 -18.656,4.722 -24.121,13.953 -4.144,-2.262 -8.855,-3.391 -14.133,-3.391 h -19.593 v 16.957 h 14.503 c 8.485,0 12.821,4.141 13.004,12.442 0.942,26.949 18.473,43.34 47.114,43.34 9.234,0 18.277,-1.508 27.324,-4.329 L 401.16,236.09 v -16.961 c 0,-9.981 4.524,-14.891 13.758,-14.891 h 9.23 v -16.957"
         style="fill:#2f628e;fill-opacity:1;fill-rule:nonzero;stroke:none"
         id="path64" />
      <path
         d="m 473.109,297.141 c 0,-6.219 -4.894,-11.301 -11.492,-11.301 -6.222,0 -11.308,4.711 -11.308,11.488 0,6.223 5.086,11.313 11.308,11.313 6.598,0 11.492,-4.903 11.492,-11.5 z m -30.148,0 c 0,-6.219 -4.898,-11.301 -11.496,-11.301 -6.223,0 -11.309,4.711 -11.309,11.488 0,6.223 5.086,11.313 11.309,11.313 6.598,0 11.496,-4.903 11.496,-11.5 z m 49.184,-109.86 h -14.133 c -7.539,0 -13.758,1.891 -18.469,5.649 -5.09,-3.758 -11.121,-5.649 -18.094,-5.649 h -22.422 v 16.957 h 17.336 c 9.235,0 13.946,4.91 13.946,14.891 v 18.281 l -3.957,24.488 22.421,5.102 v -47.871 c 0,-9.981 4.528,-14.891 13.571,-14.891 h 9.801 v -16.957"
         style="fill:#2f628e;fill-opacity:1;fill-rule:nonzero;stroke:none"
         id="path66" />
      <path
         d="m 549.594,279.051 h -55.965 v 11.687 h 8.668 c 0,16.012 8.672,26.942 23.742,26.942 6.223,0 12.063,-2.071 17.906,-6.211 -0.941,-2.449 -2.265,-5.66 -3.586,-9.418 -3.203,2.82 -6.781,4.32 -10.55,4.32 -8.481,-0.371 -12.813,-5.641 -12.625,-15.633 h 11.683 l 10.742,0.942 z m -6.031,-64.449 c 0,-16.762 -10.735,-27.321 -27.883,-27.321 h -28.832 v 16.957 h 24.304 c 9.235,0 13.758,4.91 13.758,14.891 v 18.652 l -3.199,24.117 21.852,4.903 v -52.199"
         style="fill:#2f628e;fill-opacity:1;fill-rule:nonzero;stroke:none"
         id="path68" />
      <path
         d="m 645.875,215.359 c 0,-7.91 -2.453,-14.519 -7.164,-19.589 -4.898,-5.668 -11.68,-8.489 -20.352,-8.489 h -53.515 l 8.101,16.957 h 39.383 L 577.281,263.98 559,285.84 h 24.879 l 43.34,-74.82 v 67.289 l -4.524,25.242 23.18,5.09 v -93.282"
         style="fill:#2f628e;fill-opacity:1;fill-rule:nonzero;stroke:none"
         id="path70" />
      <path
         d="m 690.316,309.02 -2.074,-25.071 v -96.668 h -18.656 v 96.481 l -2.824,23.367 23.554,1.891"
         style="fill:#2f628e;fill-opacity:1;fill-rule:nonzero;stroke:none"
         id="path72" />
      <path
         d="m 839.727,266.238 c 0,-6.218 -5.086,-11.308 -11.309,-11.308 -6.594,0 -11.492,4.711 -11.492,11.5 0,6.211 4.898,11.308 11.492,11.308 6.223,0 11.309,-4.898 11.309,-11.5 z m -30.153,0 c 0,-6.218 -5.086,-11.308 -11.308,-11.308 -6.594,0 -11.493,4.711 -11.493,11.5 0,6.211 4.899,11.308 11.493,11.308 6.222,0 11.308,-4.898 11.308,-11.5 z m 76.887,-51.449 c 0,-17.148 -10.555,-27.508 -27.699,-27.508 h -84.617 c -10.743,0 -19.411,3.77 -25.817,11.117 -6.402,7.543 -9.605,17.34 -9.605,29.582 0,9.43 2.445,18.282 7.347,26.77 h 16.774 c -5.848,-8.301 -8.86,-16.02 -8.86,-23 0,-18.27 7.539,-27.512 22.422,-27.512 h 77.641 c 9.234,0 13.945,4.91 13.945,14.891 v 18.652 l -3.578,24.117 22.047,5.102 v -52.211"
         style="fill:#2f628e;fill-opacity:1;fill-rule:nonzero;stroke:none"
         id="path74" />
      <path
         d="m 953.121,187.281 h -14.699 c -17.152,0 -27.891,10.559 -27.891,28.078 v 64.071 l -3.203,24.121 22.047,5.09 v -88.95 c 0,-10.371 4.52,-15.453 13.57,-15.453 h 10.176 v -16.957"
         style="fill:#2f628e;fill-opacity:1;fill-rule:nonzero;stroke:none"
         id="path76" />
      <path
         d="m 1024.52,245.32 -1.5,10.93 c -2.83,0.941 -6.22,1.309 -9.8,1.309 -15.833,0 -23.747,-9.778 -23.747,-29.579 0,-15.832 5.465,-23.742 16.207,-23.742 13.38,0 20.16,8.481 20.16,25.262 0,4.328 -0.38,9.609 -1.32,15.82 z m 19.79,20.918 -1.7,-19.59 v -26.207 c 0,-22.043 -14.13,-33.16 -42.21,-33.16 h -52.572 v 16.957 h 28.641 c -3.77,6.41 -5.653,13.192 -5.653,20.16 0,13.942 4.145,25.071 12.438,33.551 8.289,8.481 19.596,12.621 34.106,12.621 9.05,0 18.09,-1.5 26.95,-4.332"
         style="fill:#2f628e;fill-opacity:1;fill-rule:nonzero;stroke:none"
         id="path78" />
      <path
         d="m 1114.94,204.238 v 54.09 h -9.61 c -14.89,0 -23.74,-12.066 -23.74,-31.656 0,-14.891 5.84,-22.434 17.52,-22.434 z m 40.89,-16.957 h -22.23 c -3.2,-21.672 -16.58,-35.609 -39.76,-41.652 l -3.96,7.351 c 16.2,6.219 24.69,17.719 25.63,34.301 h -17.9 c -10.18,0 -18.47,3.02 -24.69,9.231 -6.97,6.597 -10.55,15.457 -10.55,26.758 0,13.769 3.95,24.679 12.06,33.171 8.1,8.489 18.84,12.809 32.03,12.809 h 27.51 v -65.012 h 21.86 v -16.957"
         style="fill:#2f628e;fill-opacity:1;fill-rule:nonzero;stroke:none"
         id="path80" />
      <path
         d="m 1222.89,187.281 h -12.63 c -7.53,0 -13.75,1.891 -18.65,5.84 -4.71,-3.949 -10.74,-5.84 -17.9,-5.84 h -22.99 v 16.957 h 18.09 c 9.04,0 13.56,5.082 13.56,15.453 v 58.618 l -3.58,25.242 22.43,5.09 v -88.95 c 0,-10.371 4.52,-15.453 13.57,-15.453 h 8.1 v -16.957"
         style="fill:#2f628e;fill-opacity:1;fill-rule:nonzero;stroke:none"
         id="path82" />
      <path
         d="m 1313.52,237.781 c -0.57,3.77 -3.02,7.168 -7.36,10 -5.46,3.379 -12.43,5.078 -20.53,5.078 -8.11,0 -14.89,-1.699 -20.36,-5.078 -4.52,-3.211 -7.15,-6.422 -7.72,-10 6.22,-6.031 15.45,-14.883 28.08,-26.562 z m 36.18,-50.5 h -44.86 c -5.65,0 -12.24,1.688 -19.6,4.891 -1.31,-0.742 -5.64,-0.934 -12.99,-0.742 -5.47,0 -8.11,-1.328 -8.29,-4.149 h -46.55 v 16.957 h 43.71 c 2.45,0 4.72,0.192 7.17,0.762 -4.33,3.762 -14.7,13.559 -31.29,29.391 0,8.859 4.72,16.961 14.14,24.121 9.61,7.16 21.11,10.738 34.49,10.738 13.19,0 24.68,-3.578 34.48,-10.922 9.24,-6.976 13.76,-15.078 13.76,-23.937 -1.89,-1.692 -12.44,-11.493 -31.66,-29.391 2.45,-0.57 5.08,-0.762 7.54,-0.762 h 39.95 v -16.957"
         style="fill:#2f628e;fill-opacity:1;fill-rule:nonzero;stroke:none"
         id="path84" />
      <path
         d="m 1419.76,200.66 v 34.481 l -1.51,10.558 c -2.82,0.949 -5.84,1.321 -9.04,1.321 -15.65,0 -23.56,-9.809 -23.56,-29.59 0,-15.821 6.78,-25.258 15.83,-25.258 6.78,0 12.82,2.828 18.28,8.488 z m 41.65,-13.379 h -13.57 c -6.97,0 -13.01,1.891 -17.9,5.84 -9.24,-10.93 -20.36,-16.402 -33.36,-16.402 -10.55,0 -18.65,4.722 -24.12,13.953 -4.15,-2.262 -8.86,-3.391 -14.13,-3.391 h -19.6 v 16.957 h 14.51 c 8.48,0 12.81,4.141 13,12.442 0.95,26.949 18.47,43.34 47.11,43.34 9.24,0 18.28,-1.508 27.32,-4.329 l -2.25,-19.601 v -16.961 c 0,-9.981 4.52,-14.891 13.76,-14.891 h 9.23 v -16.957"
         style="fill:#2f628e;fill-opacity:1;fill-rule:nonzero;stroke:none"
         id="path86" />
      <path
         d="m 1528.46,187.281 h -12.63 c -7.54,0 -13.76,1.891 -18.66,5.84 -4.71,-3.949 -10.74,-5.84 -17.9,-5.84 h -22.99 v 16.957 h 18.09 c 9.05,0 13.57,5.082 13.57,15.453 v 58.618 l -3.58,25.242 22.42,5.09 v -88.95 c 0,-10.371 4.53,-15.453 13.57,-15.453 h 8.11 v -16.957"
         style="fill:#2f628e;fill-opacity:1;fill-rule:nonzero;stroke:none"
         id="path88" />
      <path
         d="m 1586.48,215.359 c 0,-17.519 -10.74,-28.078 -28.08,-28.078 h -35.24 v 16.957 h 30.72 c 9.24,0 13.76,5.082 13.76,15.453 v 59.918 l -3.21,24.891 22.05,5.27 v -94.411"
         style="fill:#2f628e;fill-opacity:1;fill-rule:nonzero;stroke:none"
         id="path90" />
      <path
         d="m 1704.03,301.672 c 0,-5.844 -4.7,-11.313 -11.31,-11.313 -6.59,0 -11.68,5.09 -11.68,11.692 0,6.019 5.09,11.488 11.68,11.488 6.04,0 11.31,-4.898 11.31,-11.867 z m -16.01,-44.852 c -3.59,-0.191 -6.98,-0.379 -10.18,-0.379 -6.4,-0.191 -12.06,-2.453 -16.77,-7.16 -4.71,-4.711 -6.97,-10.551 -6.97,-17.531 0.19,-16.391 6.03,-24.68 17.52,-24.68 5.66,0 11.12,0.75 16.4,2.25 z m -14.13,44.852 c 0,-5.844 -4.72,-11.313 -11.31,-11.313 -6.59,0 -11.5,5.09 -11.5,11.692 0,6.019 4.91,11.488 11.5,11.488 6.22,0 11.31,-4.898 11.31,-11.867 z m 41.64,-114.391 c -9.98,0 -17.9,3.199 -23.93,9.61 -6.6,-3.582 -14.7,-5.27 -24.31,-5.461 -20.16,0 -32.42,14.32 -32.42,36.929 0,12.25 3.97,22.063 12.06,29.403 8.11,7.539 18.85,11.308 32.04,11.308 h 6.03 l -1.12,8.469 c 8.09,2.07 15.63,3.77 22.6,5.09 v -63.117 c 0,-10.192 4.53,-15.274 13.76,-15.274 h 11.88 v -16.957 h -16.59"
         style="fill:#2f628e;fill-opacity:1;fill-rule:nonzero;stroke:none"
         id="path92" />
      <path
         d="m 1778.25,156.941 c 0,-5.839 -4.9,-11.312 -11.49,-11.312 -6.22,0 -11.69,4.723 -11.69,11.5 0,6.211 5.47,11.312 11.69,11.312 6.02,0 11.49,-4.902 11.49,-11.5 z m 5.28,57.661 c 0,-16.762 -10.75,-27.321 -27.9,-27.321 h -28.82 v 16.957 h 24.3 c 9.24,0 13.76,4.91 13.76,14.891 v 18.652 l -3.2,24.117 21.86,4.903 z m -35.24,-57.661 c 0,-5.839 -5.09,-11.312 -11.69,-11.312 -6.02,0 -11.49,4.723 -11.49,11.5 0,6.211 5.47,11.312 11.49,11.312 6.22,0 11.69,-4.902 11.69,-11.5"
         style="fill:#2f628e;fill-opacity:1;fill-rule:nonzero;stroke:none"
         id="path94" />
      <path
         d="M 1875.65,224.781 V 204.43 l 2.83,-17.149 h -74.82 l 4.9,16.957 h 47.68 l 0.57,3.961 v 19.781 c 0,9.231 -1.89,16.399 -5.47,21.872 -3.39,4.707 -7.73,7.16 -13.19,7.16 -1.69,0 -3.77,-0.383 -5.85,-1.321 0,1.868 -0.37,5.469 -0.93,10.547 0.56,0 2.63,0.192 5.84,0.762 11.49,0 20.73,-3.969 27.7,-12.07 6.97,-7.91 10.55,-17.891 10.74,-30.149"
         style="fill:#2f628e;fill-opacity:1;fill-rule:nonzero;stroke:none"
         id="path96" />
      <path
         d="m 1949.12,204.238 v 54.09 h -9.61 c -14.88,0 -23.74,-12.066 -23.74,-31.656 0,-14.891 5.84,-22.434 17.52,-22.434 z m 40.9,-16.957 h -22.24 c -3.2,-21.672 -16.59,-35.609 -39.76,-41.652 l -3.96,7.351 c 16.2,6.219 24.69,17.719 25.63,34.301 h -17.9 c -10.18,0 -18.47,3.02 -24.69,9.231 -6.97,6.597 -10.56,15.457 -10.56,26.758 0,13.769 3.97,24.679 12.06,33.171 8.11,8.489 18.85,12.809 32.04,12.809 h 27.51 v -65.012 h 21.87 v -16.957"
         style="fill:#2f628e;fill-opacity:1;fill-rule:nonzero;stroke:none"
         id="path98" />
      <path
         d="m 2080.81,237.781 c -0.57,3.77 -3.02,7.168 -7.35,10 -5.46,3.379 -12.43,5.078 -20.54,5.078 -8.11,0 -14.88,-1.699 -20.35,-5.078 -4.52,-3.211 -7.16,-6.422 -7.73,-10 6.22,-6.031 15.45,-14.883 28.08,-26.562 z m 36.18,-50.5 h -44.85 c -5.66,0 -12.25,1.688 -19.6,4.891 -1.32,-0.742 -5.65,-0.934 -13,-0.742 -5.47,0 -8.1,-1.328 -8.29,-4.149 h -46.54 v 16.957 h 43.71 c 2.45,0 4.71,0.192 7.17,0.762 -4.34,3.762 -14.7,13.559 -31.29,29.391 0,8.859 4.71,16.961 14.14,24.121 9.61,7.16 21.1,10.738 34.48,10.738 13.19,0 24.69,-3.578 34.48,-10.922 9.24,-6.976 13.76,-15.078 13.76,-23.937 -1.88,-1.692 -12.44,-11.493 -31.66,-29.391 2.45,-0.57 5.09,-0.762 7.54,-0.762 h 39.95 v -16.957"
         style="fill:#2f628e;fill-opacity:1;fill-rule:nonzero;stroke:none"
         id="path100" />
      <path
         d="m 2271.86,187.281 h -9.99 c -7.54,0 -13.75,1.891 -18.84,5.649 -4.72,-3.758 -10.74,-5.649 -17.91,-5.649 -9.98,0 -18.27,3.578 -25.25,10.739 -5.08,-7.161 -12.62,-10.739 -22.8,-10.739 -9.61,0 -18.1,3.77 -25.44,11.117 -0.95,-1.32 -2.26,-2.628 -3.58,-3.957 -5.09,-4.711 -11.68,-7.16 -20.17,-7.16 h -21.85 v 16.957 h 17.33 c 9.04,0 13.57,4.91 13.57,14.891 l 0.37,36.359 18.47,4.153 v -46.922 -2.27 c 4.72,-4.328 10.18,-6.398 16.4,-6.398 8.86,0 13.38,4.898 13.38,14.89 v 36.547 l 18.66,4.153 V 211.02 c 4.71,-4.711 9.98,-6.969 16.2,-6.969 8.86,0 13.38,4.898 13.38,14.89 v 18.469 l -3.58,24.488 22.43,5.102 v -48.059 c 0,-9.793 4.52,-14.703 13.56,-14.703 h 5.66 v -16.957"
         style="fill:#2f628e;fill-opacity:1;fill-rule:nonzero;stroke:none"
         id="path102" />
      <path
         d="m 2330.05,215.359 c 0,-17.519 -10.74,-28.078 -28.09,-28.078 h -35.23 v 16.957 h 30.71 c 9.24,0 13.76,5.082 13.76,15.453 v 59.918 l -3.2,24.891 22.05,5.27 v -94.411"
         style="fill:#2f628e;fill-opacity:1;fill-rule:nonzero;stroke:none"
         id="path104" />
      <path
         d="m 2374.49,309.02 -2.07,-25.071 v -96.668 h -18.66 v 96.481 l -2.82,23.367 23.55,1.891"
         style="fill:#2f628e;fill-opacity:1;fill-rule:nonzero;stroke:none"
         id="path106" />
      <path
         d="m 561.527,100.359 c -4.726,0 -8.578,-1.3902 -11.554,-4.1676 -2.985,-2.7812 -4.477,-6.0117 -4.477,-9.7109 0,-3.8008 1.16,-6.9102 3.469,-9.3321 2.312,-2.4179 5.215,-4.5976 8.711,-6.5468 3.492,-1.9532 7.246,-3.8321 11.25,-5.6211 4.008,-1.8008 7.758,-4.0196 11.254,-6.6407 3.492,-2.6093 6.398,-5.8007 8.707,-9.5507 2.312,-3.75 3.472,-8.5508 3.472,-14.4102 0,-5.1406 -0.98,-9.8398 -2.929,-14.0976 -1.953,-4.2696 -4.727,-7.9102 -8.325,-10.95317 C 577.504,6.28906 573.219,3.98828 568.23,2.39844 563.246,0.808594 557.676,0 551.508,0 545.961,0 541,0.601563 536.637,1.78125 c -4.371,1.16797 -7.684,2.64063 -9.942,4.39844 1.024,3.58984 1.899,6.87111 2.621,9.85941 0.719,2.9804 1.332,6.2109 1.844,9.7109 h 2.934 c 0.41,-2.2695 1.179,-4.3984 2.312,-6.3984 1.129,-2 2.571,-3.7813 4.317,-5.3203 1.742,-1.543 3.851,-2.75 6.32,-3.6094 2.465,-0.88284 5.238,-1.31252 8.316,-1.31252 6.168,0 10.715,1.53902 13.645,4.62112 2.93,3.0703 4.394,6.7812 4.394,11.0976 0,3.9024 -1.132,7.0938 -3.394,9.5508 -2.262,2.4609 -5.082,4.6524 -8.477,6.5508 -3.386,1.9101 -7.089,3.75 -11.097,5.5508 -4.004,1.8008 -7.703,3.9687 -11.094,6.5508 -3.395,2.5585 -6.223,5.7187 -8.481,9.4687 -2.261,3.75 -3.39,8.5586 -3.39,14.4219 0,5.3476 0.949,10.0781 2.851,14.1797 1.903,4.1093 4.446,7.5586 7.629,10.3284 3.184,2.769 6.86,4.879 11.02,6.32 4.164,1.43 8.555,2.16 13.18,2.16 5.55,0 10.406,-0.672 14.57,-2 4.16,-1.34 7.726,-3.199 10.707,-5.558 -0.922,-2.3637 -1.719,-4.6528 -2.387,-6.8637 -0.672,-2.1992 -1.519,-5.0078 -2.547,-8.3985 h -2.308 c -3.289,8.8399 -9.504,13.2692 -18.653,13.2692"
         style="fill:#2f628e;fill-opacity:1;fill-rule:nonzero;stroke:none"
         id="path108" />
      <path
         d="m 643.605,35.5313 c 0.047,2.3203 0.079,4.3476 0.079,6.0976 -2.161,-1.2305 -4.45,-2.2383 -6.864,-3.0078 -2.418,-0.7695 -4.625,-1.75 -6.625,-2.9297 -2.007,-1.1797 -3.648,-2.793 -4.929,-4.8516 -1.289,-2.0703 -1.93,-5.0312 -1.93,-8.9414 0,-3.8086 0.797,-6.707 2.387,-8.707 1.59,-2.0117 3.726,-3.0117 6.394,-3.0117 3.395,0 6.145,1.2891 8.25,3.8516 2.106,2.5781 3.156,6.3789 3.156,11.3984 0,4.4297 0.028,7.8008 0.082,10.1016 z m -22.66,39.8476 c 4.985,1.8516 9.946,2.7695 14.875,2.7695 4.106,0 7.887,-0.457 11.328,-1.3867 3.442,-0.9219 6.422,-2.3828 8.942,-4.3906 2.515,-1.9922 4.473,-4.5898 5.859,-7.7813 1.387,-3.1796 2.078,-7.0507 2.078,-11.5585 0,-6.5821 -0.078,-12.6602 -0.234,-18.2618 -0.148,-5.5976 -0.23,-11.1797 -0.23,-16.7304 0,-2.4688 0.183,-4.3907 0.542,-5.7774 0.36,-1.3906 0.899,-2.44139 1.618,-3.15232 0.718,-0.73047 1.672,-1.1875 2.851,-1.39063 C 669.758,7.5 671.117,7.41016 672.66,7.41016 V 3.71094 C 669.68,2.48047 667.156,1.55078 665.105,0.929688 663.051,0.320313 660.84,0 658.477,0 654.68,0 651.594,0.929688 649.23,2.78125 646.863,4.62891 645.066,7.30859 643.832,10.8008 641.469,7.5 638.723,4.89063 635.59,2.92969 632.449,0.980469 628.52,0 623.801,0 c -3.906,0 -7.246,0.519531 -10.024,1.55078 -2.769,1.01953 -5.062,2.48828 -6.859,4.39063 -1.797,1.89843 -3.109,4.05859 -3.93,6.48049 -0.824,2.4062 -1.23,4.8476 -1.23,7.3086 0,3.3984 0.539,6.3281 1.617,8.789 1.078,2.4688 2.621,4.5703 4.621,6.3321 2.004,1.7382 4.399,3.1992 7.172,4.3789 2.77,1.1914 5.906,2.1797 9.402,3.0078 4.313,1.0312 7.731,1.9336 10.25,2.7031 2.516,0.7695 4.391,1.5391 5.625,2.3086 1.235,0.7695 2.028,1.6211 2.387,2.5391 0.359,0.9297 0.543,2.0507 0.543,3.4023 0,3.6875 -1.312,6.8477 -3.934,9.4688 -2.621,2.6211 -6.242,3.9414 -10.867,3.9414 -1.75,0 -3.547,-0.2422 -5.394,-0.7032 -1.848,-0.4687 -3.617,-1.1093 -5.321,-1.9296 -1.691,-0.8204 -3.234,-1.7188 -4.621,-2.6993 -1.386,-0.9687 -2.441,-2.0312 -3.16,-3.1601 H 609 l -2.004,9.2617 c 4.317,3.4883 8.965,6.1602 13.949,8.0078"
         style="fill:#2f628e;fill-opacity:1;fill-rule:nonzero;stroke:none"
         id="path110" />
      <path
         d="M 730.77,13.1094 C 727.891,8.78906 724.527,5.53125 720.676,3.33203 716.82,1.12109 712.426,0 707.496,0 c -7.707,0 -13.644,2.16016 -17.805,6.48047 -4.16,4.32033 -6.238,11.44923 -6.238,21.42973 0,5.2382 0.098,9.8593 0.309,13.8711 0.203,4.0078 0.304,8.0078 0.304,12.0078 0,3.3007 -0.078,6.8711 -0.226,10.7304 -0.156,3.8399 -0.34,7.7305 -0.543,11.6407 1.332,-0.2188 3.031,-0.3907 5.086,-0.5508 2.055,-0.1602 4.211,-0.2305 6.476,-0.2305 2.254,0 4.414,0.0703 6.469,0.2305 2.055,0.1601 3.75,0.332 5.09,0.5508 -0.719,-5.5586 -1.184,-11.9805 -1.391,-19.2813 -0.203,-7.2891 -0.304,-15.6172 -0.304,-24.957 0,-6.4922 1.101,-11.2305 3.312,-14.2617 2.207,-3.0391 5.32,-4.5508 9.324,-4.5508 4.621,0 8.016,2 10.176,6.0195 2.156,4 3.235,9.5508 3.235,16.6406 v 6.1719 c 0,6.2578 -0.079,12.1484 -0.235,17.6406 -0.148,5.5 -0.484,11.0196 -1,16.5782 2.875,-0.5313 6.731,-0.7813 11.563,-0.7813 2.363,0 4.523,0.0703 6.476,0.2305 1.946,0.1601 3.641,0.332 5.082,0.5508 -0.511,-5.5586 -0.843,-11.0782 -1,-16.5782 -0.152,-5.4922 -0.23,-11.3828 -0.23,-17.6406 v -6.1719 c 0,-6.2695 0.078,-12.1797 0.23,-17.7304 0.157,-5.5508 0.489,-10.89066 1,-16.01957 -1.843,0.19141 -3.672,0.30078 -5.468,0.30078 -1.801,0 -3.625,0 -5.473,0 -1.852,0 -3.68,0 -5.477,0 -1.797,0 -3.722,-0.10937 -5.773,-0.30078 l 0.613,11.08987 h -0.308"
         style="fill:#2f628e;fill-opacity:1;fill-rule:nonzero;stroke:none"
         id="path112" />
      <path
         d="m 789.805,24.0508 c 0.718,-3.6016 1.695,-6.5 2.925,-8.711 1.235,-2.2109 2.645,-3.789 4.243,-4.7695 1.59,-0.98046 3.257,-1.46092 5.004,-1.46092 4.214,0 7.679,2.37892 10.406,7.16012 2.722,4.7696 4.086,12.7188 4.086,23.8125 0,9.5469 -1.289,16.5274 -3.852,20.8789 -2.574,4.3789 -5.859,6.5586 -9.867,6.5586 -1.645,0 -3.285,-0.4609 -4.934,-1.3789 -1.644,-0.9414 -3.132,-2.5508 -4.464,-4.8711 -1.34,-2.3007 -2.446,-5.4179 -3.317,-9.3086 -0.875,-3.9101 -1.308,-8.789 -1.308,-14.6523 0,-5.2383 0.355,-9.668 1.078,-13.2578 z m 47.629,3.0781 c 0.203,-8.418 0.511,-16.7891 0.921,-25.10937 -1.335,0.19141 -3.035,0.30078 -5.085,0.30078 -2.059,0 -4.215,0 -6.473,0 -2.055,0 -4.031,0 -5.938,0 -1.898,0 -3.363,-0.10937 -4.39,-0.30078 0.097,0.19141 0.207,0.85938 0.308,1.99219 0.102,1.12891 0.231,2.41797 0.387,3.85937 0.149,1.42969 0.281,2.77731 0.387,4.00781 0.094,1.2305 0.148,2 0.148,2.3008 L 817.395,14.5 C 815.438,9.87109 812.77,6.28906 809.379,3.78125 805.984,1.26172 801.309,0 795.352,0 c -5.239,0 -9.711,1.01172 -13.411,3.01172 -3.699,2 -6.73,4.80859 -9.093,8.39848 -2.364,3.5898 -4.114,7.8086 -5.243,12.6406 -1.128,4.8281 -1.691,10.0195 -1.691,15.5586 0,5.5625 0.77,10.6719 2.309,15.3515 1.543,4.668 3.648,8.7383 6.32,12.168 2.668,3.4414 5.832,6.1406 9.48,8.0899 3.649,1.9531 7.524,2.9296 11.637,2.9296 4.621,0 8.758,-1.0664 12.406,-3.2265 3.649,-2.1602 6.348,-4.8906 8.094,-8.1836 h 0.309 c 0,9.2617 -0.102,17.9726 -0.309,26.1406 -0.207,8.1601 -0.515,16.6211 -0.926,25.3511 1.332,-0.21 3.032,-0.378 5.086,-0.539 2.059,-0.152 4.215,-0.222 6.477,-0.222 2.258,0 4.414,0.07 6.473,0.222 2.05,0.161 3.75,0.329 5.085,0.539 -0.41,-8.64 -0.718,-17.16 -0.921,-25.5894 -0.211,-8.4218 -0.309,-17.6718 -0.309,-27.7422 V 54.8789 c 0,-10.0703 0.098,-19.3203 0.309,-27.75"
         style="fill:#2f628e;fill-opacity:1;fill-rule:nonzero;stroke:none"
         id="path114" />
      <path
         d="m 857.395,59.582 c -0.153,5.5 -0.493,11.0196 -1.004,16.5782 1.441,-0.2188 3.136,-0.3907 5.089,-0.5508 1.954,-0.1602 4.106,-0.2305 6.473,-0.2305 4.828,0 8.684,0.25 11.559,0.7813 -0.512,-5.5586 -0.844,-11.0782 -1,-16.5782 -0.153,-5.4922 -0.231,-11.3828 -0.231,-17.6406 v -6.1719 c 0,-6.2695 0.078,-12.1797 0.231,-17.7304 0.156,-5.5508 0.488,-10.89066 1,-16.01957 -1.332,0.19141 -3.004,0.30078 -5.008,0.30078 -2.004,0 -4.188,0 -6.551,0 -2.367,0 -4.519,0 -6.473,0 -1.953,0 -3.648,-0.10937 -5.089,-0.30078 0.511,5.12891 0.851,10.46877 1.004,16.01957 0.156,5.5507 0.234,11.4609 0.234,17.7304 v 6.1719 c 0,6.2578 -0.078,12.1484 -0.234,17.6406 z m 1.925,54.328 c 2.364,2.36 5.243,3.559 8.633,3.559 3.391,0 6.266,-1.199 8.633,-3.559 2.359,-2.359 3.547,-5.23 3.547,-8.629 0,-3.39 -1.188,-6.2693 -3.547,-8.6326 -2.367,-2.3671 -5.242,-3.539 -8.633,-3.539 -3.39,0 -6.269,1.1719 -8.633,3.539 -2.363,2.3633 -3.543,5.2426 -3.543,8.6326 0,3.399 1.18,6.27 3.543,8.629"
         style="fill:#2f628e;fill-opacity:1;fill-rule:nonzero;stroke:none"
         id="path116" />
      <path
         d="m 1027.17,12.8789 c -0.61,-2.207 -1.02,-4.39843 -1.23,-6.54687 C 1017.62,2.10938 1007.14,0 994.496,0 c -8.937,0 -16.93,1.26172 -23.969,3.78125 -7.035,2.50781 -13,6.07031 -17.875,10.64065 -4.882,4.5664 -8.609,9.9883 -11.175,16.2578 -2.571,6.2695 -3.856,13.0586 -3.856,20.3398 0,10.6914 1.672,19.7696 5.012,27.211 3.336,7.4492 7.805,13.5078 13.406,18.1914 5.602,4.6801 12.102,8.0981 19.496,10.2501 7.403,2.16 15.156,3.238 23.278,3.238 2.667,0 5.497,-0.211 8.477,-0.621 2.98,-0.418 5.86,-0.949 8.63,-1.617 2.78,-0.672 5.42,-1.461 7.94,-2.391 2.52,-0.922 4.65,-1.902 6.4,-2.929 -1.03,-2.5629 -1.83,-5.1606 -2.39,-7.77 -0.57,-2.6328 -0.95,-5.2812 -1.16,-7.9531 h -2.15 c -3.91,4.9414 -7.92,8.4531 -12.03,10.5625 -4.11,2.1094 -8.94,3.1676 -14.487,3.1676 -4.113,0 -8.246,-0.9371 -12.406,-2.777 -4.16,-1.8515 -7.942,-4.6836 -11.328,-8.4804 -3.395,-3.8008 -6.145,-8.6719 -8.25,-14.5625 -2.11,-5.918 -3.161,-12.9805 -3.161,-21.1993 0,-7.9179 1.082,-14.6679 3.239,-20.2695 2.16,-5.6015 4.957,-10.1719 8.398,-13.7187 3.445,-3.543 7.352,-6.1407 11.715,-7.7813 4.371,-1.64061 8.762,-2.46092 13.18,-2.46092 2.46,0 4.98,0.26953 7.55,0.83984 2.57,0.56248 5.09,1.33208 7.56,2.31248 2.46,0.9766 4.8,2.1797 7.01,3.6172 2.21,1.4414 4.13,3.0313 5.78,4.793 l 2,-1.2422 c -0.82,-2.1602 -1.54,-4.3477 -2.16,-6.5508"
         style="fill:#2f628e;fill-opacity:1;fill-rule:nonzero;stroke:none"
         id="path118" />
      <path
         d="m 1065.24,57.0391 c 2.68,7.0898 5.91,12.3007 9.72,15.6406 3.79,3.3398 8.32,5.0117 13.56,5.0117 0.51,0 0.95,-0.0312 1.31,-0.0703 0.36,-0.0625 0.75,-0.082 1.16,-0.082 -0.31,-1.5391 -0.55,-3.1875 -0.7,-4.9375 -0.15,-1.7422 -0.23,-3.8008 -0.23,-6.1602 v -4.9297 c 0,-0.8203 0,-1.7031 0,-2.6211 0,-0.9297 0.05,-1.8008 0.15,-2.6211 l -1.38,-1.2382 c -1.03,0.6171 -2.18,1.1289 -3.47,1.5468 -1.29,0.4102 -2.75,0.6133 -4.39,0.6133 -4.63,0 -8.27,-1.5195 -10.95,-4.5508 -2.67,-3.0312 -4,-6.6015 -4,-10.6992 v -6.1719 c 0,-6.2695 0.07,-12.1797 0.23,-17.7304 0.15,-5.5508 0.48,-10.89066 1,-16.01957 -1.34,0.19141 -3,0.30078 -4.98,0.30078 -1.99,0 -4.16,0 -6.51,0 -2.35,0 -4.49,0 -6.43,0 -1.94,0 -3.62,-0.10937 -5.05,-0.30078 0.45,5.12891 0.74,10.46877 0.88,16.01957 0.13,5.5507 0.2,11.4609 0.2,17.7304 v 6.1719 c 0,6.2578 -0.07,12.1484 -0.2,17.6406 -0.14,5.5 -0.43,11.0196 -0.88,16.5782 1.74,-0.2188 3.49,-0.3907 5.28,-0.5508 1.78,-0.1602 3.55,-0.2305 5.28,-0.2305 1.73,0 3.49,0.0703 5.28,0.2305 1.78,0.1601 3.54,0.332 5.28,0.5508 l -0.46,-18.8086 0.3,-0.3125"
         style="fill:#2f628e;fill-opacity:1;fill-rule:nonzero;stroke:none"
         id="path120" />
      <path
         d="m 1143.78,64.2813 c -1.7,4.6289 -4.55,6.9375 -8.56,6.9375 -2.26,0 -4.16,-0.7696 -5.7,-2.3086 -1.54,-1.5391 -2.77,-3.5196 -3.7,-5.9414 -0.92,-2.418 -1.62,-5.129 -2.08,-8.1602 -0.46,-3.0391 -0.75,-6.0469 -0.84,-9.0195 h 23.73 c -0.2,7.6992 -1.16,13.8593 -2.85,18.4922 z m -19.65,-36.9922 c 0.82,-3.5899 2.08,-6.6993 3.78,-9.3282 1.69,-2.6211 3.85,-4.6718 6.47,-6.1601 2.62,-1.4922 5.67,-2.23049 9.17,-2.23049 7.09,0 13.41,2.30859 18.95,6.92969 l 1.86,-1.3906 -3.39,-8.62893 c -2.58,-1.94922 -5.66,-3.53125 -9.25,-4.69922 C 1148.12,0.601563 1143.39,0 1137.54,0 c -5.04,0 -9.82,0.710938 -14.34,2.08984 -4.52,1.39063 -8.5,3.67969 -11.95,6.85938 -3.44,3.17968 -6.16,7.22268 -8.16,12.08988 -2.01,4.8828 -3.01,10.7226 -3.01,17.5 0,6.6797 0.9,12.4804 2.7,17.4218 1.8,4.9297 4.29,9.0391 7.47,12.3282 3.19,3.289 6.97,5.7617 11.33,7.4023 4.37,1.6367 9.12,2.457 14.26,2.457 10.18,0 17.96,-2.9765 23.35,-8.9375 5.4,-5.9609 8.1,-14.3828 8.1,-25.2812 v -3.2305 c 0,-0.9297 -0.06,-1.5273 -0.16,-1.8476 h -44.23 c 0,-4.1211 0.41,-7.9727 1.23,-11.5625"
         style="fill:#2f628e;fill-opacity:1;fill-rule:nonzero;stroke:none"
         id="path122" />
      <path
         d="m 1201.04,24.0508 c 0.72,-3.6016 1.69,-6.5 2.92,-8.711 1.24,-2.2109 2.65,-3.789 4.25,-4.7695 1.59,-0.98046 3.25,-1.46092 5,-1.46092 4.22,0 7.68,2.37892 10.41,7.16012 2.72,4.7696 4.09,12.7188 4.09,23.8125 0,9.5469 -1.29,16.5274 -3.86,20.8789 -2.57,4.3789 -5.85,6.5586 -9.87,6.5586 -1.64,0 -3.28,-0.4609 -4.93,-1.3789 -1.64,-0.9414 -3.13,-2.5508 -4.47,-4.8711 -1.33,-2.3007 -2.44,-5.4179 -3.31,-9.3086 -0.87,-3.9101 -1.31,-8.789 -1.31,-14.6523 0,-5.2383 0.36,-9.668 1.08,-13.2578 z m 47.62,3.0781 c 0.21,-8.418 0.52,-16.7891 0.93,-25.10937 -1.34,0.19141 -3.03,0.30078 -5.09,0.30078 -2.05,0 -4.21,0 -6.47,0 -2.05,0 -4.04,0 -5.93,0 -1.9,0 -3.37,-0.10937 -4.39,-0.30078 0.09,0.19141 0.2,0.85938 0.3,1.99219 0.11,1.12891 0.23,2.41797 0.39,3.85937 0.15,1.42969 0.28,2.77731 0.38,4.00781 0.11,1.2305 0.16,2 0.16,2.3008 L 1228.63,14.5 C 1226.68,9.87109 1224,6.28906 1220.62,3.78125 1217.22,1.26172 1212.54,0 1206.59,0 c -5.24,0 -9.71,1.01172 -13.41,3.01172 -3.7,2 -6.73,4.80859 -9.1,8.39848 -2.36,3.5898 -4.11,7.8086 -5.24,12.6406 -1.13,4.8281 -1.69,10.0195 -1.69,15.5586 0,5.5625 0.77,10.6719 2.31,15.3515 1.54,4.668 3.65,8.7383 6.32,12.168 2.67,3.4414 5.83,6.1406 9.48,8.0899 3.65,1.9531 7.52,2.9296 11.63,2.9296 4.63,0 8.76,-1.0664 12.42,-3.2265 3.64,-2.1602 6.33,-4.8906 8.08,-8.1836 h 0.32 c 0,9.2617 -0.11,17.9726 -0.32,26.1406 -0.2,8.1601 -0.51,16.6211 -0.92,25.3511 1.33,-0.21 3.03,-0.378 5.08,-0.539 2.06,-0.152 4.22,-0.222 6.48,-0.222 2.26,0 4.42,0.07 6.47,0.222 2.06,0.161 3.75,0.329 5.09,0.539 -0.41,-8.64 -0.72,-17.16 -0.93,-25.5894 -0.2,-8.4218 -0.3,-17.6718 -0.3,-27.7422 V 54.8789 c 0,-10.0703 0.1,-19.3203 0.3,-27.75"
         style="fill:#2f628e;fill-opacity:1;fill-rule:nonzero;stroke:none"
         id="path124" />
      <path
         d="m 1268.63,59.582 c -0.15,5.5 -0.49,11.0196 -1,16.5782 1.43,-0.2188 3.13,-0.3907 5.08,-0.5508 1.96,-0.1602 4.12,-0.2305 6.48,-0.2305 4.82,0 8.68,0.25 11.56,0.7813 -0.52,-5.5586 -0.85,-11.0782 -1,-16.5782 -0.16,-5.4922 -0.24,-11.3828 -0.24,-17.6406 v -6.1719 c 0,-6.2695 0.08,-12.1797 0.24,-17.7304 0.15,-5.5508 0.48,-10.89066 1,-16.01957 -1.34,0.19141 -3.01,0.30078 -5.01,0.30078 -2,0 -4.19,0 -6.55,0 -2.36,0 -4.52,0 -6.48,0 -1.95,0 -3.65,-0.10937 -5.08,-0.30078 0.51,5.12891 0.85,10.46877 1,16.01957 0.16,5.5507 0.23,11.4609 0.23,17.7304 v 6.1719 c 0,6.2578 -0.07,12.1484 -0.23,17.6406 z m 1.93,54.328 c 2.36,2.36 5.24,3.559 8.63,3.559 3.39,0 6.27,-1.199 8.63,-3.559 2.37,-2.359 3.55,-5.23 3.55,-8.629 0,-3.39 -1.18,-6.2693 -3.55,-8.6326 -2.36,-2.3671 -5.24,-3.539 -8.63,-3.539 -3.39,0 -6.27,1.1719 -8.63,3.539 -2.37,2.3633 -3.55,5.2426 -3.55,8.6326 0,3.399 1.18,6.27 3.55,8.629"
         style="fill:#2f628e;fill-opacity:1;fill-rule:nonzero;stroke:none"
         id="path126" />
      <path
         d="m 1348.86,71.2188 c 0,-1.3282 0.15,-2.6172 0.47,-3.8477 l -13.57,0.3086 c -0.21,-2.3711 -0.39,-5.0977 -0.55,-8.1797 -0.14,-3.0781 -0.25,-6.2109 -0.3,-9.3984 -0.06,-3.1797 -0.11,-6.2696 -0.15,-9.25 -0.05,-2.9727 -0.08,-5.4922 -0.08,-7.543 0,-5.3594 0.12,-9.668 0.39,-12.9492 0.25,-3.2891 0.69,-5.8086 1.31,-7.5586 0.61,-1.75 1.48,-2.92971 2.61,-3.53908 1.14,-0.62109 2.57,-0.92969 4.32,-0.92969 1.95,0 3.39,0.12891 4.32,0.38672 0.92,0.25 1.84,0.64063 2.77,1.15234 v -6.3125 c -2.06,-0.9375 -4.62,-1.75781 -7.7,-2.48046 C 1339.61,0.371094 1336.58,0 1333.6,0 c -13.05,0 -19.58,7.82031 -19.58,23.4414 0,2.9688 0.05,6.3399 0.16,10.0899 0.1,3.75 0.23,7.6093 0.38,11.5585 0.16,3.961 0.28,7.8594 0.39,11.711 0.1,3.8594 0.16,7.418 0.16,10.7187 l -10.79,-0.1484 c 0.3,1.2305 0.46,2.5195 0.46,3.8477 0,1.2304 -0.16,2.6132 -0.46,4.1601 l 10.79,-0.457 c 0,3.1797 -0.06,6.1562 -0.16,8.9297 -0.11,2.7773 -0.26,6.1172 -0.46,10.0195 3.6,1.4492 7.14,2.957 10.64,4.5508 3.48,1.5901 6.98,3.2581 10.48,5.0081 l 1.54,-1.078 c -0.21,-1.641 -0.39,-3.5707 -0.55,-5.7817 -0.14,-2.2109 -0.3,-4.5117 -0.46,-6.9414 -0.15,-2.4101 -0.25,-4.8789 -0.3,-7.3906 -0.06,-2.5195 -0.08,-4.9102 -0.08,-7.168 l 13.57,0.3086 c -0.32,-1.5469 -0.47,-2.9297 -0.47,-4.1601"
         style="fill:#2f628e;fill-opacity:1;fill-rule:nonzero;stroke:none"
         id="path128" />
      <path
         d="m 1452.2,47.4102 c -3.24,3.5312 -7.93,5.3086 -14.1,5.3086 -1.44,0 -2.68,-0.0196 -3.71,-0.0782 -1.02,-0.0508 -2,-0.082 -2.92,-0.082 0,-2.1367 -0.02,-4.3867 -0.07,-6.6992 -0.06,-2.3086 -0.08,-5.0508 -0.08,-8.2383 0,-2.4727 0.02,-4.9922 0.08,-7.5625 0.05,-2.5586 0.07,-5.0781 0.07,-7.5586 0,-2.4609 0.02,-4.7187 0.07,-6.7695 0.06,-2.0508 0.08,-3.75 0.08,-5.0821 1.45,-0.1171 2.77,-0.1875 4.01,-0.2265 1.24,-0.0625 2.72,-0.0821 4.47,-0.0821 2.26,0 4.42,0.461 6.47,1.379 2.06,0.9218 3.86,2.2929 5.4,4.0898 1.55,1.793 2.78,3.9805 3.7,6.5508 0.92,2.5703 1.39,5.5508 1.39,8.9297 0,7.1914 -1.62,12.5625 -4.86,16.1211 z m 2.93,40.6796 c -0.57,2.211 -1.52,4.1211 -2.85,5.6993 -1.34,1.6093 -3.03,2.8828 -5.09,3.8593 -2.05,0.9805 -4.62,1.4727 -7.71,1.4727 -2.25,0 -3.83,-0.0313 -4.69,-0.082 -0.88,-0.0508 -1.83,-0.1875 -2.86,-0.3789 -0.2,-3.8086 -0.36,-7.6602 -0.46,-11.5704 -0.1,-3.8984 -0.15,-7.1796 -0.15,-9.8593 0,-2.7696 0.02,-5.4297 0.08,-7.9414 0.05,-2.5196 0.07,-5.1094 0.07,-7.7774 h 6.94 c 2.16,0 4.29,0.4102 6.39,1.2266 2.1,0.8203 3.98,2.0312 5.63,3.6211 1.64,1.5898 2.98,3.6289 4,6.0898 1.03,2.4727 1.55,5.3516 1.55,8.6289 0,2.4727 -0.29,4.8008 -0.85,7.0117 z m -46.82,-0.1484 c -0.23,6.6406 -0.58,13.2776 -1.04,19.9686 1.74,-0.211 3.65,-0.39 5.7,-0.539 2.06,-0.16 4.37,-0.242 6.94,-0.242 4.42,0 9.05,0.133 13.87,0.391 4.83,0.261 9.45,0.39 13.88,0.39 4.62,0 8.83,-0.461 12.63,-1.398 3.8,-0.922 7.09,-2.332 9.87,-4.242 2.77,-1.891 4.91,-4.3481 6.39,-7.3911 1.5,-3.0391 2.24,-6.6484 2.24,-10.8672 0,-4.2226 -0.88,-7.832 -2.63,-10.8633 -1.76,-3.039 -3.89,-5.5468 -6.42,-7.5586 -2.53,-2 -5.27,-3.5703 -8.2,-4.6992 -2.95,-1.1289 -5.6,-1.9023 -7.98,-2.3125 v -0.3086 c 2.37,-0.0976 5.14,-0.6484 8.32,-1.6211 3.18,-0.9765 6.2,-2.4765 9.07,-4.5468 2.87,-2.0625 5.31,-4.6914 7.3,-7.9297 2,-3.2422 3.01,-7.1719 3.01,-11.793 0,-5.5586 -1.01,-10.2891 -3.01,-14.1875 -1.99,-3.9101 -4.66,-7.0898 -8,-9.55077 -3.33,-2.46094 -7.14,-4.17969 -11.45,-5.16016 -4.31,-0.98047 -8.77,-1.46094 -13.38,-1.46094 -4.11,0 -7.93,0.05078 -11.46,0.14063 -3.54,0.10937 -7.26,0.16015 -11.16,0.16015 -2.76,0 -5.61,0 -8.53,0 -2.92,0 -5.26,-0.10937 -7,-0.30078 0.46,6.35938 0.81,12.87107 1.04,19.49217 0.23,6.6289 0.35,14.1992 0.35,22.7266 v 20.9609 c 0,8.5391 -0.12,16.1094 -0.35,22.7422"
         style="fill:#2f628e;fill-opacity:1;fill-rule:nonzero;stroke:none"
         id="path130" />
      <path
         d="m 1544.61,13.1094 c -2.88,-4.32034 -6.24,-7.57815 -10.1,-9.77737 C 1530.65,1.12109 1526.27,0 1521.34,0 c -7.72,0 -13.64,2.16016 -17.8,6.48047 -4.17,4.32033 -6.25,11.44923 -6.25,21.42973 0,5.2382 0.1,9.8593 0.31,13.8711 0.2,4.0078 0.3,8.0078 0.3,12.0078 0,3.3007 -0.07,6.8711 -0.22,10.7304 -0.16,3.8399 -0.35,7.7305 -0.54,11.6407 1.33,-0.2188 3.03,-0.3907 5.08,-0.5508 2.06,-0.1602 4.22,-0.2305 6.47,-0.2305 2.27,0 4.43,0.0703 6.48,0.2305 2.06,0.1601 3.75,0.332 5.08,0.5508 -0.72,-5.5586 -1.18,-11.9805 -1.38,-19.2813 -0.21,-7.2891 -0.32,-15.6172 -0.32,-24.957 0,-6.4922 1.11,-11.2305 3.33,-14.2617 2.2,-3.0391 5.31,-4.5508 9.32,-4.5508 4.62,0 8.01,2 10.17,6.0195 2.16,4 3.24,9.5508 3.24,16.6406 v 6.1719 c 0,6.2578 -0.08,12.1484 -0.23,17.6406 -0.16,5.5 -0.49,11.0196 -1,16.5782 2.87,-0.5313 6.73,-0.7813 11.55,-0.7813 2.36,0 4.52,0.0703 6.48,0.2305 1.95,0.1601 3.65,0.332 5.08,0.5508 -0.51,-5.5586 -0.85,-11.0782 -0.99,-16.5782 -0.16,-5.4922 -0.24,-11.3828 -0.24,-17.6406 v -6.1719 c 0,-6.2695 0.08,-12.1797 0.24,-17.7304 0.14,-5.5508 0.48,-10.89066 0.99,-16.01957 -1.84,0.19141 -3.67,0.30078 -5.46,0.30078 -1.8,0 -3.63,0 -5.47,0 -1.86,0 -3.68,0 -5.48,0 -1.8,0 -3.72,-0.10937 -5.78,-0.30078 l 0.61,11.08987 h -0.3"
         style="fill:#2f628e;fill-opacity:1;fill-rule:nonzero;stroke:none"
         id="path132" />
      <path
         d="m 1604.88,57.0391 c 2.67,7.0898 5.91,12.3007 9.71,15.6406 3.8,3.3398 8.32,5.0117 13.56,5.0117 0.51,0 0.95,-0.0312 1.31,-0.0703 0.36,-0.0625 0.75,-0.082 1.16,-0.082 -0.31,-1.5391 -0.54,-3.1875 -0.7,-4.9375 -0.14,-1.7422 -0.22,-3.8008 -0.22,-6.1602 v -4.9297 c 0,-0.8203 0,-1.7031 0,-2.6211 0,-0.9297 0.05,-1.8008 0.15,-2.6211 l -1.39,-1.2382 c -1.03,0.6171 -2.18,1.1289 -3.47,1.5468 -1.28,0.4102 -2.74,0.6133 -4.38,0.6133 -4.63,0 -8.29,-1.5195 -10.95,-4.5508 -2.68,-3.0312 -4.01,-6.6015 -4.01,-10.6992 v -6.1719 c 0,-6.2695 0.07,-12.1797 0.23,-17.7304 0.16,-5.5508 0.49,-10.89066 1,-16.01957 -1.33,0.19141 -2.99,0.30078 -4.98,0.30078 -1.99,0 -4.16,0 -6.51,0 -2.34,0 -4.48,0 -6.43,0 -1.93,0 -3.62,-0.10937 -5.04,-0.30078 0.45,5.12891 0.74,10.46877 0.87,16.01957 0.14,5.5507 0.21,11.4609 0.21,17.7304 v 6.1719 c 0,6.2578 -0.07,12.1484 -0.21,17.6406 -0.13,5.5 -0.42,11.0196 -0.87,16.5782 1.73,-0.2188 3.49,-0.3907 5.27,-0.5508 1.79,-0.1602 3.54,-0.2305 5.28,-0.2305 1.74,0 3.5,0.0703 5.29,0.2305 1.77,0.1601 3.54,0.332 5.27,0.5508 l -0.46,-18.8086 0.31,-0.3125"
         style="fill:#2f628e;fill-opacity:1;fill-rule:nonzero;stroke:none"
         id="path134" />
      <path
         d="m 1683.41,64.2813 c -1.7,4.6289 -4.55,6.9375 -8.56,6.9375 -2.26,0 -4.17,-0.7696 -5.7,-2.3086 -1.54,-1.5391 -2.78,-3.5196 -3.7,-5.9414 -0.93,-2.418 -1.62,-5.129 -2.08,-8.1602 -0.47,-3.0391 -0.75,-6.0469 -0.85,-9.0195 h 23.74 c -0.22,7.6992 -1.16,13.8593 -2.85,18.4922 z m -19.66,-36.9922 c 0.82,-3.5899 2.08,-6.6993 3.78,-9.3282 1.69,-2.6211 3.85,-4.6718 6.47,-6.1601 2.62,-1.4922 5.68,-2.23049 9.17,-2.23049 7.09,0 13.41,2.30859 18.96,6.92969 l 1.85,-1.3906 -3.39,-8.62893 c -2.57,-1.94922 -5.65,-3.53125 -9.25,-4.69922 C 1687.74,0.601563 1683.02,0 1677.16,0 c -5.03,0 -9.82,0.710938 -14.34,2.08984 -4.52,1.39063 -8.49,3.67969 -11.94,6.85938 -3.44,3.17968 -6.16,7.22268 -8.17,12.08988 -2.01,4.8828 -3,10.7226 -3,17.5 0,6.6797 0.9,12.4804 2.69,17.4218 1.8,4.9297 4.29,9.0391 7.48,12.3282 3.19,3.289 6.96,5.7617 11.33,7.4023 4.37,1.6367 9.11,2.457 14.26,2.457 10.16,0 17.95,-2.9765 23.35,-8.9375 5.39,-5.9609 8.09,-14.3828 8.09,-25.2812 v -3.2305 c 0,-0.9297 -0.05,-1.5273 -0.15,-1.8476 h -44.24 c 0,-4.1211 0.41,-7.9727 1.23,-11.5625"
         style="fill:#2f628e;fill-opacity:1;fill-rule:nonzero;stroke:none"
         id="path136" />
      <path
         d="m 1757.24,35.5313 c 0.05,2.3203 0.07,4.3476 0.07,6.0976 -2.15,-1.2305 -4.44,-2.2383 -6.85,-3.0078 -2.42,-0.7695 -4.63,-1.75 -6.63,-2.9297 -2,-1.1797 -3.65,-2.793 -4.93,-4.8516 -1.29,-2.0703 -1.93,-5.0312 -1.93,-8.9414 0,-3.8086 0.79,-6.707 2.39,-8.707 1.59,-2.0117 3.72,-3.0117 6.39,-3.0117 3.39,0 6.14,1.2891 8.25,3.8516 2.1,2.5781 3.16,6.3789 3.16,11.3984 0,4.4297 0.03,7.8008 0.08,10.1016 z m -22.66,39.8476 c 4.98,1.8516 9.94,2.7695 14.87,2.7695 4.11,0 7.88,-0.457 11.33,-1.3867 3.45,-0.9219 6.43,-2.3828 8.95,-4.3906 2.51,-1.9922 4.46,-4.5898 5.85,-7.7813 1.38,-3.1796 2.08,-7.0507 2.08,-11.5585 0,-6.5821 -0.08,-12.6602 -0.23,-18.2618 -0.15,-5.5976 -0.23,-11.1797 -0.23,-16.7304 0,-2.4688 0.17,-4.3907 0.53,-5.7774 0.37,-1.3906 0.9,-2.44139 1.63,-3.15232 0.72,-0.73047 1.67,-1.1875 2.85,-1.39063 1.18,-0.21875 2.54,-0.30859 4.08,-0.30859 V 3.71094 c -2.98,-1.23047 -5.5,-2.16016 -7.55,-2.781252 C 1776.68,0.320313 1774.47,0 1772.11,0 c -3.8,0 -6.89,0.929688 -9.25,2.78125 -2.36,1.84766 -4.16,4.52734 -5.39,8.01955 C 1755.11,7.5 1752.35,4.89063 1749.22,2.92969 1746.08,0.980469 1742.16,0 1737.43,0 c -3.9,0 -7.24,0.519531 -10.02,1.55078 -2.77,1.01953 -5.06,2.48828 -6.85,4.39063 -1.81,1.89843 -3.12,4.05859 -3.94,6.48049 -0.82,2.4062 -1.23,4.8476 -1.23,7.3086 0,3.3984 0.54,6.3281 1.62,8.789 1.08,2.4688 2.62,4.5703 4.62,6.3321 2,1.7382 4.4,3.1992 7.17,4.3789 2.77,1.1914 5.91,2.1797 9.4,3.0078 4.32,1.0312 7.73,1.9336 10.25,2.7031 2.52,0.7695 4.39,1.5391 5.62,2.3086 1.24,0.7695 2.03,1.6211 2.39,2.5391 0.37,0.9297 0.54,2.0507 0.54,3.4023 0,3.6875 -1.31,6.8477 -3.92,9.4688 -2.62,2.6211 -6.24,3.9414 -10.87,3.9414 -1.75,0 -3.55,-0.2422 -5.39,-0.7032 -1.86,-0.4687 -3.63,-1.1093 -5.33,-1.9296 -1.69,-0.8204 -3.23,-1.7188 -4.61,-2.6993 -1.39,-0.9687 -2.45,-2.0312 -3.17,-3.1601 h -1.07 l -2.01,9.2617 c 4.31,3.4883 8.96,6.1602 13.95,8.0078"
         style="fill:#2f628e;fill-opacity:1;fill-rule:nonzero;stroke:none"
         id="path138" />
      <path
         d="M 1844.4,13.1094 C 1841.52,8.78906 1838.16,5.53125 1834.31,3.33203 1830.45,1.12109 1826.06,0 1821.13,0 c -7.71,0 -13.64,2.16016 -17.8,6.48047 -4.17,4.32033 -6.25,11.44923 -6.25,21.42973 0,5.2382 0.11,9.8593 0.31,13.8711 0.21,4.0078 0.31,8.0078 0.31,12.0078 0,3.3007 -0.07,6.8711 -0.23,10.7304 -0.16,3.8399 -0.34,7.7305 -0.54,11.6407 1.33,-0.2188 3.03,-0.3907 5.08,-0.5508 2.06,-0.1602 4.22,-0.2305 6.48,-0.2305 2.26,0 4.42,0.0703 6.47,0.2305 2.06,0.1601 3.75,0.332 5.09,0.5508 -0.72,-5.5586 -1.18,-11.9805 -1.39,-19.2813 -0.2,-7.2891 -0.31,-15.6172 -0.31,-24.957 0,-6.4922 1.1,-11.2305 3.32,-14.2617 2.21,-3.0391 5.31,-4.5508 9.33,-4.5508 4.62,0 8,2 10.16,6.0195 2.16,4 3.24,9.5508 3.24,16.6406 v 6.1719 c 0,6.2578 -0.07,12.1484 -0.23,17.6406 -0.16,5.5 -0.49,11.0196 -1,16.5782 2.87,-0.5313 6.73,-0.7813 11.56,-0.7813 2.36,0 4.52,0.0703 6.47,0.2305 1.95,0.1601 3.65,0.332 5.09,0.5508 -0.52,-5.5586 -0.85,-11.0782 -1,-16.5782 -0.15,-5.4922 -0.23,-11.3828 -0.23,-17.6406 v -6.1719 c 0,-6.2695 0.08,-12.1797 0.23,-17.7304 0.15,-5.5508 0.48,-10.89066 1,-16.01957 -1.85,0.19141 -3.67,0.30078 -5.47,0.30078 -1.8,0 -3.62,0 -5.47,0 -1.85,0 -3.68,0 -5.48,0 -1.79,0 -3.72,-0.10937 -5.78,-0.30078 l 0.62,11.08987 h -0.31"
         style="fill:#2f628e;fill-opacity:1;fill-rule:nonzero;stroke:none"
         id="path140" />
      <path
         d="m 1501.49,421.117 c 1.91,-2.754 4.24,-5.078 7,-6.988 2.75,-1.899 5.87,-3.379 9.35,-4.43 3.48,-1.051 7.12,-1.57 10.93,-1.57 2.36,0 4.73,0.25 7.09,0.781 2.36,0.531 4.5,1.352 6.41,2.461 1.89,1.117 3.44,2.598 4.62,4.438 1.19,1.832 1.77,4 1.77,6.5 0,2.363 -0.53,4.453 -1.57,6.3 -1.05,1.836 -2.89,3.68 -5.52,5.516 -2.62,1.836 -6.1,3.77 -10.44,5.801 -4.32,2.043 -9.78,4.433 -16.34,7.199 -8.8,3.672 -15.95,8.953 -21.47,15.848 -5.52,6.894 -8.27,15.332 -8.27,25.312 0,7.871 1.38,14.707 4.13,20.488 2.76,5.774 6.5,10.567 11.23,14.375 4.73,3.809 10.27,6.661 16.64,8.567 6.37,1.902 13.16,2.859 20.39,2.859 7.09,0 14.11,-0.789 21.08,-2.363 6.95,-1.582 13.77,-3.613 20.47,-6.113 -1.97,-4.461 -3.64,-9.317 -5.02,-14.571 -1.37,-5.254 -2.26,-10.175 -2.66,-14.773 h -7.87 c -1.06,5.906 -3.78,10.898 -8.18,14.969 -4.4,4.062 -10.14,6.105 -17.23,6.105 -2.1,0 -4.37,-0.265 -6.8,-0.793 -2.43,-0.527 -4.66,-1.347 -6.69,-2.461 -2.04,-1.113 -3.71,-2.558 -5.03,-4.336 -1.31,-1.765 -1.96,-3.965 -1.96,-6.59 0,-2.492 0.65,-4.628 1.96,-6.398 1.32,-1.777 3.09,-3.379 5.32,-4.824 2.23,-1.446 4.93,-2.832 8.08,-4.141 3.14,-1.308 6.49,-2.754 10.04,-4.336 l 15.17,-6.699 c 8.79,-3.809 15.09,-8.926 18.9,-15.352 3.81,-6.445 5.71,-14.382 5.71,-23.835 0,-8.274 -1.37,-15.43 -4.13,-21.461 -2.76,-6.051 -6.57,-11.032 -11.42,-14.973 -4.87,-3.949 -10.64,-6.801 -17.34,-8.57 -6.7,-1.778 -13.91,-2.661 -21.66,-2.661 -4.33,0 -8.27,0.172 -11.81,0.493 -3.55,0.328 -6.99,0.757 -10.34,1.281 -3.35,0.527 -6.73,1.308 -10.15,2.367 -3.42,1.051 -7.09,2.289 -11.03,3.742 0.52,2.758 1.02,5.278 1.48,7.578 0.46,2.301 0.89,4.661 1.28,7.09 0.39,2.43 0.75,5.024 1.08,7.778 0.32,2.753 0.63,5.976 0.89,9.648 h 8.08 c 0.65,-3.406 1.93,-6.492 3.83,-9.258"
         style="fill:#2f628e;fill-opacity:1;fill-rule:nonzero;stroke:none"
         id="path142" />
      <path
         d="m 1651.96,422.992 c 0.2,-11.48 0.75,-21.953 1.67,-31.402 -3.67,0.64 -7.64,1.109 -11.91,1.359 -4.27,0.281 -8.51,0.403 -12.71,0.403 -4.2,0 -8.34,-0.192 -12.41,-0.59 -4.06,-0.391 -7.74,-0.782 -11.02,-1.172 0.65,11.019 1.15,21.851 1.47,32.488 0.33,10.633 0.5,21.473 0.5,32.5 0,2.625 -0.04,5.867 -0.1,9.746 -0.07,3.875 -0.1,7.84 -0.1,11.922 0,4.199 -0.04,8.234 -0.09,12.109 -0.07,3.868 -0.11,7.122 -0.11,9.747 0,4.589 -0.13,9.785 -0.39,15.566 -0.27,5.773 -0.66,11.418 -1.18,16.934 3.41,-0.391 7.35,-0.789 11.81,-1.192 4.47,-0.39 8.54,-0.586 12.22,-0.586 4.06,0 8.27,0.168 12.6,0.489 4.33,0.332 8.2,0.761 11.62,1.289 -0.66,-9.454 -1.18,-18.778 -1.57,-27.969 -0.39,-9.199 -0.6,-18.516 -0.6,-27.969 v -19.687 c 0,-11.172 0.1,-22.5 0.3,-33.985"
         style="fill:#2f628e;fill-opacity:1;fill-rule:nonzero;stroke:none"
         id="path144" />
      <path
         d="m 1776.33,429.594 c -5.51,-13.266 -10.37,-25.742 -14.57,-37.422 -1.57,0.269 -3.13,0.488 -4.63,0.687 -1.51,0.2 -3.18,0.301 -5.02,0.301 -1.45,0 -2.99,-0.101 -4.63,-0.301 -1.65,-0.199 -3.39,-0.418 -5.22,-0.687 -3.29,9.066 -6.86,17.93 -10.74,26.582 -3.87,8.672 -7.57,17.539 -11.12,26.601 -2.24,5.508 -4.6,10.86 -7.09,16.047 -2.5,5.184 -4.86,10.536 -7.09,16.043 -1.45,-7.215 -2.64,-14.402 -3.54,-21.562 -0.93,-7.149 -1.85,-14.473 -2.77,-21.953 -1.05,-8.672 -1.9,-16.485 -2.56,-23.442 -0.65,-6.957 -1.11,-13.258 -1.37,-18.898 -3.95,1.172 -8.01,1.762 -12.22,1.762 -2.23,0 -4.39,-0.161 -6.49,-0.493 -2.1,-0.328 -4.27,-0.757 -6.51,-1.269 2.63,9.969 4.93,19.922 6.9,29.832 1.97,9.91 3.87,19.988 5.71,30.223 2.24,11.562 4.2,23.644 5.91,36.25 1.71,12.597 3.01,24.882 3.93,36.828 l 0.6,7.879 c 3.02,-0.664 6.03,-1.114 9.06,-1.387 3.02,-0.254 6.04,-0.391 9.05,-0.391 3.29,0 6.37,0.137 9.26,0.391 2.89,0.273 5.91,0.723 9.06,1.387 1.19,-3.418 2.63,-7.383 4.34,-11.914 1.7,-4.532 3.57,-9.325 5.62,-14.375 2.03,-5.059 4.19,-10.254 6.49,-15.567 2.29,-5.312 4.56,-10.508 6.8,-15.555 2.22,-5.058 4.43,-9.882 6.6,-14.484 2.16,-4.59 4.1,-8.66 5.8,-12.207 5.92,13.789 11.92,27.805 18.03,42.051 6.1,14.238 11.58,28.262 16.44,42.051 2.88,-0.664 5.77,-1.114 8.66,-1.387 2.89,-0.254 5.84,-0.391 8.87,-0.391 3.02,0 6.1,0.098 9.26,0.293 3.14,0.196 6.23,0.696 9.26,1.485 l 2.36,-25.411 c 0.52,-5.117 1.18,-11.062 1.96,-17.82 0.79,-6.769 1.61,-13.82 2.46,-21.172 0.86,-7.355 1.81,-14.836 2.86,-22.453 1.05,-7.617 2.08,-14.844 3.05,-21.668 0.99,-6.828 2,-13.066 3.06,-18.699 1.04,-5.66 2.03,-10.258 2.96,-13.789 -4.21,0.512 -8.24,0.941 -12.12,1.269 -3.88,0.332 -7.84,0.493 -11.92,0.493 -3.93,0 -7.88,-0.161 -11.81,-0.493 -3.94,-0.328 -7.81,-0.757 -11.62,-1.269 -0.66,8.66 -1.35,17.129 -2.07,25.398 -0.73,8.27 -1.55,16.746 -2.46,25.41 -0.66,6.434 -1.45,12.957 -2.37,19.598 -0.92,6.621 -1.77,12.305 -2.56,17.031 l -4.72,-10.437 c -5.91,-12.735 -11.62,-25.735 -17.14,-38.996"
         style="fill:#2f628e;fill-opacity:1;fill-rule:nonzero;stroke:none"
         id="path146" />
      <path
         d="m 1901.4,437.465 c 1.44,-0.125 2.89,-0.195 4.33,-0.195 1.45,0 2.89,0 4.34,0 h 8.66 8.66 c 1.45,0 2.89,0 4.34,0 1.44,0 2.89,0.07 4.33,0.195 l -16.94,45.898 z m -14.57,-45.875 c -2.24,0.512 -4.44,0.941 -6.61,1.269 -2.16,0.332 -4.43,0.493 -6.79,0.493 -2.23,0 -4.43,-0.161 -6.59,-0.493 -2.17,-0.328 -4.17,-0.757 -6.01,-1.269 l 11.62,26.187 c 1.84,3.938 3.87,8.496 6.1,13.692 2.23,5.176 4.57,10.722 7,16.64 2.42,5.899 4.95,12.071 7.58,18.516 2.62,6.426 5.25,12.863 7.88,19.297 1.44,3.672 3.08,7.91 4.92,12.707 1.83,4.793 3.61,9.519 5.32,14.18 1.7,4.656 3.28,8.855 4.73,12.605 1.43,3.742 2.49,6.399 3.14,7.969 2.24,-0.528 4.53,-0.957 6.9,-1.27 2.36,-0.332 4.65,-0.496 6.89,-0.496 2.36,0 4.73,0.164 7.09,0.496 2.36,0.313 4.66,0.742 6.89,1.27 1.45,-4.727 3.29,-10.274 5.52,-16.641 2.23,-6.367 4.63,-13.066 7.19,-20.086 2.56,-7.023 5.19,-14.054 7.88,-21.074 2.69,-7.023 5.22,-13.566 7.58,-19.602 2.75,-6.953 5.22,-13.125 7.38,-18.515 2.17,-5.379 4.24,-10.469 6.21,-15.254 1.97,-4.805 4.04,-9.633 6.2,-14.473 2.17,-4.859 4.63,-10.25 7.39,-16.148 -3.81,0.781 -8.08,1.269 -12.81,1.469 -4.72,0.203 -9.05,0.293 -12.99,0.293 -4.2,0 -8.44,-0.161 -12.71,-0.493 -4.27,-0.328 -8.5,-0.757 -12.69,-1.269 -1.32,4.98 -2.67,9.769 -4.05,14.371 -1.37,4.59 -2.92,9.18 -4.63,13.789 -4.32,0 -8.66,0.02 -12.99,0.098 -4.34,0.058 -8.67,0.097 -13,0.097 -3.42,0 -6.87,-0.039 -10.34,-0.097 -3.48,-0.078 -6.93,-0.098 -10.35,-0.098 -1.83,-4.609 -3.4,-9.262 -4.72,-13.98 -1.31,-4.731 -2.69,-9.461 -4.13,-14.18"
         style="fill:#2f628e;fill-opacity:1;fill-rule:nonzero;stroke:none"
         id="path148" />
      <path
         d="m 2019.47,465.336 c -0.07,4.141 -0.09,8.508 -0.09,13.105 0,4.727 -0.04,9.122 -0.1,13.196 -0.07,4.07 -0.11,6.883 -0.11,8.465 0,4.464 -0.13,9.386 -0.39,14.765 -0.26,5.391 -0.72,11.301 -1.38,17.735 3.55,-0.391 7.51,-0.789 11.92,-1.192 4.39,-0.39 8.49,-0.586 12.31,-0.586 3.67,0 7.77,0.168 12.31,0.489 4.53,0.332 8.49,0.761 11.91,1.289 -0.39,-4.598 -0.72,-9.395 -0.99,-14.375 -0.26,-5 -0.48,-9.95 -0.68,-14.872 -0.2,-4.933 -0.33,-9.66 -0.4,-14.191 -0.06,-4.519 -0.1,-8.691 -0.1,-12.5 3.03,-0.137 6.37,-0.234 10.05,-0.293 3.67,-0.066 7.48,-0.098 11.43,-0.098 3.4,0 7.02,0.059 10.83,0.196 3.8,0.129 7.55,0.195 11.23,0.195 0,3.945 -0.04,8.242 -0.11,12.902 -0.07,4.657 -0.2,9.422 -0.39,14.278 -0.2,4.851 -0.43,9.754 -0.68,14.676 -0.28,4.921 -0.6,9.609 -0.99,14.082 3.54,-0.391 7.55,-0.789 12.01,-1.192 4.46,-0.39 8.54,-0.586 12.21,-0.586 3.68,0 7.78,0.168 12.31,0.489 4.53,0.332 8.5,0.761 11.92,1.289 -0.79,-8.282 -1.35,-16.817 -1.67,-25.606 -0.34,-8.797 -0.5,-19.043 -0.5,-30.723 0,-8.796 0.07,-16.835 0.19,-24.128 0.14,-7.286 0.31,-14.25 0.5,-20.872 0.2,-6.64 0.39,-13.144 0.59,-19.511 0.19,-6.364 0.43,-13.082 0.69,-20.172 -8.41,1.172 -17.01,1.762 -25.8,1.762 -3.81,0 -7.59,-0.161 -11.33,-0.493 -3.74,-0.328 -7.52,-0.757 -11.33,-1.269 0.53,4.32 0.96,9.551 1.29,15.648 0.33,6.102 0.56,12.278 0.69,18.508 0.12,6.242 0.22,12.149 0.29,17.734 0.07,5.579 0.11,10.079 0.11,13.497 -3.56,0 -7.16,0.058 -10.84,0.195 -3.67,0.117 -7.36,0.195 -11.03,0.195 -3.42,0 -7.03,-0.039 -10.83,-0.097 -3.81,-0.079 -7.42,-0.176 -10.84,-0.293 0,-3.555 0.04,-8.114 0.1,-13.692 0.07,-5.586 0.17,-11.492 0.3,-17.734 0.13,-6.231 0.32,-12.371 0.59,-18.41 0.26,-6.039 0.59,-11.231 0.98,-15.551 -4.07,0.64 -8.14,1.109 -12.2,1.359 -4.07,0.281 -8.22,0.403 -12.41,0.403 -5,0 -9.33,-0.161 -13,-0.493 -3.68,-0.328 -7.23,-0.757 -10.64,-1.269 l 0.79,9.84 c 0.26,2.89 0.49,6.519 0.69,10.929 0.19,4.403 0.33,9.129 0.4,14.188 0.06,5.039 0.12,10.195 0.19,15.449 0.06,5.254 0.1,10.117 0.1,14.582 0,1.707 -0.04,4.629 -0.1,8.758"
         style="fill:#2f628e;fill-opacity:1;fill-rule:nonzero;stroke:none"
         id="path150" />
    </g>
  </g>
</svg>
