<svg width="173" height="80" viewBox="0 0 173 80" fill="none" xmlns="http://www.w3.org/2000/svg">
<path opacity="0.989" fill-rule="evenodd" clip-rule="evenodd" d="M33.0534 3.03027C33.2395 8.21974 33.3017 13.4412 33.2399 18.6946C27.1479 18.7257 21.0562 18.6946 14.9648 18.6014C20.9985 13.4061 27.0281 8.21582 33.0534 3.03027Z" fill="#39C8BC"/>
<path opacity="0.996" fill-rule="evenodd" clip-rule="evenodd" d="M74.1723 23.7298C77.9221 23.5842 81.6517 23.7863 85.3611 24.3359C94.6711 25.8492 100.669 31.1173 103.356 40.14C97.7117 40.8515 92.0705 41.5974 86.4334 42.3778C86.3302 42.3699 86.2369 42.3387 86.1537 42.2846C85.4157 39.4021 83.6285 37.5218 80.7924 36.6435C77.7269 35.8445 74.8365 36.2486 72.121 37.8557C70.1688 39.3124 68.8789 41.2238 68.2516 43.5899C67.367 47.0644 67.3359 50.5454 68.1583 54.0328C69.579 58.5139 72.6404 60.8766 77.3425 61.1191C82.3018 60.9615 85.4876 58.5055 86.8996 53.7531C87.0301 53.6957 87.17 53.6646 87.3192 53.6599C92.9132 54.3004 98.508 54.9375 104.102 55.5713C104.197 55.6197 104.259 55.6974 104.289 55.8044C101.474 65.5275 95.0711 71.23 85.0814 72.9139C83.9055 73.0874 82.7246 73.2114 81.5383 73.2869C76.4496 73.6021 71.4146 73.2291 66.4334 72.168C60.5443 70.6892 55.96 67.41 52.6805 62.3312C50.7457 59.2244 49.689 55.8371 49.5103 52.168C49.1229 48.0019 49.4648 43.8993 50.5359 39.8603C52.128 35.0362 55.0029 31.1667 59.1607 28.2519C62.2715 26.0748 65.7214 24.7384 69.5103 24.2426C71.0727 24.0175 72.6267 23.8465 74.1723 23.7298Z" fill="#162C66"/>
<path opacity="0.996" fill-rule="evenodd" clip-rule="evenodd" d="M136.643 23.7298C140.393 23.5842 144.123 23.7863 147.832 24.3359C157.142 25.8492 163.14 31.1173 165.827 40.14C160.183 40.8515 154.542 41.5974 148.904 42.3778C148.801 42.3699 148.708 42.3387 148.625 42.2846C147.886 39.4021 146.1 37.5218 143.263 36.6435C140.198 35.8445 137.307 36.2486 134.592 37.8557C132.32 39.5854 130.937 41.8697 130.443 44.7088C129.832 47.832 129.895 50.94 130.629 54.0328C132.05 58.5139 135.111 60.8766 139.813 61.1191C144.773 60.9615 147.958 58.5065 149.371 53.7531C149.501 53.6957 149.641 53.6646 149.79 53.6599C155.384 54.3004 160.979 54.9375 166.573 55.5713C166.668 55.6197 166.73 55.6974 166.76 55.8044C163.945 65.5275 157.542 71.23 147.552 72.9139C146.377 73.0874 145.195 73.2114 144.009 73.2869C138.92 73.6021 133.885 73.2291 128.904 72.168C123.015 70.6892 118.431 67.41 115.151 62.3312C113.217 59.2244 112.16 55.8371 111.981 52.168C111.593 48.0019 111.936 43.8993 113.007 39.8603C114.598 35.0362 117.474 31.1667 121.632 28.2519C124.742 26.0748 128.192 24.7384 131.981 24.2426C133.544 24.0175 135.097 23.8465 136.643 23.7298Z" fill="#162C66"/>
<path opacity="0.997" fill-rule="evenodd" clip-rule="evenodd" d="M8.43799 24.7554C20.093 24.7554 31.748 24.7554 43.403 24.7554C43.403 29.2309 43.403 33.7064 43.403 38.1819C40.0774 38.1819 36.7519 38.1819 33.4263 38.1819C33.4108 44.3359 33.4263 50.4897 33.473 56.6435C33.4745 59.0537 34.6712 60.3274 37.0627 60.4663C38.9785 60.2985 40.8433 59.8938 42.6571 59.2542C43.2092 63.4687 43.6754 67.6962 44.0557 71.9349C38.5559 73.1936 32.9927 73.6132 27.3657 73.1936C24.6762 73.0584 22.2209 72.25 19.9998 70.7694C17.7951 68.9568 16.412 66.6416 15.8506 63.823C15.3506 61.2682 15.102 58.6882 15.1047 56.084C15.058 50.1168 15.0425 44.1494 15.058 38.1819C12.8513 38.1819 10.6447 38.1819 8.43799 38.1819C8.43799 33.7064 8.43799 29.2309 8.43799 24.7554Z" fill="#162C66"/>
</svg>
