<svg width="118" height="99" viewBox="0 0 118 99" fill="none" xmlns="http://www.w3.org/2000/svg">
<g clip-path="url(#clip0_1945_4904)">
<path d="M66.4284 0.5C63.3167 0.5 60.794 2.99917 60.794 6.0818C60.794 7.31194 59.7879 8.30869 58.5461 8.30869C61.3879 8.30869 63.7364 10.3946 64.1241 13.1052C66.2198 11.4691 67.5671 8.93348 67.5671 6.08423V0.5H66.426H66.4284Z" fill="url(#paint0_linear_1945_4904)"/>
<path d="M58.5486 8.30625C57.3068 8.30625 56.3007 7.3095 56.3007 6.07936C56.3007 2.99673 53.778 0.497559 50.6663 0.497559H49.5251V6.07936C49.5251 8.92861 50.8724 11.4642 52.9681 13.1004C54.5043 14.2989 56.4381 15.0161 58.5461 15.0161C60.6516 15.0161 62.5879 14.2989 64.1241 13.1004C63.7388 10.3897 61.3903 8.30381 58.5461 8.30381L58.5486 8.30625Z" fill="#00BABE"/>
<path d="M40.0552 8.8021C39.0932 11.734 40.7129 14.8823 43.6724 15.8353C44.8528 16.2145 45.4982 17.4714 45.1154 18.6407C45.9939 15.9641 48.7203 14.3936 51.4418 14.8677C50.5191 12.388 48.4994 10.3337 45.7657 9.45363L40.4086 7.72998L40.0552 8.80453V8.8021Z" fill="url(#paint1_linear_1945_4904)"/>
<path d="M45.1153 18.6384C44.7325 19.8077 43.4638 20.4471 42.2834 20.0679C39.3239 19.1149 36.1459 20.7194 35.1839 23.6513L34.8306 24.7258L40.1877 26.4495C42.9239 27.3295 45.773 26.8433 47.9914 25.3749C49.616 24.298 50.9019 22.6959 51.5547 20.7121C52.205 18.7283 52.1142 16.6813 51.4393 14.8653C48.7178 14.3912 45.9914 15.9593 45.1129 18.6384H45.1153Z" fill="#E4B46E"/>
<path d="M39.8761 36.2154C42.3939 38.0265 45.9154 37.4747 47.7461 34.9804C48.4749 33.9861 49.8811 33.7648 50.8848 34.4869C48.5854 32.8313 47.9228 29.7778 49.2185 27.3589C46.551 27.461 43.9571 28.73 42.2663 31.0347L38.9558 35.5493L39.8785 36.2129L39.8761 36.2154Z" fill="url(#paint2_linear_1945_4904)"/>
<path d="M50.8823 34.4892C51.886 35.2113 52.1093 36.6043 51.3805 37.5986C49.5523 40.0929 50.1093 43.5815 52.6271 45.3951L53.5498 46.0588L56.8603 41.5443C58.5511 39.2396 58.9659 36.4025 58.2395 33.8596C57.7094 31.9974 56.5683 30.2883 54.8627 29.063C53.1597 27.8377 51.167 27.2883 49.2136 27.3661C47.9179 29.7826 48.5805 32.8385 50.8799 34.4941L50.8823 34.4892Z" fill="#A7C0C3"/>
<path d="M66.1364 44.8554C68.6542 43.0442 69.2113 39.5532 67.3831 37.0588C66.6542 36.0645 66.8751 34.6715 67.8812 33.9495C65.5818 35.605 62.4431 35.2866 60.5241 33.3174C59.8002 35.8627 60.2124 38.6974 61.9032 41.0021L65.2137 45.5166L66.1364 44.8529V44.8554Z" fill="url(#paint3_linear_1945_4904)"/>
<path d="M67.8812 33.952C68.8849 33.2299 70.291 33.4487 71.0199 34.4455C72.8481 36.9398 76.3721 37.4916 78.8899 35.6805L79.8126 35.0168L76.5021 30.5022C74.8113 28.1976 72.2174 26.9309 69.5499 26.8264C67.5965 26.751 65.6063 27.298 63.9008 28.5233C62.1977 29.7486 61.0566 31.4577 60.524 33.3199C62.4431 35.2891 65.5818 35.6075 67.8812 33.952Z" fill="#84C98B"/>
<path d="M82.5489 22.7834C81.5869 19.8515 78.4089 18.247 75.4494 19.2C74.269 19.5792 73.0027 18.9399 72.6175 17.7705C73.496 20.4471 72.2199 23.3061 69.7365 24.5071C71.9549 25.9755 74.8064 26.4617 77.5402 25.5816L82.8973 23.858L82.5439 22.7834H82.5489Z" fill="url(#paint4_linear_1945_4904)"/>
<path d="M72.6174 17.7706C72.2346 16.6013 72.88 15.3468 74.0604 14.9651C77.0199 14.0121 78.6396 10.8639 77.6776 7.93197L77.3242 6.85742L71.9671 8.58107C69.2309 9.46113 67.2137 11.5154 66.291 13.9951C65.6161 15.8112 65.5254 17.8581 66.1757 19.8419C66.826 21.8257 68.1119 23.4278 69.7389 24.5048C72.2223 23.3038 73.4984 20.4473 72.6199 17.7682L72.6174 17.7706Z" fill="#9E76B4"/>
<path d="M21.7999 71.5635H6.41566C3.45366 71.5635 1.04382 69.1762 1.04382 66.2418V58.7589C1.04382 57.6941 1.915 56.8286 2.98986 56.8286C4.06471 56.8286 4.93834 57.6917 4.93834 58.7589V66.2418C4.93834 67.049 5.60093 67.7053 6.41566 67.7053H21.8023C22.6171 67.7053 23.2796 67.049 23.2796 66.2418V58.7589C23.2796 57.6941 24.1508 56.8286 25.2257 56.8286C26.3005 56.8286 27.1742 57.6917 27.1742 58.7589V66.2418C27.1742 69.1762 24.7643 71.5635 21.8023 71.5635H21.7999Z" fill="#00BABE"/>
<path d="M52.0578 56.8311H36.6712C33.7092 56.8311 31.2993 59.2184 31.2993 62.1527V69.6356C31.2993 70.7005 32.1705 71.5659 33.2453 71.5659C34.3202 71.5659 35.1938 70.7029 35.1938 69.6356V67.4744H53.5351V69.6356C53.5351 70.7005 54.4063 71.5659 55.4836 71.5659C56.5609 71.5659 57.4297 70.7029 57.4297 69.6356V62.1527C57.4297 59.2184 55.0198 56.8311 52.0578 56.8311ZM35.1938 63.6162V62.1527C35.1938 61.3456 35.8564 60.6892 36.6712 60.6892H52.0578C52.8725 60.6892 53.5351 61.3456 53.5351 62.1527V63.6162H35.1938Z" fill="#123F6D"/>
<path d="M81.987 56.8311H63.177C62.1021 56.8311 61.231 57.6941 61.231 58.7613V69.6356C61.231 70.7005 62.1021 71.5659 63.177 71.5659C64.2518 71.5659 65.1255 70.7029 65.1255 69.6356V67.4744H81.9895C84.9514 67.4744 87.3613 65.0871 87.3613 62.1527C87.3613 59.2184 84.9514 56.8311 81.9895 56.8311H81.987ZM81.987 63.6162H65.123V60.6892H81.987C82.8017 60.6892 83.4643 61.3456 83.4643 62.1527C83.4643 62.9599 82.8017 63.6162 81.987 63.6162Z" fill="#123F6D"/>
<path d="M115.418 67.7054H106.247V60.6892H115.418C116.493 60.6892 117.364 59.8262 117.364 58.7614C117.364 57.6965 116.493 56.8335 115.418 56.8335H93.1821C92.1073 56.8335 91.2361 57.6965 91.2361 58.7614C91.2361 59.8262 92.1073 60.6892 93.1821 60.6892H102.353V67.7054H93.1821C92.1073 67.7054 91.2361 68.5684 91.2361 69.6332C91.2361 70.698 92.1073 71.5611 93.1821 71.5611H115.418C116.493 71.5611 117.364 70.698 117.364 69.6332C117.364 68.5684 116.493 67.7054 115.418 67.7054Z" fill="#123F6D"/>
<path d="M3.8168 88.654C4.11864 88.5398 4.37141 88.372 4.57754 88.1459C4.78368 87.9198 4.94074 87.6427 5.04626 87.3121C5.15178 86.9814 5.20577 86.5973 5.20577 86.1597V82.5422H4.31742V86.0503C4.31742 86.3445 4.29288 86.6143 4.24134 86.8574C4.18981 87.1005 4.10637 87.3121 3.98612 87.4895C3.86588 87.6646 3.70882 87.8031 3.5125 87.9004C3.31618 87.9976 3.07323 88.0462 2.78611 88.0462C2.49899 88.0462 2.25605 87.9976 2.06218 87.9004C1.86831 87.8031 1.71125 87.6646 1.59101 87.4895C1.47076 87.3145 1.38732 87.103 1.33579 86.8574C1.28426 86.6119 1.25972 86.342 1.25972 86.0503V82.5422H0.366455V86.1597C0.366455 87.0325 0.575046 87.6937 0.994683 88.1459C1.41677 88.5981 2.0131 88.8242 2.78611 88.8242C3.17139 88.8242 3.51741 88.7683 3.8168 88.654Z" fill="#6D6E71"/>
<path d="M9.1175 83.6387H9.13468L11.9543 88.7172H13.0979V82.5422H12.2071V87.5114H12.1899L9.44143 82.5422H8.22424V88.7172H9.1175V83.6387Z" fill="#6D6E71"/>
<path d="M17.0023 82.5422H16.109V88.7172H17.0023V82.5422Z" fill="#6D6E71"/>
<path d="M20.8575 85.9069H23.1692V85.1289H20.8575V83.3202H23.2772V82.5422H19.9642V88.7172H20.8575V85.9069Z" fill="#6D6E71"/>
<path d="M26.8011 82.5422H25.9078V88.7172H26.8011V82.5422Z" fill="#6D6E71"/>
<path d="M33.3534 87.9393H30.7546V85.9069H33.1227V85.1289H30.7546V83.3202H33.3534V82.5422H29.8662V88.7172H33.3534V87.9393Z" fill="#6D6E71"/>
<path d="M39.3803 88.5179C39.7902 88.3866 40.1386 88.1872 40.4257 87.9271C40.7129 87.667 40.9337 87.3388 41.0883 86.945C41.2429 86.5511 41.319 86.0965 41.319 85.5787C41.319 85.1046 41.2331 84.6792 41.0589 84.3023C40.8846 83.9255 40.6491 83.6095 40.3472 83.3469C40.0454 83.0868 39.6944 82.8875 39.292 82.7489C38.8895 82.6103 38.4576 82.5422 37.9963 82.5422H36.1558V88.7172H37.9963C38.5067 88.7172 38.9681 88.6516 39.3779 88.5179H39.3803ZM37.0539 87.9393V83.3178H38.0969C38.4184 83.3178 38.7202 83.3688 38.9975 83.4733C39.2748 83.5779 39.5153 83.7262 39.7214 83.9231C39.9251 84.12 40.0871 84.3583 40.2024 84.6427C40.3178 84.9271 40.3767 85.248 40.3767 85.6078C40.3767 86.0065 40.3251 86.3518 40.2196 86.6435C40.1141 86.9352 39.9619 87.1783 39.7607 87.3704C39.5595 87.5625 39.3092 87.7059 39.0122 87.7983C38.7153 87.8931 38.3766 87.9393 37.9914 87.9393H37.0539Z" fill="#6D6E71"/>
<path d="M49.9695 82.5422L47.3093 88.7172H48.2468L48.8799 87.1638H51.9302L52.5658 88.7172H53.5376L50.9045 82.5422H49.967H49.9695ZM49.167 86.4369L50.4038 83.3761L51.6456 86.4369H49.1646H49.167Z" fill="#6D6E71"/>
<path d="M58.4015 86.1524C58.6665 86.0868 58.8996 85.9798 59.1058 85.834C59.3094 85.6881 59.4763 85.496 59.6015 85.2602C59.7266 85.0244 59.788 84.7375 59.788 84.3972C59.788 84.0568 59.7266 83.7529 59.6039 83.5171C59.4812 83.2813 59.3119 83.0917 59.1009 82.9483C58.8898 82.8048 58.642 82.7003 58.3573 82.6395C58.0751 82.5787 57.7732 82.5471 57.4518 82.5471H55.8174V88.7221H56.7106V86.257H57.5818C57.864 86.257 58.1364 86.2229 58.4015 86.1573V86.1524ZM56.7106 83.3202H57.4689C57.6064 83.3202 57.7536 83.3397 57.9131 83.3761C58.0726 83.4126 58.2223 83.4734 58.3597 83.5585C58.4972 83.6411 58.6125 83.7529 58.7033 83.8891C58.7941 84.0252 58.8407 84.1905 58.8407 84.3826C58.8407 84.5868 58.8015 84.7594 58.7229 84.9004C58.6444 85.0414 58.5438 85.1533 58.4235 85.2383C58.3033 85.3234 58.1683 85.3842 58.0235 85.4207C57.8763 85.4571 57.734 85.4742 57.5941 85.4742H56.7082V83.3202H56.7106Z" fill="#6D6E71"/>
<path d="M63.1033 86.2521H63.9745C64.2567 86.2521 64.5291 86.2181 64.7942 86.1524C65.0592 86.0868 65.2923 85.9798 65.4985 85.834C65.7021 85.6881 65.869 85.496 65.9942 85.2602C66.1193 85.0244 66.1807 84.7375 66.1807 84.3972C66.1807 84.0568 66.1193 83.7529 65.9966 83.5171C65.8739 83.2813 65.7046 83.0917 65.4936 82.9483C65.2825 82.8048 65.0347 82.7003 64.75 82.6395C64.4678 82.5787 64.1659 82.5471 63.8445 82.5471H62.2101V88.7221H63.1033V86.257V86.2521ZM63.1033 83.3202H63.8616C63.9991 83.3202 64.1463 83.3397 64.3058 83.3761C64.4653 83.4126 64.615 83.4734 64.7524 83.5585C64.8899 83.6411 65.0052 83.7529 65.096 83.8891C65.1868 84.0252 65.2334 84.1905 65.2334 84.3826C65.2334 84.5868 65.1942 84.7594 65.1156 84.9004C65.0371 85.0414 64.9365 85.1533 64.8162 85.2383C64.696 85.3234 64.561 85.3842 64.4162 85.4207C64.269 85.4571 64.1267 85.4742 63.9868 85.4742H63.1009V83.3202H63.1033Z" fill="#6D6E71"/>
<path d="M69.5402 82.5422H68.647V88.7172H72.1464V87.9393H69.5402V82.5422Z" fill="#6D6E71"/>
<path d="M75.4421 82.5422H74.5488V88.7172H75.4421V82.5422Z" fill="#6D6E71"/>
<path d="M82.0925 88.7853C82.2225 88.7732 82.3501 88.7513 82.4728 88.7197C82.5955 88.6881 82.7182 88.6468 82.8409 88.5981L82.7894 87.7424C82.7109 87.7886 82.6176 87.8323 82.5072 87.8688C82.3967 87.9077 82.2814 87.9393 82.1587 87.9661C82.036 87.9928 81.9133 88.0122 81.7857 88.0244C81.6581 88.0366 81.5403 88.0438 81.4299 88.0438C81.1084 88.0438 80.8041 87.9855 80.5194 87.8712C80.2348 87.757 79.9869 87.5941 79.7734 87.3826C79.5624 87.1711 79.393 86.9182 79.2703 86.6192C79.1476 86.3202 79.0863 85.9896 79.0863 85.6273C79.0863 85.2651 79.1427 84.9564 79.2581 84.6622C79.3734 84.368 79.5354 84.1128 79.744 83.8964C79.9525 83.68 80.2053 83.5147 80.4973 83.3932C80.7918 83.2716 81.1158 83.2108 81.474 83.2108C81.9354 83.2108 82.3648 83.3251 82.7599 83.556L82.8336 82.6979C82.6078 82.6006 82.3771 82.5325 82.1464 82.4936C81.9158 82.4547 81.6753 82.4353 81.4299 82.4353C80.9538 82.4353 80.5145 82.5107 80.1121 82.6614C79.7096 82.8121 79.3611 83.0261 79.0691 83.3032C78.7771 83.5804 78.5489 83.911 78.3844 84.3C78.22 84.6889 78.139 85.1217 78.139 85.6006C78.139 86.0795 78.2176 86.5366 78.3746 86.9328C78.5317 87.3291 78.7525 87.667 79.0397 87.9466C79.3268 88.2262 79.6703 88.4425 80.0753 88.5933C80.4802 88.744 80.9292 88.8194 81.4225 88.8194C81.609 88.8194 81.8323 88.8072 82.0949 88.7805L82.0925 88.7853Z" fill="#6D6E71"/>
<path d="M87.3121 82.5422L84.652 88.7172H85.5894L86.2225 87.1638H89.2729L89.9085 88.7172H90.8803L88.2471 82.5422H87.3097H87.3121ZM86.5097 86.4369L87.7465 83.3761L88.9882 86.4369H86.5072H86.5097Z" fill="#6D6E71"/>
<path d="M93.7931 88.7172H94.6864V83.3202H96.6226V82.5422H91.8569V83.3202H93.7931V88.7172Z" fill="#6D6E71"/>
<path d="M99.8375 82.5422H98.9442V88.7172H99.8375V82.5422Z" fill="#6D6E71"/>
<path d="M103.32 87.932C103.575 88.2141 103.889 88.4328 104.262 88.5909C104.635 88.7489 105.057 88.8267 105.536 88.8267C106.014 88.8267 106.436 88.7489 106.809 88.5909C107.182 88.4328 107.494 88.2141 107.752 87.932C108.007 87.65 108.203 87.3121 108.336 86.9207C108.468 86.5293 108.537 86.099 108.537 85.6298C108.537 85.1606 108.468 84.7497 108.333 84.3608C108.198 83.9718 107.999 83.6363 107.742 83.3494C107.484 83.0626 107.17 82.8413 106.799 82.6809C106.429 82.5204 106.009 82.4402 105.538 82.4402C105.067 82.4402 104.642 82.5204 104.269 82.6809C103.896 82.8413 103.585 83.065 103.327 83.3494C103.072 83.6339 102.876 83.9718 102.741 84.3608C102.606 84.7497 102.537 85.1727 102.537 85.6298C102.537 86.0868 102.603 86.5293 102.738 86.9207C102.871 87.3121 103.067 87.65 103.322 87.932H103.32ZM103.609 84.7278C103.695 84.4361 103.823 84.176 103.992 83.9523C104.161 83.7287 104.375 83.5488 104.63 83.4151C104.885 83.2813 105.187 83.2157 105.533 83.2181C105.877 83.2157 106.176 83.2813 106.434 83.4151C106.692 83.5488 106.905 83.7287 107.074 83.9523C107.244 84.176 107.371 84.4361 107.455 84.7278C107.538 85.0196 107.582 85.321 107.585 85.6322C107.585 85.941 107.546 86.24 107.465 86.5293C107.384 86.8186 107.261 87.0763 107.092 87.3C106.922 87.5236 106.711 87.7059 106.453 87.8421C106.196 87.9782 105.889 88.0463 105.531 88.0463C105.172 88.0463 104.866 87.9782 104.606 87.8421C104.348 87.7059 104.134 87.5236 103.968 87.3C103.801 87.0763 103.678 86.8186 103.597 86.5293C103.516 86.24 103.477 85.941 103.477 85.6322C103.477 85.3235 103.518 85.0196 103.604 84.7278H103.609Z" fill="#6D6E71"/>
<path d="M115.2 82.5422V87.5114H115.182L112.431 82.5422H111.217V88.7172H112.11V83.6387H112.127L114.947 88.7172H116.088V82.5422H115.2Z" fill="#6D6E71"/>
<path d="M5.01687 92.6192C4.80582 92.4757 4.55797 92.3712 4.2733 92.3104C3.99109 92.2496 3.68925 92.218 3.36777 92.218H1.7334V98.393H2.62666V95.9279H3.49783C3.78005 95.9279 4.05244 95.8938 4.31747 95.8282C4.58251 95.7626 4.81564 95.6556 5.02178 95.5097C5.22546 95.3639 5.39233 95.1718 5.51749 94.936C5.64264 94.7002 5.70399 94.4133 5.70399 94.0729C5.70399 93.7326 5.64264 93.4287 5.51994 93.1929C5.39724 92.9571 5.22791 92.7674 5.01687 92.624V92.6192ZM4.6414 94.5762C4.56288 94.7172 4.46226 94.829 4.34202 94.9141C4.22177 94.9992 4.0868 95.06 3.94201 95.0964C3.79477 95.1329 3.65244 95.1499 3.51256 95.1499H2.62666V92.996H3.38495C3.52237 92.996 3.66961 93.0154 3.82913 93.0519C3.98864 93.0884 4.13833 93.1491 4.27576 93.2342C4.41318 93.3169 4.52852 93.4287 4.61932 93.5648C4.71012 93.701 4.75674 93.8663 4.75674 94.0584C4.75674 94.2626 4.71748 94.4352 4.63895 94.5762H4.6414Z" fill="#6D6E71"/>
<path d="M9.68929 95.5243C9.64758 95.4806 9.60095 95.4417 9.54451 95.4076C9.48806 95.3736 9.42671 95.342 9.36046 95.3128V95.2958C9.5396 95.2666 9.70892 95.2131 9.86598 95.1329C10.023 95.0527 10.158 94.953 10.2733 94.8339C10.3887 94.7123 10.4795 94.5738 10.5457 94.4133C10.612 94.2528 10.6464 94.0802 10.6464 93.893C10.6464 93.7059 10.6292 93.543 10.5924 93.3971C10.5556 93.2512 10.5065 93.12 10.4402 93.0081C10.374 92.8963 10.2954 92.7991 10.2046 92.7164C10.1138 92.6337 10.0108 92.5632 9.89788 92.5025C9.785 92.4417 9.6623 92.3931 9.53469 92.3566C9.40463 92.3201 9.26966 92.291 9.12732 92.2715C8.98499 92.2496 8.83775 92.235 8.68806 92.2277C8.53836 92.2205 8.38621 92.218 8.22916 92.218H6.70276V98.393H7.59602V95.6507H8.13099C8.2537 95.6507 8.36167 95.6556 8.45738 95.6605C8.55309 95.6677 8.64388 95.6896 8.72487 95.7285C8.80585 95.7674 8.88438 95.8258 8.958 95.9084C9.03162 95.9911 9.10278 96.1053 9.1715 96.2512L10.1261 98.393H11.147L9.96905 95.9352C9.87089 95.748 9.77764 95.6118 9.68929 95.5243ZM8.35186 94.8728H7.59357V92.9935H8.44756C8.86229 92.9935 9.1764 93.0738 9.385 93.2342C9.59359 93.3947 9.69911 93.6183 9.69911 93.9076C9.69911 94.2115 9.58132 94.4473 9.34818 94.6175C9.11505 94.7877 8.78131 94.8728 8.35186 94.8728Z" fill="#6D6E71"/>
<path d="M17.0881 93.0252C16.8305 92.7408 16.5164 92.5171 16.1458 92.3566C15.7752 92.1962 15.3556 92.116 14.8844 92.116C14.4133 92.116 13.9887 92.1962 13.6157 92.3566C13.2427 92.5171 12.931 92.7408 12.6734 93.0252C12.4182 93.3096 12.2218 93.6476 12.0869 94.0365C11.9519 94.4255 11.8832 94.8485 11.8832 95.3056C11.8832 95.7626 11.9494 96.2051 12.0844 96.5965C12.2169 96.9879 12.4132 97.3258 12.6685 97.6078C12.9237 97.8898 13.2378 98.1086 13.6108 98.2666C13.9838 98.4247 14.4059 98.5025 14.8844 98.5025C15.363 98.5025 15.7851 98.4247 16.1581 98.2666C16.5311 98.1086 16.8427 97.8898 17.1004 97.6078C17.3556 97.3258 17.5519 96.9879 17.6845 96.5965C17.817 96.2051 17.8857 95.7748 17.8857 95.3056C17.8857 94.8364 17.817 94.4255 17.682 94.0365C17.547 93.6476 17.3483 93.3121 17.0906 93.0252H17.0881ZM16.8182 96.2051C16.7372 96.4944 16.6145 96.7521 16.4452 96.9757C16.2759 97.1994 16.0648 97.3817 15.8071 97.5179C15.5495 97.654 15.2427 97.7221 14.8844 97.7221C14.5262 97.7221 14.2194 97.654 13.9593 97.5179C13.7016 97.3817 13.4881 97.1994 13.3212 96.9757C13.1544 96.7521 13.0317 96.4944 12.9507 96.2051C12.8697 95.9158 12.8304 95.6167 12.8304 95.308C12.8304 94.9993 12.8721 94.6954 12.958 94.4036C13.0439 94.1119 13.1715 93.8518 13.3409 93.6281C13.5102 93.4044 13.7237 93.2245 13.9789 93.0908C14.2341 92.9571 14.536 92.8915 14.882 92.8939C15.2255 92.8915 15.5249 92.9571 15.7826 93.0908C16.0403 93.2245 16.2538 93.4044 16.4231 93.6281C16.5924 93.8518 16.72 94.1119 16.8035 94.4036C16.8869 94.6954 16.9311 94.9968 16.9335 95.308C16.9335 95.6167 16.8943 95.9158 16.8133 96.2051H16.8182Z" fill="#6D6E71"/>
<path d="M21.812 95.7407H23.1249V97.62C23.0685 97.6321 23.0145 97.6443 22.9605 97.6564C22.9065 97.6686 22.8427 97.6807 22.7716 97.6905C22.6979 97.7002 22.6121 97.7075 22.509 97.7148C22.4059 97.7196 22.2783 97.7245 22.1237 97.7245C21.8022 97.7245 21.4979 97.6661 21.2133 97.5519C20.9286 97.4376 20.6807 97.2747 20.4672 97.0632C20.2562 96.8517 20.0869 96.5989 19.9642 96.2999C19.8415 96.0008 19.7801 95.6702 19.7801 95.308C19.7752 94.9676 19.8292 94.6492 19.947 94.355C20.0623 94.0608 20.2268 93.8031 20.4378 93.5868C20.6488 93.3704 20.9016 93.1978 21.1961 93.0738C21.4906 92.9498 21.8145 92.889 22.1703 92.8915C22.5826 92.8915 22.9164 92.9279 23.1691 92.9984C23.4317 93.0665 23.6697 93.1735 23.8881 93.3145L23.9569 92.4247C23.8268 92.3809 23.6992 92.342 23.5765 92.3031C23.4538 92.2667 23.3237 92.2326 23.1863 92.2035C23.0489 92.1743 22.8943 92.1524 22.7249 92.1354C22.5556 92.1208 22.3544 92.1111 22.1262 92.1111C21.6501 92.1111 21.2108 92.1865 20.8084 92.3372C20.4059 92.4879 20.0574 92.7018 19.7654 92.979C19.4734 93.2561 19.2451 93.5868 19.0807 93.9757C18.9163 94.3647 18.8353 94.7975 18.8353 95.2764C18.8353 95.7553 18.9139 96.2123 19.0709 96.6086C19.228 97.0049 19.4488 97.3428 19.7359 97.6224C20.0231 97.902 20.3666 98.1183 20.7715 98.2691C21.1765 98.4198 21.6255 98.4952 22.1188 98.4952C22.3667 98.4952 22.5875 98.4879 22.7838 98.4708C22.9802 98.4538 23.1544 98.4319 23.3041 98.4003C23.6133 98.3396 23.8513 98.2788 24.0182 98.218V95.009H21.817V95.7334L21.812 95.7407Z" fill="#6D6E71"/>
<path d="M28.5312 95.5243C28.4895 95.4806 28.4429 95.4417 28.3864 95.4076C28.33 95.3736 28.2686 95.342 28.2024 95.3128V95.2958C28.3815 95.2666 28.5508 95.2131 28.7079 95.1329C28.865 95.0527 28.9999 94.953 29.1153 94.8339C29.2306 94.7123 29.3214 94.5738 29.3877 94.4133C29.4539 94.2528 29.4883 94.0802 29.4883 93.893C29.4883 93.7059 29.4711 93.543 29.4343 93.3971C29.3975 93.2512 29.3484 93.12 29.2821 93.0081C29.2159 92.8963 29.1374 92.7991 29.0466 92.7164C28.9558 92.6337 28.8527 92.5632 28.7398 92.5025C28.6269 92.4417 28.5042 92.3931 28.3766 92.3566C28.2465 92.3201 28.1116 92.291 27.9692 92.2715C27.8269 92.2496 27.6797 92.235 27.53 92.2277C27.3803 92.2205 27.2281 92.218 27.0711 92.218H25.5447V98.393H26.4379V95.6507H26.9729C27.0956 95.6507 27.2036 95.6556 27.2993 95.6605C27.395 95.6677 27.4858 95.6896 27.5668 95.7285C27.6478 95.7674 27.7263 95.8258 27.7999 95.9084C27.8735 95.9911 27.9447 96.1053 28.0134 96.2512L28.968 98.393H29.9889L28.811 95.9352C28.7128 95.748 28.6196 95.6118 28.5312 95.5243ZM27.1938 94.8728H26.4355V92.9935H27.2895C27.7042 92.9935 28.0183 93.0738 28.2269 93.2342C28.4355 93.3947 28.541 93.6183 28.541 93.9076C28.541 94.2115 28.4232 94.4473 28.1901 94.6175C27.957 94.7877 27.6232 94.8728 27.1938 94.8728Z" fill="#6D6E71"/>
<path d="M33.022 92.218L30.3618 98.393H31.2992L31.9324 96.8395H34.9827L35.6183 98.393H36.5901L33.9569 92.218H33.0195H33.022ZM32.2195 96.1126L33.4563 93.0519L34.6981 96.1126H32.217H32.2195Z" fill="#6D6E71"/>
<path d="M40.9338 97.3476L38.9755 92.218H37.5031V98.393H38.3963V93.0519H38.4135L40.4749 98.393H41.3534L43.4148 93.0519H43.4319V98.393H44.3252V92.218H42.8528L40.9338 97.3476Z" fill="#6D6E71"/>
<path d="M49.3609 97.3476L47.4026 92.218H45.9302V98.393H46.8234V93.0519H46.8406L48.902 98.393H49.7781L51.8394 93.0519H51.8566V98.393H52.7499V92.218H51.2775L49.3609 97.3476Z" fill="#6D6E71"/>
<path d="M55.2407 92.218H54.3474V98.393H55.2407V92.218Z" fill="#6D6E71"/>
<path d="M60.8015 97.1872H60.7843L58.0333 92.218H56.8186V98.393H57.7119V93.3144H57.729L60.5487 98.393H61.6923V92.218H60.8015V97.1872Z" fill="#6D6E71"/>
<path d="M65.9377 95.7407H67.2505V97.62C67.1941 97.6321 67.1401 97.6443 67.0861 97.6564C67.0321 97.6686 66.9683 97.6807 66.8972 97.6905C66.8235 97.7002 66.7377 97.7075 66.6346 97.7148C66.5315 97.7196 66.4039 97.7245 66.2493 97.7245C65.9278 97.7245 65.6235 97.6661 65.3389 97.5519C65.0542 97.4376 64.8064 97.2747 64.5929 97.0632C64.3818 96.8517 64.2125 96.5989 64.0898 96.2999C63.9671 96.0008 63.9057 95.6702 63.9057 95.308C63.9008 94.9676 63.9548 94.6492 64.0726 94.355C64.1879 94.0608 64.3524 93.8031 64.5634 93.5868C64.7745 93.3704 65.0272 93.1978 65.3217 93.0738C65.6162 92.9498 65.9401 92.889 66.2959 92.8915C66.7082 92.8915 67.042 92.9279 67.2947 92.9984C67.5573 93.0665 67.7953 93.1735 68.0138 93.3145L68.0825 92.4247C67.9524 92.3809 67.8248 92.342 67.7021 92.3031C67.5794 92.2667 67.4493 92.2326 67.3119 92.2035C67.1745 92.1743 67.0199 92.1524 66.8506 92.1354C66.6812 92.1208 66.48 92.1111 66.2518 92.1111C65.7757 92.1111 65.3364 92.1865 64.934 92.3372C64.5315 92.4879 64.183 92.7018 63.891 92.979C63.599 93.2561 63.3708 93.5868 63.2063 93.9757C63.0419 94.3647 62.9609 94.7975 62.9609 95.2764C62.9609 95.7553 63.0395 96.2123 63.1965 96.6086C63.3536 97.0049 63.5744 97.3428 63.8616 97.6224C64.1487 97.902 64.4922 98.1183 64.8972 98.2691C65.3021 98.4198 65.7512 98.4952 66.2444 98.4952C66.4923 98.4952 66.7131 98.4879 66.9094 98.4708C67.1058 98.4538 67.28 98.4319 67.4297 98.4003C67.7389 98.3396 67.9769 98.2788 68.1438 98.218V95.009H65.9426V95.7334L65.9377 95.7407Z" fill="#6D6E71"/>
<path d="M73.0936 92.218H72.2003V98.393H73.0936V92.218Z" fill="#6D6E71"/>
<path d="M78.6568 97.1872H78.6396L75.8887 92.218H74.6715V98.393H75.5648V93.3144H75.5819L78.4041 98.393H79.5452V92.218H78.6568V97.1872Z" fill="#6D6E71"/>
<path d="M80.4336 92.996H82.3698V98.393H83.2631V92.996H85.1993V92.218H80.4336V92.996Z" fill="#6D6E71"/>
<path d="M86.1416 98.393H89.6288V97.6151H87.03V95.5827H89.3956V94.8047H87.03V92.996H89.6288V92.218H86.1416V98.393Z" fill="#6D6E71"/>
<path d="M93.9945 95.5243C93.9528 95.4806 93.9061 95.4417 93.8497 95.4076C93.7932 95.3736 93.7319 95.342 93.6656 95.3128V95.2958C93.8448 95.2666 94.0141 95.2131 94.1712 95.1329C94.3282 95.0527 94.4632 94.953 94.5785 94.8339C94.6939 94.7123 94.7847 94.5738 94.8509 94.4133C94.9172 94.2528 94.9515 94.0802 94.9515 93.893C94.9515 93.7059 94.9344 93.543 94.8975 93.3971C94.8607 93.2512 94.8117 93.12 94.7454 93.0081C94.6791 92.8963 94.6006 92.7991 94.5098 92.7164C94.419 92.6337 94.3159 92.5632 94.2031 92.5025C94.0902 92.4417 93.9675 92.3931 93.8399 92.3566C93.7098 92.3201 93.5748 92.291 93.4325 92.2715C93.2902 92.2496 93.1429 92.235 92.9932 92.2277C92.8435 92.2205 92.6914 92.218 92.5343 92.218H91.0079V98.393H91.9012V95.6507H92.4362C92.5589 95.6507 92.6669 95.6556 92.7626 95.6605C92.8583 95.6677 92.9491 95.6896 93.03 95.7285C93.111 95.7674 93.1896 95.8258 93.2632 95.9084C93.3368 95.9911 93.408 96.1053 93.4767 96.2512L94.4313 98.393H95.4522L94.2742 95.9352C94.1761 95.748 94.0828 95.6118 93.9945 95.5243ZM92.657 94.8728H91.8987V92.9935H92.7527C93.1675 92.9935 93.4816 93.0738 93.6902 93.2342C93.8988 93.3947 94.0043 93.6183 94.0043 93.9076C94.0043 94.2115 93.8865 94.4473 93.6534 94.6175C93.4202 94.7877 93.0865 94.8728 92.657 94.8728Z" fill="#6D6E71"/>
<path d="M96.4583 98.393H97.3515V95.5827H99.6632V94.8047H97.3515V92.996H99.7712V92.218H96.4583V98.393Z" fill="#6D6E71"/>
<path d="M102.618 92.218L99.9576 98.393H100.895L101.528 96.8395H104.579L105.214 98.393H106.186L103.553 92.218H102.615H102.618ZM101.815 96.1126L103.052 93.0519L104.294 96.1126H101.813H101.815Z" fill="#6D6E71"/>
<path d="M111.138 97.547C111.028 97.5859 110.912 97.6175 110.79 97.6443C110.667 97.671 110.544 97.6905 110.417 97.7026C110.289 97.7148 110.171 97.7221 110.061 97.7221C109.739 97.7221 109.435 97.6637 109.15 97.5495C108.866 97.4352 108.618 97.2723 108.404 97.0608C108.193 96.8493 108.024 96.5965 107.901 96.2974C107.779 95.9984 107.717 95.6678 107.717 95.3056C107.717 94.9433 107.774 94.6346 107.889 94.3404C108.004 94.0462 108.166 93.791 108.375 93.5746C108.584 93.3583 108.836 93.1929 109.128 93.0714C109.423 92.9498 109.747 92.889 110.105 92.889C110.566 92.889 110.996 93.0033 111.391 93.2343L111.465 92.3761C111.239 92.2788 111.008 92.2108 110.777 92.1719C110.547 92.133 110.306 92.1135 110.061 92.1135C109.585 92.1135 109.146 92.1889 108.743 92.3396C108.341 92.4903 107.992 92.7043 107.7 92.9814C107.408 93.2586 107.18 93.5892 107.015 93.9782C106.851 94.3672 106.77 94.7999 106.77 95.2788C106.77 95.7577 106.849 96.2148 107.006 96.6111C107.163 97.0073 107.384 97.3453 107.671 97.6248C107.958 97.9044 108.301 98.1208 108.706 98.2715C109.111 98.4222 109.56 98.4976 110.053 98.4976C110.24 98.4976 110.463 98.4854 110.726 98.4587C110.856 98.4465 110.984 98.4247 111.106 98.3931C111.229 98.3615 111.352 98.3201 111.474 98.2715L111.423 97.4158C111.344 97.4619 111.251 97.5057 111.141 97.5422L111.138 97.547Z" fill="#6D6E71"/>
<path d="M112.591 98.393H116.078V97.6151H113.479V95.5827H115.847V94.8047H113.479V92.996H116.078V92.218H112.591V98.393Z" fill="#6D6E71"/>
</g>
<defs>
<linearGradient id="paint0_linear_1945_4904" x1="64.1315" y1="6.78682" x2="58.3772" y2="13.1323" gradientUnits="userSpaceOnUse">
<stop stop-color="#00A8A5"/>
<stop offset="1" stop-color="#07616D"/>
</linearGradient>
<linearGradient id="paint1_linear_1945_4904" x1="45.3784" y1="12.9103" x2="49.5651" y2="20.364" gradientUnits="userSpaceOnUse">
<stop stop-color="#D0A666"/>
<stop offset="1" stop-color="#9A7742"/>
</linearGradient>
<linearGradient id="paint2_linear_1945_4904" x1="45.4644" y1="32.4668" x2="53.8937" y2="30.7275" gradientUnits="userSpaceOnUse">
<stop stop-color="#889FA6"/>
<stop offset="1" stop-color="#43595C"/>
</linearGradient>
<linearGradient id="paint3_linear_1945_4904" x1="64.2655" y1="38.4313" x2="65.2145" y2="29.9535" gradientUnits="userSpaceOnUse">
<stop stop-color="#39BA9C"/>
<stop offset="1" stop-color="#0AA587"/>
</linearGradient>
<linearGradient id="paint4_linear_1945_4904" x1="69.0248" y1="18.3734" x2="76.8931" y2="23.4656" gradientUnits="userSpaceOnUse">
<stop stop-color="#1D1848"/>
<stop offset="1" stop-color="#6951A2"/>
</linearGradient>
<clipPath id="clip0_1945_4904">
<rect width="117" height="98" fill="white" transform="translate(0.366455 0.5)"/>
</clipPath>
</defs>
</svg>
