<svg width="420" height="150" viewBox="0 0 420 150" fill="none" xmlns="http://www.w3.org/2000/svg">
<path d="M77.0697 42.78C75.4697 42.78 74.0397 43.38 72.9597 44.51C71.8597 45.64 71.3197 47 71.3197 48.58V69.59C71.3197 72.25 70.8997 74.57 70.0597 76.47C69.2297 78.39 68.1397 79.97 66.8297 81.19C65.5097 82.4 63.9897 83.31 62.3097 83.87C60.5697 84.46 58.7397 84.77 56.8997 84.77C55.0597 84.77 53.2497 84.46 51.5297 83.88C49.8797 83.31 48.3697 82.4 47.0497 81.19C45.7197 79.96 44.6397 78.38 43.8097 76.47C42.9797 74.58 42.5597 72.26 42.5597 69.59V48.58C42.5597 46.98 41.9897 45.6 40.8597 44.49C39.7497 43.37 38.3397 42.79 36.7697 42.79C35.1897 42.79 33.8097 43.36 32.6597 44.49C31.5397 45.62 30.9697 46.99 30.9697 48.58V69.59C30.9697 74.03 31.7397 77.99 33.2597 81.32C34.7597 84.65 36.7697 87.47 39.1997 89.71C41.6297 91.96 44.4397 93.64 47.5697 94.74C50.6497 95.81 53.7897 96.36 56.9097 96.36C60.0397 96.36 63.1897 95.81 66.2697 94.74C69.3797 93.66 72.2097 91.97 74.6697 89.72C77.1297 87.49 79.1397 84.66 80.6197 81.31C82.1097 77.97 82.8597 74.03 82.8597 69.59V48.58C82.8597 46.98 82.2997 45.61 81.1497 44.47C80.0397 43.34 78.6597 42.78 77.0697 42.78Z" fill="#575756"/>
<path d="M133.5 49.4401C131.04 47.2201 128.22 45.5301 125.1 44.4301C122.02 43.3601 118.87 42.8101 115.74 42.8101C112.61 42.8101 109.47 43.3601 106.4 44.4301C103.27 45.5301 100.46 47.2101 98.02 49.4601C95.59 51.7101 93.58 54.5301 92.08 57.8401C90.56 61.1901 89.79 65.1401 89.79 69.5801V90.6001C89.79 92.1901 90.36 93.5701 91.49 94.7001C92.62 95.8201 93.99 96.4001 95.59 96.4001C97.18 96.4001 98.56 95.8201 99.68 94.7001C100.81 93.5701 101.38 92.1901 101.38 90.6001V69.5801C101.38 66.9101 101.8 64.5901 102.64 62.7001C103.46 60.7901 104.54 59.2201 105.86 57.9901C107.19 56.7701 108.69 55.8701 110.36 55.2901C112.09 54.7001 113.89 54.4001 115.72 54.4001C117.55 54.4001 119.37 54.7001 121.13 55.3001C122.82 55.8601 124.34 56.7701 125.65 57.9801C126.96 59.1901 128.04 60.7801 128.87 62.6901C129.7 64.6001 130.13 66.9101 130.13 69.5701V90.5901C130.13 92.1801 130.68 93.5501 131.76 94.6501C132.86 95.7801 134.27 96.3801 135.87 96.3801C137.48 96.3801 138.86 95.8001 139.98 94.6901C141.13 93.5501 141.7 92.1701 141.7 90.5801V69.5601C141.7 65.1301 140.94 61.1901 139.45 57.8401C137.96 54.5201 135.97 51.7001 133.5 49.4401Z" fill="#575756"/>
<path d="M313.83 49.4401C311.37 47.2201 308.56 45.5301 305.43 44.4301C302.35 43.3601 299.2 42.8101 296.08 42.8101C292.95 42.8101 289.8 43.3601 286.73 44.4301C283.62 45.5301 280.8 47.2101 278.36 49.4601C275.92 51.7101 273.93 54.5301 272.42 57.8401C270.91 61.1901 270.14 65.1401 270.14 69.5801V90.5601C270.14 92.1401 270.71 93.5201 271.84 94.6601C272.97 95.7801 274.35 96.3501 275.94 96.3501C277.53 96.3501 278.91 95.7801 280.02 94.6601C281.15 93.5301 281.71 92.1501 281.71 90.5601V69.5801C281.71 66.9101 282.14 64.5901 282.97 62.7001C283.8 60.7901 284.88 59.2201 286.19 57.9901C287.52 56.7701 289.02 55.8701 290.68 55.2901C292.41 54.7001 294.22 54.4001 296.04 54.4001C297.87 54.4001 299.69 54.7001 301.46 55.3001C303.14 55.8601 304.66 56.7701 305.97 57.9801C307.29 59.2001 308.38 60.7801 309.22 62.6901C310.04 64.5801 310.47 66.9001 310.47 69.5701V90.5501C310.47 92.1301 311.02 93.5101 312.11 94.6101C313.18 95.7401 314.62 96.3301 316.22 96.3301C317.82 96.3301 319.2 95.7701 320.33 94.6501C321.47 93.5201 322.05 92.1401 322.05 90.5501V69.5701C322.05 65.1401 321.3 61.2001 319.81 57.8501C318.3 54.5201 316.3 51.7001 313.83 49.4401Z" fill="#575756"/>
<path d="M382.21 82.8001C381.39 82.8001 380.56 82.9801 379.75 83.3401C377.74 84.2201 375.6 84.6701 373.39 84.6701C371.5 84.6701 369.67 84.3701 367.92 83.7801C366.26 83.2101 364.76 82.3101 363.45 81.0801C362.14 79.8601 361.07 78.3001 360.27 76.4301C359.46 74.5501 359.06 72.2201 359.06 69.4901C359.06 66.8301 359.46 64.5001 360.27 62.5901C361.08 60.6801 362.15 59.1401 363.44 57.9601C364.76 56.7501 366.27 55.8701 367.93 55.2901C369.67 54.7001 371.51 54.4101 373.4 54.4101C375.67 54.4101 377.84 54.8501 379.84 55.7401C380.65 56.0901 381.45 56.2801 382.22 56.2801C383.79 56.2801 385.2 55.6901 386.31 54.5801C387.43 53.4501 388.01 52.0901 388.01 50.4801C388.01 48.1501 386.78 46.2401 384.66 45.2701C382.85 44.4001 380.95 43.7701 379.05 43.3801C377.17 43.0101 375.26 42.8301 373.4 42.8301C370.27 42.8301 367.13 43.3801 364.06 44.4501C360.95 45.5501 358.12 47.2101 355.68 49.4201C353.2 51.6401 351.2 54.4501 349.74 57.7901C348.25 61.1101 347.5 65.0601 347.5 69.5101C347.5 73.9601 348.26 77.9001 349.79 81.2401C351.28 84.5601 353.28 87.3701 355.7 89.6301C358.13 91.8701 360.95 93.5601 364.07 94.6601C367.14 95.7301 370.28 96.2801 373.41 96.2801C377.47 96.2801 381.21 95.4901 384.56 93.9501C385.55 93.5001 386.38 92.8001 387.01 91.8901C387.69 90.9401 388.03 89.8401 388.03 88.6201C388.03 87.0201 387.46 85.6401 386.33 84.5201C385.18 83.3701 383.8 82.8001 382.21 82.8001Z" fill="#575756"/>
<path d="M154.51 24.4001C150.9 24.4001 147.97 27.3401 147.97 30.9501C147.97 34.5701 150.9 37.5101 154.51 37.5101C158.12 37.5101 161.06 34.5801 161.06 30.9501C161.05 27.3401 158.12 24.4001 154.51 24.4001Z" fill="#28AA8C"/>
<path d="M334.82 24.25C330.96 24.25 327.81 27.4 327.81 31.27C327.81 35.14 330.95 38.29 334.82 38.29C338.69 38.29 341.83 35.14 341.83 31.27C341.83 27.39 338.69 24.25 334.82 24.25Z" fill="#28AA8C"/>
<path d="M334.78 42.8C331.62 42.8 329.04 45.38 329.04 48.54V90.6001C329.04 93.7701 331.62 96.34 334.78 96.34C337.95 96.34 340.52 93.7701 340.52 90.6001V48.54C340.53 45.38 337.95 42.8 334.78 42.8Z" fill="#575756"/>
<path d="M154.419 42.8C151.259 42.8 148.689 45.38 148.689 48.54V90.6001C148.689 93.7701 151.259 96.34 154.419 96.34C157.589 96.34 160.149 93.7701 160.149 90.6001V48.54C160.149 45.38 157.579 42.8 154.419 42.8Z" fill="#575756"/>
<path d="M199.22 26.9601C200.34 26.9601 201.3 27.1301 202.34 27.3301C203.26 27.5001 204.14 27.6601 205.06 27.6601C207.89 27.6601 209.85 25.0701 209.85 22.7501C209.85 20.6501 208.38 18.9801 206.91 18.2501C203.78 16.6801 200.19 15.8601 196.52 15.8601C188.21 15.8601 178.51 21.2501 178.51 36.4401V42.7701H172.07C169.2 42.7701 167.04 44.9301 167.04 47.7901C167.04 50.6601 169.2 52.8201 172.07 52.8201H178.51V90.5301C178.51 93.6901 181.07 96.2601 184.23 96.2601C187.51 96.2601 190.08 93.7401 190.08 90.5301V52.8201H204.24C207.1 52.8201 209.26 50.6601 209.26 47.7901C209.26 44.9301 207.1 42.7701 204.24 42.7701H190.08V36.8001C190.09 28.6301 193.74 26.9601 199.22 26.9601Z" fill="#575756"/>
<path d="M236.949 96.5401C222.009 96.5401 209.859 84.3901 209.859 69.4501C209.859 65.7101 210.609 62.1001 212.079 58.6901C212.839 56.9501 214.859 56.1601 216.589 56.9101C218.329 57.6701 219.129 59.6801 218.379 61.4201C217.279 63.9601 216.719 66.6601 216.719 69.4501C216.719 80.6001 225.789 89.6801 236.949 89.6801C248.099 89.6801 257.179 80.6001 257.179 69.4501C257.179 58.3001 248.099 49.2201 236.949 49.2201C235.569 49.2201 234.199 49.3601 232.869 49.6401C231.019 50.0101 229.199 48.8201 228.819 46.9701C228.439 45.1201 229.639 43.3101 231.489 42.9201C233.269 42.5501 235.099 42.3701 236.939 42.3701C251.879 42.3701 264.029 54.5201 264.029 69.4601C264.039 84.3901 251.889 96.5401 236.949 96.5401Z" fill="#28AA8C"/>
<path d="M248.48 59.6001C246.58 59.4301 244.89 60.8401 244.73 62.7401C244.56 64.6501 245.96 66.3301 247.87 66.5001C249.78 66.6701 251.46 65.2601 251.62 63.3601C251.79 61.4501 250.38 59.7701 248.48 59.6001Z" fill="#28AA8C"/>
<path d="M220.21 49.1401C218.3 49.1601 216.76 50.7101 216.77 52.6201C216.79 54.5301 218.34 56.0801 220.25 56.0601C222.16 56.0501 223.71 54.4901 223.69 52.5701C223.69 50.6701 222.12 49.1201 220.21 49.1401Z" fill="#28AA8C"/>
<path d="M237 84.93C235.87 84.93 234.73 84.81 233.59 84.55C225.26 82.67 220.02 74.37 221.9 66.04C223.45 59.16 229.46 54.19 236.51 53.97C238.46 53.91 239.98 55.4 240.04 57.29C240.1 59.18 238.61 60.77 236.72 60.82C232.8 60.94 229.45 63.71 228.58 67.55C227.53 72.18 230.46 76.81 235.1 77.86C239.73 78.91 244.37 75.99 245.42 71.35C245.84 69.5 247.66 68.34 249.51 68.76C251.36 69.18 252.52 71.01 252.1 72.86C250.48 80.04 244.08 84.93 237 84.93Z" fill="#28AA8C"/>
<path d="M38.1293 124.28L31.6193 115.34C31.3993 115.02 31.2393 114.64 31.2393 114.18C31.2393 113.29 31.9693 112.58 32.9193 112.58C33.6493 112.58 34.1393 112.98 34.5393 113.57L39.8093 121.16L45.1593 113.54C45.5693 112.94 46.0493 112.54 46.7593 112.54C47.7293 112.54 48.3793 113.27 48.3793 114.16C48.3793 114.62 48.1693 115.02 47.9193 115.35L41.4593 124.18V130.1C41.4593 131.02 40.7293 131.75 39.7893 131.75C38.8693 131.75 38.1393 131.02 38.1393 130.1V124.28H38.1293Z" fill="#575756"/>
<path d="M48.04 124.58V124.53C48.04 120.45 51.28 117.07 55.66 117.07C60.04 117.07 63.25 120.39 63.25 124.47V124.52C63.25 128.57 60 131.95 55.6 131.95C51.25 131.95 48.04 128.63 48.04 124.58ZM59.98 124.58V124.53C59.98 122.02 58.17 119.94 55.6 119.94C52.98 119.94 51.31 121.99 51.31 124.48V124.53C51.31 127.02 53.12 129.1 55.66 129.1C58.31 129.09 59.98 127.03 59.98 124.58Z" fill="#575756"/>
<path d="M78.9697 130.14C78.9697 131.03 78.2396 131.76 77.3196 131.76C76.4296 131.76 75.6696 131.06 75.6696 130.14V129.41C74.7496 130.76 73.4297 131.92 71.2197 131.92C67.9997 131.92 66.1396 129.76 66.1396 126.44V118.85C66.1396 117.93 66.8697 117.2 67.7597 117.2C68.6797 117.2 69.4097 117.93 69.4097 118.85V125.47C69.4097 127.69 70.5196 128.93 72.4596 128.93C74.3496 128.93 75.6696 127.63 75.6696 125.42V118.85C75.6696 117.93 76.3996 117.2 77.3196 117.2C78.2096 117.2 78.9697 117.93 78.9697 118.85V130.14Z" fill="#575756"/>
<path d="M82.7698 118.85C82.7698 117.93 83.4698 117.2 84.3898 117.2C85.3098 117.2 86.0398 117.93 86.0398 118.85V120.31C86.7998 118.53 88.1998 117.18 89.6298 117.18C90.6598 117.18 91.2498 117.85 91.2498 118.8C91.2498 119.66 90.6798 120.24 89.9498 120.37C87.6198 120.77 86.0298 122.56 86.0298 125.93V130.15C86.0298 131.04 85.2998 131.77 84.3798 131.77C83.4898 131.77 82.7598 131.07 82.7598 130.15V118.85H82.7698Z" fill="#575756"/>
<path d="M101.02 122.23V122.18C101.02 116.81 105.05 112.4 110.77 112.4C113.69 112.4 115.61 113.26 117.26 114.53C117.61 114.8 117.91 115.26 117.91 115.86C117.91 116.78 117.18 117.48 116.26 117.48C115.8 117.48 115.47 117.32 115.26 117.15C113.96 116.1 112.56 115.45 110.75 115.45C107.16 115.45 104.51 118.42 104.51 122.12V122.17C104.51 125.87 107.13 128.87 110.75 128.87C112.75 128.87 114.1 128.22 115.48 127.06C115.72 126.85 116.08 126.68 116.48 126.68C117.32 126.68 118.05 127.39 118.05 128.22C118.05 128.73 117.81 129.14 117.51 129.41C115.73 130.98 113.7 131.95 110.65 131.95C105.13 131.95 101.02 127.66 101.02 122.23Z" fill="#575756"/>
<path d="M120.09 124.58V124.53C120.09 120.45 123.33 117.07 127.71 117.07C132.09 117.07 135.3 120.39 135.3 124.47V124.52C135.3 128.57 132.05 131.95 127.65 131.95C123.3 131.95 120.09 128.63 120.09 124.58ZM132.03 124.58V124.53C132.03 122.02 130.22 119.94 127.65 119.94C125.03 119.94 123.36 121.99 123.36 124.48V124.53C123.36 127.02 125.17 129.1 127.71 129.1C130.36 129.09 132.03 127.03 132.03 124.58Z" fill="#575756"/>
<path d="M138.35 118.85C138.35 117.93 139.05 117.2 139.97 117.2C140.89 117.2 141.62 117.93 141.62 118.85V119.53C142.54 118.26 143.78 117.07 145.97 117.07C148.02 117.07 149.48 118.06 150.24 119.58C151.38 118.06 152.89 117.07 155.05 117.07C158.16 117.07 160.05 119.04 160.05 122.52V130.14C160.05 131.06 159.35 131.76 158.43 131.76C157.51 131.76 156.78 131.06 156.78 130.14V123.52C156.78 121.25 155.73 120.03 153.89 120.03C152.11 120.03 150.84 121.28 150.84 123.57V130.14C150.84 131.06 150.11 131.76 149.22 131.76C148.3 131.76 147.57 131.06 147.57 130.14V123.49C147.57 121.28 146.49 120.03 144.68 120.03C142.87 120.03 141.62 121.38 141.62 123.57V130.14C141.62 131.06 140.89 131.76 139.97 131.76C139.08 131.76 138.35 131.06 138.35 130.14V118.85Z" fill="#575756"/>
<path d="M163.729 118.85C163.729 117.93 164.43 117.2 165.35 117.2C166.27 117.2 166.999 117.93 166.999 118.85V119.53C167.919 118.26 169.16 117.07 171.35 117.07C173.4 117.07 174.859 118.06 175.619 119.58C176.749 118.06 178.259 117.07 180.429 117.07C183.539 117.07 185.429 119.04 185.429 122.52V130.14C185.429 131.06 184.719 131.76 183.809 131.76C182.889 131.76 182.16 131.06 182.16 130.14V123.52C182.16 121.25 181.11 120.03 179.27 120.03C177.49 120.03 176.21 121.28 176.21 123.57V130.14C176.21 131.06 175.479 131.76 174.589 131.76C173.669 131.76 172.939 131.06 172.939 130.14V123.49C172.939 121.28 171.859 120.03 170.049 120.03C168.239 120.03 166.999 121.38 166.999 123.57V130.14C166.999 131.06 166.27 131.76 165.35 131.76C164.46 131.76 163.729 131.06 163.729 130.14V118.85Z" fill="#575756"/>
<path d="M201.779 130.14C201.779 131.03 201.049 131.76 200.129 131.76C199.239 131.76 198.479 131.06 198.479 130.14V129.41C197.559 130.76 196.239 131.92 194.019 131.92C190.799 131.92 188.939 129.76 188.939 126.44V118.85C188.939 117.93 189.669 117.2 190.559 117.2C191.479 117.2 192.209 117.93 192.209 118.85V125.47C192.209 127.69 193.319 128.93 195.259 128.93C197.149 128.93 198.479 127.63 198.479 125.42V118.85C198.479 117.93 199.209 117.2 200.129 117.2C201.019 117.2 201.779 117.93 201.779 118.85V130.14Z" fill="#575756"/>
<path d="M205.59 118.85C205.59 117.93 206.29 117.2 207.21 117.2C208.13 117.2 208.86 117.93 208.86 118.85V119.56C209.78 118.23 211.11 117.07 213.32 117.07C216.54 117.07 218.4 119.23 218.4 122.52V130.14C218.4 131.06 217.7 131.76 216.78 131.76C215.86 131.76 215.13 131.06 215.13 130.14V123.52C215.13 121.3 214.02 120.03 212.08 120.03C210.19 120.03 208.86 121.35 208.86 123.57V130.14C208.86 131.06 208.13 131.76 207.21 131.76C206.32 131.76 205.59 131.06 205.59 130.14V118.85Z" fill="#575756"/>
<path d="M222.01 113.53C222.01 112.56 222.82 111.93 223.87 111.93C224.92 111.93 225.73 112.56 225.73 113.53V113.69C225.73 114.66 224.92 115.31 223.87 115.31C222.82 115.31 222.01 114.66 222.01 113.69V113.53ZM222.25 118.85C222.25 117.93 222.95 117.2 223.87 117.2C224.79 117.2 225.52 117.93 225.52 118.85V130.15C225.52 131.07 224.79 131.77 223.87 131.77C222.98 131.77 222.25 131.07 222.25 130.15V118.85Z" fill="#575756"/>
<path d="M228.729 124.58V124.53C228.729 120.48 231.87 117.07 236.16 117.07C238.4 117.07 239.94 117.8 241.16 118.85C241.38 119.04 241.679 119.45 241.679 119.99C241.679 120.83 240.999 121.48 240.169 121.48C239.759 121.48 239.409 121.32 239.199 121.16C238.359 120.45 237.439 119.94 236.139 119.94C233.759 119.94 232.009 121.99 232.009 124.48V124.53C232.009 127.07 233.759 129.1 236.279 129.1C237.579 129.1 238.579 128.58 239.469 127.83C239.659 127.67 239.979 127.48 240.359 127.48C241.139 127.48 241.759 128.13 241.759 128.91C241.759 129.34 241.599 129.69 241.299 129.93C240.029 131.15 238.489 131.96 236.109 131.96C231.869 131.95 228.729 128.63 228.729 124.58Z" fill="#575756"/>
<path d="M243.72 127.52V127.47C243.72 124.39 246.13 122.88 249.61 122.88C251.21 122.88 252.34 123.12 253.45 123.47V123.12C253.45 121.09 252.21 120.01 249.91 120.01C248.67 120.01 247.64 120.23 246.75 120.58C246.56 120.64 246.4 120.66 246.24 120.66C245.48 120.66 244.86 120.07 244.86 119.31C244.86 118.72 245.26 118.2 245.75 118.01C247.1 117.5 248.48 117.17 250.34 117.17C252.47 117.17 254.07 117.74 255.07 118.76C256.13 119.79 256.61 121.3 256.61 123.16V130.19C256.61 131.08 255.91 131.76 255.02 131.76C254.07 131.76 253.42 131.11 253.42 130.38V129.84C252.45 131 250.96 131.92 248.77 131.92C246.1 131.93 243.72 130.39 243.72 127.52ZM253.5 126.49V125.52C252.66 125.2 251.56 124.95 250.26 124.95C248.15 124.95 246.91 125.84 246.91 127.33V127.38C246.91 128.75 248.12 129.54 249.69 129.54C251.85 129.55 253.5 128.3 253.5 126.49Z" fill="#575756"/>
<path d="M260.79 127.68V120.17H260.25C259.47 120.17 258.85 119.55 258.85 118.76C258.85 117.97 259.47 117.35 260.25 117.35H260.79V114.92C260.79 114.03 261.52 113.3 262.44 113.3C263.33 113.3 264.06 114.03 264.06 114.92V117.35H266.63C267.42 117.35 268.06 117.97 268.06 118.76C268.06 119.55 267.41 120.17 266.63 120.17H264.06V127.17C264.06 128.44 264.71 128.95 265.81 128.95C266.19 128.95 266.52 128.87 266.62 128.87C267.35 128.87 268 129.46 268 130.22C268 130.81 267.59 131.3 267.14 131.49C266.43 131.73 265.76 131.87 264.89 131.87C262.49 131.87 260.79 130.82 260.79 127.68Z" fill="#575756"/>
<path d="M270.88 113.53C270.88 112.56 271.69 111.93 272.74 111.93C273.79 111.93 274.6 112.56 274.6 113.53V113.69C274.6 114.66 273.79 115.31 272.74 115.31C271.69 115.31 270.88 114.66 270.88 113.69V113.53ZM271.13 118.85C271.13 117.93 271.83 117.2 272.75 117.2C273.67 117.2 274.4 117.93 274.4 118.85V130.15C274.4 131.07 273.67 131.77 272.75 131.77C271.86 131.77 271.13 131.07 271.13 130.15V118.85Z" fill="#575756"/>
<path d="M277.609 124.58V124.53C277.609 120.45 280.859 117.07 285.229 117.07C289.609 117.07 292.819 120.39 292.819 124.47V124.52C292.819 128.57 289.579 131.95 285.179 131.95C280.819 131.95 277.609 128.63 277.609 124.58ZM289.549 124.58V124.53C289.549 122.02 287.739 119.94 285.169 119.94C282.549 119.94 280.879 121.99 280.879 124.48V124.53C280.879 127.02 282.689 129.1 285.229 129.1C287.879 129.09 289.549 127.03 289.549 124.58Z" fill="#575756"/>
<path d="M295.87 118.85C295.87 117.93 296.57 117.2 297.49 117.2C298.41 117.2 299.14 117.93 299.14 118.85V119.56C300.06 118.23 301.39 117.07 303.6 117.07C306.82 117.07 308.68 119.23 308.68 122.52V130.14C308.68 131.06 307.98 131.76 307.06 131.76C306.14 131.76 305.41 131.06 305.41 130.14V123.52C305.41 121.3 304.3 120.03 302.36 120.03C300.47 120.03 299.14 121.35 299.14 123.57V130.14C299.14 131.06 298.41 131.76 297.49 131.76C296.6 131.76 295.87 131.06 295.87 130.14V118.85Z" fill="#575756"/>
<path d="M319.71 122.23V122.18C319.71 116.81 323.74 112.4 329.46 112.4C332.38 112.4 334.3 113.26 335.95 114.53C336.3 114.8 336.6 115.26 336.6 115.86C336.6 116.78 335.87 117.48 334.95 117.48C334.49 117.48 334.16 117.32 333.95 117.15C332.65 116.1 331.25 115.45 329.44 115.45C325.85 115.45 323.2 118.42 323.2 122.12V122.17C323.2 125.87 325.82 128.87 329.44 128.87C331.44 128.87 332.79 128.22 334.17 127.06C334.41 126.85 334.77 126.68 335.17 126.68C336.01 126.68 336.74 127.39 336.74 128.22C336.74 128.73 336.5 129.14 336.2 129.41C334.42 130.98 332.39 131.95 329.34 131.95C323.81 131.95 319.71 127.66 319.71 122.23Z" fill="#575756"/>
<path d="M338.77 124.58V124.53C338.77 120.45 342.02 117.07 346.39 117.07C350.77 117.07 353.98 120.39 353.98 124.47V124.52C353.98 128.57 350.74 131.95 346.34 131.95C341.99 131.95 338.77 128.63 338.77 124.58ZM350.72 124.58V124.53C350.72 122.02 348.91 119.94 346.34 119.94C343.72 119.94 342.05 121.99 342.05 124.48V124.53C342.05 127.02 343.86 129.1 346.4 129.1C349.04 129.09 350.72 127.03 350.72 124.58Z" fill="#575756"/>
<path d="M371.05 130.15C371.05 131.06 370.32 131.77 369.43 131.77C368.51 131.77 367.78 131.07 367.78 130.15V129.26C366.73 130.75 365.24 131.93 362.92 131.93C359.57 131.93 356.3 129.26 356.3 124.53V124.48C356.3 119.75 359.52 117.08 362.92 117.08C365.27 117.08 366.75 118.24 367.78 119.59V113.41C367.78 112.49 368.51 111.79 369.4 111.79C370.32 111.79 371.05 112.5 371.05 113.41V130.15ZM359.6 124.47V124.52C359.6 127.27 361.49 129.08 363.71 129.08C365.9 129.08 367.85 127.25 367.85 124.52V124.47C367.85 121.72 365.91 119.9 363.71 119.9C361.46 119.9 359.6 121.63 359.6 124.47Z" fill="#575756"/>
<path d="M381.42 131.95C377.28 131.95 374.09 128.95 374.09 124.54V124.49C374.09 120.41 376.98 117.06 381.06 117.06C385.6 117.06 387.84 120.79 387.84 124.08C387.84 125 387.14 125.65 386.3 125.65H377.35C377.7 127.97 379.35 129.27 381.46 129.27C382.84 129.27 383.92 128.78 384.84 128.02C385.08 127.83 385.3 127.72 385.68 127.72C386.41 127.72 386.98 128.29 386.98 129.05C386.98 129.45 386.79 129.81 386.55 130.05C385.26 131.22 383.63 131.95 381.42 131.95ZM384.66 123.5C384.44 121.39 383.2 119.75 381.04 119.75C379.04 119.75 377.63 121.29 377.34 123.5H384.66Z" fill="#575756"/>
</svg>
