<?xml version="1.0" encoding="UTF-8" standalone="no"?>
<!DOCTYPE svg PUBLIC "-//W3C//DTD SVG 1.1//EN" "http://www.w3.org/Graphics/SVG/1.1/DTD/svg11.dtd">
<svg xmlns="http://www.w3.org/2000/svg" version="1.1" viewBox="0.00 0.00 143.00 142.00">
<g stroke-width="2.00" fill="none" stroke-linecap="butt">
<path stroke="#316fa6" vector-effect="non-scaling-stroke" d="
  M 59.43 43.89
  L 45.34 52.05
  A 0.53 0.53 0.0 0 0 45.34 52.97
  L 59.41 61.04"
/>
<path stroke="#5a2277" vector-effect="non-scaling-stroke" d="
  M 59.40 78.21
  L 44.48 69.63"
/>
<path stroke="#48227e" vector-effect="non-scaling-stroke" d="
  M 44.51 35.33
  L 44.49 52.41"
/>
<path stroke="#48227e" vector-effect="non-scaling-stroke" d="
  M 29.63 43.89
  L 29.27 26.98"
/>
<path stroke="#379bd8" vector-effect="non-scaling-stroke" d="
  M 103.95 52.01
  L 89.13 43.87"
/>
</g>
<path fill="#1e1656" d="
  M 59.42 26.76
  L 59.39 10.09
  A 0.89 0.86 75.3 0 1 59.82 9.33
  L 73.80 1.24
  A 0.34 0.34 0.0 0 1 74.31 1.54
  L 74.27 17.62
  A 1.01 1.00 75.0 0 1 73.77 18.49
  L 59.42 26.76
  Z"
/>
<path fill="#722ea5" d="
  M 44.51 35.33
  L 44.49 52.41
  L 29.63 43.89
  L 29.27 26.98
  Q 29.44 26.64 29.75 26.81
  Q 35.21 29.78 44.51 35.33
  Z"
/>
<path fill="#1e1656" d="
  M 59.42 26.76
  L 59.43 43.89
  L 45.34 52.05
  A 0.53 0.53 0.0 0 0 45.34 52.97
  L 59.41 61.04
  L 59.40 78.21
  L 44.48 69.63
  L 44.49 52.41
  L 44.51 35.33
  L 59.42 26.76
  Z"
/>
<path fill="#2a6ebb" d="
  M 103.95 52.01
  L 89.13 43.87
  L 89.07 27.26
  Q 89.07 26.71 89.55 26.99
  L 103.48 35.02
  Q 103.93 35.28 103.93 35.81
  L 103.95 52.01
  Z"
/>
<path fill="#1e1656" d="
  M 29.27 26.98
  L 29.63 43.89
  L 15.37 52.14
  Q 14.83 52.46 14.83 51.83
  L 14.83 35.94
  Q 14.83 35.29 15.39 34.96
  L 29.27 26.98
  Z"
/>
<path fill="#44c8f5" d="
  M 59.43 43.89
  L 73.54 52.00
  A 0.53 0.52 45.2 0 1 73.54 52.91
  L 59.41 61.04
  L 45.34 52.97
  A 0.53 0.53 0.0 0 1 45.34 52.05
  L 59.43 43.89
  Z"
/>
<path fill="#44c8f5" d="
  M 89.13 43.87
  L 103.95 52.01
  Q 103.98 52.18 103.88 52.38
  Q 103.80 52.53 103.61 52.64
  Q 96.49 56.76 89.50 60.82
  A 0.78 0.77 44.3 0 1 88.73 60.82
  L 74.80 52.76
  A 0.38 0.38 0.0 0 1 74.80 52.10
  L 89.13 43.87
  Z"
/>
<path fill="#952d98" d="
  M 29.23 78.46
  L 15.03 86.66
  A 0.33 0.33 0.0 0 1 14.69 86.66
  L 0.50 78.46
  A 0.33 0.33 0.0 0 1 0.50 77.88
  L 14.69 69.70
  A 0.33 0.33 0.0 0 1 15.01 69.70
  L 29.23 77.88
  A 0.33 0.33 0.0 0 1 29.23 78.46
  Z"
/>
<path fill="#952d98" d="
  M 44.48 69.63
  L 59.40 78.21
  L 44.99 86.46
  Q 44.52 86.73 44.04 86.46
  L 30.11 78.40
  Q 29.63 78.12 30.12 77.85
  L 44.48 69.63
  Z"
/>
<path fill="#808285" d="
  M 120.25 112.24
  L 138.48 112.24
  Q 138.97 112.24 138.97 112.73
  L 138.97 120.25
  A 0.45 0.45 0.0 0 1 138.52 120.70
  Q 120.73 120.68 105.15 120.71
  C 101.89 120.71 99.52 120.83 97.31 118.25
  Q 96.94 117.81 96.53 118.21
  Q 94.01 120.70 90.90 120.70
  Q 63.13 120.68 39.95 120.71
  A 0.48 0.48 0.0 0 1 39.54 119.98
  L 43.94 112.71
  Q 44.22 112.23 44.78 112.23
  L 58.98 112.24
  Q 59.46 112.24 59.46 111.77
  L 59.44 90.44
  A 0.68 0.68 0.0 0 1 60.13 89.76
  Q 68.01 89.85 78.42 89.73
  C 83.49 89.68 87.99 92.50 87.87 98.04
  Q 87.71 105.35 87.81 112.05
  Q 87.82 112.24 88.00 112.24
  L 95.01 112.24
  A 0.25 0.24 90.0 0 0 95.25 111.99
  L 95.24 79.57
  A 0.86 0.84 -15.7 0 1 95.66 78.84
  L 102.92 74.48
  A 0.53 0.53 0.0 0 1 103.72 74.93
  L 103.70 111.97
  A 0.27 0.27 0.0 0 0 103.97 112.24
  L 110.77 112.24
  Q 111.03 112.24 111.03 111.99
  Q 111.18 106.51 110.97 100.79
  Q 110.81 96.48 111.92 94.28
  C 113.62 90.90 116.99 89.71 120.69 89.75
  Q 129.51 89.84 138.16 89.74
  A 1.03 1.02 15.2 0 1 139.05 91.29
  L 135.36 97.52
  Q 134.84 98.40 133.81 98.40
  L 121.86 98.39
  Q 119.61 98.39 119.62 100.64
  L 119.63 111.62
  Q 119.63 112.24 120.25 112.24
  Z
  M 67.87 109.80
  Q 67.87 112.24 70.30 112.24
  L 78.99 112.24
  A 0.48 0.47 -90.0 0 0 79.46 111.76
  L 79.46 100.30
  A 1.91 1.90 0.0 0 0 77.55 98.40
  L 68.48 98.40
  Q 67.87 98.40 67.87 99.02
  L 67.87 109.80
  Z"
/>
<path fill="#808285" d="
  M 109.36 129.43
  L 109.33 131.62
  A 0.45 0.45 0.0 0 0 109.79 132.07
  L 114.47 132.01
  A 0.45 0.45 0.0 0 1 114.93 132.43
  L 115.05 134.18
  A 0.45 0.45 0.0 0 1 114.60 134.66
  L 109.75 134.71
  A 0.45 0.45 0.0 0 0 109.31 135.15
  L 109.29 137.35
  A 0.45 0.45 0.0 0 0 109.74 137.80
  L 115.53 137.83
  A 0.45 0.45 0.0 0 1 115.98 138.29
  L 115.94 139.58
  A 0.45 0.45 0.0 0 1 115.49 140.02
  L 106.77 139.95
  A 0.45 0.45 0.0 0 1 106.32 139.50
  L 106.30 126.75
  A 0.45 0.45 0.0 0 1 106.75 126.30
  L 115.60 126.30
  A 0.45 0.45 0.0 0 1 116.05 126.79
  L 115.90 128.60
  A 0.45 0.45 0.0 0 1 115.45 129.02
  L 109.81 128.98
  A 0.45 0.45 0.0 0 0 109.36 129.43
  Z"
/>
<path fill="#808285" d="
  M 121.51 138.00
  L 122.19 138.30
  Q 122.58 138.47 122.67 138.88
  Q 122.77 139.28 122.52 139.61
  Q 122.21 140.00 121.72 139.99
  L 119.48 139.95
  A 1.47 1.47 0.0 0 1 118.03 138.48
  L 118.05 126.97
  A 0.70 0.70 0.0 0 1 118.78 126.27
  L 120.69 126.35
  Q 121.00 126.37 121.00 126.69
  L 120.91 137.07
  A 1.02 1.02 0.0 0 0 121.51 138.00
  Z"
/>
<path fill="#808285" d="
  M 133.17 131.13
  Q 136.02 129.20 138.52 131.12
  Q 138.96 131.46 138.96 132.01
  L 138.98 139.39
  Q 138.98 140.02 138.35 139.99
  L 137.22 139.94
  Q 136.53 139.90 136.55 139.22
  L 136.68 134.47
  Q 136.72 132.92 135.20 132.61
  Q 134.94 132.56 134.69 132.65
  Q 133.45 133.12 133.47 134.44
  L 133.52 139.35
  Q 133.53 139.99 132.89 139.97
  L 131.07 139.93
  Q 130.47 139.92 130.48 139.32
  L 130.53 134.32
  Q 130.55 132.68 128.91 132.62
  Q 128.63 132.61 128.37 132.79
  Q 127.29 133.54 127.32 134.86
  L 127.42 139.53
  Q 127.43 139.98 126.97 139.97
  L 125.08 139.94
  Q 124.49 139.93 124.48 139.33
  L 124.43 131.14
  Q 124.43 130.56 125.01 130.45
  Q 126.16 130.23 127.15 130.65
  A 1.54 1.52 43.3 0 0 128.41 130.62
  Q 130.64 129.54 132.26 131.06
  Q 132.69 131.46 133.17 131.13
  Z"
/>
</svg>
